%
M48
M72
T01C0.0118
T02C0.0315
T03C0.0320
T04C0.0354
T05C0.0394
T06C0.0400
T07C0.0472
T08C0.0512
T09C0.0520
T10C0.0551
T11C0.0591
T12C0.0866
T13C0.0906
T14C0.1181
T15C0.1260
T16C0.1378
%
T01
X7069Y6681
X9194Y7941
X10494Y6878
X11202Y6406
X12698Y7705
X14037Y7626
X15336Y7705
X13919Y5776
X13171Y5224
X15297Y2429
X18604Y5697
X23171Y7154
X24352Y6799
X24943Y6563
X26006Y7508
X25415Y7744
X26911Y7508
X29076Y7941
X30415Y6957
X29313Y6209
X31872Y7390
X33210Y8217
X32462Y8492
X32895Y9280
X33801Y9831
X34194Y9713
X34706Y10382
X34706Y11248
X34706Y12547
X36281Y11602
X37187Y9713
X37226Y9398
X36596Y9476
X38565Y8571
X39076Y7272
X39588Y7469
X39549Y6720
X38958Y6484
X38722Y6720
X40336Y8217
X40454Y9161
X41281Y10106
X40454Y10579
X39470Y13138
X40061Y14122
X41045Y14161
X41163Y15500
X41124Y16406
X38722Y15382
X36832Y15067
X36596Y15579
X36124Y15067
X36360Y14476
X33880Y16012
X34667Y16799
X34155Y16996
X33998Y17744
X33998Y18177
X34903Y17665
X35218Y17902
X35218Y16957
X36832Y16957
X36832Y17941
X36517Y18177
X36360Y18689
X36832Y18965
X37541Y18531
X36242Y21248
X36793Y21799
X38486Y22114
X40415Y22035
X42265Y23610
X43368Y23020
X44076Y21996
X43840Y21484
X44943Y21524
X45297Y21524
X46557Y21760
X45415Y22783
X45769Y23768
X45651Y24476
X46163Y25500
X46478Y25972
X46360Y26445
X46478Y27469
X46124Y27469
X45415Y27547
X44352Y26445
X44352Y25972
X44116Y25736
X44116Y25224
X44352Y24280
X47541Y25264
X49588Y24791
X49824Y24004
X52147Y24791
X52383Y24319
X52856Y24949
X53683Y23768
X55651Y23689
X55494Y24594
X55454Y25146
X55139Y25185
X54509Y25421
X54509Y26563
X55376Y26720
X57029Y26091
X58486Y26957
X57895Y28807
X57029Y28807
X55454Y29673
X54509Y29909
X54273Y29673
X53171Y30736
X52383Y29909
X50533Y30736
X51635Y31878
X52856Y31878
X54234Y31957
X54509Y32193
X55139Y32744
X54785Y33098
X53171Y33965
X53683Y34122
X52383Y33098
X52620Y35539
X56557Y33531
X56360Y32311
X57265Y32350
X57029Y30461
X49824Y28768
X49785Y27350
X49588Y26957
X49824Y25972
X50297Y25736
X45218Y28807
X45887Y29594
X44943Y29870
X45887Y31130
X44943Y31445
X46478Y32744
X45651Y34476
X44706Y35382
X45179Y36445
X40454Y35382
X39982Y33335
X37187Y33295
X36714Y32508
X35966Y32941
X35021Y32350
X36045Y31917
X33880Y31406
X33525Y31681
X32659Y31169
X31714Y31406
X32187Y31681
X30730Y32114
X32738Y32862
X33840Y34240
X31281Y35421
X29234Y35736
X28525Y35972
X34943Y37783
X33407Y30343
X32738Y29319
X33250Y28846
X32029Y28965
X31911Y28138
X33880Y27193
X32895Y26563
X32856Y25894
X31360Y25146
X31006Y25500
X32856Y24673
X33092Y24437
X33013Y23768
X33761Y23374
X30218Y22862
X28919Y23886
X27580Y23335
X26320Y22665
X25966Y22665
X25533Y24358
X26557Y24870
X26320Y25421
X26084Y25736
X25769Y25894
X26557Y26130
X27580Y26406
X27580Y26760
X28053Y25894
X28525Y25618
X28880Y25736
X28761Y26209
X29273Y25146
X28053Y24909
X24116Y24909
X23880Y24673
X24037Y25933
X21045Y25657
X26557Y28650
X26320Y29516
X24903Y29909
X27580Y28689
X28722Y29949
X29470Y29555
X29706Y28217
X31793Y30343
X38131Y29319
X43565Y26760
X43604Y26445
X37383Y24122
X32305Y20382
X32856Y18728
X32777Y18413
X32462Y18138
X32383Y17823
X32856Y17744
X32856Y17429
X32147Y17075
X32383Y16366
X31754Y15736
X31124Y16366
X30336Y16091
X29155Y17154
X28604Y16760
X28407Y17035
X26990Y16524
X27226Y15815
X27423Y14949
X28092Y14201
X28328Y13610
X28761Y14476
X28801Y14988
X30179Y14949
X31950Y14476
X32541Y14713
X30139Y17429
X31202Y17823
X32147Y18453
X28919Y19358
X26872Y19909
X25572Y19437
X25061Y17823
X25061Y16287
X25061Y15776
X24706Y15264
X24588Y14713
X25454Y13610
X25966Y11642
X27620Y11051
X27383Y10185
X28565Y9516
X26675Y9201
X26675Y8846
X24037Y8453
X17856Y11287
X17620Y12350
X17817Y12902
X16084Y13846
X16045Y14161
X14391Y13295
X14391Y11760
X14391Y11406
X16045Y11406
X16281Y11169
X16045Y11760
X11084Y12232
X7187Y11996
X5730Y12311
X5376Y11563
X4234Y13689
X4903Y15972
X14076Y17980
X14313Y22390
X14549Y22941
X14313Y23177
X12305Y23020
X12069Y22705
X12069Y23571
X10651Y22902
X9746Y23020
X9470Y22783
X9509Y22469
X10651Y24555
X12305Y25972
X14313Y25894
X14549Y24594
X12344Y28335
X17659Y31327
X18053Y32587
X21872Y17350
X24431Y16051
X21478Y14358
X30730Y11484
X31084Y10382
X34746Y8098
X34746Y7744
X33446Y6681
X33643Y6169
X33643Y5303
X31872Y4949
X31911Y4634
X26911Y4634
X38289Y1051
X43407Y2232
X44273Y4161
X47069Y5736
X47777Y5776
X47226Y7508
X47265Y7823
X46911Y7469
X46124Y7469
X45139Y7705
X44903Y7350
X45139Y6681
X45139Y8217
X42777Y7980
X48171Y8256
X48761Y7390
X51911Y7980
X52698Y7587
X54706Y6406
X57147Y8492
X54509Y9713
X52974Y9713
X52541Y10028
X51439Y11563
X50454Y11209
X50100Y11209
X49628Y10736
X48722Y11287
X50415Y12547
X50415Y13650
X52147Y12508
X52462Y12941
X52935Y12744
X53328Y12508
X53565Y13059
X54746Y13650
X50691Y16720
X50257Y17114
X50100Y16484
X51281Y17114
X50533Y18531
X51399Y19319
X52580Y19319
X53171Y18531
X54785Y19555
X54391Y20697
X54943Y21720
X55218Y22193
X56557Y21327
X58171Y20146
X58250Y22429
X51950Y22193
X51360Y21957
X51399Y21051
X50376Y19909
X54746Y17272
X56517Y16996
X44706Y18610
X43525Y12862
X48368Y3295
X57383Y2272
X57935Y3177
T02
X18895Y16933
X18895Y17933
X18895Y18933
X18876Y21882
X18876Y22882
X18876Y23882
X19643Y32965
X18643Y33965
X17643Y32965
X17643Y34965
X17643Y36508
X18643Y37508
X19643Y36508
X19643Y34965
X19643Y38508
X17643Y38508
X25943Y35445
X25943Y34445
X25943Y33445
X33214Y34004
X33214Y34634
X33214Y35264
X35680Y35299
X35680Y34669
X35680Y34039
X48486Y36350
X48486Y37350
X48486Y38350
X50399Y38665
X51399Y37665
X52399Y38665
X52399Y36665
X50399Y36665
X55257Y36350
X55257Y37350
X55257Y38350
X57171Y38665
X58171Y37665
X59171Y38665
X59171Y36665
X57171Y36665
X8805Y13717
X8175Y13717
X7545Y13717
X5966Y13728
X5336Y13728
X4706Y13728
X1714Y15736
X1714Y16642
X1714Y17547
X1713Y18735
X1713Y19640
X1713Y20546
T03
X4789Y8156
X4789Y7156
X7153Y7216
X7153Y8216
T04
X6915Y17114
X6128Y17114
X5143Y17114
X7899Y17114
X12045Y17157
X13029Y17157
X13817Y17157
X14801Y17157
T05
X11361Y13552
X11342Y11332
X20342Y11332
X20361Y13552
X13214Y22224
X13214Y23224
X13214Y24224
X13214Y25224
X13214Y26224
X6214Y26224
X6214Y25224
X6214Y24224
X6214Y23224
X6214Y22224
X6214Y31224
X6214Y34224
X13214Y34224
X13214Y31224
T06
X22151Y27799
X23151Y27799
X23151Y26799
X22151Y26799
X22151Y25799
X23151Y25799
X23151Y24799
X22151Y24799
X22151Y23799
X23151Y23799
X23151Y22799
X22151Y22799
X22151Y21799
X23151Y21799
X23151Y20799
X22151Y20799
X22151Y19799
X23151Y19799
X23151Y18799
X22151Y18799
X22151Y17799
X23151Y17799
X23151Y16799
X22151Y16799
X22151Y15799
X23151Y15799
X23151Y14799
X22151Y14799
X22151Y13799
X23151Y13799
X23151Y12799
X22151Y12799
X22151Y11799
X23151Y11799
X23151Y10799
X22151Y10799
X22151Y9799
X23151Y9799
X23151Y8799
X22151Y8799
X25274Y2793
X26974Y2793
X30785Y2793
X32485Y2793
X38061Y8799
X39061Y8799
X39061Y9799
X38061Y9799
X38061Y10799
X39061Y10799
X39061Y11799
X38061Y11799
X38061Y12799
X39061Y12799
X39061Y13799
X38061Y13799
X38061Y14799
X39061Y14799
X39061Y15799
X38061Y15799
X38061Y16799
X39061Y16799
X39061Y17799
X38061Y17799
X38061Y18799
X39061Y18799
X39061Y19799
X38061Y19799
X38061Y20799
X39061Y20799
X39061Y21799
X38061Y21799
X38061Y22799
X39061Y22799
X39061Y23799
X38061Y23799
X38061Y24799
X39061Y24799
X39061Y25799
X38061Y25799
X38061Y26799
X39061Y26799
X39061Y27799
X38061Y27799
X41839Y27954
X42839Y27954
X42839Y26954
X41839Y26954
X41839Y25954
X42839Y25954
X42839Y24954
X41839Y24954
X41839Y23954
X42839Y23954
X42839Y22954
X41839Y22954
X41839Y21954
X42839Y21954
X42839Y20954
X41839Y20954
X41839Y19954
X42839Y19954
X42839Y18954
X41839Y18954
X41839Y17954
X42839Y17954
X42839Y16954
X41839Y16954
X41839Y15954
X42839Y15954
X42839Y14954
X41839Y14954
X41839Y13954
X42839Y13954
X42839Y12954
X41839Y12954
X61482Y24276
X61482Y25276
X61482Y26276
X61482Y27276
X61482Y28276
X42839Y28954
X41839Y28954
X41839Y29954
X42839Y29954
X42839Y30954
X41839Y30954
X41839Y31954
X42840Y31949
X31462Y37661
X30462Y37661
X29462Y37661
X28462Y37661
X27462Y37661
X26462Y37661
X25462Y37661
X25462Y38661
X26462Y38661
X27462Y38661
X28462Y38661
X29462Y38661
X30462Y38661
X31462Y38661
X30454Y34996
X29454Y34996
X29454Y33996
X30454Y33996
T07
X33443Y37443
X34443Y37443
X35443Y37443
X37928Y37408
X38928Y37408
X39928Y37408
X42750Y37408
X43750Y37408
X44750Y37408
X45750Y37408
X39943Y34358
X38943Y34358
X37943Y34358
X19037Y30815
X18037Y30815
X18037Y27272
X19037Y27272
X2305Y13811
X2305Y12811
X2305Y11811
X2305Y10811
X2305Y8102
X2305Y7102
X2305Y6102
X2305Y5102
X21313Y1945
X22313Y1945
T08
X55143Y5209
T09
X48143Y2429
X37285Y1287
X36285Y1287
X35285Y1287
X31167Y12398
X31139Y13957
X29754Y22417
X21120Y33531
X21120Y34531
X21120Y35531
X21120Y36531
X21120Y37531
X56029Y30665
X57620Y25697
X57620Y24122
X61793Y22154
X61793Y20972
X61793Y19791
X55978Y18516
X57545Y13583
X57545Y11933
X6139Y10000
X4639Y10000
T10
X5020Y38163
X8020Y38163
X12214Y38137
X15214Y38137
T11
X15258Y8800
X12993Y8800
X9243Y8800
X19008Y8800
X19008Y1300
X17758Y1300
X16508Y1300
X15258Y1300
X12993Y1300
X11743Y1300
X10493Y1300
X9243Y1300
T12
X9757Y21236
X16757Y21236
X10458Y35213
X3458Y35213
T13
X3943Y18177
X9100Y18177
X10844Y18220
X16002Y18220
T14
X5706Y5551
X7557Y4370
X5706Y3228
T15
X2139Y2500
X2139Y37870
X61131Y37870
X61131Y2500
T16
X61631Y11031
X42340Y11031
X39002Y5370
X22072Y5370
X22072Y30567
X39002Y30567
X42340Y33866
X61631Y33866
M30
