G75*
%MOIN*%
%OFA0B0*%
%FSLAX24Y24*%
%IPPOS*%
%LPD*%
%AMOC8*
5,1,8,0,0,1.08239X$1,22.5*
%
%ADD10OC8,0.0660*%
%ADD11C,0.1500*%
%ADD12C,0.1000*%
%ADD13C,0.0660*%
%ADD14OC8,0.0600*%
%ADD15OC8,0.0850*%
%ADD16R,0.0551X0.0177*%
%ADD17R,0.0512X0.0591*%
%ADD18R,0.0591X0.0512*%
%ADD19R,0.0200X0.1000*%
%ADD20R,0.0787X0.1100*%
%ADD21R,0.0236X0.0610*%
%ADD22R,0.0433X0.0512*%
%ADD23R,0.0600X0.0600*%
%ADD24C,0.0600*%
%ADD25C,0.0472*%
%ADD26R,0.0236X0.0638*%
%ADD27C,0.0512*%
%ADD28OC8,0.0630*%
%ADD29C,0.0630*%
%ADD30C,0.0760*%
%ADD31C,0.1890*%
%ADD32C,0.0531*%
%ADD33R,0.0500X0.1000*%
%ADD34C,0.0600*%
%ADD35R,0.0315X0.0315*%
%ADD36R,0.0550X0.0137*%
%ADD37C,0.0050*%
%ADD38C,0.0236*%
%ADD39C,0.0100*%
D10*
X006214Y022224D03*
X006214Y023224D03*
X006214Y024224D03*
X006214Y025224D03*
X006214Y026224D03*
X013214Y026224D03*
X013214Y025224D03*
X013214Y024224D03*
X013214Y023224D03*
X013214Y022224D03*
X013214Y031224D03*
X013214Y034224D03*
X006214Y034224D03*
X006214Y031224D03*
D11*
X003458Y035213D03*
X010458Y035213D03*
X009757Y021236D03*
X009100Y018177D03*
X010844Y018220D03*
X016002Y018220D03*
X016757Y021236D03*
X003943Y018177D03*
D12*
X009243Y008800D03*
X012993Y008800D03*
X015258Y008800D03*
X019008Y008800D03*
X019008Y001300D03*
X017758Y001300D03*
X016508Y001300D03*
X015258Y001300D03*
X012993Y001300D03*
X011743Y001300D03*
X010493Y001300D03*
X009243Y001300D03*
X008020Y038163D03*
X005020Y038163D03*
X012214Y038137D03*
X015214Y038137D03*
D13*
X011361Y013552D03*
X011342Y011332D03*
X020342Y011332D03*
X020361Y013552D03*
D14*
X022151Y013799D03*
X023151Y013799D03*
X023151Y014799D03*
X022151Y014799D03*
X022151Y015799D03*
X023151Y015799D03*
X023151Y016799D03*
X022151Y016799D03*
X022151Y017799D03*
X023151Y017799D03*
X023151Y018799D03*
X022151Y018799D03*
X022151Y019799D03*
X023151Y019799D03*
X023151Y020799D03*
X022151Y020799D03*
X022151Y021799D03*
X023151Y021799D03*
X023151Y022799D03*
X022151Y022799D03*
X022151Y023799D03*
X023151Y023799D03*
X023151Y024799D03*
X022151Y024799D03*
X022151Y025799D03*
X023151Y025799D03*
X023151Y026799D03*
X022151Y026799D03*
X022151Y027799D03*
X023151Y027799D03*
X029454Y033996D03*
X030454Y033996D03*
X030454Y034996D03*
X029454Y034996D03*
X029462Y037661D03*
X028462Y037661D03*
X027462Y037661D03*
X026462Y037661D03*
X025462Y037661D03*
X025462Y038661D03*
X026462Y038661D03*
X027462Y038661D03*
X028462Y038661D03*
X029462Y038661D03*
X030462Y038661D03*
X031462Y038661D03*
X031462Y037661D03*
X030462Y037661D03*
X038061Y027799D03*
X039061Y027799D03*
X039061Y026799D03*
X038061Y026799D03*
X038061Y025799D03*
X039061Y025799D03*
X039061Y024799D03*
X038061Y024799D03*
X038061Y023799D03*
X039061Y023799D03*
X039061Y022799D03*
X038061Y022799D03*
X038061Y021799D03*
X039061Y021799D03*
X039061Y020799D03*
X038061Y020799D03*
X038061Y019799D03*
X039061Y019799D03*
X039061Y018799D03*
X038061Y018799D03*
X038061Y017799D03*
X039061Y017799D03*
X039061Y016799D03*
X038061Y016799D03*
X038061Y015799D03*
X039061Y015799D03*
X039061Y014799D03*
X038061Y014799D03*
X038061Y013799D03*
X039061Y013799D03*
X039061Y012799D03*
X038061Y012799D03*
X038061Y011799D03*
X039061Y011799D03*
X039061Y010799D03*
X038061Y010799D03*
X038061Y009799D03*
X039061Y009799D03*
X039061Y008799D03*
X038061Y008799D03*
X023151Y008799D03*
X022151Y008799D03*
X022151Y009799D03*
X023151Y009799D03*
X023151Y010799D03*
X022151Y010799D03*
X022151Y011799D03*
X023151Y011799D03*
X023151Y012799D03*
X022151Y012799D03*
D15*
X031167Y012398D03*
X031139Y013957D03*
X029754Y022417D03*
X021120Y033531D03*
X021120Y034531D03*
X021120Y035531D03*
X021120Y036531D03*
X021120Y037531D03*
X056029Y030665D03*
X057620Y025697D03*
X057620Y024122D03*
X061793Y022154D03*
X061793Y020972D03*
X061793Y019791D03*
X055978Y018516D03*
X057545Y013583D03*
X057545Y011933D03*
X048143Y002429D03*
X037285Y001287D03*
X036285Y001287D03*
X035285Y001287D03*
X006139Y010000D03*
X004639Y010000D03*
D16*
X033362Y015656D03*
X033362Y015911D03*
X033362Y016167D03*
X033362Y016423D03*
X033362Y016679D03*
X033362Y016935D03*
X033362Y017191D03*
X033362Y017447D03*
X033362Y017703D03*
X033362Y017959D03*
X033362Y018215D03*
X033362Y018470D03*
X033362Y018726D03*
X033362Y018982D03*
X035704Y018982D03*
X035704Y018726D03*
X035704Y018470D03*
X035704Y018215D03*
X035704Y017959D03*
X035704Y017703D03*
X035704Y017447D03*
X035704Y017191D03*
X035704Y016935D03*
X035704Y016679D03*
X035704Y016423D03*
X035704Y016167D03*
X035704Y015911D03*
X035704Y015656D03*
D17*
X033301Y021382D03*
X032553Y021382D03*
X032553Y022587D03*
X033301Y022587D03*
D18*
X034927Y022461D03*
X034927Y021713D03*
X036131Y021713D03*
X036131Y022461D03*
X031635Y018984D03*
X031635Y018236D03*
X031635Y017016D03*
X031635Y016268D03*
X031617Y011110D03*
X031617Y010362D03*
X032794Y010362D03*
X032794Y011110D03*
X034057Y011061D03*
X034057Y010313D03*
X049746Y019811D03*
X049746Y020559D03*
X051124Y020559D03*
X051124Y019811D03*
X056045Y020598D03*
X056045Y021346D03*
X057718Y021346D03*
X057718Y020598D03*
X051124Y032016D03*
X051124Y032764D03*
X049746Y032764D03*
X049746Y032016D03*
X056045Y032803D03*
X056045Y033551D03*
X057718Y033551D03*
X057718Y032803D03*
D19*
X032265Y003893D03*
X031950Y003893D03*
X031635Y003893D03*
X031320Y003893D03*
X031006Y003893D03*
X026754Y003893D03*
X026439Y003893D03*
X026124Y003893D03*
X025809Y003893D03*
X025494Y003893D03*
D20*
X024352Y003778D03*
X024352Y001612D03*
X027895Y001612D03*
X029864Y001612D03*
X029864Y003778D03*
X027895Y003778D03*
X033407Y003778D03*
X033407Y001612D03*
D21*
X050177Y012047D03*
X050677Y012047D03*
X051177Y012047D03*
X051677Y012047D03*
X051677Y014150D03*
X051177Y014150D03*
X050677Y014150D03*
X050177Y014150D03*
X050177Y024252D03*
X050677Y024252D03*
X051177Y024252D03*
X051677Y024252D03*
X051677Y026354D03*
X051177Y026354D03*
X050677Y026354D03*
X050177Y026354D03*
X030031Y026697D03*
X029531Y026697D03*
X029031Y026697D03*
X028531Y026697D03*
X028531Y024594D03*
X029031Y024594D03*
X029531Y024594D03*
X030031Y024594D03*
X029968Y029004D03*
X029468Y029004D03*
X028968Y029004D03*
X028468Y029004D03*
X028468Y031106D03*
X028968Y031106D03*
X029468Y031106D03*
X029968Y031106D03*
D22*
X031482Y030925D03*
X032230Y030925D03*
X033509Y030984D03*
X034257Y030984D03*
X035474Y032406D03*
X036222Y032406D03*
X034324Y032469D03*
X033576Y032469D03*
X032324Y032469D03*
X031576Y032469D03*
X031506Y029453D03*
X032254Y029453D03*
X033576Y029409D03*
X034324Y029409D03*
X034372Y027665D03*
X033624Y027665D03*
X032403Y027665D03*
X031655Y027665D03*
X031655Y026091D03*
X032403Y026091D03*
X033624Y026091D03*
X034372Y026091D03*
X034372Y024516D03*
X033624Y024516D03*
X032403Y024516D03*
X031655Y024516D03*
X035592Y027665D03*
X036340Y027665D03*
X050159Y021760D03*
X050907Y021760D03*
X053179Y024244D03*
X053927Y024244D03*
X055147Y024169D03*
X055895Y024169D03*
X055895Y025677D03*
X055147Y025677D03*
X053958Y025697D03*
X053210Y025697D03*
X053131Y027220D03*
X053880Y027220D03*
X055131Y027220D03*
X055880Y027220D03*
X057155Y027197D03*
X057903Y027197D03*
X055907Y029173D03*
X055159Y029173D03*
X053939Y029177D03*
X053191Y029177D03*
X057135Y029276D03*
X057883Y029276D03*
X050907Y033965D03*
X050159Y033965D03*
X053171Y017008D03*
X053919Y017008D03*
X055171Y017008D03*
X055919Y017008D03*
X057139Y017008D03*
X057887Y017008D03*
X057919Y015008D03*
X057171Y015008D03*
X055919Y015008D03*
X055171Y015008D03*
X053919Y015008D03*
X053171Y015008D03*
X053171Y013508D03*
X053919Y013508D03*
X055171Y013508D03*
X055919Y013508D03*
X055919Y012008D03*
X055171Y012008D03*
X053919Y012008D03*
X053171Y012008D03*
X040104Y002713D03*
X039356Y002713D03*
D23*
X042840Y031949D03*
D24*
X041839Y031954D03*
X041839Y030954D03*
X042839Y030954D03*
X042839Y029954D03*
X041839Y029954D03*
X041839Y028954D03*
X042839Y028954D03*
X042839Y027954D03*
X041839Y027954D03*
X041839Y026954D03*
X042839Y026954D03*
X042839Y025954D03*
X041839Y025954D03*
X041839Y024954D03*
X042839Y024954D03*
X042839Y023954D03*
X041839Y023954D03*
X041839Y022954D03*
X042839Y022954D03*
X042839Y021954D03*
X041839Y021954D03*
X041839Y020954D03*
X042839Y020954D03*
X042839Y019954D03*
X041839Y019954D03*
X041839Y018954D03*
X042839Y018954D03*
X042839Y017954D03*
X041839Y017954D03*
X041839Y016954D03*
X042839Y016954D03*
X042839Y015954D03*
X041839Y015954D03*
X041839Y014954D03*
X042839Y014954D03*
X042839Y013954D03*
X041839Y013954D03*
X041839Y012954D03*
X042839Y012954D03*
D25*
X018895Y016933D03*
X018895Y017933D03*
X018895Y018933D03*
X018876Y021882D03*
X018876Y022882D03*
X018876Y023882D03*
X025943Y033445D03*
X025943Y034445D03*
X025943Y035445D03*
X033214Y035264D03*
X033214Y034634D03*
X033214Y034004D03*
X035680Y034039D03*
X035680Y034669D03*
X035680Y035299D03*
X048486Y036350D03*
X048486Y037350D03*
X048486Y038350D03*
X055257Y038350D03*
X055257Y037350D03*
X055257Y036350D03*
X008805Y013717D03*
X008175Y013717D03*
X007545Y013717D03*
X005966Y013728D03*
X005336Y013728D03*
X004706Y013728D03*
X001714Y015736D03*
X001714Y016642D03*
X001714Y017547D03*
X001713Y018735D03*
X001713Y019640D03*
X001713Y020546D03*
D26*
X052933Y021246D03*
X053433Y021246D03*
X053933Y021246D03*
X054433Y021246D03*
X054433Y019124D03*
X053933Y019124D03*
X053433Y019124D03*
X052933Y019124D03*
X052933Y031329D03*
X053433Y031329D03*
X053933Y031329D03*
X054433Y031329D03*
X054433Y033450D03*
X053933Y033450D03*
X053433Y033450D03*
X052933Y033450D03*
D27*
X052399Y036665D03*
X051399Y037665D03*
X050399Y038665D03*
X052399Y038665D03*
X050399Y036665D03*
X057171Y036665D03*
X058171Y037665D03*
X059171Y038665D03*
X057171Y038665D03*
X059171Y036665D03*
X019643Y036508D03*
X018643Y037508D03*
X017643Y036508D03*
X017643Y034965D03*
X018643Y033965D03*
X017643Y032965D03*
X019643Y032965D03*
X019643Y034965D03*
X019643Y038508D03*
X017643Y038508D03*
D28*
X007153Y008216D03*
X004789Y008156D03*
D29*
X004789Y007156D03*
X007153Y007216D03*
D30*
X002305Y007102D03*
X002305Y006102D03*
X002305Y005102D03*
X002305Y008102D03*
X002305Y010811D03*
X002305Y011811D03*
X002305Y012811D03*
X002305Y013811D03*
X021313Y001945D03*
X022313Y001945D03*
X019037Y027272D03*
X018037Y027272D03*
X018037Y030815D03*
X019037Y030815D03*
X033443Y037443D03*
X034443Y037443D03*
X035443Y037443D03*
X037928Y037408D03*
X038928Y037408D03*
X039928Y037408D03*
X042750Y037408D03*
X043750Y037408D03*
X044750Y037408D03*
X045750Y037408D03*
X039943Y034358D03*
X038943Y034358D03*
X037943Y034358D03*
D31*
X005706Y003228D03*
X007557Y004370D03*
X005706Y005551D03*
D32*
X006128Y017114D03*
X006915Y017114D03*
X007899Y017114D03*
X005143Y017114D03*
X012045Y017157D03*
X013029Y017157D03*
X013817Y017157D03*
X014801Y017157D03*
D33*
X049533Y017823D03*
X050533Y017823D03*
X051533Y017823D03*
X051533Y015854D03*
X050533Y015854D03*
X049533Y015854D03*
X052698Y008972D03*
X053698Y008972D03*
X054698Y008972D03*
X051533Y028059D03*
X050533Y028059D03*
X049533Y028059D03*
X049533Y030028D03*
X050533Y030028D03*
X051533Y030028D03*
D34*
X061182Y028276D02*
X061782Y028276D01*
X061782Y027276D02*
X061182Y027276D01*
X061182Y026276D02*
X061782Y026276D01*
X061782Y025276D02*
X061182Y025276D01*
X061182Y024276D02*
X061782Y024276D01*
D35*
X039574Y001035D03*
X038925Y001035D03*
X011370Y015461D03*
X010720Y015461D03*
X004992Y012311D03*
X004342Y012311D03*
X004342Y011524D03*
X004992Y011524D03*
D36*
X031377Y009250D03*
X031377Y008994D03*
X031377Y008738D03*
X031377Y008482D03*
X031377Y008226D03*
X031377Y007970D03*
X031377Y007715D03*
X031377Y007459D03*
X031377Y007203D03*
X031377Y006947D03*
X031377Y006691D03*
X031377Y006435D03*
X031377Y006179D03*
X031377Y005923D03*
X034256Y005923D03*
X034256Y006179D03*
X034256Y006435D03*
X034256Y006691D03*
X034256Y006947D03*
X034256Y007203D03*
X034256Y007459D03*
X034256Y007715D03*
X034256Y007970D03*
X034256Y008226D03*
X034256Y008482D03*
X034256Y008738D03*
X034256Y008994D03*
X034256Y009250D03*
D37*
X034470Y009752D02*
X034470Y012587D01*
X036124Y013610D02*
X036124Y016130D01*
X035730Y016130D01*
X035704Y016167D01*
X035730Y016406D02*
X035704Y016423D01*
X035730Y016406D02*
X036360Y016406D01*
X036360Y014004D01*
X037502Y014831D02*
X038053Y015382D01*
X038643Y015382D01*
X038643Y019398D01*
X039037Y019791D01*
X039061Y019799D01*
X039509Y019949D02*
X039076Y020382D01*
X038092Y020382D01*
X038092Y020776D01*
X038061Y020799D01*
X038061Y019799D02*
X037383Y019122D01*
X037383Y007980D01*
X034273Y007980D01*
X034256Y007970D01*
X034273Y007744D02*
X034256Y007715D01*
X034273Y007744D02*
X037502Y007744D01*
X037502Y014831D01*
X037029Y016169D02*
X037029Y017429D01*
X035730Y017429D01*
X035704Y017447D01*
X035704Y017191D02*
X035691Y017154D01*
X034982Y017154D01*
X034982Y016642D01*
X035218Y016917D02*
X035218Y016169D01*
X035730Y016642D02*
X035704Y016679D01*
X035730Y016642D02*
X036596Y016642D01*
X036596Y016169D01*
X035691Y016917D02*
X035218Y016917D01*
X035691Y016917D02*
X035704Y016935D01*
X035730Y018177D02*
X035704Y018215D01*
X035730Y018177D02*
X036478Y018177D01*
X037029Y018138D02*
X037029Y018453D01*
X035730Y018453D01*
X035704Y018470D01*
X035730Y018689D02*
X035704Y018726D01*
X035730Y018689D02*
X036754Y018689D01*
X037029Y018965D02*
X035730Y018965D01*
X035704Y018982D01*
X034746Y018768D02*
X037069Y021091D01*
X037069Y024398D01*
X038053Y025382D01*
X038643Y025382D01*
X038643Y026209D01*
X039037Y026602D01*
X039037Y026799D01*
X039061Y026799D01*
X038565Y026287D02*
X038565Y028531D01*
X038289Y028728D02*
X036793Y030224D01*
X036793Y035106D01*
X034470Y037429D01*
X034443Y037443D01*
X035443Y037443D02*
X035454Y037429D01*
X036911Y035972D01*
X036911Y030539D01*
X039273Y028177D01*
X039431Y028177D01*
X040179Y029319D02*
X041084Y028413D01*
X041084Y014988D01*
X041360Y014516D01*
X040848Y014949D02*
X040848Y005106D01*
X040139Y004398D01*
X040139Y002744D02*
X040104Y002713D01*
X040139Y002744D02*
X043289Y005894D01*
X043289Y017508D01*
X042856Y017941D01*
X042839Y017954D01*
X042265Y017508D02*
X042265Y032626D01*
X040454Y034437D01*
X040454Y038413D01*
X038958Y038650D02*
X038958Y037429D01*
X038928Y037408D01*
X038958Y038650D02*
X045218Y038650D01*
X046439Y037429D01*
X046439Y027311D01*
X046360Y027232D01*
X046202Y027705D02*
X045966Y027941D01*
X045966Y032665D01*
X045691Y032390D02*
X045691Y028020D01*
X045730Y027980D01*
X044391Y027744D02*
X044391Y029594D01*
X044667Y029634D02*
X044667Y031445D01*
X044746Y031878D02*
X044746Y037390D01*
X044750Y037408D01*
X043750Y037408D02*
X043722Y037390D01*
X043722Y031839D01*
X042856Y030972D01*
X042839Y030954D01*
X042856Y029988D02*
X042839Y029954D01*
X042856Y029988D02*
X044746Y031878D01*
X046714Y032469D02*
X046872Y032626D01*
X046872Y032783D01*
X046714Y032469D02*
X046714Y025264D01*
X046478Y025028D01*
X046478Y025736D02*
X046596Y025854D01*
X046596Y033177D01*
X046714Y033295D01*
X049313Y033768D02*
X049313Y030224D01*
X049509Y030028D01*
X049533Y030028D01*
X049549Y030028D01*
X051517Y028059D01*
X051533Y028059D01*
X051084Y027508D02*
X051084Y027429D01*
X051084Y027508D02*
X050533Y028059D01*
X050257Y028768D02*
X049549Y028059D01*
X049533Y028059D01*
X049824Y026445D02*
X050139Y026445D01*
X050139Y026366D01*
X050177Y026354D01*
X051177Y026354D02*
X051202Y026327D01*
X051439Y026091D01*
X051439Y025224D01*
X047502Y025224D01*
X047541Y025972D02*
X046950Y026563D01*
X046950Y028807D01*
X045179Y029122D02*
X044667Y029634D01*
X044391Y027744D02*
X044391Y023846D01*
X045376Y022862D01*
X045336Y023256D02*
X050572Y023256D01*
X050572Y019634D01*
X051045Y019161D01*
X051045Y016878D01*
X050927Y016760D01*
X050927Y012311D01*
X050691Y012075D01*
X050677Y012047D01*
X050651Y012035D01*
X050651Y011917D01*
X048446Y009713D01*
X048446Y005894D01*
X045730Y003177D01*
X047069Y005736D02*
X047069Y007587D01*
X046990Y007665D01*
X046124Y007626D02*
X048683Y010185D01*
X048683Y011602D01*
X048368Y011878D02*
X048368Y011012D01*
X045100Y007744D01*
X044037Y009201D02*
X044037Y011012D01*
X043525Y011878D02*
X043525Y009791D01*
X043801Y009516D01*
X042620Y007469D02*
X041084Y009004D01*
X039903Y007980D02*
X039509Y008374D01*
X039509Y010343D01*
X039076Y010776D01*
X039061Y010799D01*
X038604Y010264D02*
X038092Y010776D01*
X038061Y010799D01*
X038604Y010264D02*
X038604Y008453D01*
X038840Y008217D01*
X038486Y008059D02*
X038840Y007705D01*
X039076Y007783D02*
X039076Y008768D01*
X039061Y008799D01*
X038486Y009398D02*
X038486Y008059D01*
X039076Y007783D02*
X039903Y006957D01*
X040139Y006169D02*
X040139Y014949D01*
X039509Y015579D01*
X039509Y019949D01*
X040651Y019555D02*
X040651Y026563D01*
X040415Y026327D02*
X040415Y023768D01*
X040179Y024319D02*
X040179Y025736D01*
X039061Y025799D02*
X039037Y025776D01*
X039037Y025618D01*
X038643Y025224D01*
X038643Y024358D01*
X038013Y024358D01*
X037265Y023610D01*
X037265Y011406D01*
X035572Y009358D01*
X035179Y009043D02*
X034470Y009752D01*
X032383Y009122D02*
X031517Y009988D01*
X031202Y009988D01*
X031202Y011445D01*
X034746Y014988D01*
X034746Y018768D01*
X034628Y019004D02*
X036006Y020382D01*
X036911Y021681D02*
X034509Y019280D01*
X034509Y015894D01*
X033880Y015264D01*
X033880Y014437D01*
X032423Y014437D01*
X030612Y012626D01*
X030612Y008768D01*
X031360Y008768D01*
X031377Y008738D01*
X031377Y008994D02*
X031399Y009004D01*
X032147Y009004D01*
X032383Y009122D02*
X032383Y007232D01*
X031399Y007232D01*
X031377Y007203D01*
X031360Y006957D02*
X031377Y006947D01*
X031360Y006957D02*
X030257Y006957D01*
X030257Y008256D01*
X030494Y008256D02*
X030494Y018807D01*
X030415Y018886D01*
X030887Y018768D02*
X030887Y017823D01*
X031124Y018059D02*
X031124Y013965D01*
X031139Y013957D01*
X030179Y013492D02*
X030179Y022075D01*
X030533Y022429D01*
X030533Y024752D01*
X030651Y024516D02*
X030966Y024831D01*
X030966Y036130D01*
X029470Y037626D01*
X029462Y037661D01*
X030462Y037661D02*
X030494Y037626D01*
X030494Y037232D01*
X031635Y037232D01*
X031911Y037508D01*
X031911Y037941D01*
X035651Y037941D01*
X037029Y036563D01*
X037029Y034555D01*
X040021Y031563D01*
X040021Y029555D01*
X039943Y029476D01*
X039943Y015500D01*
X041872Y016917D02*
X042265Y016524D01*
X042265Y012429D01*
X041084Y011248D01*
X039864Y011012D02*
X039076Y011799D01*
X039061Y011799D01*
X040257Y012429D02*
X040257Y018217D01*
X040730Y019476D02*
X040651Y019555D01*
X042839Y020954D02*
X042856Y020972D01*
X043880Y021996D01*
X043880Y023728D01*
X043880Y026445D01*
X044155Y026720D01*
X043643Y026445D02*
X043289Y026091D01*
X043289Y024358D01*
X043289Y022390D01*
X042856Y021957D01*
X042839Y021954D01*
X043013Y021524D02*
X042502Y021524D01*
X043013Y021524D02*
X043525Y022035D01*
X043525Y025343D01*
X043643Y025461D01*
X044116Y025697D02*
X044116Y023217D01*
X045139Y023453D02*
X045336Y023256D01*
X047069Y021917D02*
X047187Y021799D01*
X047187Y019831D01*
X047108Y019752D01*
X047383Y019870D02*
X047502Y019752D01*
X047383Y019870D02*
X047383Y021799D01*
X047502Y021878D01*
X049746Y021366D02*
X049746Y020559D01*
X049746Y020539D01*
X050336Y020539D01*
X051124Y020559D02*
X051124Y020579D01*
X051124Y020559D02*
X051124Y020736D01*
X051754Y020736D01*
X051124Y020736D02*
X051124Y021563D01*
X050927Y021760D01*
X050907Y021760D01*
X050159Y021760D02*
X050139Y021760D01*
X049746Y021366D01*
X049746Y019811D02*
X049746Y019791D01*
X050533Y019004D01*
X050533Y018531D01*
X050533Y017823D01*
X050494Y016878D02*
X049549Y017823D01*
X049533Y017823D01*
X050809Y016996D02*
X050809Y016130D01*
X050533Y015854D01*
X050100Y016484D02*
X049549Y015933D01*
X049549Y015854D01*
X049533Y015854D01*
X051517Y015854D02*
X051533Y015854D01*
X051517Y015854D02*
X051517Y016602D01*
X051399Y016720D01*
X052108Y017429D01*
X052108Y034161D01*
X052069Y034201D01*
X052305Y034358D02*
X052305Y021248D01*
X052777Y020776D01*
X053446Y020776D01*
X053446Y021012D01*
X053433Y021246D01*
X053446Y021209D01*
X053446Y021012D01*
X053958Y020500D01*
X054667Y020736D02*
X054667Y021012D01*
X054470Y021209D01*
X054433Y021246D01*
X054076Y021366D02*
X054076Y023728D01*
X054313Y023965D01*
X054313Y030815D01*
X054194Y030933D01*
X054194Y036287D01*
X055257Y037350D01*
X053683Y035933D02*
X053683Y033689D01*
X053919Y033453D01*
X053933Y033450D01*
X053446Y033413D02*
X053433Y033450D01*
X053407Y033453D01*
X053407Y034201D01*
X053171Y034437D01*
X052620Y034673D02*
X052305Y034358D01*
X051124Y033768D02*
X051124Y033098D01*
X051872Y033098D01*
X051124Y033098D02*
X051124Y032764D01*
X051124Y032035D02*
X051124Y032016D01*
X051124Y031878D01*
X051635Y031878D01*
X051124Y032035D02*
X049746Y033413D01*
X049746Y033571D01*
X050139Y033965D01*
X050159Y033965D01*
X049746Y033413D02*
X049746Y032764D01*
X049746Y032016D02*
X049746Y031996D01*
X050533Y031209D01*
X050533Y030736D01*
X050533Y030028D01*
X052935Y029437D02*
X052935Y031327D01*
X052933Y031329D01*
X052935Y031366D01*
X052935Y031878D01*
X053433Y031329D02*
X053446Y031327D01*
X053446Y030736D01*
X053171Y030736D01*
X053446Y030736D02*
X053446Y029673D01*
X053919Y029201D01*
X053939Y029177D01*
X053191Y029177D02*
X053171Y029201D01*
X052935Y029437D01*
X055021Y029319D02*
X055021Y032862D01*
X054785Y033098D01*
X054470Y033413D01*
X054433Y033450D01*
X053446Y033413D02*
X053446Y032665D01*
X053801Y032311D01*
X054470Y031366D02*
X054785Y031681D01*
X054470Y031366D02*
X054433Y031329D01*
X054470Y031327D01*
X054470Y021720D01*
X056399Y021720D01*
X056478Y021642D01*
X056478Y021366D01*
X057698Y021366D01*
X057718Y021346D01*
X056714Y022429D02*
X060730Y026445D01*
X060730Y027508D01*
X061478Y028256D01*
X061482Y028276D01*
X057883Y029276D02*
X057856Y029280D01*
X056675Y030461D01*
X056675Y030815D01*
X056242Y030461D02*
X056045Y030657D01*
X056029Y030665D01*
X056242Y030461D02*
X056242Y028886D01*
X056714Y028413D01*
X056006Y027705D01*
X055880Y027220D02*
X055848Y027193D01*
X055139Y026484D01*
X055533Y026051D02*
X056714Y026051D01*
X056714Y025933D01*
X056950Y025697D01*
X057620Y025697D01*
X056950Y026051D02*
X056950Y026996D01*
X057147Y027193D01*
X057155Y027197D01*
X057895Y027232D02*
X057903Y027197D01*
X057895Y027232D02*
X056714Y028413D01*
X056478Y029240D02*
X057108Y029240D01*
X057135Y029276D01*
X055159Y029173D02*
X055139Y029201D01*
X055021Y029319D01*
X054076Y027705D02*
X054076Y027429D01*
X053880Y027232D01*
X053880Y027220D01*
X054076Y026169D02*
X054076Y025815D01*
X053958Y025697D01*
X053958Y025343D01*
X053840Y025224D01*
X053565Y025028D02*
X053565Y024634D01*
X053919Y024280D01*
X053927Y024244D01*
X053210Y024240D02*
X053179Y024244D01*
X053171Y024280D01*
X052738Y024713D01*
X052738Y025028D01*
X053131Y024988D02*
X053131Y025461D01*
X053053Y025539D01*
X053210Y025697D01*
X053565Y026169D02*
X053565Y025028D01*
X053210Y024240D02*
X053210Y024122D01*
X053840Y023492D01*
X054982Y023768D02*
X054982Y022193D01*
X054706Y022429D02*
X054706Y025382D01*
X054962Y025677D01*
X055147Y025677D01*
X055179Y025697D01*
X055533Y026051D01*
X055895Y025677D02*
X055887Y025657D01*
X055021Y024791D01*
X055533Y024555D02*
X055147Y024169D01*
X055147Y023933D01*
X054982Y023768D01*
X055218Y023492D02*
X055895Y024169D01*
X055533Y024555D02*
X057620Y024555D01*
X057620Y024122D01*
X054470Y021720D02*
X054194Y021720D01*
X054194Y019398D01*
X054431Y019161D01*
X054433Y019124D01*
X053446Y019122D02*
X053446Y018531D01*
X053171Y018531D01*
X053446Y018531D02*
X053446Y017508D01*
X053919Y017035D01*
X053919Y017008D01*
X053171Y017035D02*
X053171Y017008D01*
X053171Y017035D02*
X052935Y017272D01*
X052935Y019122D01*
X052933Y019124D01*
X052895Y019161D01*
X052580Y019476D01*
X051990Y019673D02*
X051990Y023335D01*
X051439Y023886D01*
X051439Y025224D01*
X051714Y025421D02*
X051714Y026327D01*
X051677Y026354D01*
X051714Y025421D02*
X051872Y025264D01*
X051872Y024791D02*
X051714Y024634D01*
X051714Y024280D01*
X051677Y024252D01*
X050677Y024252D02*
X050651Y024240D01*
X050572Y024161D01*
X050572Y023256D01*
X050177Y024252D02*
X050179Y024280D01*
X050415Y024516D01*
X050415Y024870D01*
X046281Y026720D02*
X045454Y025894D01*
X044155Y025736D02*
X044116Y025697D01*
X038565Y026287D02*
X038092Y025815D01*
X038061Y025799D01*
X035572Y027154D02*
X035572Y027665D01*
X035592Y027665D01*
X036320Y027665D02*
X036320Y028374D01*
X033525Y028374D01*
X033289Y028138D01*
X033289Y027665D01*
X032403Y027665D01*
X032383Y027665D01*
X031950Y028098D01*
X031950Y028138D01*
X030730Y028295D02*
X030651Y028374D01*
X030651Y033177D01*
X029903Y033925D01*
X029903Y034161D01*
X029509Y034555D01*
X028446Y034555D01*
X026478Y036524D01*
X026478Y037626D01*
X026462Y037661D01*
X025887Y038256D02*
X025494Y038650D01*
X025462Y038661D01*
X025257Y039083D02*
X030454Y039083D01*
X030454Y038689D01*
X030462Y038661D01*
X030730Y035894D02*
X030454Y035618D01*
X030454Y034996D01*
X032324Y032469D02*
X033131Y032469D01*
X033840Y031996D02*
X034313Y032469D01*
X034324Y032469D01*
X034824Y031760D02*
X035454Y032390D01*
X035474Y032406D01*
X035848Y032823D02*
X036202Y032469D01*
X036202Y032429D01*
X036222Y032406D01*
X034257Y030984D02*
X034234Y030972D01*
X034155Y030894D01*
X034155Y030343D01*
X033761Y030264D02*
X033761Y030106D01*
X034313Y029437D01*
X034324Y029409D01*
X033576Y029409D02*
X033565Y029398D01*
X033565Y028650D01*
X034352Y027665D02*
X034372Y027665D01*
X034352Y027665D02*
X034352Y027272D01*
X033604Y027272D01*
X032580Y026248D01*
X032403Y026091D01*
X032423Y026091D01*
X032580Y026248D01*
X032265Y026563D01*
X031990Y027193D02*
X031990Y020736D01*
X032305Y020421D01*
X032541Y021366D02*
X032553Y021382D01*
X032541Y021406D01*
X032541Y021917D01*
X032541Y022587D01*
X032553Y022587D01*
X033289Y022587D02*
X033301Y022587D01*
X033289Y022587D02*
X033289Y021406D01*
X033301Y021382D01*
X033328Y021366D01*
X034037Y020657D01*
X034116Y020579D01*
X034116Y018413D01*
X033840Y018138D01*
X033840Y017705D01*
X033368Y017705D01*
X033362Y017703D01*
X033328Y017941D02*
X033362Y017959D01*
X033070Y017959D01*
X033053Y017941D01*
X032659Y017941D01*
X032541Y018059D01*
X032541Y021366D01*
X034391Y022154D02*
X034391Y015933D01*
X033368Y015933D01*
X033362Y015911D01*
X033362Y015656D02*
X033328Y015618D01*
X032383Y014673D01*
X034628Y015028D02*
X034628Y019004D01*
X033880Y018531D02*
X033722Y018689D01*
X033368Y018689D01*
X033362Y018726D01*
X033362Y018215D02*
X033328Y018177D01*
X032777Y018177D01*
X033362Y016935D02*
X033380Y016917D01*
X033761Y016917D01*
X034116Y016563D01*
X034116Y016524D01*
X033840Y016563D02*
X033880Y016248D01*
X033840Y016563D02*
X033722Y016681D01*
X033364Y016681D01*
X033362Y016679D01*
X034628Y015028D02*
X031084Y011484D01*
X031084Y009555D01*
X031360Y009280D01*
X031377Y009250D01*
X031360Y008256D02*
X030494Y008256D01*
X030887Y007980D02*
X031360Y007980D01*
X031377Y007970D01*
X031377Y008226D02*
X031360Y008256D01*
X031360Y006720D02*
X030021Y006720D01*
X030021Y013335D01*
X030179Y013492D01*
X028683Y014437D02*
X028683Y017311D01*
X028407Y016996D02*
X028407Y013610D01*
X027541Y013531D02*
X027541Y016642D01*
X027423Y016760D01*
X026793Y016602D02*
X026675Y016484D01*
X026793Y016602D02*
X026793Y025382D01*
X026557Y025618D01*
X026557Y028965D01*
X026793Y029201D01*
X026399Y029437D02*
X026399Y025421D01*
X026399Y022665D01*
X025966Y022665D02*
X025966Y025539D01*
X026124Y025697D01*
X026124Y028492D01*
X024667Y029949D01*
X026320Y030894D02*
X026320Y036366D01*
X025494Y037193D01*
X025494Y037626D01*
X025462Y037661D01*
X025887Y038256D02*
X025887Y036957D01*
X030533Y032311D01*
X030533Y028610D01*
X029785Y027862D01*
X029785Y024240D01*
X029194Y023650D01*
X029194Y019043D01*
X029943Y018295D01*
X030651Y017429D02*
X030651Y024516D01*
X030061Y024594D02*
X030031Y024594D01*
X030061Y024594D02*
X030061Y024634D01*
X030533Y025106D01*
X031202Y024949D02*
X031202Y025343D01*
X031517Y025343D02*
X031596Y025264D01*
X031517Y025343D02*
X031517Y025972D01*
X031635Y026091D01*
X031655Y026091D01*
X030730Y025697D02*
X030061Y026366D01*
X030061Y026681D01*
X030031Y026697D01*
X029667Y026839D02*
X029667Y028295D01*
X029509Y028295D01*
X029667Y028295D02*
X029667Y028610D01*
X029706Y028650D01*
X029706Y030854D01*
X029470Y031091D01*
X029468Y031106D01*
X029968Y031106D02*
X029982Y031091D01*
X029982Y030933D01*
X030297Y030618D01*
X030297Y029949D02*
X029982Y029634D01*
X029982Y029004D01*
X029968Y029004D01*
X028998Y029004D02*
X028968Y029004D01*
X028998Y029004D02*
X028998Y027941D01*
X029273Y027665D01*
X029273Y026169D01*
X029549Y026169D01*
X029273Y026169D02*
X029273Y024831D01*
X029037Y024594D01*
X029031Y024594D01*
X028761Y024791D02*
X028761Y025894D01*
X029037Y026169D01*
X028525Y026169D02*
X028525Y026681D01*
X028531Y026697D01*
X027974Y026012D02*
X027974Y018295D01*
X028407Y017862D01*
X026557Y018650D02*
X024037Y021169D01*
X024037Y021917D01*
X023171Y022783D01*
X023151Y022799D01*
X023131Y022823D01*
X022187Y022823D01*
X022151Y022799D01*
X021832Y022232D02*
X020454Y020854D01*
X020454Y014594D01*
X017974Y012114D01*
X017974Y011209D01*
X017738Y010815D02*
X017147Y010067D01*
X017738Y010815D02*
X017738Y012469D01*
X017856Y012587D01*
X020336Y015067D01*
X020336Y026602D01*
X022698Y028965D01*
X019549Y028768D02*
X019549Y031012D01*
X019234Y031327D01*
X019234Y033374D01*
X018643Y033965D01*
X020021Y033453D02*
X020021Y024043D01*
X018880Y022902D01*
X018876Y022882D01*
X018876Y021882D02*
X014667Y026091D01*
X013683Y026091D01*
X013683Y025657D01*
X013250Y025224D01*
X013214Y025224D01*
X012344Y026012D02*
X015336Y029004D01*
X018037Y030815D02*
X018053Y030815D01*
X018210Y030972D01*
X018210Y037075D01*
X018643Y037508D01*
X021084Y034516D02*
X021120Y034531D01*
X021084Y034516D02*
X020021Y033453D01*
X020218Y032665D02*
X021084Y033531D01*
X021120Y033531D01*
X020218Y032665D02*
X020218Y019240D01*
X018919Y017941D01*
X018895Y017933D01*
X018880Y016957D02*
X018895Y016933D01*
X018880Y016957D02*
X015494Y020343D01*
X014076Y020224D02*
X014076Y022902D01*
X014313Y023138D01*
X014313Y025854D01*
X014549Y024594D02*
X014549Y022902D01*
X012344Y022980D02*
X012344Y026012D01*
X010651Y024555D02*
X010651Y022941D01*
X010061Y022547D02*
X009431Y022547D01*
X004824Y017941D01*
X004824Y017350D01*
X004194Y016720D01*
X004194Y013728D01*
X002305Y011839D01*
X002305Y011811D01*
X004992Y011524D02*
X005376Y011524D01*
X005612Y011720D02*
X005612Y011287D01*
X005848Y011169D02*
X005572Y010894D01*
X005572Y008177D01*
X006793Y006957D01*
X006793Y005776D01*
X010572Y005776D01*
X011202Y006406D01*
X011281Y006681D02*
X009943Y006681D01*
X009943Y012587D01*
X008840Y013689D01*
X008805Y013717D01*
X010533Y014634D02*
X010533Y006917D01*
X011281Y006681D02*
X012029Y005933D01*
X010376Y006012D02*
X006714Y009673D01*
X006714Y012980D01*
X005966Y013728D01*
X005848Y013217D02*
X005336Y013728D01*
X005848Y013217D02*
X005848Y011169D01*
X005612Y011720D02*
X005021Y012311D01*
X004992Y012311D01*
X010179Y009398D02*
X010415Y009634D01*
X010415Y016563D01*
X014076Y020224D01*
X014785Y017154D02*
X014801Y017157D01*
X014785Y017154D02*
X014628Y016996D01*
X014628Y007902D01*
X014588Y007862D01*
X014746Y007075D02*
X013643Y008177D01*
X013643Y010500D01*
X010769Y013374D01*
X010533Y014634D02*
X011360Y015461D01*
X011370Y015461D01*
X014037Y012941D02*
X014037Y011760D01*
X015257Y012193D02*
X015257Y014752D01*
X015257Y012193D02*
X016439Y011012D01*
X014509Y006406D02*
X011754Y009161D01*
X014746Y007075D02*
X014746Y006406D01*
X017108Y006406D01*
X017226Y005500D02*
X021163Y009437D01*
X022698Y008650D02*
X024037Y007311D01*
X024431Y007311D01*
X024431Y005224D01*
X024903Y004752D01*
X024903Y003020D01*
X024824Y002941D01*
X024824Y002626D01*
X026517Y000933D01*
X034706Y000933D01*
X034706Y001484D01*
X035061Y001839D01*
X036281Y001839D01*
X036281Y001287D01*
X036285Y001287D01*
X036399Y002154D02*
X037265Y001287D01*
X037285Y001287D01*
X039391Y001209D02*
X039549Y001051D01*
X039574Y001035D01*
X039391Y001209D02*
X039391Y002705D01*
X039356Y002713D01*
X034256Y005923D02*
X034234Y005894D01*
X034037Y005697D01*
X034037Y005618D01*
X034273Y006169D02*
X034256Y006179D01*
X034273Y006169D02*
X034746Y006169D01*
X032777Y005854D02*
X031320Y004398D01*
X031320Y003893D01*
X031635Y003893D02*
X031635Y004358D01*
X032423Y005146D01*
X031793Y005815D02*
X031714Y005736D01*
X026675Y005736D01*
X026675Y012508D01*
X025809Y013374D01*
X024785Y013925D02*
X023919Y014791D01*
X023171Y014791D01*
X023151Y014799D01*
X022151Y014799D02*
X022147Y014791D01*
X021714Y014358D01*
X021714Y008256D01*
X023131Y006839D01*
X023840Y006484D02*
X022580Y007744D01*
X022580Y012390D01*
X022187Y012783D01*
X022151Y012799D01*
X024549Y011642D02*
X024549Y007272D01*
X025572Y006248D01*
X025809Y007114D02*
X025809Y003893D01*
X026124Y003893D02*
X026124Y007783D01*
X025179Y007783D01*
X025415Y007508D02*
X025809Y007114D01*
X027502Y005933D02*
X027502Y012783D01*
X027856Y014398D02*
X027856Y023059D01*
X027580Y023335D01*
X028210Y022941D02*
X028210Y025421D01*
X027974Y026012D02*
X027580Y026406D01*
X029531Y026697D02*
X029549Y026720D01*
X029667Y026839D01*
X026911Y028531D02*
X026911Y015815D01*
X025061Y015776D02*
X023604Y017232D01*
X023604Y018335D01*
X023171Y018768D01*
X023151Y018799D01*
X022580Y018374D02*
X022187Y018768D01*
X022151Y018799D01*
X022580Y018374D02*
X022580Y017350D01*
X023210Y017350D01*
X023604Y016957D01*
X023604Y016878D01*
X024431Y016051D01*
X025061Y016287D02*
X023722Y017626D01*
X023722Y019240D01*
X023171Y019791D01*
X023151Y019799D01*
X022151Y019799D02*
X022147Y019791D01*
X021714Y019358D01*
X021714Y017508D01*
X021872Y017350D01*
X023151Y016799D02*
X023171Y016799D01*
X024746Y015224D01*
X023151Y015799D02*
X023131Y015776D01*
X022698Y015343D01*
X022698Y008650D01*
X021596Y007862D02*
X023131Y006327D01*
X023131Y004161D01*
X027502Y005933D02*
X031360Y005933D01*
X031377Y005923D01*
X031399Y006169D02*
X031377Y006179D01*
X031399Y006169D02*
X031793Y006169D01*
X031793Y005815D01*
X031377Y006691D02*
X031360Y006720D01*
X026242Y009516D02*
X024785Y010972D01*
X024785Y013925D01*
X022147Y015776D02*
X022151Y015799D01*
X022147Y015776D02*
X021596Y015224D01*
X021596Y007862D01*
X028919Y014949D02*
X028958Y014988D01*
X028958Y023374D01*
X028565Y024594D02*
X028531Y024594D01*
X028565Y024594D02*
X028761Y024791D01*
X031202Y024949D02*
X031635Y024516D01*
X031655Y024516D01*
X032403Y024516D02*
X032423Y024516D01*
X033289Y025382D01*
X033289Y025933D01*
X033171Y025933D01*
X033289Y025933D02*
X033289Y026406D01*
X034037Y027154D01*
X035572Y027154D01*
X036320Y027665D02*
X036340Y027665D01*
X034372Y026091D02*
X034352Y026091D01*
X034194Y025933D01*
X034194Y025461D01*
X033643Y025500D02*
X033643Y025224D01*
X034352Y024516D01*
X034372Y024516D01*
X033624Y024516D02*
X033210Y024240D01*
X032856Y024594D02*
X033407Y025146D01*
X033407Y025894D01*
X033604Y026091D01*
X033624Y026091D01*
X036832Y023650D02*
X036911Y023571D01*
X036911Y021681D01*
X036131Y021713D02*
X036124Y021720D01*
X035454Y021720D01*
X035454Y021917D01*
X034927Y021713D02*
X034903Y021681D01*
X034628Y021406D01*
X034628Y021248D01*
X030651Y017429D02*
X030887Y017193D01*
X025061Y017823D02*
X023840Y019043D01*
X023840Y021130D01*
X023171Y021799D01*
X023151Y021799D01*
X023880Y024673D02*
X023328Y025224D01*
X022187Y025224D01*
X022187Y024831D01*
X022151Y024799D01*
X023171Y025776D02*
X023151Y025799D01*
X023171Y025776D02*
X023250Y025776D01*
X024116Y024909D01*
X024037Y025933D02*
X023171Y026799D01*
X023151Y026799D01*
X026793Y028650D02*
X026911Y028531D01*
X027895Y029319D02*
X026320Y030894D01*
X028131Y031091D02*
X028131Y029319D01*
X028446Y029004D01*
X028468Y029004D01*
X028468Y031106D02*
X028486Y031130D01*
X028722Y031366D01*
X028722Y031484D01*
X028801Y031563D01*
X030297Y031563D01*
X030297Y031406D01*
X031202Y030618D02*
X031202Y029988D01*
X031439Y029516D02*
X031439Y030461D01*
X031202Y030618D02*
X031478Y030894D01*
X031482Y030925D01*
X032230Y030925D02*
X032265Y030933D01*
X032777Y031445D01*
X032777Y031091D02*
X032777Y029988D01*
X032265Y029476D01*
X032254Y029453D01*
X031506Y029453D02*
X031478Y029476D01*
X031439Y029516D01*
X033328Y030224D02*
X033328Y030815D01*
X033486Y030972D01*
X033509Y030984D01*
X036557Y033768D02*
X035691Y034634D01*
X035680Y034669D01*
X025943Y034445D02*
X025927Y034476D01*
X025021Y035382D01*
X025021Y038846D01*
X025257Y039083D01*
X049313Y033768D02*
X050809Y035264D01*
X050809Y037075D01*
X051399Y037665D01*
X050927Y033965D02*
X050907Y033965D01*
X050927Y033965D02*
X051124Y033768D01*
X056950Y033531D02*
X057698Y033531D01*
X057718Y033551D01*
X061793Y022154D02*
X062344Y021602D01*
X062344Y013689D01*
X057108Y008453D01*
X054698Y008972D02*
X054667Y009004D01*
X054667Y009555D01*
X054509Y009713D01*
X053683Y009358D02*
X053683Y009004D01*
X053698Y008972D01*
X053683Y009358D02*
X053328Y009713D01*
X052974Y009713D02*
X053328Y009358D01*
X053328Y007705D01*
X057935Y003098D01*
X057383Y002272D02*
X052462Y007193D01*
X052462Y007705D01*
X050572Y009594D01*
X049509Y011130D02*
X043840Y016799D01*
X043840Y021563D01*
X043565Y018256D02*
X043565Y015500D01*
X047698Y011366D01*
X050177Y012047D02*
X050179Y012075D01*
X050415Y012311D01*
X050415Y012547D01*
X051677Y012047D02*
X051714Y012075D01*
X052029Y012390D01*
X052423Y012941D02*
X052423Y013413D01*
X051714Y014122D01*
X051677Y014150D01*
X051177Y014150D02*
X051163Y014161D01*
X051163Y018846D01*
X051990Y019673D01*
X051754Y019791D02*
X051124Y019791D01*
X051124Y019811D01*
X053433Y019124D02*
X053446Y019122D01*
X055572Y018098D02*
X055966Y018492D01*
X055978Y018516D01*
X055572Y018098D02*
X055572Y016681D01*
X053919Y015028D01*
X053919Y015008D01*
X055021Y014634D02*
X055887Y014634D01*
X055887Y014988D01*
X055919Y015008D01*
X055533Y014516D02*
X057147Y014516D01*
X057147Y014988D01*
X057171Y015008D01*
X057895Y015028D02*
X057919Y015008D01*
X057895Y015028D02*
X057895Y016524D01*
X057887Y017008D02*
X057856Y017035D01*
X056832Y018059D01*
X056832Y018453D01*
X055139Y017035D02*
X054667Y017508D01*
X054667Y020736D01*
X054076Y021366D02*
X053958Y021248D01*
X053933Y021246D01*
X055139Y017035D02*
X055171Y017008D01*
X056360Y016996D02*
X057108Y016996D01*
X057139Y017008D01*
X055533Y014516D02*
X054824Y013807D01*
X054824Y013650D01*
X054746Y013650D01*
X054824Y013650D02*
X054824Y012941D01*
X053919Y012035D01*
X053919Y012008D01*
X053565Y011602D02*
X053210Y011957D01*
X053171Y012008D01*
X053171Y011996D01*
X053210Y011957D01*
X053210Y012783D01*
X053446Y012862D01*
X052974Y012823D02*
X052974Y013295D01*
X053171Y013492D01*
X053171Y013508D01*
X053919Y013508D02*
X053919Y012941D01*
X053919Y013508D02*
X053919Y013531D01*
X055021Y014634D01*
X055572Y013925D02*
X057541Y013925D01*
X057541Y013610D01*
X057545Y013583D01*
X057541Y012429D02*
X057541Y011957D01*
X057545Y011933D01*
X057541Y012429D02*
X055572Y012429D01*
X055179Y012035D01*
X055171Y012008D01*
X055021Y012626D02*
X055887Y013492D01*
X055919Y013508D01*
X055572Y013925D02*
X055179Y013531D01*
X055171Y013508D01*
X055887Y011996D02*
X055919Y012008D01*
X055887Y011996D02*
X055887Y011602D01*
X053565Y011602D01*
X050415Y013650D02*
X050415Y013886D01*
X050179Y014122D01*
X050177Y014150D01*
X042839Y016954D02*
X042817Y016957D01*
X042265Y017508D01*
X041839Y016954D02*
X041872Y016917D01*
X040257Y012429D02*
X040612Y012075D01*
X038092Y009791D02*
X038061Y009799D01*
X038092Y009791D02*
X038486Y009398D01*
X040139Y006169D02*
X040257Y006051D01*
X003053Y016484D02*
X003053Y019201D01*
X001714Y020539D01*
X001713Y020546D01*
D38*
X003053Y016484D03*
X005809Y015736D03*
X010769Y013374D03*
X014037Y012941D03*
X014037Y011760D03*
X016439Y011012D03*
X016990Y011287D03*
X017305Y012154D03*
X017974Y012114D03*
X017856Y012587D03*
X016714Y012626D03*
X016006Y013925D03*
X015257Y014752D03*
X017580Y014004D03*
X017974Y011209D03*
X017147Y010067D03*
X016675Y010185D03*
X016675Y009161D03*
X014588Y007862D03*
X015218Y006839D03*
X014509Y006406D03*
X012698Y007626D03*
X011754Y009161D03*
X010179Y009398D03*
X009706Y010579D03*
X007147Y011996D03*
X005612Y011287D03*
X005376Y011524D03*
X010533Y006917D03*
X011202Y006406D03*
X010376Y006012D03*
X012029Y005933D03*
X015297Y002429D03*
X017226Y005500D03*
X018604Y005697D03*
X017108Y006406D03*
X021163Y009437D03*
X023131Y006839D03*
X023840Y006484D03*
X024194Y007075D03*
X025179Y007783D03*
X025415Y007508D03*
X026439Y007783D03*
X026242Y009516D03*
X026360Y010185D03*
X026202Y011012D03*
X024549Y011642D03*
X025809Y013374D03*
X025533Y014398D03*
X024746Y015224D03*
X025061Y015776D03*
X025061Y016287D03*
X024431Y016051D03*
X025061Y017823D03*
X026557Y018650D03*
X028407Y017862D03*
X028683Y017311D03*
X028407Y016996D03*
X027423Y016760D03*
X026675Y016484D03*
X026911Y015815D03*
X028919Y014949D03*
X028683Y014437D03*
X027856Y014398D03*
X028407Y013610D03*
X027541Y013531D03*
X027502Y012783D03*
X031360Y015776D03*
X032383Y016524D03*
X032856Y017114D03*
X031832Y017547D03*
X031478Y017665D03*
X031124Y018059D03*
X030887Y017823D03*
X029943Y018295D03*
X030887Y018768D03*
X030415Y018886D03*
X031163Y019988D03*
X032305Y020421D03*
X034037Y020657D03*
X034628Y021248D03*
X034391Y022154D03*
X035454Y021917D03*
X036675Y021799D03*
X036006Y020382D03*
X037029Y018965D03*
X036754Y018689D03*
X036478Y018177D03*
X037029Y018138D03*
X034982Y017941D03*
X035021Y017547D03*
X034982Y016642D03*
X035218Y016169D03*
X034116Y016524D03*
X033880Y016248D03*
X033880Y017469D03*
X032698Y017705D03*
X032777Y018177D03*
X032777Y018768D03*
X032147Y018768D03*
X033880Y018531D03*
X030887Y017193D03*
X032383Y014673D03*
X034470Y012587D03*
X036124Y013610D03*
X036360Y014004D03*
X036596Y016169D03*
X037029Y016169D03*
X039943Y015500D03*
X040848Y014949D03*
X041360Y014516D03*
X040612Y012075D03*
X041084Y011248D03*
X039864Y011012D03*
X041084Y009004D03*
X039903Y007980D03*
X039903Y006957D03*
X040257Y006051D03*
X038840Y007705D03*
X038840Y008217D03*
X035572Y009358D03*
X035179Y009043D03*
X033801Y009831D03*
X033131Y009122D03*
X032974Y008295D03*
X032147Y009004D03*
X031872Y008768D03*
X031872Y008020D03*
X030887Y007980D03*
X030494Y007941D03*
X030257Y008256D03*
X032777Y005854D03*
X032423Y005146D03*
X034037Y005618D03*
X034746Y006169D03*
X034746Y007508D03*
X040139Y004398D03*
X039116Y002232D03*
X036399Y002154D03*
X043328Y002272D03*
X045730Y003177D03*
X044273Y004161D03*
X047069Y005736D03*
X044824Y007390D03*
X045100Y007744D03*
X046124Y007626D03*
X046124Y008177D03*
X046990Y007665D03*
X047147Y009161D03*
X048683Y009398D03*
X050572Y009594D03*
X049509Y011130D03*
X048683Y011602D03*
X048368Y011878D03*
X047698Y011366D03*
X050415Y012547D03*
X050415Y013650D03*
X052423Y012941D03*
X052974Y012823D03*
X053446Y012862D03*
X053919Y012941D03*
X055021Y012626D03*
X054746Y013650D03*
X052502Y014673D03*
X051399Y016720D03*
X050809Y016996D03*
X050494Y016878D03*
X050100Y016484D03*
X050533Y018531D03*
X051754Y019791D03*
X052580Y019476D03*
X053171Y018531D03*
X053958Y020500D03*
X054667Y020736D03*
X054785Y021366D03*
X054982Y022193D03*
X054706Y022429D03*
X055218Y023492D03*
X053840Y023492D03*
X055021Y024791D03*
X053840Y025224D03*
X053565Y025028D03*
X053131Y024988D03*
X052738Y025028D03*
X051872Y025264D03*
X051872Y024791D03*
X050966Y024791D03*
X050415Y024870D03*
X049824Y026445D03*
X051084Y027429D03*
X050257Y028768D03*
X050533Y030736D03*
X051635Y031878D03*
X052935Y031878D03*
X053801Y032311D03*
X054785Y031681D03*
X055376Y030776D03*
X056675Y030815D03*
X056478Y029240D03*
X056006Y027705D03*
X055139Y026484D03*
X054076Y026169D03*
X053565Y026169D03*
X054076Y027705D03*
X056950Y026051D03*
X056714Y022429D03*
X052580Y021563D03*
X051754Y020736D03*
X050336Y020539D03*
X047502Y019752D03*
X047108Y019752D03*
X047502Y021878D03*
X047069Y021917D03*
X045376Y022862D03*
X045139Y023453D03*
X046084Y023492D03*
X046360Y024594D03*
X046478Y025028D03*
X046478Y025736D03*
X046281Y026720D03*
X046360Y027232D03*
X046202Y027705D03*
X045730Y027980D03*
X045415Y028531D03*
X045179Y029122D03*
X044391Y029594D03*
X043289Y029673D03*
X044667Y031445D03*
X045415Y031445D03*
X045691Y032390D03*
X045966Y032665D03*
X046872Y032783D03*
X046714Y033295D03*
X051872Y033098D03*
X052069Y034201D03*
X052620Y034673D03*
X053171Y034437D03*
X053171Y033965D03*
X054785Y033571D03*
X054785Y033098D03*
X056950Y033531D03*
X053683Y035933D03*
X053998Y030776D03*
X053171Y030736D03*
X046950Y028807D03*
X044391Y027744D03*
X044155Y026720D03*
X043643Y026445D03*
X044155Y025736D03*
X043643Y025461D03*
X043289Y024358D03*
X043880Y023728D03*
X044116Y023217D03*
X045415Y024594D03*
X045454Y025894D03*
X047541Y025972D03*
X047502Y025224D03*
X043840Y021563D03*
X042502Y021524D03*
X040730Y019476D03*
X040257Y018217D03*
X043565Y018256D03*
X040415Y023768D03*
X040179Y024319D03*
X041439Y024476D03*
X040179Y025736D03*
X040415Y026327D03*
X040651Y026563D03*
X039431Y028177D03*
X038565Y028531D03*
X038289Y028728D03*
X040179Y029319D03*
X034824Y031760D03*
X033840Y031996D03*
X033131Y032469D03*
X032777Y031445D03*
X032777Y031091D03*
X033328Y030224D03*
X033761Y030264D03*
X034155Y030343D03*
X031872Y029870D03*
X031202Y029988D03*
X031439Y030461D03*
X030297Y030618D03*
X030297Y029949D03*
X029470Y029555D03*
X027895Y029319D03*
X026793Y029201D03*
X026399Y029437D03*
X026793Y028650D03*
X024667Y029949D03*
X024903Y030618D03*
X022698Y028965D03*
X019549Y028768D03*
X015336Y029004D03*
X012069Y028413D03*
X012344Y026012D03*
X014313Y025854D03*
X014549Y024594D03*
X012069Y023571D03*
X012344Y022980D03*
X012069Y022744D03*
X010651Y022941D03*
X010061Y022547D03*
X009470Y022232D03*
X010651Y024555D03*
X014313Y023138D03*
X014549Y022902D03*
X014313Y021130D03*
X015494Y020343D03*
X021832Y022232D03*
X023880Y024673D03*
X024116Y024909D03*
X024037Y025933D03*
X026124Y025697D03*
X026399Y025421D03*
X027580Y024831D03*
X028210Y025421D03*
X028525Y026169D03*
X029037Y026169D03*
X029549Y026169D03*
X030730Y025697D03*
X031202Y025343D03*
X031596Y025264D03*
X030533Y025106D03*
X030533Y024752D03*
X029509Y025146D03*
X028958Y023886D03*
X028958Y023374D03*
X028210Y022941D03*
X028683Y022665D03*
X027580Y023335D03*
X027305Y022587D03*
X026399Y022665D03*
X025966Y022665D03*
X027580Y026406D03*
X029234Y028059D03*
X029509Y028295D03*
X030730Y028295D03*
X031950Y028138D03*
X033210Y028413D03*
X033565Y028650D03*
X033643Y028138D03*
X031990Y027193D03*
X032265Y026563D03*
X033171Y025933D03*
X033643Y025500D03*
X034194Y025461D03*
X033210Y024240D03*
X032856Y024594D03*
X032541Y021917D03*
X036832Y023650D03*
X028131Y031091D03*
X030297Y031406D03*
X035848Y032823D03*
X036557Y033768D03*
X030730Y035894D03*
X027974Y036524D03*
X040454Y038413D03*
X041950Y038217D03*
X056832Y018453D03*
X056360Y016996D03*
X057895Y016524D03*
X052029Y012390D03*
X051163Y011524D03*
X052541Y009949D03*
X052974Y009713D03*
X053328Y009713D03*
X054509Y009713D03*
X057108Y008453D03*
X052698Y007587D03*
X057935Y003098D03*
X057383Y002272D03*
X043801Y008689D03*
X044037Y009201D03*
X043801Y009516D03*
X044037Y011012D03*
X043525Y011878D03*
X042620Y007469D03*
X026911Y004634D03*
X025572Y006248D03*
X024667Y004634D03*
X023131Y004161D03*
X021872Y017350D03*
D39*
X025533Y014398D02*
X025533Y011681D01*
X026202Y011012D01*
X026360Y010185D02*
X026517Y010028D01*
X026517Y007862D01*
X026439Y007783D01*
X024194Y007075D02*
X024194Y004831D01*
X021320Y001957D01*
X021313Y001945D01*
X022313Y001945D02*
X022344Y001957D01*
X024313Y001957D01*
X024352Y001612D01*
X024352Y003778D01*
X024391Y003807D01*
X024391Y004358D01*
X024667Y004634D01*
X026754Y004476D02*
X026754Y003893D01*
X026754Y003807D01*
X027895Y003807D01*
X027895Y003778D01*
X027895Y001612D01*
X027895Y001602D01*
X029864Y001602D01*
X029864Y001612D01*
X029903Y001602D01*
X033368Y001602D01*
X033407Y001612D01*
X033407Y003778D01*
X033761Y003807D01*
X033761Y006602D01*
X033840Y006681D01*
X033840Y006720D01*
X033840Y007350D01*
X033840Y008453D01*
X033840Y008492D01*
X033525Y008807D01*
X033486Y008807D01*
X032974Y008295D01*
X033840Y008453D02*
X034234Y008453D01*
X034256Y008482D01*
X034273Y008492D01*
X034273Y008728D01*
X034256Y008738D01*
X033525Y008807D02*
X033525Y011091D01*
X034037Y011091D01*
X034057Y011061D01*
X033525Y011091D02*
X032817Y011091D01*
X032794Y011110D01*
X032777Y011130D01*
X031635Y011130D01*
X031617Y011110D01*
X031635Y010382D02*
X031617Y010362D01*
X031635Y010382D02*
X032777Y010382D01*
X032794Y010362D01*
X032817Y010343D01*
X032817Y009437D01*
X033131Y009122D01*
X033801Y009831D02*
X034037Y010067D01*
X034037Y010303D01*
X034057Y010313D01*
X031872Y008768D02*
X031872Y008492D01*
X031872Y008020D01*
X031872Y008492D02*
X031399Y008492D01*
X031377Y008482D01*
X031377Y007715D02*
X031360Y007705D01*
X030494Y007705D01*
X030494Y007941D01*
X033840Y007350D02*
X033919Y007429D01*
X034234Y007429D01*
X034256Y007459D01*
X034273Y007232D02*
X034256Y007203D01*
X034273Y007232D02*
X034746Y007232D01*
X034746Y007508D01*
X034234Y006720D02*
X033840Y006720D01*
X034234Y006720D02*
X034256Y006691D01*
X033368Y003886D02*
X032265Y003886D01*
X032265Y003893D01*
X033368Y003886D02*
X033368Y003807D01*
X033407Y003778D01*
X033407Y003768D01*
X036202Y003768D01*
X038427Y001543D01*
X039116Y002232D01*
X038427Y001543D02*
X038919Y001051D01*
X038925Y001035D01*
X043328Y002272D02*
X043328Y003217D01*
X044273Y004161D01*
X044824Y007390D02*
X044864Y007469D01*
X045415Y007469D01*
X046124Y008177D01*
X046163Y008177D01*
X047147Y009161D01*
X048683Y009398D02*
X050966Y011681D01*
X051006Y011681D01*
X051163Y011524D01*
X050966Y011681D02*
X050966Y011839D01*
X051163Y012035D01*
X051177Y012047D01*
X052698Y013768D02*
X053545Y014614D01*
X053171Y014988D01*
X053171Y015008D01*
X052836Y015008D01*
X052502Y014673D01*
X053171Y015008D02*
X053210Y015028D01*
X054313Y016130D01*
X054313Y017311D01*
X054155Y017469D01*
X054155Y018925D01*
X053958Y019122D01*
X053933Y019124D01*
X056045Y020598D02*
X056045Y020618D01*
X056557Y020618D01*
X056557Y017665D01*
X055927Y017035D01*
X055919Y017008D01*
X055887Y016996D01*
X055730Y016839D01*
X055730Y015579D01*
X055179Y015028D01*
X055171Y015008D01*
X055139Y014988D01*
X054746Y014594D01*
X053565Y014594D01*
X053545Y014614D01*
X052698Y013768D02*
X052698Y010146D01*
X052541Y009988D01*
X052541Y009949D01*
X052698Y009791D01*
X052698Y008972D01*
X052698Y007587D01*
X044824Y007665D02*
X044824Y007390D01*
X044824Y007665D02*
X043801Y008689D01*
X041839Y015954D02*
X041832Y015972D01*
X041399Y016406D01*
X041399Y017508D01*
X041399Y022469D01*
X041832Y022902D01*
X041839Y022954D01*
X041832Y022980D01*
X041399Y023413D01*
X041399Y024476D01*
X041439Y024476D01*
X041399Y024476D02*
X041399Y025500D01*
X041832Y025933D01*
X041839Y025954D01*
X041793Y025972D01*
X041399Y026366D01*
X041399Y029516D01*
X041832Y029949D01*
X041839Y029954D01*
X041832Y029988D01*
X037974Y033846D01*
X037974Y034319D01*
X037943Y034358D01*
X037935Y034358D01*
X037935Y037390D01*
X037928Y037408D01*
X039928Y037408D02*
X039943Y037390D01*
X039943Y034358D01*
X039943Y034358D01*
X035680Y035299D02*
X035651Y035303D01*
X033604Y035303D01*
X033604Y032508D01*
X033576Y032469D01*
X033565Y032469D01*
X033053Y031957D01*
X032108Y031957D01*
X031596Y032469D01*
X031576Y032469D01*
X031202Y032902D02*
X031202Y031878D01*
X031872Y031209D01*
X031872Y029870D01*
X032462Y029043D02*
X033053Y029043D01*
X033053Y028571D01*
X033210Y028413D01*
X033643Y028138D02*
X033643Y027665D01*
X033624Y027665D01*
X033053Y029043D02*
X033053Y031957D01*
X032108Y032902D02*
X031202Y032902D01*
X032108Y032902D02*
X033210Y034004D01*
X033214Y034004D01*
X033214Y035264D02*
X033328Y035303D01*
X033604Y035303D01*
X033407Y035421D02*
X033407Y037429D01*
X033443Y037443D01*
X031439Y038217D02*
X031439Y038650D01*
X031462Y038661D01*
X031478Y038689D01*
X031478Y039083D01*
X050572Y039083D01*
X052895Y036760D01*
X052895Y034280D01*
X053171Y034004D01*
X053171Y033965D01*
X052935Y033728D01*
X052935Y033453D01*
X052933Y033450D01*
X052895Y033413D01*
X052462Y032980D01*
X052462Y021720D01*
X052580Y021602D01*
X052580Y021563D01*
X052895Y021248D01*
X052933Y021246D01*
X054785Y021366D02*
X056045Y021366D01*
X056045Y021346D01*
X056557Y020618D02*
X057698Y020618D01*
X057718Y020598D01*
X057738Y020579D01*
X057738Y019791D01*
X061793Y019791D01*
X051177Y024252D02*
X051163Y024280D01*
X050966Y024476D01*
X050966Y024791D01*
X053131Y027220D02*
X053131Y027232D01*
X052659Y027705D01*
X052659Y031996D01*
X052817Y032154D01*
X053565Y032154D01*
X053565Y031839D01*
X053919Y031484D01*
X053919Y031366D01*
X053933Y031329D01*
X053958Y031287D01*
X053998Y031248D01*
X053998Y030776D01*
X055376Y030776D02*
X055454Y030776D01*
X055454Y032232D01*
X056006Y032783D01*
X056045Y032803D01*
X056045Y032823D01*
X056675Y032823D01*
X056675Y038177D01*
X057147Y038650D01*
X057171Y038665D01*
X056045Y033571D02*
X054785Y033571D01*
X056045Y033571D02*
X056045Y033551D01*
X056675Y032823D02*
X057698Y032823D01*
X057718Y032803D01*
X055454Y030776D02*
X055454Y029634D01*
X055887Y029201D01*
X055907Y029173D01*
X055887Y029161D01*
X055887Y027980D01*
X055139Y027232D01*
X055131Y027220D01*
X046360Y024594D02*
X045179Y025776D01*
X045179Y028256D01*
X045415Y028492D01*
X045415Y028531D01*
X045454Y028571D01*
X045454Y031406D01*
X045415Y031445D01*
X045415Y037075D01*
X045730Y037390D01*
X045750Y037408D01*
X042750Y037408D02*
X042738Y037429D01*
X041950Y038217D01*
X033407Y035421D02*
X033250Y035264D01*
X033214Y035264D01*
X031439Y038217D02*
X029391Y038217D01*
X028998Y037823D01*
X028998Y037547D01*
X027974Y036524D01*
X025943Y033445D02*
X025887Y033413D01*
X021793Y037508D01*
X021163Y037508D01*
X021120Y037531D01*
X021084Y037547D01*
X019076Y037547D01*
X019076Y037665D01*
X018801Y037941D01*
X018053Y037941D01*
X018053Y035382D01*
X017659Y034988D01*
X017643Y034965D01*
X015179Y036169D02*
X015179Y038098D01*
X015214Y038137D01*
X017643Y038508D02*
X018053Y038098D01*
X018053Y037941D01*
X015179Y036169D02*
X013250Y034240D01*
X013214Y034224D01*
X010494Y033965D02*
X008958Y033965D01*
X006242Y031248D01*
X006214Y031224D01*
X006202Y031248D01*
X003486Y033965D01*
X003486Y035185D01*
X003458Y035213D01*
X003486Y035224D01*
X003486Y036642D01*
X004982Y038138D01*
X005020Y038163D01*
X008013Y038138D02*
X008013Y036012D01*
X006242Y034240D01*
X006214Y034224D01*
X010494Y033965D02*
X010494Y035185D01*
X010458Y035213D01*
X010494Y035224D01*
X010494Y036406D01*
X012187Y038098D01*
X012214Y038137D01*
X008020Y038163D02*
X008013Y038138D01*
X010494Y033965D02*
X013210Y031248D01*
X013214Y031224D01*
X013250Y031209D01*
X014313Y030146D01*
X019037Y030146D01*
X019037Y030815D01*
X019037Y030146D02*
X019037Y027272D01*
X019037Y024043D01*
X018876Y023882D01*
X014313Y021130D02*
X014313Y007744D01*
X015218Y006839D01*
X012698Y007626D02*
X011360Y008965D01*
X011360Y011327D01*
X011342Y011332D01*
X009706Y010579D02*
X009706Y009240D01*
X009273Y008807D01*
X009243Y008800D01*
X005691Y006287D02*
X005691Y005579D01*
X005706Y005551D01*
X005730Y005539D01*
X007935Y005539D01*
X008643Y004831D01*
X008643Y003138D01*
X010454Y001327D01*
X010493Y001300D01*
X015258Y001300D02*
X015297Y001327D01*
X015297Y002429D01*
X017758Y001300D02*
X017777Y001327D01*
X017777Y004870D01*
X018604Y005697D01*
X016675Y009161D02*
X016675Y010185D01*
X016714Y010185D01*
X016714Y012626D01*
X017305Y012626D02*
X017305Y012154D01*
X017580Y011878D02*
X017580Y014004D01*
X017305Y012626D02*
X016006Y013925D01*
X017580Y011878D02*
X016990Y011287D01*
X012029Y016760D02*
X010730Y015461D01*
X010720Y015461D01*
X012029Y016760D02*
X012029Y017154D01*
X012045Y017157D01*
X012069Y017193D01*
X010848Y018217D02*
X010844Y018220D01*
X010809Y018217D01*
X010809Y018177D01*
X009100Y018177D01*
X009785Y018217D01*
X009785Y021209D01*
X009757Y021236D01*
X009470Y022232D02*
X007895Y020657D01*
X007895Y017154D01*
X007899Y017114D01*
X007895Y017114D01*
X007147Y016366D01*
X007147Y015736D01*
X005809Y015736D01*
X007147Y015736D02*
X007147Y011996D01*
X004706Y012705D02*
X004706Y013728D01*
X004706Y016642D01*
X005139Y017075D01*
X005143Y017114D01*
X005139Y017114D01*
X003958Y018177D02*
X003943Y018177D01*
X001713Y018735D02*
X001675Y018728D01*
X001320Y018374D01*
X001320Y009122D01*
X002305Y008138D01*
X002305Y008102D01*
X002305Y007102D01*
X002344Y006130D02*
X002305Y006102D01*
X002305Y005102D01*
X002344Y006130D02*
X004057Y007843D01*
X004037Y007862D01*
X004037Y010815D01*
X002305Y010815D01*
X002305Y010811D01*
X004037Y010815D02*
X004313Y010815D01*
X004313Y011484D01*
X004342Y011524D01*
X004352Y011524D01*
X004352Y012311D01*
X004342Y012311D01*
X004352Y012350D01*
X004706Y012705D01*
X002305Y013811D02*
X002305Y015146D01*
X001714Y015736D01*
X009100Y018177D02*
X009116Y018177D01*
X008880Y022232D02*
X006242Y022232D01*
X006214Y022224D01*
X008880Y022232D02*
X008880Y022390D01*
X009313Y022823D01*
X010376Y022823D01*
X010966Y022232D01*
X013210Y022232D01*
X013214Y022224D01*
X012069Y022744D02*
X012069Y023571D01*
X012069Y028413D01*
X024903Y030618D02*
X025356Y031071D01*
X027069Y029358D01*
X027069Y025382D01*
X027580Y024870D01*
X027580Y024831D01*
X027305Y024555D01*
X027305Y022587D01*
X028683Y022665D02*
X028683Y023571D01*
X028958Y023846D01*
X028958Y023886D01*
X029509Y024437D01*
X029509Y024594D01*
X029531Y024594D01*
X029509Y024634D01*
X029509Y025146D01*
X031655Y027665D02*
X031675Y027665D01*
X031675Y028256D01*
X032462Y029043D01*
X029470Y029043D02*
X029468Y029004D01*
X029431Y029004D01*
X029234Y028807D01*
X029234Y028059D01*
X029470Y029043D02*
X029470Y029555D01*
X025927Y031642D02*
X025927Y033413D01*
X025943Y033445D01*
X025927Y031642D02*
X025356Y031071D01*
X034927Y022461D02*
X034943Y022469D01*
X036124Y022469D01*
X036131Y022461D01*
X036163Y022429D01*
X036675Y022429D01*
X036675Y021799D01*
X038061Y021799D02*
X039061Y021799D01*
X033362Y018470D02*
X033328Y018492D01*
X032777Y018492D01*
X032777Y018768D01*
X032383Y018492D02*
X032383Y017626D01*
X032856Y017154D01*
X032856Y017114D01*
X032895Y017075D01*
X032935Y017075D01*
X033053Y017193D01*
X033328Y017193D01*
X033362Y017191D01*
X033368Y017429D02*
X032935Y017429D01*
X032698Y017665D01*
X032698Y017705D01*
X032108Y017744D02*
X031635Y018217D01*
X031635Y018236D01*
X031596Y018256D01*
X031163Y018689D01*
X031163Y019988D01*
X031635Y018984D02*
X031635Y018768D01*
X032147Y018768D01*
X032147Y018728D01*
X032383Y018492D01*
X031635Y018236D02*
X031635Y017823D01*
X031478Y017665D01*
X031832Y017547D02*
X031832Y017232D01*
X031635Y017035D01*
X031635Y017016D01*
X031635Y016268D02*
X031635Y016051D01*
X031360Y015776D01*
X031635Y016169D02*
X031635Y016268D01*
X031635Y016169D02*
X032108Y016169D01*
X032108Y017744D01*
X032935Y017075D02*
X032935Y016524D01*
X032383Y016524D01*
X032108Y016169D02*
X033328Y016169D01*
X033362Y016167D01*
X033407Y016169D01*
X033362Y016423D02*
X033328Y016445D01*
X032935Y016445D01*
X032935Y016524D01*
X033368Y017429D02*
X033362Y017447D01*
X033368Y017429D02*
X033840Y017429D01*
X033880Y017469D01*
X035021Y017547D02*
X035179Y017705D01*
X035691Y017705D01*
X035704Y017703D01*
X035691Y017941D02*
X035704Y017959D01*
X035691Y017941D02*
X034982Y017941D01*
X041399Y017508D02*
X041832Y017941D01*
X041839Y017954D01*
X046084Y023492D02*
X046084Y023925D01*
X045415Y024594D01*
X042839Y027954D02*
X042856Y027980D01*
X043289Y028413D01*
X043289Y029673D01*
X016006Y018217D02*
X016002Y018220D01*
X004789Y008156D02*
X004785Y008138D01*
X004352Y008138D01*
X004057Y007843D01*
X004789Y007156D02*
X004824Y007154D01*
X005691Y006287D01*
X026754Y004476D02*
X026911Y004634D01*
X027895Y003778D02*
X027935Y003768D01*
X029864Y003768D01*
X029864Y003778D01*
M02*
