%
M48
M72
T01C0.0118
T02C0.0315
T03C0.0320
T04C0.0354
T05C0.0394
T06C0.0400
T07C0.0472
T08C0.0512
T09C0.0520
T10C0.0551
T11C0.0591
T12C0.0866
T13C0.0906
T14C0.1181
T15C0.1260
T16C0.1378
%
T01
X10376Y6012
X11202Y6406
X10533Y6917
X12029Y5933
X14509Y6406
X15218Y6839
X14588Y7862
X12698Y7626
X11754Y9161
X10179Y9398
X9706Y10579
X7147Y11996
X5612Y11287
X5376Y11524
X10769Y13374
X14037Y12941
X14037Y11760
X16439Y11012
X16990Y11287
X17305Y12154
X17974Y12114
X17856Y12587
X16714Y12626
X16006Y13925
X15257Y14752
X17580Y14004
X17974Y11209
X17147Y10067
X16675Y10185
X16675Y9161
X17108Y6406
X18604Y5697
X17226Y5500
X15297Y2429
X23131Y4161
X24667Y4634
X25572Y6248
X24194Y7075
X23840Y6484
X23131Y6839
X25179Y7783
X25415Y7508
X26439Y7783
X26242Y9516
X26360Y10185
X26202Y11012
X24549Y11642
X25809Y13374
X25533Y14398
X24746Y15224
X25061Y15776
X25061Y16287
X24431Y16051
X25061Y17823
X26557Y18650
X28407Y17862
X28683Y17311
X28407Y16996
X27423Y16760
X26675Y16484
X26911Y15815
X28919Y14949
X28683Y14437
X27856Y14398
X28407Y13610
X27541Y13531
X27502Y12783
X31360Y15776
X32383Y16524
X32856Y17114
X31832Y17547
X31478Y17665
X31124Y18059
X30887Y17823
X29943Y18295
X30887Y18768
X30415Y18886
X31163Y19988
X32305Y20421
X34037Y20657
X34628Y21248
X34391Y22154
X35454Y21917
X36675Y21799
X36006Y20382
X37029Y18965
X36754Y18689
X36478Y18177
X37029Y18138
X34982Y17941
X35021Y17547
X34982Y16642
X35218Y16169
X34116Y16524
X33880Y16248
X33880Y17469
X32698Y17705
X32777Y18177
X32777Y18768
X32147Y18768
X33880Y18531
X30887Y17193
X32383Y14673
X34470Y12587
X36124Y13610
X36360Y14004
X36596Y16169
X37029Y16169
X39943Y15500
X40848Y14949
X41360Y14516
X40612Y12075
X41084Y11248
X39864Y11012
X41084Y9004
X39903Y7980
X39903Y6957
X40257Y6051
X38840Y7705
X38840Y8217
X35572Y9358
X35179Y9043
X33801Y9831
X33131Y9122
X32974Y8295
X32147Y9004
X31872Y8768
X31872Y8020
X30887Y7980
X30494Y7941
X30257Y8256
X32777Y5854
X32423Y5146
X34037Y5618
X34746Y6169
X34746Y7508
X40139Y4398
X39116Y2232
X36399Y2154
X43328Y2272
X45730Y3177
X44273Y4161
X47069Y5736
X44824Y7390
X45100Y7744
X46124Y7626
X46124Y8177
X46990Y7665
X47147Y9161
X48683Y9398
X50572Y9594
X49509Y11130
X48683Y11602
X48368Y11878
X47698Y11366
X50415Y12547
X50415Y13650
X52423Y12941
X52974Y12823
X53446Y12862
X53919Y12941
X55021Y12626
X54746Y13650
X52502Y14673
X51399Y16720
X50809Y16996
X50494Y16878
X50100Y16484
X50533Y18531
X51754Y19791
X52580Y19476
X53171Y18531
X53958Y20500
X54667Y20736
X54785Y21366
X54982Y22193
X54706Y22429
X55218Y23492
X53840Y23492
X55021Y24791
X53840Y25224
X53565Y25028
X53131Y24988
X52738Y25028
X51872Y25264
X51872Y24791
X50966Y24791
X50415Y24870
X49824Y26445
X51084Y27429
X50257Y28768
X50533Y30736
X51635Y31878
X52935Y31878
X53801Y32311
X54785Y31681
X55376Y30776
X56675Y30815
X56478Y29240
X56006Y27705
X55139Y26484
X54076Y26169
X53565Y26169
X54076Y27705
X56950Y26051
X56714Y22429
X52580Y21563
X51754Y20736
X50336Y20539
X47502Y19752
X47108Y19752
X47502Y21878
X47069Y21917
X45376Y22862
X45139Y23453
X46084Y23492
X46360Y24594
X46478Y25028
X46478Y25736
X46281Y26720
X46360Y27232
X46202Y27705
X45730Y27980
X45415Y28531
X45179Y29122
X44391Y29594
X43289Y29673
X44667Y31445
X45415Y31445
X45691Y32390
X45966Y32665
X46872Y32783
X46714Y33295
X51872Y33098
X52069Y34201
X52620Y34673
X53171Y34437
X53171Y33965
X54785Y33571
X54785Y33098
X56950Y33531
X53683Y35933
X53998Y30776
X53171Y30736
X46950Y28807
X44391Y27744
X44155Y26720
X43643Y26445
X44155Y25736
X43643Y25461
X43289Y24358
X43880Y23728
X44116Y23217
X45415Y24594
X45454Y25894
X47541Y25972
X47502Y25224
X43840Y21563
X42502Y21524
X40730Y19476
X40257Y18217
X43565Y18256
X40415Y23768
X40179Y24319
X41439Y24476
X40179Y25736
X40415Y26327
X40651Y26563
X39431Y28177
X38565Y28531
X38289Y28728
X40179Y29319
X34824Y31760
X33840Y31996
X33131Y32469
X32777Y31445
X32777Y31091
X33328Y30224
X33761Y30264
X34155Y30343
X31872Y29870
X31202Y29988
X31439Y30461
X30297Y30618
X30297Y29949
X29470Y29555
X27895Y29319
X26793Y29201
X26399Y29437
X26793Y28650
X24667Y29949
X24903Y30618
X22698Y28965
X19549Y28768
X15336Y29004
X12069Y28413
X12344Y26012
X14313Y25854
X14549Y24594
X12069Y23571
X12344Y22980
X12069Y22744
X10651Y22941
X10061Y22547
X9470Y22232
X10651Y24555
X14313Y23138
X14549Y22902
X14313Y21130
X15494Y20343
X21832Y22232
X23880Y24673
X24116Y24909
X24037Y25933
X26124Y25697
X26399Y25421
X27580Y24831
X28210Y25421
X28525Y26169
X29037Y26169
X29549Y26169
X30730Y25697
X31202Y25343
X31596Y25264
X30533Y25106
X30533Y24752
X29509Y25146
X28958Y23886
X28958Y23374
X28210Y22941
X28683Y22665
X27580Y23335
X27305Y22587
X26399Y22665
X25966Y22665
X27580Y26406
X29234Y28059
X29509Y28295
X30730Y28295
X31950Y28138
X33210Y28413
X33565Y28650
X33643Y28138
X31990Y27193
X32265Y26563
X33171Y25933
X33643Y25500
X34194Y25461
X33210Y24240
X32856Y24594
X32541Y21917
X36832Y23650
X28131Y31091
X30297Y31406
X35848Y32823
X36557Y33768
X30730Y35894
X27974Y36524
X40454Y38413
X41950Y38217
X56832Y18453
X56360Y16996
X57895Y16524
X52029Y12390
X51163Y11524
X52541Y9949
X52974Y9713
X53328Y9713
X54509Y9713
X57108Y8453
X52698Y7587
X57935Y3098
X57383Y2272
X43801Y8689
X44037Y9201
X43801Y9516
X44037Y11012
X43525Y11878
X42620Y7469
X26911Y4634
X21163Y9437
X21872Y17350
X5809Y15736
X3053Y16484
T02
X1714Y16642
X1714Y17547
X1713Y18735
X1713Y19640
X1713Y20546
X1714Y15736
X4706Y13728
X5336Y13728
X5966Y13728
X7545Y13717
X8175Y13717
X8805Y13717
X18895Y16933
X18895Y17933
X18895Y18933
X18876Y21882
X18876Y22882
X18876Y23882
X19643Y32965
X18643Y33965
X17643Y32965
X17643Y34965
X17643Y36508
X18643Y37508
X19643Y36508
X19643Y34965
X19643Y38508
X17643Y38508
X25943Y35445
X25943Y34445
X25943Y33445
X33214Y34004
X33214Y34634
X33214Y35264
X35680Y35299
X35680Y34669
X35680Y34039
X48486Y36350
X48486Y37350
X48486Y38350
X50399Y38665
X51399Y37665
X52399Y38665
X52399Y36665
X50399Y36665
X55257Y36350
X55257Y37350
X55257Y38350
X57171Y38665
X58171Y37665
X59171Y38665
X59171Y36665
X57171Y36665
T03
X7153Y8216
X7153Y7216
X4789Y7156
X4789Y8156
T04
X5143Y17114
X6128Y17114
X6915Y17114
X7899Y17114
X12045Y17157
X13029Y17157
X13817Y17157
X14801Y17157
T05
X11361Y13552
X11342Y11332
X20342Y11332
X20361Y13552
X13214Y22224
X13214Y23224
X13214Y24224
X13214Y25224
X13214Y26224
X6214Y26224
X6214Y25224
X6214Y24224
X6214Y23224
X6214Y22224
X6214Y31224
X6214Y34224
X13214Y34224
X13214Y31224
T06
X22151Y27799
X23151Y27799
X23151Y26799
X22151Y26799
X22151Y25799
X23151Y25799
X23151Y24799
X22151Y24799
X22151Y23799
X23151Y23799
X23151Y22799
X22151Y22799
X22151Y21799
X23151Y21799
X23151Y20799
X22151Y20799
X22151Y19799
X23151Y19799
X23151Y18799
X22151Y18799
X22151Y17799
X23151Y17799
X23151Y16799
X22151Y16799
X22151Y15799
X23151Y15799
X23151Y14799
X22151Y14799
X22151Y13799
X23151Y13799
X23151Y12799
X22151Y12799
X22151Y11799
X23151Y11799
X23151Y10799
X22151Y10799
X22151Y9799
X23151Y9799
X23151Y8799
X22151Y8799
X25274Y2793
X26974Y2793
X30785Y2793
X32485Y2793
X38061Y8799
X39061Y8799
X39061Y9799
X38061Y9799
X38061Y10799
X39061Y10799
X39061Y11799
X38061Y11799
X38061Y12799
X39061Y12799
X39061Y13799
X38061Y13799
X38061Y14799
X39061Y14799
X39061Y15799
X38061Y15799
X38061Y16799
X39061Y16799
X39061Y17799
X38061Y17799
X38061Y18799
X39061Y18799
X39061Y19799
X38061Y19799
X38061Y20799
X39061Y20799
X39061Y21799
X38061Y21799
X38061Y22799
X39061Y22799
X39061Y23799
X38061Y23799
X38061Y24799
X39061Y24799
X39061Y25799
X38061Y25799
X38061Y26799
X39061Y26799
X39061Y27799
X38061Y27799
X41839Y27954
X42839Y27954
X42839Y26954
X41839Y26954
X41839Y25954
X42839Y25954
X42839Y24954
X41839Y24954
X41839Y23954
X42839Y23954
X42839Y22954
X41839Y22954
X41839Y21954
X42839Y21954
X42839Y20954
X41839Y20954
X41839Y19954
X42839Y19954
X42839Y18954
X41839Y18954
X41839Y17954
X42839Y17954
X42839Y16954
X41839Y16954
X41839Y15954
X42839Y15954
X42839Y14954
X41839Y14954
X41839Y13954
X42839Y13954
X42839Y12954
X41839Y12954
X61482Y24276
X61482Y25276
X61482Y26276
X61482Y27276
X61482Y28276
X42839Y28954
X41839Y28954
X41839Y29954
X42839Y29954
X42839Y30954
X41839Y30954
X41839Y31954
X42840Y31949
X31462Y37661
X30462Y37661
X29462Y37661
X28462Y37661
X27462Y37661
X26462Y37661
X25462Y37661
X25462Y38661
X26462Y38661
X27462Y38661
X28462Y38661
X29462Y38661
X30462Y38661
X31462Y38661
X30454Y34996
X29454Y34996
X29454Y33996
X30454Y33996
T07
X33443Y37443
X34443Y37443
X35443Y37443
X37928Y37408
X38928Y37408
X39928Y37408
X42750Y37408
X43750Y37408
X44750Y37408
X45750Y37408
X39943Y34358
X38943Y34358
X37943Y34358
X19037Y30815
X18037Y30815
X18037Y27272
X19037Y27272
X2305Y13811
X2305Y12811
X2305Y11811
X2305Y10811
X2305Y8102
X2305Y7102
X2305Y6102
X2305Y5102
X21313Y1945
X22313Y1945
T08
X55143Y5209
T09
X48143Y2429
X37285Y1287
X36285Y1287
X35285Y1287
X31167Y12398
X31139Y13957
X29754Y22417
X21120Y33531
X21120Y34531
X21120Y35531
X21120Y36531
X21120Y37531
X56029Y30665
X57620Y25697
X57620Y24122
X61793Y22154
X61793Y20972
X61793Y19791
X55978Y18516
X57545Y13583
X57545Y11933
X6139Y10000
X4639Y10000
T10
X5020Y38163
X8020Y38163
X12214Y38137
X15214Y38137
T11
X15258Y8800
X12993Y8800
X9243Y8800
X19008Y8800
X19008Y1300
X17758Y1300
X16508Y1300
X15258Y1300
X12993Y1300
X11743Y1300
X10493Y1300
X9243Y1300
T12
X9757Y21236
X16757Y21236
X10458Y35213
X3458Y35213
T13
X3943Y18177
X9100Y18177
X10844Y18220
X16002Y18220
T14
X5706Y5551
X7557Y4370
X5706Y3228
T15
X2139Y2500
X2139Y37870
X61131Y37870
X61131Y2500
T16
X61631Y11031
X42340Y11031
X39002Y5370
X22072Y5370
X22072Y30567
X39002Y30567
X42340Y33866
X61631Y33866
M30
