G75*
%MOIN*%
%OFA0B0*%
%FSLAX24Y24*%
%IPPOS*%
%LPD*%
%AMOC8*
5,1,8,0,0,1.08239X$1,22.5*
%
%ADD10C,0.0040*%
%ADD11C,0.0050*%
%ADD12C,0.0030*%
%ADD13C,0.0060*%
%ADD14C,0.0039*%
%ADD15C,0.0079*%
%ADD16C,0.0020*%
D10*
X003265Y000976D02*
X003265Y001129D01*
X003265Y001052D02*
X003649Y001052D01*
X003726Y000976D01*
X003726Y000899D01*
X003649Y000822D01*
X003649Y001283D02*
X003726Y001359D01*
X003726Y001513D01*
X003649Y001589D01*
X003572Y001589D01*
X003495Y001513D01*
X003495Y001283D01*
X003649Y001283D01*
X003495Y001283D02*
X003342Y001436D01*
X003265Y001589D01*
X003419Y001743D02*
X003265Y001896D01*
X003726Y001896D01*
X003726Y001743D02*
X003726Y002050D01*
X003649Y002203D02*
X003342Y002510D01*
X003649Y002510D01*
X003726Y002434D01*
X003726Y002280D01*
X003649Y002203D01*
X003342Y002203D01*
X003265Y002280D01*
X003265Y002434D01*
X003342Y002510D01*
X007864Y002230D02*
X007940Y002307D01*
X008247Y002000D01*
X008324Y002076D01*
X008324Y002230D01*
X008247Y002307D01*
X007940Y002307D01*
X007864Y002230D02*
X007864Y002076D01*
X007940Y002000D01*
X008247Y002000D01*
X008324Y001846D02*
X008324Y001539D01*
X008324Y001693D02*
X007864Y001693D01*
X008017Y001539D01*
X007864Y001386D02*
X007940Y001232D01*
X008094Y001079D01*
X008094Y001309D01*
X008171Y001386D01*
X008247Y001386D01*
X008324Y001309D01*
X008324Y001156D01*
X008247Y001079D01*
X008094Y001079D01*
X008247Y000925D02*
X007864Y000925D01*
X007864Y000618D02*
X008247Y000618D01*
X008324Y000695D01*
X008324Y000849D01*
X008247Y000925D01*
X009116Y002020D02*
X008962Y002173D01*
X009423Y002173D01*
X009423Y002020D02*
X009423Y002327D01*
X012962Y002250D02*
X013192Y002020D01*
X013192Y002327D01*
X012962Y002250D02*
X013423Y002250D01*
X013879Y002230D02*
X013956Y002307D01*
X014263Y002000D01*
X014340Y002076D01*
X014340Y002230D01*
X014263Y002307D01*
X013956Y002307D01*
X013879Y002230D02*
X013879Y002076D01*
X013956Y002000D01*
X014263Y002000D01*
X014263Y001846D02*
X014340Y001769D01*
X014340Y001616D01*
X014263Y001539D01*
X013956Y001846D01*
X014263Y001846D01*
X014263Y001539D02*
X013956Y001539D01*
X013879Y001616D01*
X013879Y001769D01*
X013956Y001846D01*
X013879Y001386D02*
X013956Y001232D01*
X014110Y001079D01*
X014110Y001309D01*
X014186Y001386D01*
X014263Y001386D01*
X014340Y001309D01*
X014340Y001156D01*
X014263Y001079D01*
X014110Y001079D01*
X014263Y000925D02*
X013879Y000925D01*
X013879Y000618D02*
X014263Y000618D01*
X014340Y000695D01*
X014340Y000849D01*
X014263Y000925D01*
X015131Y002020D02*
X014978Y002173D01*
X015438Y002173D01*
X015438Y002020D02*
X015438Y002327D01*
X018978Y002250D02*
X019208Y002020D01*
X019208Y002327D01*
X019438Y002250D02*
X018978Y002250D01*
X023147Y002224D02*
X023147Y002377D01*
X023224Y002454D01*
X023531Y002147D01*
X023608Y002224D01*
X023608Y002377D01*
X023531Y002454D01*
X023224Y002454D01*
X023147Y002224D02*
X023224Y002147D01*
X023531Y002147D01*
X023608Y001994D02*
X023608Y001687D01*
X023301Y001994D01*
X023224Y001994D01*
X023147Y001917D01*
X023147Y001764D01*
X023224Y001687D01*
X023147Y001533D02*
X023224Y001380D01*
X023377Y001226D01*
X023377Y001457D01*
X023454Y001533D01*
X023531Y001533D01*
X023608Y001457D01*
X023608Y001303D01*
X023531Y001226D01*
X023377Y001226D01*
X023147Y001073D02*
X023147Y000920D01*
X023147Y000996D02*
X023531Y000996D01*
X023608Y000920D01*
X023608Y000843D01*
X023531Y000766D01*
X025445Y004563D02*
X025497Y004563D01*
X025549Y004615D01*
X025549Y004874D01*
X025600Y004874D02*
X025497Y004874D01*
X025716Y004770D02*
X025819Y004874D01*
X025819Y004563D01*
X025716Y004563D02*
X025923Y004563D01*
X026038Y004615D02*
X026038Y004667D01*
X026090Y004718D01*
X026193Y004718D01*
X026245Y004667D01*
X026245Y004615D01*
X026193Y004563D01*
X026090Y004563D01*
X026038Y004615D01*
X026090Y004718D02*
X026038Y004770D01*
X026038Y004822D01*
X026090Y004874D01*
X026193Y004874D01*
X026245Y004822D01*
X026245Y004770D01*
X026193Y004718D01*
X026360Y004770D02*
X026464Y004874D01*
X026464Y004563D01*
X026567Y004563D02*
X026360Y004563D01*
X025445Y004563D02*
X025394Y004615D01*
X025369Y005388D02*
X025369Y005735D01*
X025369Y005562D02*
X025543Y005735D01*
X025629Y005735D01*
X025799Y005648D02*
X025886Y005735D01*
X026146Y005735D01*
X026315Y005735D02*
X026401Y005735D01*
X026401Y005388D01*
X026315Y005388D02*
X026488Y005388D01*
X026658Y005475D02*
X026658Y005648D01*
X026745Y005735D01*
X026919Y005735D01*
X027005Y005648D01*
X027005Y005475D01*
X026919Y005388D01*
X026745Y005388D01*
X026658Y005475D01*
X026401Y005909D02*
X026401Y005995D01*
X026359Y006228D02*
X026186Y006228D01*
X026272Y006228D02*
X026272Y006575D01*
X026186Y006575D01*
X026017Y006488D02*
X026017Y006228D01*
X026017Y006488D02*
X025930Y006575D01*
X025670Y006575D01*
X025670Y006228D01*
X025501Y006315D02*
X025501Y006488D01*
X025415Y006575D01*
X025241Y006575D01*
X025154Y006488D01*
X025154Y006315D01*
X025241Y006228D01*
X025415Y006228D01*
X025501Y006315D01*
X024985Y006575D02*
X024898Y006575D01*
X024725Y006402D01*
X024725Y006575D02*
X024725Y006228D01*
X024554Y006228D02*
X024468Y006315D01*
X024468Y006662D01*
X024554Y006575D02*
X024381Y006575D01*
X024212Y006575D02*
X023952Y006575D01*
X023865Y006488D01*
X023865Y006315D01*
X023952Y006228D01*
X024212Y006228D01*
X024338Y005909D02*
X024338Y005562D01*
X024511Y005388D01*
X024685Y005562D01*
X024685Y005909D01*
X024940Y005735D02*
X025114Y005735D01*
X025201Y005648D01*
X025201Y005562D01*
X024854Y005562D01*
X024854Y005648D02*
X024854Y005475D01*
X024940Y005388D01*
X025114Y005388D01*
X024854Y005648D02*
X024940Y005735D01*
X025799Y005648D02*
X025886Y005562D01*
X026059Y005562D01*
X026146Y005475D01*
X026059Y005388D01*
X025799Y005388D01*
X026616Y006228D02*
X026529Y006315D01*
X026529Y006488D01*
X026616Y006575D01*
X026876Y006575D01*
X027045Y006488D02*
X027132Y006575D01*
X027392Y006575D01*
X027305Y006402D02*
X027132Y006402D01*
X027045Y006488D01*
X027045Y006228D02*
X027305Y006228D01*
X027392Y006315D01*
X027305Y006402D01*
X026876Y006228D02*
X026616Y006228D01*
X026272Y006749D02*
X026272Y006835D01*
X026103Y007068D02*
X026103Y007589D01*
X026103Y007328D02*
X025756Y007328D01*
X025756Y007068D02*
X025756Y007589D01*
X025587Y007589D02*
X025240Y007589D01*
X025072Y007589D02*
X025072Y007068D01*
X024898Y007242D01*
X024725Y007068D01*
X024725Y007589D01*
X024556Y007502D02*
X024556Y007155D01*
X024469Y007068D01*
X024296Y007068D01*
X024209Y007155D01*
X024209Y007502D01*
X024296Y007589D01*
X024469Y007589D01*
X024556Y007502D01*
X024040Y007502D02*
X024040Y007328D01*
X023954Y007242D01*
X023693Y007242D01*
X023693Y007068D02*
X023693Y007589D01*
X023954Y007589D01*
X024040Y007502D01*
X023867Y007242D02*
X024040Y007068D01*
X023525Y007155D02*
X023525Y007328D01*
X023351Y007328D01*
X023178Y007155D02*
X023178Y007502D01*
X023265Y007589D01*
X023438Y007589D01*
X023525Y007502D01*
X023525Y007155D02*
X023438Y007068D01*
X023265Y007068D01*
X023178Y007155D01*
X023093Y006749D02*
X023093Y006228D01*
X023179Y006228D02*
X023006Y006228D01*
X022837Y006228D02*
X022490Y006228D01*
X022490Y006749D01*
X022837Y006749D01*
X023006Y006749D02*
X023093Y006749D01*
X023350Y006488D02*
X023436Y006575D01*
X023610Y006575D01*
X023697Y006488D01*
X023697Y006402D01*
X023350Y006402D01*
X023350Y006488D02*
X023350Y006315D01*
X023436Y006228D01*
X023610Y006228D01*
X022664Y006488D02*
X022490Y006488D01*
X025414Y007068D02*
X025414Y007589D01*
X026272Y007328D02*
X026619Y007328D01*
X026787Y007328D02*
X026961Y007328D01*
X026787Y007068D02*
X026787Y007589D01*
X027134Y007589D01*
X027303Y007589D02*
X027303Y007502D01*
X027476Y007328D01*
X027476Y007068D01*
X027476Y007328D02*
X027650Y007502D01*
X027650Y007589D01*
X027819Y007502D02*
X027905Y007589D01*
X028079Y007589D01*
X028166Y007502D01*
X028166Y007415D01*
X027819Y007068D01*
X028166Y007068D01*
X028334Y007155D02*
X028681Y007502D01*
X028681Y007155D01*
X028594Y007068D01*
X028421Y007068D01*
X028334Y007155D01*
X028334Y007502D01*
X028421Y007589D01*
X028594Y007589D01*
X028681Y007502D01*
X028850Y007415D02*
X029023Y007589D01*
X029023Y007068D01*
X028850Y007068D02*
X029197Y007068D01*
X029365Y007155D02*
X029452Y007068D01*
X029626Y007068D01*
X029712Y007155D01*
X029712Y007328D01*
X029626Y007415D01*
X029539Y007415D01*
X029365Y007328D01*
X029365Y007589D01*
X029712Y007589D01*
X029797Y006575D02*
X029623Y006402D01*
X029455Y006402D02*
X029194Y006402D01*
X029108Y006315D01*
X029194Y006228D01*
X029455Y006228D01*
X029455Y006488D01*
X029368Y006575D01*
X029194Y006575D01*
X028939Y006488D02*
X028939Y006315D01*
X028852Y006228D01*
X028679Y006228D01*
X028592Y006315D01*
X028592Y006488D01*
X028679Y006575D01*
X028852Y006575D01*
X028939Y006488D01*
X028423Y006402D02*
X028423Y006315D01*
X028337Y006228D01*
X028076Y006228D01*
X028076Y006749D01*
X028337Y006749D01*
X028423Y006662D01*
X028423Y006575D01*
X028337Y006488D01*
X028076Y006488D01*
X028337Y006488D02*
X028423Y006402D01*
X028465Y005909D02*
X028552Y005822D01*
X028552Y005735D01*
X028465Y005648D01*
X028205Y005648D01*
X028205Y005388D02*
X028205Y005909D01*
X028465Y005909D01*
X028465Y005648D02*
X028552Y005562D01*
X028552Y005475D01*
X028465Y005388D01*
X028205Y005388D01*
X027521Y005388D02*
X027521Y005648D01*
X027434Y005735D01*
X027174Y005735D01*
X027174Y005388D01*
X029623Y006228D02*
X029623Y006575D01*
X029797Y006575D02*
X029884Y006575D01*
X030053Y006488D02*
X030140Y006575D01*
X030400Y006575D01*
X030400Y006749D02*
X030400Y006228D01*
X030140Y006228D01*
X030053Y006315D01*
X030053Y006488D01*
X031009Y004874D02*
X031112Y004874D01*
X031061Y004874D02*
X031061Y004615D01*
X031009Y004563D01*
X030957Y004563D01*
X030905Y004615D01*
X031228Y004563D02*
X031435Y004563D01*
X031331Y004563D02*
X031331Y004874D01*
X031228Y004770D01*
X031550Y004770D02*
X031550Y004822D01*
X031602Y004874D01*
X031705Y004874D01*
X031757Y004822D01*
X031757Y004770D01*
X031705Y004718D01*
X031602Y004718D01*
X031550Y004770D01*
X031602Y004718D02*
X031550Y004667D01*
X031550Y004615D01*
X031602Y004563D01*
X031705Y004563D01*
X031757Y004615D01*
X031757Y004667D01*
X031705Y004718D01*
X031872Y004822D02*
X031924Y004874D01*
X032027Y004874D01*
X032079Y004822D01*
X032079Y004770D01*
X031872Y004563D01*
X032079Y004563D01*
X035905Y003438D02*
X035965Y003498D01*
X036205Y003258D01*
X036265Y003318D01*
X036265Y003438D01*
X036205Y003498D01*
X035965Y003498D01*
X035905Y003438D02*
X035905Y003318D01*
X035965Y003258D01*
X036205Y003258D01*
X036205Y003130D02*
X035965Y003130D01*
X035905Y003070D01*
X035905Y002950D01*
X035965Y002890D01*
X036205Y002890D01*
X036265Y002950D01*
X036265Y003070D01*
X036205Y003130D01*
X036265Y002764D02*
X036265Y002644D01*
X036265Y002704D02*
X035905Y002704D01*
X035905Y002644D02*
X035905Y002764D01*
X035965Y002516D02*
X036085Y002516D01*
X036145Y002456D01*
X036145Y002276D01*
X036265Y002276D02*
X035905Y002276D01*
X035905Y002456D01*
X035965Y002516D01*
X035965Y002148D02*
X035905Y002088D01*
X035905Y001967D01*
X035965Y001907D01*
X036205Y001907D01*
X036265Y001967D01*
X036265Y002088D01*
X036205Y002148D01*
X036085Y002148D01*
X036085Y002028D01*
X036905Y002088D02*
X036905Y001967D01*
X036965Y001907D01*
X037205Y001907D01*
X037265Y001967D01*
X037265Y002088D01*
X037205Y002148D01*
X037085Y002148D01*
X037085Y002028D01*
X036965Y002148D02*
X036905Y002088D01*
X036905Y002276D02*
X036905Y002456D01*
X036965Y002516D01*
X037085Y002516D01*
X037145Y002456D01*
X037145Y002276D01*
X037265Y002276D02*
X036905Y002276D01*
X036905Y002644D02*
X036905Y002764D01*
X036905Y002704D02*
X037265Y002704D01*
X037265Y002644D02*
X037265Y002764D01*
X037205Y002890D02*
X037265Y002950D01*
X037265Y003070D01*
X037205Y003130D01*
X036965Y003130D01*
X036905Y003070D01*
X036905Y002950D01*
X036965Y002890D01*
X037205Y002890D01*
X037265Y003258D02*
X037265Y003498D01*
X037265Y003378D02*
X036905Y003378D01*
X037025Y003258D01*
X033091Y009857D02*
X032850Y009857D01*
X032971Y009857D02*
X032971Y010217D01*
X032850Y010097D01*
X032722Y010157D02*
X032482Y009917D01*
X032542Y009857D01*
X032662Y009857D01*
X032722Y009917D01*
X032722Y010157D01*
X032662Y010217D01*
X032542Y010217D01*
X032482Y010157D01*
X032482Y009917D01*
X032354Y009857D02*
X032114Y009857D01*
X032234Y009857D02*
X032234Y010217D01*
X032114Y010097D01*
X031986Y010157D02*
X031926Y010217D01*
X031806Y010217D01*
X031745Y010157D01*
X031745Y009917D01*
X031806Y009857D01*
X031926Y009857D01*
X031986Y009917D01*
X031620Y009857D02*
X031500Y009857D01*
X031560Y009857D02*
X031560Y010217D01*
X031500Y010217D02*
X031620Y010217D01*
X031524Y012918D02*
X031764Y012918D01*
X031892Y012918D02*
X031892Y013278D01*
X032132Y013278D01*
X032260Y013218D02*
X032320Y013278D01*
X032440Y013278D01*
X032500Y013218D01*
X032500Y013158D01*
X032260Y012918D01*
X032500Y012918D01*
X032012Y013098D02*
X031892Y013098D01*
X031764Y013278D02*
X031524Y013278D01*
X031524Y012918D01*
X031395Y012918D02*
X031275Y013038D01*
X031335Y013038D02*
X031155Y013038D01*
X031155Y012918D02*
X031155Y013278D01*
X031335Y013278D01*
X031395Y013218D01*
X031395Y013098D01*
X031335Y013038D01*
X031524Y013098D02*
X031644Y013098D01*
X031027Y013038D02*
X031027Y013278D01*
X030787Y013278D02*
X030787Y013038D01*
X030907Y012918D01*
X031027Y013038D01*
X031128Y014477D02*
X031128Y014837D01*
X031308Y014837D01*
X031368Y014777D01*
X031368Y014657D01*
X031308Y014597D01*
X031128Y014597D01*
X031248Y014597D02*
X031368Y014477D01*
X031496Y014477D02*
X031736Y014477D01*
X031864Y014477D02*
X031864Y014837D01*
X032105Y014837D01*
X032233Y014717D02*
X032353Y014837D01*
X032353Y014477D01*
X032233Y014477D02*
X032473Y014477D01*
X031984Y014657D02*
X031864Y014657D01*
X031736Y014837D02*
X031496Y014837D01*
X031496Y014477D01*
X031496Y014657D02*
X031616Y014657D01*
X031000Y014597D02*
X031000Y014837D01*
X031000Y014597D02*
X030879Y014477D01*
X030759Y014597D01*
X030759Y014837D01*
X033546Y020008D02*
X033469Y020085D01*
X033469Y020469D01*
X033776Y020469D02*
X033776Y020085D01*
X033700Y020008D01*
X033546Y020008D01*
X033930Y020008D02*
X034237Y020008D01*
X034390Y020008D02*
X034697Y020008D01*
X034544Y020008D02*
X034544Y020469D01*
X034390Y020315D01*
X034083Y020469D02*
X034083Y020008D01*
X033930Y020315D02*
X034083Y020469D01*
X034851Y020392D02*
X034927Y020469D01*
X035081Y020469D01*
X035158Y020392D01*
X034851Y020085D01*
X034927Y020008D01*
X035081Y020008D01*
X035158Y020085D01*
X035158Y020392D01*
X034851Y020392D02*
X034851Y020085D01*
X031087Y022997D02*
X031027Y022937D01*
X030907Y022937D01*
X030847Y022997D01*
X030967Y023117D02*
X031027Y023117D01*
X031087Y023057D01*
X031087Y022997D01*
X031027Y023117D02*
X031087Y023178D01*
X031087Y023238D01*
X031027Y023298D01*
X030907Y023298D01*
X030847Y023238D01*
X030719Y023298D02*
X030478Y023298D01*
X030478Y022937D01*
X030350Y022937D02*
X030110Y022937D01*
X030110Y023298D01*
X030350Y023298D01*
X030230Y023117D02*
X030110Y023117D01*
X029982Y023117D02*
X029922Y023057D01*
X029742Y023057D01*
X029742Y022937D02*
X029742Y023298D01*
X029922Y023298D01*
X029982Y023238D01*
X029982Y023117D01*
X029862Y023057D02*
X029982Y022937D01*
X029614Y023057D02*
X029614Y023298D01*
X029374Y023298D02*
X029374Y023057D01*
X029494Y022937D01*
X029614Y023057D01*
X030478Y023117D02*
X030599Y023117D01*
X043631Y030162D02*
X043631Y030315D01*
X043631Y030238D02*
X044015Y030238D01*
X044092Y030162D01*
X044092Y030085D01*
X044015Y030008D01*
X043862Y030469D02*
X043631Y030699D01*
X044092Y030699D01*
X044015Y030929D02*
X043708Y031236D01*
X044015Y031236D01*
X044092Y031159D01*
X044092Y031006D01*
X044015Y030929D01*
X043708Y030929D01*
X043631Y031006D01*
X043631Y031159D01*
X043708Y031236D01*
X043708Y031389D02*
X043631Y031466D01*
X043631Y031620D01*
X043708Y031696D01*
X044015Y031389D01*
X044092Y031466D01*
X044092Y031620D01*
X044015Y031696D01*
X043708Y031696D01*
X043708Y031389D02*
X044015Y031389D01*
X043862Y030776D02*
X043862Y030469D01*
X048665Y030539D02*
X049026Y030539D01*
X049026Y030659D02*
X049026Y030418D01*
X048966Y030230D02*
X048665Y030230D01*
X048665Y030170D02*
X048665Y030290D01*
X048785Y030418D02*
X048665Y030539D01*
X048785Y030787D02*
X048665Y030907D01*
X049026Y030907D01*
X049026Y030787D02*
X049026Y031027D01*
X049026Y031155D02*
X049026Y031395D01*
X049026Y031275D02*
X048665Y031275D01*
X048785Y031155D01*
X048966Y030230D02*
X049026Y030170D01*
X049026Y030110D01*
X048966Y030050D01*
X048966Y029922D02*
X049026Y029862D01*
X049026Y029742D01*
X048966Y029682D01*
X048846Y029742D02*
X048846Y029862D01*
X048906Y029922D01*
X048966Y029922D01*
X048846Y029742D02*
X048785Y029682D01*
X048725Y029682D01*
X048665Y029742D01*
X048665Y029862D01*
X048725Y029922D01*
X048725Y028836D02*
X048966Y028596D01*
X049026Y028656D01*
X049026Y028776D01*
X048966Y028836D01*
X048725Y028836D01*
X048665Y028776D01*
X048665Y028656D01*
X048725Y028596D01*
X048966Y028596D01*
X049026Y028468D02*
X049026Y028228D01*
X049026Y028348D02*
X048665Y028348D01*
X048785Y028228D01*
X049026Y028100D02*
X049026Y027859D01*
X049026Y027979D02*
X048665Y027979D01*
X048785Y027859D01*
X048665Y027731D02*
X048665Y027611D01*
X048665Y027671D02*
X048966Y027671D01*
X049026Y027611D01*
X049026Y027551D01*
X048966Y027491D01*
X048966Y027363D02*
X049026Y027303D01*
X049026Y027183D01*
X048966Y027123D01*
X048846Y027183D02*
X048846Y027303D01*
X048906Y027363D01*
X048966Y027363D01*
X048846Y027183D02*
X048785Y027123D01*
X048725Y027123D01*
X048665Y027183D01*
X048665Y027303D01*
X048725Y027363D01*
X048814Y022806D02*
X049102Y022517D01*
X049174Y022589D01*
X049174Y022733D01*
X049102Y022806D01*
X048814Y022806D01*
X048742Y022733D01*
X048742Y022589D01*
X048814Y022517D01*
X049102Y022517D01*
X049102Y022372D02*
X049174Y022372D01*
X049174Y022299D01*
X049102Y022299D01*
X049102Y022372D01*
X049174Y022153D02*
X048958Y022153D01*
X048886Y022081D01*
X048886Y021937D01*
X048958Y021864D01*
X048814Y021718D02*
X048742Y021646D01*
X048742Y021502D01*
X048814Y021429D01*
X049102Y021429D01*
X049174Y021502D01*
X049174Y021646D01*
X049102Y021718D01*
X049174Y021864D02*
X048742Y021864D01*
X049026Y019191D02*
X049026Y018950D01*
X049026Y019070D02*
X048665Y019070D01*
X048785Y018950D01*
X048725Y018822D02*
X048966Y018582D01*
X049026Y018642D01*
X049026Y018762D01*
X048966Y018822D01*
X048725Y018822D01*
X048665Y018762D01*
X048665Y018642D01*
X048725Y018582D01*
X048966Y018582D01*
X049026Y018454D02*
X049026Y018214D01*
X049026Y018334D02*
X048665Y018334D01*
X048785Y018214D01*
X048665Y018086D02*
X048665Y017966D01*
X048665Y018026D02*
X048966Y018026D01*
X049026Y017966D01*
X049026Y017905D01*
X048966Y017845D01*
X048966Y017717D02*
X049026Y017657D01*
X049026Y017537D01*
X048966Y017477D01*
X048846Y017537D02*
X048846Y017657D01*
X048906Y017717D01*
X048966Y017717D01*
X048846Y017537D02*
X048785Y017477D01*
X048725Y017477D01*
X048665Y017537D01*
X048665Y017657D01*
X048725Y017717D01*
X048729Y016864D02*
X048970Y016624D01*
X049030Y016684D01*
X049030Y016804D01*
X048970Y016864D01*
X048729Y016864D01*
X048669Y016804D01*
X048669Y016684D01*
X048729Y016624D01*
X048970Y016624D01*
X048970Y016495D02*
X049030Y016435D01*
X049030Y016315D01*
X048970Y016255D01*
X048729Y016495D01*
X048970Y016495D01*
X048970Y016255D02*
X048729Y016255D01*
X048669Y016315D01*
X048669Y016435D01*
X048729Y016495D01*
X049030Y016127D02*
X049030Y015887D01*
X049030Y016007D02*
X048669Y016007D01*
X048789Y015887D01*
X048669Y015759D02*
X048669Y015639D01*
X048669Y015699D02*
X048970Y015699D01*
X049030Y015639D01*
X049030Y015579D01*
X048970Y015519D01*
X048970Y015391D02*
X049030Y015330D01*
X049030Y015210D01*
X048970Y015150D01*
X048849Y015210D02*
X048789Y015150D01*
X048729Y015150D01*
X048669Y015210D01*
X048669Y015330D01*
X048729Y015391D01*
X048849Y015330D02*
X048910Y015391D01*
X048970Y015391D01*
X048849Y015330D02*
X048849Y015210D01*
X052428Y010053D02*
X052368Y009993D01*
X052368Y009933D01*
X052428Y009873D01*
X052549Y009873D01*
X052609Y009813D01*
X052609Y009752D01*
X052549Y009692D01*
X052428Y009692D01*
X052368Y009752D01*
X052428Y010053D02*
X052549Y010053D01*
X052609Y009993D01*
X052857Y010053D02*
X052977Y010053D01*
X052917Y010053D02*
X052917Y009752D01*
X052857Y009692D01*
X052797Y009692D01*
X052737Y009752D01*
X053105Y009632D02*
X053345Y009632D01*
X053473Y009692D02*
X053473Y009933D01*
X053593Y010053D01*
X053714Y009933D01*
X053714Y009692D01*
X053842Y009692D02*
X053842Y010053D01*
X054022Y010053D01*
X054082Y009993D01*
X054082Y009752D01*
X054022Y009692D01*
X053842Y009692D01*
X053714Y009873D02*
X053473Y009873D01*
X054210Y009993D02*
X054270Y010053D01*
X054390Y010053D01*
X054450Y009993D01*
X054210Y009993D02*
X054210Y009752D01*
X054270Y009692D01*
X054390Y009692D01*
X054450Y009752D01*
X054578Y009632D02*
X054819Y009632D01*
X054947Y009692D02*
X054947Y010053D01*
X055067Y009933D01*
X055187Y010053D01*
X055187Y009692D01*
X055315Y009752D02*
X055375Y009692D01*
X055495Y009692D01*
X055555Y009752D01*
X055555Y009993D01*
X055495Y010053D01*
X055375Y010053D01*
X055315Y009993D01*
X055315Y009752D01*
X055683Y009692D02*
X055683Y010053D01*
X055863Y010053D01*
X055923Y009993D01*
X055923Y009752D01*
X055863Y009692D01*
X055683Y009692D01*
X056052Y009692D02*
X056292Y009692D01*
X056172Y009873D02*
X056052Y009873D01*
X056052Y010053D02*
X056052Y009692D01*
X056052Y010053D02*
X056292Y010053D01*
X049004Y003249D02*
X048764Y003009D01*
X048824Y002949D01*
X048944Y002949D01*
X049004Y003009D01*
X049004Y003249D01*
X048944Y003309D01*
X048824Y003309D01*
X048764Y003249D01*
X048764Y003009D01*
X048516Y003129D02*
X048396Y003129D01*
X048396Y002949D02*
X048396Y003309D01*
X048636Y003309D01*
X048268Y003309D02*
X048027Y003309D01*
X048027Y002949D01*
X048268Y002949D01*
X048148Y003129D02*
X048027Y003129D01*
X047899Y003129D02*
X047839Y003069D01*
X047659Y003069D01*
X047659Y002949D02*
X047659Y003309D01*
X047839Y003309D01*
X047899Y003249D01*
X047899Y003129D01*
X047779Y003069D02*
X047899Y002949D01*
X047531Y003069D02*
X047531Y003309D01*
X047531Y003069D02*
X047411Y002949D01*
X047291Y003069D01*
X047291Y003309D01*
X020599Y012013D02*
X020522Y011936D01*
X020369Y011936D01*
X020292Y012013D01*
X020599Y012320D01*
X020599Y012013D01*
X020599Y012320D02*
X020522Y012397D01*
X020369Y012397D01*
X020292Y012320D01*
X020292Y012013D01*
X020139Y012013D02*
X020062Y011936D01*
X019908Y011936D01*
X019832Y012013D01*
X020139Y012320D01*
X020139Y012013D01*
X020139Y012320D02*
X020062Y012397D01*
X019908Y012397D01*
X019832Y012320D01*
X019832Y012013D01*
X019678Y012013D02*
X019602Y011936D01*
X019448Y011936D01*
X019371Y012013D01*
X019371Y012166D02*
X019525Y012243D01*
X019602Y012243D01*
X019678Y012166D01*
X019678Y012013D01*
X019371Y012166D02*
X019371Y012397D01*
X019678Y012397D01*
X019218Y012320D02*
X019218Y012166D01*
X019141Y012090D01*
X018911Y012090D01*
X019064Y012090D02*
X019218Y011936D01*
X018911Y011936D02*
X018911Y012397D01*
X019141Y012397D01*
X019218Y012320D01*
X019238Y014131D02*
X019084Y014285D01*
X019161Y014285D02*
X018931Y014285D01*
X018931Y014131D02*
X018931Y014592D01*
X019161Y014592D01*
X019238Y014515D01*
X019238Y014362D01*
X019161Y014285D01*
X019391Y014362D02*
X019544Y014438D01*
X019621Y014438D01*
X019698Y014362D01*
X019698Y014208D01*
X019621Y014131D01*
X019468Y014131D01*
X019391Y014208D01*
X019391Y014362D02*
X019391Y014592D01*
X019698Y014592D01*
X019851Y014438D02*
X020005Y014592D01*
X020005Y014131D01*
X020158Y014131D02*
X019851Y014131D01*
X020312Y014208D02*
X020619Y014515D01*
X020619Y014208D01*
X020542Y014131D01*
X020389Y014131D01*
X020312Y014208D01*
X020312Y014515D01*
X020389Y014592D01*
X020542Y014592D01*
X020619Y014515D01*
X015839Y013322D02*
X015532Y013322D01*
X015686Y013322D02*
X015686Y013782D01*
X015532Y013629D01*
X015379Y013706D02*
X015072Y013399D01*
X015149Y013322D01*
X015302Y013322D01*
X015379Y013399D01*
X015379Y013706D01*
X015302Y013782D01*
X015149Y013782D01*
X015072Y013706D01*
X015072Y013399D01*
X014919Y013399D02*
X014919Y013322D01*
X014842Y013322D01*
X014842Y013399D01*
X014919Y013399D01*
X014688Y013399D02*
X014612Y013322D01*
X014458Y013322D01*
X014381Y013399D01*
X014688Y013706D01*
X014688Y013399D01*
X014381Y013399D02*
X014381Y013706D01*
X014458Y013782D01*
X014612Y013782D01*
X014688Y013706D01*
X014555Y014721D02*
X014555Y015181D01*
X014248Y015181D02*
X014248Y014721D01*
X014401Y014874D01*
X014555Y014721D01*
X014095Y014798D02*
X014095Y014874D01*
X014018Y014951D01*
X013864Y014951D01*
X013788Y015028D01*
X013788Y015104D01*
X013864Y015181D01*
X014018Y015181D01*
X014095Y015104D01*
X014095Y014798D02*
X014018Y014721D01*
X013864Y014721D01*
X013788Y014798D01*
X013634Y014644D02*
X013327Y014644D01*
X013174Y014874D02*
X013174Y015181D01*
X013174Y014874D02*
X013020Y014721D01*
X012867Y014874D01*
X012867Y015181D01*
X012713Y015181D02*
X012406Y015181D01*
X012406Y014951D01*
X012560Y015028D01*
X012637Y015028D01*
X012713Y014951D01*
X012713Y014798D01*
X012637Y014721D01*
X012483Y014721D01*
X012406Y014798D01*
X012253Y014644D02*
X011946Y014644D01*
X011793Y014798D02*
X011793Y015104D01*
X011716Y015181D01*
X011486Y015181D01*
X011486Y014721D01*
X011716Y014721D01*
X011793Y014798D01*
X011332Y014721D02*
X011025Y014721D01*
X011025Y015181D01*
X011332Y015181D01*
X011179Y014951D02*
X011025Y014951D01*
X010872Y014721D02*
X010565Y014721D01*
X010565Y015181D01*
X011868Y015833D02*
X012175Y015833D01*
X012098Y015603D02*
X012098Y016063D01*
X011868Y015833D01*
X012858Y015666D02*
X012935Y015589D01*
X013012Y015589D01*
X013088Y015666D01*
X013088Y016049D01*
X013012Y016049D02*
X013165Y016049D01*
X013319Y015819D02*
X013549Y015819D01*
X013626Y015742D01*
X013626Y015666D01*
X013549Y015589D01*
X013395Y015589D01*
X013319Y015666D01*
X013319Y015819D01*
X013472Y015973D01*
X013626Y016049D01*
X013779Y015973D02*
X013856Y016049D01*
X014009Y016049D01*
X014086Y015973D01*
X014086Y015896D01*
X014009Y015819D01*
X014086Y015742D01*
X014086Y015666D01*
X014009Y015589D01*
X013856Y015589D01*
X013779Y015666D01*
X013932Y015819D02*
X014009Y015819D01*
X014239Y015666D02*
X014546Y015973D01*
X014546Y015666D01*
X014470Y015589D01*
X014316Y015589D01*
X014239Y015666D01*
X014239Y015973D01*
X014316Y016049D01*
X014470Y016049D01*
X014546Y015973D01*
X014624Y015910D02*
X014777Y016063D01*
X014777Y015603D01*
X014624Y015603D02*
X014931Y015603D01*
X015129Y011563D02*
X015283Y011563D01*
X015359Y011486D01*
X015052Y011179D01*
X015129Y011102D01*
X015283Y011102D01*
X015359Y011179D01*
X015359Y011486D01*
X015513Y011409D02*
X015666Y011563D01*
X015666Y011102D01*
X015513Y011102D02*
X015820Y011102D01*
X015052Y011179D02*
X015052Y011486D01*
X015129Y011563D01*
X014899Y011179D02*
X014899Y011102D01*
X014822Y011102D01*
X014822Y011179D01*
X014899Y011179D01*
X014669Y011179D02*
X014592Y011102D01*
X014438Y011102D01*
X014362Y011179D01*
X014669Y011486D01*
X014669Y011179D01*
X014669Y011486D02*
X014592Y011563D01*
X014438Y011563D01*
X014362Y011486D01*
X014362Y011179D01*
X014978Y007827D02*
X015055Y007673D01*
X015208Y007520D01*
X015208Y007750D01*
X015285Y007827D01*
X015362Y007827D01*
X015438Y007750D01*
X015438Y007597D01*
X015362Y007520D01*
X015208Y007520D01*
X013423Y007597D02*
X013346Y007520D01*
X013423Y007597D02*
X013423Y007750D01*
X013346Y007827D01*
X013192Y007827D01*
X013116Y007750D01*
X013116Y007673D01*
X013192Y007520D01*
X012962Y007520D01*
X012962Y007827D01*
X009423Y007750D02*
X009423Y007597D01*
X009346Y007520D01*
X009192Y007520D01*
X009192Y007750D01*
X009269Y007827D01*
X009346Y007827D01*
X009423Y007750D01*
X009192Y007520D02*
X009039Y007673D01*
X008962Y007827D01*
X007823Y011296D02*
X007977Y011449D01*
X007977Y011756D01*
X007670Y011756D02*
X007670Y011449D01*
X007823Y011296D01*
X007517Y011372D02*
X007440Y011296D01*
X007286Y011296D01*
X007210Y011372D01*
X007210Y011526D02*
X007363Y011603D01*
X007440Y011603D01*
X007517Y011526D01*
X007517Y011372D01*
X007210Y011526D02*
X007210Y011756D01*
X007517Y011756D01*
X007517Y012083D02*
X007517Y012543D01*
X007670Y012543D02*
X007670Y012236D01*
X007823Y012083D01*
X007977Y012236D01*
X007977Y012543D01*
X007517Y012313D02*
X007210Y012313D01*
X007210Y012083D02*
X007210Y012543D01*
X007056Y012006D02*
X006749Y012006D01*
X006596Y012160D02*
X006596Y012467D01*
X006519Y012543D01*
X006289Y012543D01*
X006289Y012083D01*
X006519Y012083D01*
X006596Y012160D01*
X006519Y011756D02*
X006289Y011756D01*
X006289Y011296D01*
X006519Y011296D01*
X006596Y011372D01*
X006596Y011679D01*
X006519Y011756D01*
X006135Y011756D02*
X005828Y011756D01*
X005828Y011296D01*
X006135Y011296D01*
X005982Y011526D02*
X005828Y011526D01*
X005675Y011296D02*
X005368Y011296D01*
X005368Y011756D01*
X005368Y012083D02*
X005675Y012083D01*
X005828Y012083D02*
X005828Y012543D01*
X006135Y012543D01*
X005982Y012313D02*
X005828Y012313D01*
X005828Y012083D02*
X006135Y012083D01*
X005368Y012083D02*
X005368Y012543D01*
X006749Y011219D02*
X007056Y011219D01*
X006911Y015546D02*
X006911Y016006D01*
X006681Y015776D01*
X006987Y015776D01*
X007141Y015929D02*
X007218Y016006D01*
X007371Y016006D01*
X007448Y015929D01*
X007141Y015622D01*
X007218Y015546D01*
X007371Y015546D01*
X007448Y015622D01*
X007448Y015929D01*
X007722Y015866D02*
X007876Y016020D01*
X007876Y015559D01*
X008029Y015559D02*
X007722Y015559D01*
X007141Y015622D02*
X007141Y015929D01*
X006527Y016006D02*
X006374Y015929D01*
X006220Y015776D01*
X006450Y015776D01*
X006527Y015699D01*
X006527Y015622D01*
X006450Y015546D01*
X006297Y015546D01*
X006220Y015622D01*
X006220Y015776D01*
X006067Y016006D02*
X005913Y016006D01*
X005990Y016006D02*
X005990Y015622D01*
X005913Y015546D01*
X005836Y015546D01*
X005760Y015622D01*
X005273Y015790D02*
X004966Y015790D01*
X005197Y016020D01*
X005197Y015559D01*
X003057Y016430D02*
X002997Y016370D01*
X002696Y016370D01*
X002696Y016610D02*
X002997Y016610D01*
X003057Y016550D01*
X003057Y016430D01*
X002997Y016738D02*
X003057Y016798D01*
X003057Y016918D01*
X002997Y016978D01*
X002877Y016978D01*
X002817Y016918D01*
X002817Y016858D01*
X002877Y016738D01*
X002696Y016738D01*
X002696Y016978D01*
X002757Y017106D02*
X002696Y017166D01*
X002696Y017286D01*
X002757Y017346D01*
X002817Y017346D01*
X003057Y017106D01*
X003057Y017346D01*
X003057Y017475D02*
X003057Y017715D01*
X003057Y017595D02*
X002696Y017595D01*
X002817Y017475D01*
X002695Y019368D02*
X002995Y019368D01*
X003055Y019428D01*
X003055Y019548D01*
X002995Y019608D01*
X002695Y019608D01*
X002755Y019736D02*
X002695Y019796D01*
X002695Y019916D01*
X002755Y019977D01*
X002815Y019977D01*
X002875Y019916D01*
X002935Y019977D01*
X002995Y019977D01*
X003055Y019916D01*
X003055Y019796D01*
X002995Y019736D01*
X002875Y019856D02*
X002875Y019916D01*
X002755Y020105D02*
X002695Y020165D01*
X002695Y020285D01*
X002755Y020345D01*
X002995Y020105D01*
X003055Y020165D01*
X003055Y020285D01*
X002995Y020345D01*
X002755Y020345D01*
X002755Y020473D02*
X002695Y020533D01*
X002695Y020653D01*
X002755Y020713D01*
X002815Y020713D01*
X002875Y020653D01*
X002935Y020713D01*
X002995Y020713D01*
X003055Y020653D01*
X003055Y020533D01*
X002995Y020473D01*
X002875Y020593D02*
X002875Y020653D01*
X002995Y020105D02*
X002755Y020105D01*
X005234Y021898D02*
X005694Y021898D01*
X005694Y022051D02*
X005694Y021744D01*
X005387Y021744D02*
X005234Y021898D01*
X005234Y025744D02*
X005464Y025744D01*
X005387Y025898D01*
X005387Y025975D01*
X005464Y026051D01*
X005617Y026051D01*
X005694Y025975D01*
X005694Y025821D01*
X005617Y025744D01*
X005234Y025744D02*
X005234Y026051D01*
X005464Y030744D02*
X005464Y030975D01*
X005541Y031051D01*
X005617Y031051D01*
X005694Y030975D01*
X005694Y030821D01*
X005617Y030744D01*
X005464Y030744D01*
X005311Y030898D01*
X005234Y031051D01*
X006734Y030975D02*
X006734Y030821D01*
X006811Y030744D01*
X007117Y030744D01*
X007194Y030821D01*
X007194Y030975D01*
X007117Y031051D01*
X006964Y031051D01*
X006964Y030898D01*
X006811Y031051D02*
X006734Y030975D01*
X006734Y031205D02*
X007194Y031512D01*
X006734Y031512D01*
X006734Y031665D02*
X006734Y031895D01*
X006811Y031972D01*
X007117Y031972D01*
X007194Y031895D01*
X007194Y031665D01*
X006734Y031665D01*
X006734Y031205D02*
X007194Y031205D01*
X007194Y033744D02*
X006734Y033744D01*
X006964Y033744D02*
X006964Y034051D01*
X007041Y034205D02*
X007194Y034358D01*
X007041Y034512D01*
X006734Y034512D01*
X006734Y034205D02*
X007041Y034205D01*
X007194Y034051D02*
X006734Y034051D01*
X006811Y035126D02*
X007117Y035126D01*
X007194Y035202D01*
X007194Y035356D01*
X007117Y035433D01*
X006811Y035433D01*
X006734Y035356D01*
X006734Y035202D01*
X006811Y035126D01*
X006734Y035586D02*
X007117Y035586D01*
X007194Y035663D01*
X007194Y035816D01*
X007117Y035893D01*
X006734Y035893D01*
X006734Y036046D02*
X006734Y036353D01*
X006734Y036200D02*
X007194Y036200D01*
X006224Y037502D02*
X006300Y037579D01*
X006300Y037732D01*
X006224Y037809D01*
X006070Y037809D01*
X006070Y037655D01*
X005917Y037502D02*
X006224Y037502D01*
X005917Y037502D02*
X005840Y037579D01*
X005840Y037732D01*
X005917Y037809D01*
X005840Y037962D02*
X006300Y038269D01*
X005840Y038269D01*
X005840Y038423D02*
X005840Y038653D01*
X005917Y038730D01*
X006224Y038730D01*
X006300Y038653D01*
X006300Y038423D01*
X005840Y038423D01*
X006740Y038430D02*
X007047Y038430D01*
X007200Y038276D01*
X007047Y038123D01*
X006740Y038123D01*
X006740Y037969D02*
X007200Y037969D01*
X006970Y037969D02*
X006970Y037662D01*
X007200Y037662D02*
X006740Y037662D01*
X006300Y037962D02*
X005840Y037962D01*
X005311Y034051D02*
X005617Y033744D01*
X005694Y033744D01*
X005234Y033744D02*
X005234Y034051D01*
X005311Y034051D01*
X012234Y034051D02*
X012234Y033744D01*
X012234Y034051D02*
X012311Y034051D01*
X012617Y033744D01*
X012694Y033744D01*
X013734Y033744D02*
X014194Y033744D01*
X013964Y033744D02*
X013964Y034051D01*
X014041Y034205D02*
X014194Y034358D01*
X014041Y034512D01*
X013734Y034512D01*
X013734Y034205D02*
X014041Y034205D01*
X014194Y034051D02*
X013734Y034051D01*
X013811Y035126D02*
X014117Y035126D01*
X014194Y035202D01*
X014194Y035356D01*
X014117Y035433D01*
X013811Y035433D01*
X013734Y035356D01*
X013734Y035202D01*
X013811Y035126D01*
X013734Y035586D02*
X014117Y035586D01*
X014194Y035663D01*
X014194Y035816D01*
X014117Y035893D01*
X013734Y035893D01*
X013734Y036046D02*
X013734Y036353D01*
X013734Y036200D02*
X014194Y036200D01*
X013417Y037476D02*
X013111Y037476D01*
X013034Y037553D01*
X013034Y037706D01*
X013111Y037783D01*
X013264Y037783D02*
X013264Y037629D01*
X013264Y037783D02*
X013417Y037783D01*
X013494Y037706D01*
X013494Y037553D01*
X013417Y037476D01*
X013494Y037936D02*
X013034Y037936D01*
X013494Y038243D01*
X013034Y038243D01*
X013034Y038397D02*
X013034Y038627D01*
X013111Y038704D01*
X013417Y038704D01*
X013494Y038627D01*
X013494Y038397D01*
X013034Y038397D01*
X013934Y038404D02*
X014241Y038404D01*
X014394Y038250D01*
X014241Y038097D01*
X013934Y038097D01*
X013934Y037943D02*
X014394Y037943D01*
X014164Y037943D02*
X014164Y037636D01*
X014394Y037636D02*
X013934Y037636D01*
X017307Y039126D02*
X017384Y039050D01*
X017460Y039050D01*
X017537Y039126D01*
X017537Y039510D01*
X017460Y039510D02*
X017614Y039510D01*
X017767Y039356D02*
X017921Y039510D01*
X017921Y039050D01*
X018074Y039050D02*
X017767Y039050D01*
X018228Y039050D02*
X018535Y039356D01*
X018535Y039433D01*
X018458Y039510D01*
X018305Y039510D01*
X018228Y039433D01*
X018228Y039050D02*
X018535Y039050D01*
X018688Y039126D02*
X018995Y039433D01*
X018995Y039126D01*
X018918Y039050D01*
X018765Y039050D01*
X018688Y039126D01*
X018688Y039433D01*
X018765Y039510D01*
X018918Y039510D01*
X018995Y039433D01*
X021842Y036782D02*
X021842Y036542D01*
X021962Y036422D01*
X022082Y036542D01*
X022082Y036782D01*
X022210Y036782D02*
X022391Y036782D01*
X022451Y036722D01*
X022451Y036602D01*
X022391Y036542D01*
X022210Y036542D01*
X022210Y036422D02*
X022210Y036782D01*
X022330Y036542D02*
X022451Y036422D01*
X022579Y036422D02*
X022819Y036422D01*
X022699Y036422D02*
X022699Y036782D01*
X022579Y036662D01*
X022947Y036722D02*
X023007Y036782D01*
X023127Y036782D01*
X023187Y036722D01*
X022947Y036482D01*
X023007Y036422D01*
X023127Y036422D01*
X023187Y036482D01*
X023187Y036722D01*
X023315Y036722D02*
X023375Y036782D01*
X023495Y036782D01*
X023556Y036722D01*
X023315Y036482D01*
X023375Y036422D01*
X023495Y036422D01*
X023556Y036482D01*
X023556Y036722D01*
X023684Y036782D02*
X023864Y036782D01*
X023924Y036722D01*
X023924Y036602D01*
X023864Y036542D01*
X023684Y036542D01*
X023684Y036422D02*
X023684Y036782D01*
X024052Y036722D02*
X024112Y036782D01*
X024232Y036782D01*
X024292Y036722D01*
X024292Y036662D01*
X024052Y036422D01*
X024292Y036422D01*
X024232Y035782D02*
X024112Y035782D01*
X024052Y035722D01*
X023924Y035722D02*
X023924Y035602D01*
X023864Y035542D01*
X023684Y035542D01*
X023684Y035422D02*
X023684Y035782D01*
X023864Y035782D01*
X023924Y035722D01*
X024232Y035782D02*
X024292Y035722D01*
X024292Y035662D01*
X024052Y035422D01*
X024292Y035422D01*
X023556Y035482D02*
X023556Y035722D01*
X023315Y035482D01*
X023375Y035422D01*
X023495Y035422D01*
X023556Y035482D01*
X023556Y035722D02*
X023495Y035782D01*
X023375Y035782D01*
X023315Y035722D01*
X023315Y035482D01*
X023187Y035422D02*
X022947Y035422D01*
X023067Y035422D02*
X023067Y035782D01*
X022947Y035662D01*
X022819Y035422D02*
X022579Y035422D01*
X022699Y035422D02*
X022699Y035782D01*
X022579Y035662D01*
X022451Y035722D02*
X022451Y035602D01*
X022391Y035542D01*
X022210Y035542D01*
X022210Y035422D02*
X022210Y035782D01*
X022391Y035782D01*
X022451Y035722D01*
X022330Y035542D02*
X022451Y035422D01*
X022082Y035542D02*
X022082Y035782D01*
X021842Y035782D02*
X021842Y035542D01*
X021962Y035422D01*
X022082Y035542D01*
X022082Y034782D02*
X022082Y034542D01*
X021962Y034422D01*
X021842Y034542D01*
X021842Y034782D01*
X022210Y034782D02*
X022391Y034782D01*
X022451Y034722D01*
X022451Y034602D01*
X022391Y034542D01*
X022210Y034542D01*
X022210Y034422D02*
X022210Y034782D01*
X022330Y034542D02*
X022451Y034422D01*
X022579Y034362D02*
X022819Y034362D01*
X022947Y034422D02*
X022947Y034782D01*
X022947Y034602D02*
X023187Y034602D01*
X023315Y034542D02*
X023435Y034422D01*
X023556Y034542D01*
X023556Y034782D01*
X023684Y034722D02*
X023744Y034782D01*
X023864Y034782D01*
X023924Y034722D01*
X023684Y034482D01*
X023744Y034422D01*
X023864Y034422D01*
X023924Y034482D01*
X023924Y034722D01*
X023684Y034722D02*
X023684Y034482D01*
X023315Y034542D02*
X023315Y034782D01*
X023187Y034782D02*
X023187Y034422D01*
X023187Y033782D02*
X023187Y033422D01*
X023315Y033542D02*
X023435Y033422D01*
X023556Y033542D01*
X023556Y033782D01*
X023684Y033662D02*
X023804Y033782D01*
X023804Y033422D01*
X023684Y033422D02*
X023924Y033422D01*
X023315Y033542D02*
X023315Y033782D01*
X023187Y033602D02*
X022947Y033602D01*
X022947Y033422D02*
X022947Y033782D01*
X022819Y033362D02*
X022579Y033362D01*
X022451Y033422D02*
X022330Y033542D01*
X022391Y033542D02*
X022210Y033542D01*
X022210Y033422D02*
X022210Y033782D01*
X022391Y033782D01*
X022451Y033722D01*
X022451Y033602D01*
X022391Y033542D01*
X022082Y033542D02*
X022082Y033782D01*
X021842Y033782D02*
X021842Y033542D01*
X021962Y033422D01*
X022082Y033542D01*
X018995Y035583D02*
X018918Y035506D01*
X018765Y035506D01*
X018688Y035583D01*
X018995Y035890D01*
X018995Y035583D01*
X018688Y035583D02*
X018688Y035890D01*
X018765Y035967D01*
X018918Y035967D01*
X018995Y035890D01*
X018535Y035890D02*
X018535Y035813D01*
X018458Y035736D01*
X018535Y035660D01*
X018535Y035583D01*
X018458Y035506D01*
X018305Y035506D01*
X018228Y035583D01*
X018074Y035506D02*
X017767Y035506D01*
X017921Y035506D02*
X017921Y035967D01*
X017767Y035813D01*
X017614Y035967D02*
X017460Y035967D01*
X017537Y035967D02*
X017537Y035583D01*
X017460Y035506D01*
X017384Y035506D01*
X017307Y035583D01*
X018228Y035890D02*
X018305Y035967D01*
X018458Y035967D01*
X018535Y035890D01*
X018458Y035736D02*
X018381Y035736D01*
X022947Y036482D02*
X022947Y036722D01*
X023315Y036722D02*
X023315Y036482D01*
X028348Y036024D02*
X028348Y035717D01*
X028348Y035947D02*
X028655Y035947D01*
X028655Y036024D02*
X028655Y035717D01*
X028809Y035717D02*
X028962Y035717D01*
X028885Y035717D02*
X028885Y036177D01*
X028809Y036177D02*
X028962Y036177D01*
X029116Y036177D02*
X029423Y035717D01*
X029423Y036177D01*
X029576Y036177D02*
X029883Y036177D01*
X029883Y036101D01*
X029576Y035794D01*
X029576Y035717D01*
X029923Y035717D02*
X029923Y036024D01*
X030077Y036177D01*
X030230Y036024D01*
X030230Y035717D01*
X030384Y035717D02*
X030537Y035717D01*
X030460Y035717D02*
X030460Y036177D01*
X030384Y036177D02*
X030537Y036177D01*
X030690Y036177D02*
X030997Y035717D01*
X030997Y036177D01*
X031151Y035947D02*
X031381Y035947D01*
X031458Y035870D01*
X031458Y035794D01*
X031381Y035717D01*
X031228Y035717D01*
X031151Y035794D01*
X031151Y035947D01*
X031304Y036101D01*
X031458Y036177D01*
X031426Y036531D02*
X031486Y036591D01*
X031426Y036531D02*
X031306Y036531D01*
X031246Y036591D01*
X031246Y036832D01*
X031306Y036892D01*
X031426Y036892D01*
X031486Y036832D01*
X031614Y036892D02*
X031794Y036892D01*
X031854Y036832D01*
X031854Y036591D01*
X031794Y036531D01*
X031614Y036531D01*
X031614Y036892D01*
X031117Y036531D02*
X030877Y036531D01*
X030877Y036892D01*
X030749Y036471D02*
X030509Y036471D01*
X030321Y036652D02*
X030381Y036712D01*
X030381Y036832D01*
X030321Y036892D01*
X030141Y036892D01*
X030141Y036531D01*
X030141Y036652D02*
X030321Y036652D01*
X029952Y036591D02*
X029952Y036892D01*
X029892Y036892D02*
X030013Y036892D01*
X029952Y036591D02*
X029892Y036531D01*
X029832Y036531D01*
X029772Y036591D01*
X029116Y036177D02*
X029116Y035717D01*
X028655Y036024D02*
X028502Y036177D01*
X028348Y036024D01*
X029923Y035947D02*
X030230Y035947D01*
X030690Y035717D02*
X030690Y036177D01*
X032962Y039128D02*
X032886Y039205D01*
X032962Y039128D02*
X033039Y039128D01*
X033116Y039205D01*
X033116Y039588D01*
X033039Y039588D02*
X033193Y039588D01*
X033346Y039051D02*
X033653Y039051D01*
X033807Y039205D02*
X033883Y039128D01*
X034037Y039128D01*
X034113Y039205D01*
X034113Y039588D01*
X034267Y039435D02*
X034267Y039128D01*
X034267Y039358D02*
X034574Y039358D01*
X034574Y039435D02*
X034574Y039128D01*
X034727Y039128D02*
X034727Y039588D01*
X034958Y039588D01*
X035034Y039512D01*
X035034Y039358D01*
X034958Y039281D01*
X034727Y039281D01*
X034881Y039281D02*
X035034Y039128D01*
X035341Y039128D02*
X035341Y039588D01*
X035188Y039588D02*
X035495Y039588D01*
X034574Y039435D02*
X034420Y039588D01*
X034267Y039435D01*
X033807Y039588D02*
X033807Y039205D01*
X036554Y038090D02*
X037015Y038090D01*
X037015Y038243D02*
X037015Y037936D01*
X037015Y037783D02*
X037015Y037476D01*
X037015Y037629D02*
X036554Y037629D01*
X036708Y037476D01*
X036784Y037323D02*
X036784Y037016D01*
X036554Y037246D01*
X037015Y037246D01*
X036554Y036862D02*
X036554Y036709D01*
X036554Y036785D02*
X036938Y036785D01*
X037015Y036709D01*
X037015Y036632D01*
X036938Y036555D01*
X036708Y037936D02*
X036554Y038090D01*
X036646Y035094D02*
X036953Y034787D01*
X037030Y034864D01*
X037030Y035017D01*
X036953Y035094D01*
X036646Y035094D01*
X036569Y035017D01*
X036569Y034864D01*
X036646Y034787D01*
X036953Y034787D01*
X037030Y034633D02*
X037030Y034326D01*
X037030Y034480D02*
X036569Y034480D01*
X036723Y034326D01*
X036799Y034173D02*
X036799Y033866D01*
X036569Y034096D01*
X037030Y034096D01*
X036953Y033636D02*
X036569Y033636D01*
X036569Y033559D02*
X036569Y033713D01*
X036953Y033636D02*
X037030Y033559D01*
X037030Y033482D01*
X036953Y033406D01*
X030600Y033108D02*
X030600Y032801D01*
X030523Y032725D01*
X030293Y032725D01*
X030293Y033185D01*
X030523Y033185D01*
X030600Y033108D01*
X030139Y033185D02*
X030139Y032725D01*
X029832Y033185D01*
X029832Y032725D01*
X029679Y032801D02*
X029679Y032955D01*
X029525Y032955D01*
X029372Y033108D02*
X029372Y032801D01*
X029449Y032725D01*
X029602Y032725D01*
X029679Y032801D01*
X029679Y033108D02*
X029602Y033185D01*
X029449Y033185D01*
X029372Y033108D01*
X041775Y039101D02*
X041852Y039024D01*
X041929Y039024D01*
X042005Y039101D01*
X042005Y039484D01*
X041929Y039484D02*
X042082Y039484D01*
X042235Y038947D02*
X042542Y038947D01*
X042696Y039024D02*
X042849Y039024D01*
X042773Y039024D02*
X042773Y039484D01*
X042849Y039484D02*
X042696Y039484D01*
X043003Y039408D02*
X043079Y039484D01*
X043233Y039484D01*
X043310Y039408D01*
X043310Y039331D01*
X043003Y039024D01*
X043310Y039024D01*
X043463Y039101D02*
X043540Y039024D01*
X043693Y039024D01*
X043770Y039101D01*
X043770Y039408D02*
X043693Y039484D01*
X043540Y039484D01*
X043463Y039408D01*
X043463Y039101D01*
X048757Y034905D02*
X049190Y034905D01*
X049190Y034761D02*
X049190Y035050D01*
X048902Y034761D02*
X048757Y034905D01*
X049118Y034616D02*
X049190Y034616D01*
X049190Y034544D01*
X049118Y034544D01*
X049118Y034616D01*
X049190Y034397D02*
X048974Y034397D01*
X048902Y034325D01*
X048902Y034181D01*
X048974Y034109D01*
X049118Y033962D02*
X049190Y033890D01*
X049190Y033746D01*
X049118Y033674D01*
X048830Y033674D01*
X048757Y033746D01*
X048757Y033890D01*
X048830Y033962D01*
X048757Y034109D02*
X049190Y034109D01*
X050140Y039207D02*
X050216Y039207D01*
X050293Y039284D01*
X050293Y039667D01*
X050216Y039667D02*
X050370Y039667D01*
X050523Y039514D02*
X050677Y039667D01*
X050677Y039207D01*
X050830Y039207D02*
X050523Y039207D01*
X050140Y039207D02*
X050063Y039284D01*
X050984Y039207D02*
X051291Y039207D01*
X051137Y039207D02*
X051137Y039667D01*
X050984Y039514D01*
X051444Y039591D02*
X051521Y039667D01*
X051674Y039667D01*
X051751Y039591D01*
X051444Y039284D01*
X051521Y039207D01*
X051674Y039207D01*
X051751Y039284D01*
X051751Y039591D01*
X051444Y039591D02*
X051444Y039284D01*
X056835Y039284D02*
X056911Y039207D01*
X056988Y039207D01*
X057065Y039284D01*
X057065Y039667D01*
X057141Y039667D02*
X056988Y039667D01*
X057295Y039514D02*
X057448Y039667D01*
X057448Y039207D01*
X057295Y039207D02*
X057602Y039207D01*
X057755Y039284D02*
X057832Y039207D01*
X057986Y039207D01*
X058062Y039284D01*
X058062Y039591D01*
X057755Y039284D01*
X057755Y039591D01*
X057832Y039667D01*
X057986Y039667D01*
X058062Y039591D01*
X058216Y039591D02*
X058292Y039667D01*
X058446Y039667D01*
X058523Y039591D01*
X058216Y039284D01*
X058292Y039207D01*
X058446Y039207D01*
X058523Y039284D01*
X058523Y039591D01*
X058216Y039591D02*
X058216Y039284D01*
X061382Y029256D02*
X061382Y029016D01*
X061562Y029016D01*
X061502Y029136D01*
X061502Y029196D01*
X061562Y029256D01*
X061682Y029256D01*
X061742Y029196D01*
X061742Y029076D01*
X061682Y029016D01*
X060742Y025727D02*
X060742Y025607D01*
X060742Y025667D02*
X060382Y025667D01*
X060382Y025607D02*
X060382Y025727D01*
X060442Y025479D02*
X060562Y025479D01*
X060622Y025419D01*
X060622Y025239D01*
X060742Y025239D02*
X060382Y025239D01*
X060382Y025419D01*
X060442Y025479D01*
X060442Y025111D02*
X060382Y025051D01*
X060382Y024931D01*
X060442Y024871D01*
X060502Y024871D01*
X060562Y024931D01*
X060562Y025051D01*
X060622Y025111D01*
X060682Y025111D01*
X060742Y025051D01*
X060742Y024931D01*
X060682Y024871D01*
X060802Y024742D02*
X060802Y024502D01*
X060622Y024314D02*
X060622Y024134D01*
X060742Y024134D02*
X060382Y024134D01*
X060382Y024314D01*
X060442Y024374D01*
X060562Y024374D01*
X060622Y024314D01*
X060682Y023946D02*
X060382Y023946D01*
X060382Y023886D02*
X060382Y024006D01*
X060682Y023946D02*
X060742Y023886D01*
X060742Y023826D01*
X060682Y023766D01*
X061382Y023386D02*
X061742Y023386D01*
X061742Y023266D02*
X061742Y023506D01*
X061502Y023266D02*
X061382Y023386D01*
X019438Y007750D02*
X019438Y007597D01*
X019362Y007520D01*
X019208Y007520D02*
X019131Y007673D01*
X019131Y007750D01*
X019208Y007827D01*
X019362Y007827D01*
X019438Y007750D01*
X019208Y007520D02*
X018978Y007520D01*
X018978Y007827D01*
X012694Y021744D02*
X012694Y022051D01*
X012694Y021898D02*
X012234Y021898D01*
X012387Y021744D01*
X012464Y025744D02*
X012387Y025898D01*
X012387Y025975D01*
X012464Y026051D01*
X012617Y026051D01*
X012694Y025975D01*
X012694Y025821D01*
X012617Y025744D01*
X012464Y025744D02*
X012234Y025744D01*
X012234Y026051D01*
X012464Y030744D02*
X012464Y030975D01*
X012541Y031051D01*
X012617Y031051D01*
X012694Y030975D01*
X012694Y030821D01*
X012617Y030744D01*
X012464Y030744D01*
X012311Y030898D01*
X012234Y031051D01*
X013734Y030975D02*
X013734Y030821D01*
X013811Y030744D01*
X014117Y030744D01*
X014194Y030821D01*
X014194Y030975D01*
X014117Y031051D01*
X013964Y031051D01*
X013964Y030898D01*
X013811Y031051D02*
X013734Y030975D01*
X013734Y031205D02*
X014194Y031512D01*
X013734Y031512D01*
X013734Y031665D02*
X013734Y031895D01*
X013811Y031972D01*
X014117Y031972D01*
X014194Y031895D01*
X014194Y031665D01*
X013734Y031665D01*
X013734Y031205D02*
X014194Y031205D01*
D11*
X017364Y031799D02*
X017364Y029535D01*
X019710Y029535D01*
X019710Y031799D01*
X017364Y031799D01*
X017364Y032094D01*
X019710Y032094D01*
X019710Y031799D01*
X020694Y032142D02*
X040380Y032142D01*
X040380Y003795D01*
X020694Y003795D01*
X020694Y032142D01*
X020021Y032587D02*
X017265Y032587D01*
X017265Y035343D01*
X020021Y035343D01*
X020021Y032587D01*
X024958Y032535D02*
X024958Y036354D01*
X026927Y036354D01*
X026927Y032535D01*
X024958Y032535D01*
X027654Y032665D02*
X027654Y032815D01*
X027654Y032740D02*
X028029Y032740D01*
X028105Y032665D01*
X028105Y032590D01*
X028029Y032515D01*
X027954Y032975D02*
X027954Y033200D01*
X027879Y033275D01*
X027729Y033275D01*
X027654Y033200D01*
X027654Y032975D01*
X028105Y032975D01*
X028180Y033435D02*
X028180Y033736D01*
X028105Y033896D02*
X027804Y033896D01*
X027654Y034046D01*
X027804Y034196D01*
X028105Y034196D01*
X028105Y034356D02*
X028105Y034581D01*
X028029Y034656D01*
X027729Y034656D01*
X027654Y034581D01*
X027654Y034356D01*
X028105Y034356D01*
X027879Y034196D02*
X027879Y033896D01*
X028369Y033996D02*
X028669Y033996D01*
X028594Y033771D02*
X028594Y034221D01*
X028369Y033996D01*
X028444Y034771D02*
X028369Y034846D01*
X028444Y034771D02*
X028594Y034771D01*
X028669Y034846D01*
X028669Y034921D01*
X028594Y034996D01*
X028519Y034996D01*
X028594Y034996D02*
X028669Y035071D01*
X028669Y035146D01*
X028594Y035221D01*
X028444Y035221D01*
X028369Y035146D01*
X028105Y035042D02*
X028029Y035117D01*
X028105Y035042D02*
X028105Y034892D01*
X028029Y034817D01*
X027729Y034817D01*
X027654Y034892D01*
X027654Y035042D01*
X027729Y035117D01*
X026823Y035865D02*
X026263Y035865D01*
X026263Y036025D02*
X026823Y036025D01*
X026243Y035945D02*
X026245Y035979D01*
X026251Y036013D01*
X026260Y036046D01*
X026274Y036077D01*
X026291Y036107D01*
X026311Y036135D01*
X026334Y036160D01*
X026360Y036183D01*
X026388Y036202D01*
X026418Y036218D01*
X026450Y036230D01*
X026483Y036239D01*
X026517Y036244D01*
X026552Y036245D01*
X026586Y036242D01*
X026619Y036235D01*
X026652Y036225D01*
X026683Y036210D01*
X026712Y036193D01*
X026739Y036172D01*
X026764Y036148D01*
X026786Y036121D01*
X026804Y036093D01*
X026819Y036062D01*
X026831Y036030D01*
X026839Y035996D01*
X026843Y035962D01*
X026843Y035928D01*
X026839Y035894D01*
X026831Y035860D01*
X026819Y035828D01*
X026804Y035797D01*
X026786Y035769D01*
X026764Y035742D01*
X026739Y035718D01*
X026712Y035697D01*
X026683Y035680D01*
X026652Y035665D01*
X026619Y035655D01*
X026586Y035648D01*
X026552Y035645D01*
X026517Y035646D01*
X026483Y035651D01*
X026450Y035660D01*
X026418Y035672D01*
X026388Y035688D01*
X026360Y035707D01*
X026334Y035730D01*
X026311Y035755D01*
X026291Y035783D01*
X026274Y035813D01*
X026260Y035844D01*
X026251Y035877D01*
X026245Y035911D01*
X026243Y035945D01*
X031019Y035071D02*
X031169Y035221D01*
X031169Y034771D01*
X031019Y034771D02*
X031319Y034771D01*
X031244Y034221D02*
X031094Y034221D01*
X031019Y034146D01*
X031244Y034221D02*
X031319Y034146D01*
X031319Y034071D01*
X031019Y033771D01*
X031319Y033771D01*
X032919Y033709D02*
X032921Y033676D01*
X032926Y033643D01*
X032936Y033612D01*
X032948Y033581D01*
X032964Y033552D01*
X032983Y033525D01*
X033005Y033500D01*
X033030Y033478D01*
X033057Y033459D01*
X033086Y033443D01*
X033117Y033431D01*
X033148Y033421D01*
X033181Y033416D01*
X033214Y033414D01*
X033247Y033416D01*
X033280Y033421D01*
X033311Y033431D01*
X033342Y033443D01*
X033371Y033459D01*
X033398Y033478D01*
X033423Y033500D01*
X033445Y033525D01*
X033464Y033552D01*
X033480Y033581D01*
X033492Y033612D01*
X033502Y033643D01*
X033507Y033676D01*
X033509Y033709D01*
X033805Y033886D02*
X033805Y035382D01*
X033214Y035618D02*
X033213Y035633D01*
X033210Y035648D01*
X033205Y035662D01*
X033197Y035675D01*
X033187Y035687D01*
X033174Y035696D01*
X032769Y036163D02*
X032769Y036458D01*
X036116Y036458D01*
X036116Y036163D01*
X032769Y036163D01*
X032769Y036458D02*
X032769Y038722D01*
X036116Y038722D01*
X036116Y036458D01*
X037255Y036424D02*
X037255Y036128D01*
X040602Y036128D01*
X040602Y036424D01*
X037255Y036424D01*
X037255Y038687D01*
X040602Y038687D01*
X040602Y036424D01*
X040617Y035638D02*
X040617Y033374D01*
X037270Y033374D01*
X037270Y035638D01*
X040617Y035638D01*
X042076Y036128D02*
X042076Y036424D01*
X046423Y036424D01*
X046423Y036128D01*
X042076Y036128D01*
X042076Y036424D02*
X042076Y038687D01*
X046423Y038687D01*
X046423Y036424D01*
X047502Y035441D02*
X047502Y039260D01*
X049470Y039260D01*
X049470Y035441D01*
X047502Y035441D01*
X049746Y034909D02*
X059194Y034909D01*
X059194Y023335D01*
X048565Y023335D01*
X048565Y033571D01*
X050021Y036287D02*
X052777Y036287D01*
X052777Y039043D01*
X050021Y039043D01*
X050021Y036287D01*
X049366Y038770D02*
X048806Y038770D01*
X048806Y038930D02*
X049366Y038930D01*
X048786Y038850D02*
X048788Y038884D01*
X048794Y038918D01*
X048803Y038951D01*
X048817Y038982D01*
X048834Y039012D01*
X048854Y039040D01*
X048877Y039065D01*
X048903Y039088D01*
X048931Y039107D01*
X048961Y039123D01*
X048993Y039135D01*
X049026Y039144D01*
X049060Y039149D01*
X049095Y039150D01*
X049129Y039147D01*
X049162Y039140D01*
X049195Y039130D01*
X049226Y039115D01*
X049255Y039098D01*
X049282Y039077D01*
X049307Y039053D01*
X049329Y039026D01*
X049347Y038998D01*
X049362Y038967D01*
X049374Y038935D01*
X049382Y038901D01*
X049386Y038867D01*
X049386Y038833D01*
X049382Y038799D01*
X049374Y038765D01*
X049362Y038733D01*
X049347Y038702D01*
X049329Y038674D01*
X049307Y038647D01*
X049282Y038623D01*
X049255Y038602D01*
X049226Y038585D01*
X049195Y038570D01*
X049162Y038560D01*
X049129Y038553D01*
X049095Y038550D01*
X049060Y038551D01*
X049026Y038556D01*
X048993Y038565D01*
X048961Y038577D01*
X048931Y038593D01*
X048903Y038612D01*
X048877Y038635D01*
X048854Y038660D01*
X048834Y038688D01*
X048817Y038718D01*
X048803Y038749D01*
X048794Y038782D01*
X048788Y038816D01*
X048786Y038850D01*
X054273Y039260D02*
X054273Y035441D01*
X056242Y035441D01*
X056242Y039260D01*
X054273Y039260D01*
X055577Y038930D02*
X056137Y038930D01*
X056137Y038770D02*
X055577Y038770D01*
X055557Y038850D02*
X055559Y038884D01*
X055565Y038918D01*
X055574Y038951D01*
X055588Y038982D01*
X055605Y039012D01*
X055625Y039040D01*
X055648Y039065D01*
X055674Y039088D01*
X055702Y039107D01*
X055732Y039123D01*
X055764Y039135D01*
X055797Y039144D01*
X055831Y039149D01*
X055866Y039150D01*
X055900Y039147D01*
X055933Y039140D01*
X055966Y039130D01*
X055997Y039115D01*
X056026Y039098D01*
X056053Y039077D01*
X056078Y039053D01*
X056100Y039026D01*
X056118Y038998D01*
X056133Y038967D01*
X056145Y038935D01*
X056153Y038901D01*
X056157Y038867D01*
X056157Y038833D01*
X056153Y038799D01*
X056145Y038765D01*
X056133Y038733D01*
X056118Y038702D01*
X056100Y038674D01*
X056078Y038647D01*
X056053Y038623D01*
X056026Y038602D01*
X055997Y038585D01*
X055966Y038570D01*
X055933Y038560D01*
X055900Y038553D01*
X055866Y038550D01*
X055831Y038551D01*
X055797Y038556D01*
X055764Y038565D01*
X055732Y038577D01*
X055702Y038593D01*
X055674Y038612D01*
X055648Y038635D01*
X055625Y038660D01*
X055605Y038688D01*
X055588Y038718D01*
X055574Y038749D01*
X055565Y038782D01*
X055559Y038816D01*
X055557Y038850D01*
X056793Y039043D02*
X059549Y039043D01*
X059549Y036287D01*
X056793Y036287D01*
X056793Y039043D01*
X054647Y033157D02*
X052718Y033157D01*
X052718Y032016D01*
X052717Y032016D02*
X052718Y032016D02*
X052691Y032029D01*
X052663Y032038D01*
X052634Y032044D01*
X052604Y032046D01*
X052574Y032044D01*
X052545Y032038D01*
X052517Y032029D01*
X052491Y032016D01*
X052466Y031999D01*
X052443Y031980D01*
X052424Y031957D01*
X052407Y031933D01*
X052394Y031906D01*
X052385Y031878D01*
X052379Y031849D01*
X052377Y031819D01*
X052379Y031789D01*
X052385Y031760D01*
X052394Y031732D01*
X052407Y031706D01*
X052424Y031681D01*
X052443Y031658D01*
X052466Y031639D01*
X052491Y031622D01*
X052517Y031609D01*
X052545Y031600D01*
X052574Y031594D01*
X052604Y031592D01*
X052634Y031594D01*
X052663Y031600D01*
X052691Y031609D01*
X052718Y031622D01*
X052718Y031622D02*
X054647Y031622D01*
X054647Y033157D01*
X051891Y026071D02*
X049962Y026071D01*
X049962Y024562D01*
X049962Y024535D02*
X051891Y024535D01*
X051891Y026071D01*
X050077Y024753D02*
X050079Y024773D01*
X050085Y024791D01*
X050094Y024809D01*
X050106Y024824D01*
X050121Y024836D01*
X050139Y024845D01*
X050157Y024851D01*
X050177Y024853D01*
X050197Y024851D01*
X050215Y024845D01*
X050233Y024836D01*
X050248Y024824D01*
X050260Y024809D01*
X050269Y024791D01*
X050275Y024773D01*
X050277Y024753D01*
X050275Y024733D01*
X050269Y024715D01*
X050260Y024697D01*
X050248Y024682D01*
X050233Y024670D01*
X050215Y024661D01*
X050197Y024655D01*
X050177Y024653D01*
X050157Y024655D01*
X050139Y024661D01*
X050121Y024670D01*
X050106Y024682D01*
X050094Y024697D01*
X050085Y024715D01*
X050079Y024733D01*
X050077Y024753D01*
X049746Y022705D02*
X059194Y022705D01*
X059194Y011130D01*
X048565Y011130D01*
X048565Y021366D01*
X052718Y020953D02*
X052718Y019811D01*
X052717Y019811D02*
X052718Y019811D02*
X052691Y019824D01*
X052663Y019833D01*
X052634Y019839D01*
X052604Y019841D01*
X052574Y019839D01*
X052545Y019833D01*
X052517Y019824D01*
X052491Y019811D01*
X052466Y019794D01*
X052443Y019775D01*
X052424Y019752D01*
X052407Y019728D01*
X052394Y019701D01*
X052385Y019673D01*
X052379Y019644D01*
X052377Y019614D01*
X052379Y019584D01*
X052385Y019555D01*
X052394Y019527D01*
X052407Y019501D01*
X052424Y019476D01*
X052443Y019453D01*
X052466Y019434D01*
X052491Y019417D01*
X052517Y019404D01*
X052545Y019395D01*
X052574Y019389D01*
X052604Y019387D01*
X052634Y019389D01*
X052663Y019395D01*
X052691Y019404D01*
X052718Y019417D01*
X052718Y019417D02*
X054647Y019417D01*
X054647Y020953D01*
X052718Y020953D01*
X059392Y021769D02*
X059692Y021769D01*
X059542Y021769D02*
X059542Y022219D01*
X059392Y022069D01*
X059852Y021919D02*
X060078Y021919D01*
X060153Y021994D01*
X060153Y022144D01*
X060078Y022219D01*
X059852Y022219D01*
X059852Y021769D01*
X060313Y021769D02*
X060313Y022219D01*
X060538Y022219D01*
X060613Y022144D01*
X060613Y021994D01*
X060538Y021919D01*
X060313Y021919D01*
X060773Y021844D02*
X060848Y021769D01*
X060998Y021769D01*
X061074Y021844D01*
X061074Y021919D01*
X060998Y021994D01*
X060848Y021994D01*
X060773Y022069D01*
X060773Y022144D01*
X060848Y022219D01*
X060998Y022219D01*
X061074Y022144D01*
X061058Y021048D02*
X061058Y020748D01*
X060908Y020597D01*
X060758Y020748D01*
X060758Y021048D01*
X060597Y021048D02*
X060297Y021048D01*
X060297Y020823D01*
X060447Y020898D01*
X060522Y020898D01*
X060597Y020823D01*
X060597Y020673D01*
X060522Y020597D01*
X060372Y020597D01*
X060297Y020673D01*
X060142Y020673D02*
X060142Y020597D01*
X060067Y020597D01*
X060067Y020673D01*
X060142Y020673D01*
X059907Y020597D02*
X059607Y020597D01*
X059907Y020898D01*
X059907Y020973D01*
X059832Y021048D01*
X059682Y021048D01*
X059607Y020973D01*
X059912Y019967D02*
X059837Y019892D01*
X059837Y019591D01*
X059912Y019516D01*
X060062Y019516D01*
X060137Y019591D01*
X060137Y019742D01*
X059987Y019742D01*
X060137Y019892D02*
X060062Y019967D01*
X059912Y019967D01*
X060297Y019967D02*
X060597Y019516D01*
X060597Y019967D01*
X060758Y019967D02*
X060758Y019516D01*
X060983Y019516D01*
X061058Y019591D01*
X061058Y019892D01*
X060983Y019967D01*
X060758Y019967D01*
X060297Y019967D02*
X060297Y019516D01*
X051891Y013866D02*
X051891Y012331D01*
X049962Y012331D01*
X049962Y012357D02*
X049962Y013866D01*
X051891Y013866D01*
X050077Y012548D02*
X050079Y012568D01*
X050085Y012586D01*
X050094Y012604D01*
X050106Y012619D01*
X050121Y012631D01*
X050139Y012640D01*
X050157Y012646D01*
X050177Y012648D01*
X050197Y012646D01*
X050215Y012640D01*
X050233Y012631D01*
X050248Y012619D01*
X050260Y012604D01*
X050269Y012586D01*
X050275Y012568D01*
X050277Y012548D01*
X050275Y012528D01*
X050269Y012510D01*
X050260Y012492D01*
X050248Y012477D01*
X050233Y012465D01*
X050215Y012456D01*
X050197Y012450D01*
X050177Y012448D01*
X050157Y012450D01*
X050139Y012456D01*
X050121Y012465D01*
X050106Y012477D01*
X050094Y012492D01*
X050085Y012510D01*
X050079Y012528D01*
X050077Y012548D01*
X043324Y012315D02*
X041355Y012315D01*
X041355Y032591D01*
X042930Y032591D01*
X043324Y032197D01*
X043324Y012315D01*
X037376Y009931D02*
X037376Y009780D01*
X037301Y009705D01*
X037001Y010006D01*
X037301Y010006D01*
X037376Y009931D01*
X037301Y009705D02*
X037001Y009705D01*
X036926Y009780D01*
X036926Y009931D01*
X037001Y010006D01*
X037001Y009545D02*
X037076Y009545D01*
X037151Y009470D01*
X037151Y009320D01*
X037076Y009245D01*
X037001Y009245D01*
X036926Y009320D01*
X036926Y009470D01*
X037001Y009545D01*
X037151Y009470D02*
X037226Y009545D01*
X037301Y009545D01*
X037376Y009470D01*
X037376Y009320D01*
X037301Y009245D01*
X037226Y009245D01*
X037151Y009320D01*
X037376Y009085D02*
X037376Y008785D01*
X037376Y008935D02*
X036926Y008935D01*
X037076Y008785D01*
X036926Y008624D02*
X036926Y008474D01*
X036926Y008549D02*
X037301Y008549D01*
X037376Y008474D01*
X037376Y008399D01*
X037301Y008324D01*
X037211Y010824D02*
X037286Y010899D01*
X037286Y011049D01*
X037211Y011124D01*
X037286Y011285D02*
X036835Y011285D01*
X037286Y011585D01*
X036835Y011585D01*
X036985Y011745D02*
X036835Y011895D01*
X037286Y011895D01*
X037286Y011745D02*
X037286Y012045D01*
X036910Y011124D02*
X036835Y011049D01*
X036835Y010899D01*
X036910Y010824D01*
X037211Y010824D01*
X035394Y015429D02*
X033662Y015429D01*
X033662Y019209D01*
X033648Y019237D01*
X033637Y019268D01*
X033629Y019299D01*
X033625Y019331D01*
X033625Y019363D01*
X033629Y019395D01*
X033637Y019426D01*
X033648Y019457D01*
X033662Y019486D01*
X033680Y019512D01*
X033701Y019537D01*
X033724Y019559D01*
X033750Y019578D01*
X033778Y019595D01*
X033807Y019607D01*
X033838Y019617D01*
X033870Y019622D01*
X033902Y019624D01*
X033934Y019622D01*
X033966Y019617D01*
X033997Y019607D01*
X034026Y019595D01*
X034054Y019578D01*
X034080Y019559D01*
X034103Y019537D01*
X034124Y019512D01*
X034142Y019486D01*
X034156Y019457D01*
X034167Y019426D01*
X034175Y019395D01*
X034179Y019363D01*
X034179Y019331D01*
X034175Y019299D01*
X034167Y019268D01*
X034156Y019237D01*
X034142Y019209D01*
X035394Y019209D01*
X035394Y015429D01*
X021376Y012045D02*
X021376Y011745D01*
X021076Y012045D01*
X021001Y012045D01*
X020926Y011970D01*
X020926Y011820D01*
X021001Y011745D01*
X020926Y011585D02*
X021376Y011585D01*
X020926Y011285D01*
X021376Y011285D01*
X021301Y011124D02*
X021376Y011049D01*
X021376Y010899D01*
X021301Y010824D01*
X021001Y010824D01*
X020926Y010899D01*
X020926Y011049D01*
X021001Y011124D01*
X021001Y010006D02*
X021301Y009705D01*
X021376Y009780D01*
X021376Y009931D01*
X021301Y010006D01*
X021001Y010006D01*
X020926Y009931D01*
X020926Y009780D01*
X021001Y009705D01*
X021301Y009705D01*
X021301Y009545D02*
X021376Y009470D01*
X021376Y009320D01*
X021301Y009245D01*
X021226Y009245D01*
X021151Y009320D01*
X021151Y009470D01*
X021226Y009545D01*
X021301Y009545D01*
X021151Y009470D02*
X021076Y009545D01*
X021001Y009545D01*
X020926Y009470D01*
X020926Y009320D01*
X021001Y009245D01*
X021076Y009245D01*
X021151Y009320D01*
X021376Y009085D02*
X021376Y008785D01*
X021376Y008935D02*
X020926Y008935D01*
X021076Y008785D01*
X020926Y008624D02*
X020926Y008474D01*
X020926Y008549D02*
X021301Y008549D01*
X021376Y008474D01*
X021376Y008399D01*
X021301Y008324D01*
X019808Y009600D02*
X019808Y000500D01*
X014458Y000500D01*
X014458Y009600D01*
X019808Y009600D01*
X018641Y010348D02*
X013043Y010348D01*
X013043Y011332D01*
X011842Y011332D01*
X013043Y011332D02*
X013043Y012317D01*
X013043Y012356D02*
X018641Y012356D01*
X018641Y011332D01*
X019842Y011332D01*
X018641Y011332D02*
X018641Y010348D01*
X018661Y012568D02*
X013062Y012568D01*
X013062Y013552D01*
X011861Y013552D01*
X013062Y013552D02*
X013062Y014536D01*
X013062Y014576D02*
X018661Y014576D01*
X018661Y013552D01*
X019861Y013552D01*
X018661Y013552D02*
X018661Y012568D01*
X013793Y009600D02*
X013793Y000500D01*
X008443Y000500D01*
X008443Y009600D01*
X013793Y009600D01*
X008146Y009244D02*
X007846Y008944D01*
X007921Y008869D01*
X008071Y008869D01*
X008146Y008944D01*
X008146Y009244D01*
X008071Y009319D01*
X007921Y009319D01*
X007846Y009244D01*
X007846Y008944D01*
X007686Y008944D02*
X007611Y008869D01*
X007461Y008869D01*
X007386Y008944D01*
X007686Y009244D01*
X007686Y008944D01*
X007686Y009244D02*
X007611Y009319D01*
X007461Y009319D01*
X007386Y009244D01*
X007386Y008944D01*
X007225Y008944D02*
X007225Y009019D01*
X007150Y009094D01*
X006925Y009094D01*
X006925Y008944D01*
X007000Y008869D01*
X007150Y008869D01*
X007225Y008944D01*
X007075Y009244D02*
X006925Y009094D01*
X007075Y009244D02*
X007225Y009319D01*
X006765Y009244D02*
X006690Y009319D01*
X006540Y009319D01*
X006465Y009244D01*
X006465Y008944D01*
X006540Y008869D01*
X006690Y008869D01*
X006765Y008944D01*
X005723Y008944D02*
X005723Y009244D01*
X005422Y008944D01*
X005497Y008869D01*
X005648Y008869D01*
X005723Y008944D01*
X005723Y009244D02*
X005648Y009319D01*
X005497Y009319D01*
X005422Y009244D01*
X005422Y008944D01*
X005262Y008869D02*
X004962Y008869D01*
X005112Y008869D02*
X005112Y009319D01*
X004962Y009169D01*
X004802Y009019D02*
X004727Y009094D01*
X004502Y009094D01*
X004502Y008944D01*
X004577Y008869D01*
X004727Y008869D01*
X004802Y008944D01*
X004802Y009019D01*
X004652Y009244D02*
X004502Y009094D01*
X004652Y009244D02*
X004802Y009319D01*
X004341Y009244D02*
X004266Y009319D01*
X004116Y009319D01*
X004041Y009244D01*
X004041Y008944D01*
X004116Y008869D01*
X004266Y008869D01*
X004341Y008944D01*
X003584Y008776D02*
X003289Y008776D01*
X003289Y004429D01*
X001025Y004429D01*
X001025Y008776D01*
X003289Y008776D01*
X003584Y008776D02*
X003584Y004429D01*
X003289Y004429D01*
X004013Y005909D02*
X007557Y005909D01*
X007557Y000161D01*
X004013Y000161D01*
X004013Y005909D01*
X003584Y010138D02*
X003289Y010138D01*
X003289Y014484D01*
X003584Y014484D01*
X003584Y010138D01*
X003289Y010138D02*
X001025Y010138D01*
X001025Y014484D01*
X003289Y014484D01*
X002265Y015362D02*
X001360Y015362D01*
X001360Y017921D01*
X002265Y017921D01*
X002265Y017429D01*
X002403Y017429D01*
X002403Y015854D01*
X002265Y015854D01*
X002265Y017429D01*
X002264Y018361D02*
X001358Y018361D01*
X001358Y020920D01*
X002264Y020920D01*
X002264Y020428D01*
X002402Y020428D01*
X002402Y018853D01*
X002264Y018853D01*
X002264Y020428D01*
X003458Y019563D02*
X009757Y019563D01*
X009757Y036886D01*
X003458Y036886D01*
X003458Y019563D01*
X002264Y018853D02*
X002264Y018361D01*
X002265Y015854D02*
X002265Y015362D01*
X004411Y014023D02*
X004378Y014021D01*
X004345Y014016D01*
X004314Y014006D01*
X004283Y013994D01*
X004254Y013978D01*
X004227Y013959D01*
X004202Y013937D01*
X004180Y013912D01*
X004161Y013885D01*
X004145Y013856D01*
X004133Y013825D01*
X004123Y013794D01*
X004118Y013761D01*
X004116Y013728D01*
X004118Y013695D01*
X004123Y013662D01*
X004133Y013631D01*
X004145Y013600D01*
X004161Y013571D01*
X004180Y013544D01*
X004202Y013519D01*
X004227Y013497D01*
X004254Y013478D01*
X004283Y013462D01*
X004314Y013450D01*
X004345Y013440D01*
X004378Y013435D01*
X004411Y013433D01*
X004588Y013138D02*
X006084Y013138D01*
X006321Y013728D02*
X006339Y013729D01*
X006357Y013734D01*
X006373Y013742D01*
X006388Y013753D01*
X006399Y013768D01*
X007250Y014012D02*
X007217Y014010D01*
X007184Y014005D01*
X007153Y013995D01*
X007122Y013983D01*
X007093Y013967D01*
X007066Y013948D01*
X007041Y013926D01*
X007019Y013901D01*
X007000Y013874D01*
X006984Y013845D01*
X006972Y013814D01*
X006962Y013783D01*
X006957Y013750D01*
X006955Y013717D01*
X006957Y013684D01*
X006962Y013651D01*
X006972Y013620D01*
X006984Y013589D01*
X007000Y013560D01*
X007019Y013533D01*
X007041Y013508D01*
X007066Y013486D01*
X007093Y013467D01*
X007122Y013451D01*
X007153Y013439D01*
X007184Y013429D01*
X007217Y013424D01*
X007250Y013422D01*
X007427Y013126D02*
X008923Y013126D01*
X009159Y013716D02*
X009177Y013717D01*
X009195Y013722D01*
X009211Y013730D01*
X009226Y013741D01*
X009237Y013756D01*
X008923Y013126D02*
X008961Y013175D01*
X008995Y013225D01*
X009027Y013278D01*
X009055Y013333D01*
X009080Y013389D01*
X009100Y013447D01*
X009118Y013506D01*
X009131Y013566D01*
X009141Y013627D01*
X009146Y013688D01*
X009148Y013750D01*
X009146Y013811D01*
X009140Y013873D01*
X009130Y013933D01*
X009116Y013993D01*
X009099Y014052D01*
X009077Y014110D01*
X009052Y014166D01*
X009024Y014221D01*
X008992Y014274D01*
X008957Y014324D01*
X008919Y014372D01*
X008878Y014418D01*
X008834Y014461D01*
X008787Y014501D01*
X008738Y014538D01*
X008686Y014572D01*
X008633Y014603D01*
X008578Y014630D01*
X008521Y014653D01*
X008463Y014673D01*
X008403Y014689D01*
X008343Y014701D01*
X008282Y014710D01*
X008220Y014714D01*
X008159Y014715D01*
X008098Y014711D01*
X008036Y014704D01*
X007976Y014693D01*
X007916Y014678D01*
X007858Y014660D01*
X007800Y014637D01*
X007744Y014611D01*
X007690Y014582D01*
X007638Y014549D01*
X007588Y014513D01*
X007541Y014474D01*
X007496Y014432D01*
X007454Y014387D01*
X007415Y014340D01*
X007379Y014290D01*
X007346Y014238D01*
X007316Y014184D01*
X007290Y014128D01*
X007268Y014071D01*
X007249Y014012D01*
X007250Y013422D02*
X007271Y013368D01*
X007296Y013316D01*
X007325Y013266D01*
X007356Y013217D01*
X007390Y013171D01*
X007427Y013126D01*
X006085Y013138D02*
X006123Y013187D01*
X006157Y013237D01*
X006189Y013290D01*
X006217Y013345D01*
X006242Y013401D01*
X006262Y013459D01*
X006280Y013518D01*
X006293Y013578D01*
X006303Y013639D01*
X006308Y013700D01*
X006310Y013762D01*
X006308Y013823D01*
X006302Y013885D01*
X006292Y013945D01*
X006278Y014005D01*
X006261Y014064D01*
X006239Y014122D01*
X006214Y014178D01*
X006186Y014233D01*
X006154Y014286D01*
X006119Y014336D01*
X006081Y014384D01*
X006040Y014430D01*
X005996Y014473D01*
X005949Y014513D01*
X005900Y014550D01*
X005848Y014584D01*
X005795Y014615D01*
X005740Y014642D01*
X005683Y014665D01*
X005625Y014685D01*
X005565Y014701D01*
X005505Y014713D01*
X005444Y014722D01*
X005382Y014726D01*
X005321Y014727D01*
X005260Y014723D01*
X005198Y014716D01*
X005138Y014705D01*
X005078Y014690D01*
X005020Y014672D01*
X004962Y014649D01*
X004906Y014623D01*
X004852Y014594D01*
X004800Y014561D01*
X004750Y014525D01*
X004703Y014486D01*
X004658Y014444D01*
X004616Y014399D01*
X004577Y014352D01*
X004541Y014302D01*
X004508Y014250D01*
X004478Y014196D01*
X004452Y014140D01*
X004430Y014083D01*
X004411Y014024D01*
X004411Y013433D02*
X004432Y013379D01*
X004457Y013327D01*
X004486Y013277D01*
X004517Y013228D01*
X004551Y013182D01*
X004588Y013137D01*
X004805Y012449D02*
X004588Y012311D01*
X004805Y012173D01*
X004805Y012449D01*
X004805Y012431D02*
X004777Y012431D01*
X004805Y012383D02*
X004701Y012383D01*
X004624Y012334D02*
X004805Y012334D01*
X004805Y012286D02*
X004628Y012286D01*
X004569Y012311D02*
X004509Y012311D01*
X004704Y012237D02*
X004805Y012237D01*
X004805Y012189D02*
X004781Y012189D01*
X004805Y011661D02*
X004588Y011524D01*
X004805Y011386D01*
X004805Y011661D01*
X004805Y011655D02*
X004795Y011655D01*
X004805Y011607D02*
X004719Y011607D01*
X004642Y011558D02*
X004805Y011558D01*
X004805Y011510D02*
X004610Y011510D01*
X004569Y011524D02*
X004509Y011524D01*
X004687Y011461D02*
X004805Y011461D01*
X004805Y011413D02*
X004763Y011413D01*
X010887Y015461D02*
X010946Y015461D01*
X010966Y015461D02*
X011183Y015598D01*
X011183Y015323D01*
X010966Y015461D01*
X011002Y015438D02*
X011183Y015438D01*
X011183Y015390D02*
X011078Y015390D01*
X011154Y015341D02*
X011183Y015341D01*
X011183Y015487D02*
X011007Y015487D01*
X011083Y015535D02*
X011183Y015535D01*
X011183Y015584D02*
X011159Y015584D01*
X010458Y019563D02*
X016757Y019563D01*
X016757Y036886D01*
X010458Y036886D01*
X010458Y019563D01*
X017911Y019843D02*
X017911Y016024D01*
X019880Y016024D01*
X019880Y019843D01*
X017911Y019843D01*
X019215Y019513D02*
X019775Y019513D01*
X019775Y019353D02*
X019215Y019353D01*
X019195Y019433D02*
X019197Y019467D01*
X019203Y019501D01*
X019212Y019534D01*
X019226Y019565D01*
X019243Y019595D01*
X019263Y019623D01*
X019286Y019648D01*
X019312Y019671D01*
X019340Y019690D01*
X019370Y019706D01*
X019402Y019718D01*
X019435Y019727D01*
X019469Y019732D01*
X019504Y019733D01*
X019538Y019730D01*
X019571Y019723D01*
X019604Y019713D01*
X019635Y019698D01*
X019664Y019681D01*
X019691Y019660D01*
X019716Y019636D01*
X019738Y019609D01*
X019756Y019581D01*
X019771Y019550D01*
X019783Y019518D01*
X019791Y019484D01*
X019795Y019450D01*
X019795Y019416D01*
X019791Y019382D01*
X019783Y019348D01*
X019771Y019316D01*
X019756Y019285D01*
X019738Y019257D01*
X019716Y019230D01*
X019691Y019206D01*
X019664Y019185D01*
X019635Y019168D01*
X019604Y019153D01*
X019571Y019143D01*
X019538Y019136D01*
X019504Y019133D01*
X019469Y019134D01*
X019435Y019139D01*
X019402Y019148D01*
X019370Y019160D01*
X019340Y019176D01*
X019312Y019195D01*
X019286Y019218D01*
X019263Y019243D01*
X019243Y019271D01*
X019226Y019301D01*
X019212Y019332D01*
X019203Y019365D01*
X019197Y019399D01*
X019195Y019433D01*
X019860Y020972D02*
X017891Y020972D01*
X017891Y024791D01*
X019860Y024791D01*
X019860Y020972D01*
X019756Y024302D02*
X019196Y024302D01*
X019196Y024462D02*
X019756Y024462D01*
X019176Y024382D02*
X019178Y024416D01*
X019184Y024450D01*
X019193Y024483D01*
X019207Y024514D01*
X019224Y024544D01*
X019244Y024572D01*
X019267Y024597D01*
X019293Y024620D01*
X019321Y024639D01*
X019351Y024655D01*
X019383Y024667D01*
X019416Y024676D01*
X019450Y024681D01*
X019485Y024682D01*
X019519Y024679D01*
X019552Y024672D01*
X019585Y024662D01*
X019616Y024647D01*
X019645Y024630D01*
X019672Y024609D01*
X019697Y024585D01*
X019719Y024558D01*
X019737Y024530D01*
X019752Y024499D01*
X019764Y024467D01*
X019772Y024433D01*
X019776Y024399D01*
X019776Y024365D01*
X019772Y024331D01*
X019764Y024297D01*
X019752Y024265D01*
X019737Y024234D01*
X019719Y024206D01*
X019697Y024179D01*
X019672Y024155D01*
X019645Y024134D01*
X019616Y024117D01*
X019585Y024102D01*
X019552Y024092D01*
X019519Y024085D01*
X019485Y024082D01*
X019450Y024083D01*
X019416Y024088D01*
X019383Y024097D01*
X019351Y024109D01*
X019321Y024125D01*
X019293Y024144D01*
X019267Y024167D01*
X019244Y024192D01*
X019224Y024220D01*
X019207Y024250D01*
X019193Y024281D01*
X019184Y024314D01*
X019178Y024348D01*
X019176Y024382D01*
X019710Y025992D02*
X017364Y025992D01*
X017364Y028256D01*
X019710Y028256D01*
X019710Y025992D01*
X019710Y028256D02*
X019710Y028551D01*
X017364Y028551D01*
X017364Y028256D01*
X028254Y029287D02*
X030183Y029287D01*
X030183Y030823D01*
X028254Y030823D01*
X028254Y029314D01*
X028368Y029505D02*
X028370Y029525D01*
X028376Y029543D01*
X028385Y029561D01*
X028397Y029576D01*
X028412Y029588D01*
X028430Y029597D01*
X028448Y029603D01*
X028468Y029605D01*
X028488Y029603D01*
X028506Y029597D01*
X028524Y029588D01*
X028539Y029576D01*
X028551Y029561D01*
X028560Y029543D01*
X028566Y029525D01*
X028568Y029505D01*
X028566Y029485D01*
X028560Y029467D01*
X028551Y029449D01*
X028539Y029434D01*
X028524Y029422D01*
X028506Y029413D01*
X028488Y029407D01*
X028468Y029405D01*
X028448Y029407D01*
X028430Y029413D01*
X028412Y029422D01*
X028397Y029434D01*
X028385Y029449D01*
X028376Y029467D01*
X028370Y029485D01*
X028368Y029505D01*
X028317Y026413D02*
X028317Y024905D01*
X028317Y024878D02*
X030246Y024878D01*
X030246Y026413D01*
X028317Y026413D01*
X028431Y025096D02*
X028433Y025116D01*
X028439Y025134D01*
X028448Y025152D01*
X028460Y025167D01*
X028475Y025179D01*
X028493Y025188D01*
X028511Y025194D01*
X028531Y025196D01*
X028551Y025194D01*
X028569Y025188D01*
X028587Y025179D01*
X028602Y025167D01*
X028614Y025152D01*
X028623Y025134D01*
X028629Y025116D01*
X028631Y025096D01*
X028629Y025076D01*
X028623Y025058D01*
X028614Y025040D01*
X028602Y025025D01*
X028587Y025013D01*
X028569Y025004D01*
X028551Y024998D01*
X028531Y024996D01*
X028511Y024998D01*
X028493Y025004D01*
X028475Y025013D01*
X028460Y025025D01*
X028448Y025040D01*
X028439Y025058D01*
X028433Y025076D01*
X028431Y025096D01*
X037270Y033079D02*
X037270Y033374D01*
X037270Y033079D02*
X040617Y033079D01*
X040617Y033374D01*
X036270Y033921D02*
X036270Y035417D01*
X035680Y035654D02*
X035679Y035669D01*
X035676Y035684D01*
X035671Y035698D01*
X035663Y035711D01*
X035653Y035723D01*
X035640Y035732D01*
X036270Y035418D02*
X036221Y035456D01*
X036171Y035490D01*
X036118Y035522D01*
X036063Y035550D01*
X036007Y035575D01*
X035949Y035595D01*
X035890Y035613D01*
X035830Y035626D01*
X035769Y035636D01*
X035708Y035641D01*
X035646Y035643D01*
X035585Y035641D01*
X035523Y035635D01*
X035463Y035625D01*
X035403Y035611D01*
X035344Y035594D01*
X035286Y035572D01*
X035230Y035547D01*
X035175Y035519D01*
X035122Y035487D01*
X035072Y035452D01*
X035024Y035414D01*
X034978Y035373D01*
X034935Y035329D01*
X034895Y035282D01*
X034858Y035233D01*
X034824Y035181D01*
X034793Y035128D01*
X034766Y035073D01*
X034743Y035016D01*
X034723Y034958D01*
X034707Y034898D01*
X034695Y034838D01*
X034686Y034777D01*
X034682Y034715D01*
X034681Y034654D01*
X034685Y034593D01*
X034692Y034531D01*
X034703Y034471D01*
X034718Y034411D01*
X034736Y034353D01*
X034759Y034295D01*
X034785Y034239D01*
X034814Y034185D01*
X034847Y034133D01*
X034883Y034083D01*
X034922Y034036D01*
X034964Y033991D01*
X035009Y033949D01*
X035056Y033910D01*
X035106Y033874D01*
X035158Y033841D01*
X035212Y033811D01*
X035268Y033785D01*
X035325Y033763D01*
X035384Y033744D01*
X035385Y033744D02*
X035387Y033711D01*
X035392Y033678D01*
X035402Y033647D01*
X035414Y033616D01*
X035430Y033587D01*
X035449Y033560D01*
X035471Y033535D01*
X035496Y033513D01*
X035523Y033494D01*
X035552Y033478D01*
X035583Y033466D01*
X035614Y033456D01*
X035647Y033451D01*
X035680Y033449D01*
X035713Y033451D01*
X035746Y033456D01*
X035777Y033466D01*
X035808Y033478D01*
X035837Y033494D01*
X035864Y033513D01*
X035889Y033535D01*
X035911Y033560D01*
X035930Y033587D01*
X035946Y033616D01*
X035958Y033647D01*
X035968Y033678D01*
X035973Y033711D01*
X035975Y033744D01*
X035974Y033744D02*
X036028Y033765D01*
X036080Y033790D01*
X036130Y033819D01*
X036179Y033850D01*
X036225Y033884D01*
X036270Y033921D01*
X033805Y033886D02*
X033760Y033849D01*
X033714Y033815D01*
X033665Y033784D01*
X033615Y033755D01*
X033563Y033730D01*
X033509Y033709D01*
X032919Y033708D02*
X032860Y033727D01*
X032803Y033749D01*
X032747Y033775D01*
X032693Y033805D01*
X032641Y033838D01*
X032591Y033874D01*
X032544Y033913D01*
X032499Y033955D01*
X032457Y034000D01*
X032418Y034047D01*
X032382Y034097D01*
X032349Y034149D01*
X032320Y034203D01*
X032294Y034259D01*
X032271Y034317D01*
X032253Y034375D01*
X032238Y034435D01*
X032227Y034495D01*
X032220Y034557D01*
X032216Y034618D01*
X032217Y034679D01*
X032221Y034741D01*
X032230Y034802D01*
X032242Y034862D01*
X032258Y034922D01*
X032278Y034980D01*
X032301Y035037D01*
X032328Y035092D01*
X032359Y035145D01*
X032393Y035197D01*
X032430Y035246D01*
X032470Y035293D01*
X032513Y035337D01*
X032559Y035378D01*
X032607Y035416D01*
X032657Y035451D01*
X032710Y035483D01*
X032765Y035511D01*
X032821Y035536D01*
X032879Y035558D01*
X032938Y035575D01*
X032998Y035589D01*
X033058Y035599D01*
X033120Y035605D01*
X033181Y035607D01*
X033243Y035605D01*
X033304Y035600D01*
X033365Y035590D01*
X033425Y035577D01*
X033484Y035559D01*
X033542Y035539D01*
X033598Y035514D01*
X033653Y035486D01*
X033706Y035454D01*
X033756Y035420D01*
X033805Y035382D01*
X020021Y036130D02*
X017265Y036130D01*
X017265Y038886D01*
X020021Y038886D01*
X020021Y036130D01*
X016214Y037137D02*
X011214Y037137D01*
X011214Y039137D01*
X016214Y039137D01*
X016214Y037137D01*
X009020Y037163D02*
X004020Y037163D01*
X004020Y039163D01*
X009020Y039163D01*
X009020Y037163D01*
X024824Y004043D02*
X025297Y004043D01*
X024624Y003148D02*
X024624Y002203D01*
X022986Y002929D02*
X020639Y002929D01*
X020639Y003224D01*
X022986Y003224D01*
X022986Y002929D01*
X022986Y000665D01*
X020639Y000665D01*
X020639Y002929D01*
X026950Y004043D02*
X027344Y004043D01*
X027624Y003187D02*
X027624Y002203D01*
X030135Y002203D02*
X030135Y003148D01*
X030336Y004043D02*
X030809Y004043D01*
X032462Y004043D02*
X032856Y004043D01*
X033135Y003187D02*
X033135Y002203D01*
X039092Y001035D02*
X039151Y001035D01*
X039171Y001035D02*
X039387Y001173D01*
X039387Y000898D01*
X039171Y001035D01*
X039174Y001034D02*
X039387Y001034D01*
X039387Y001082D02*
X039244Y001082D01*
X039320Y001131D02*
X039387Y001131D01*
X039387Y000985D02*
X039250Y000985D01*
X039326Y000937D02*
X039387Y000937D01*
D12*
X039380Y001550D02*
X039133Y001550D01*
X039133Y001921D01*
X039380Y001921D01*
X039501Y001921D02*
X039686Y001921D01*
X039748Y001859D01*
X039748Y001612D01*
X039686Y001550D01*
X039501Y001550D01*
X039501Y001921D01*
X039256Y001736D02*
X039133Y001736D01*
X039011Y001550D02*
X038765Y001550D01*
X038765Y001921D01*
X039870Y001489D02*
X040116Y001489D01*
X040238Y001550D02*
X040238Y001921D01*
X040423Y001921D01*
X040485Y001859D01*
X040485Y001736D01*
X040423Y001674D01*
X040238Y001674D01*
X040361Y001674D02*
X040485Y001550D01*
X040606Y001550D02*
X040606Y001921D01*
X040791Y001921D01*
X040853Y001859D01*
X040853Y001736D01*
X040791Y001674D01*
X040606Y001674D01*
X040974Y001550D02*
X041098Y001550D01*
X041036Y001550D02*
X041036Y001921D01*
X040974Y001921D02*
X041098Y001921D01*
X040227Y003121D02*
X040106Y003121D01*
X040045Y003182D01*
X040288Y003425D01*
X040288Y003182D01*
X040227Y003121D01*
X040045Y003182D02*
X040045Y003425D01*
X040106Y003485D01*
X040227Y003485D01*
X040288Y003425D01*
X039925Y003425D02*
X039683Y003182D01*
X039743Y003121D01*
X039865Y003121D01*
X039925Y003182D01*
X039925Y003425D01*
X039865Y003485D01*
X039743Y003485D01*
X039683Y003425D01*
X039683Y003182D01*
X039563Y003303D02*
X039320Y003303D01*
X039502Y003485D01*
X039502Y003121D01*
X039200Y003121D02*
X039079Y003243D01*
X039140Y003243D02*
X038958Y003243D01*
X038958Y003121D02*
X038958Y003485D01*
X039140Y003485D01*
X039200Y003425D01*
X039200Y003303D01*
X039140Y003243D01*
X035324Y002837D02*
X035324Y002652D01*
X034954Y002652D01*
X034954Y002837D01*
X035016Y002899D01*
X035263Y002899D01*
X035324Y002837D01*
X035324Y002530D02*
X034954Y002530D01*
X034954Y002283D02*
X035324Y002530D01*
X035324Y002283D02*
X034954Y002283D01*
X035016Y002162D02*
X034954Y002100D01*
X034954Y001977D01*
X035016Y001915D01*
X035263Y001915D01*
X035324Y001977D01*
X035324Y002100D01*
X035263Y002162D01*
X035139Y002162D01*
X035139Y002038D01*
X023374Y002710D02*
X023128Y002710D01*
X023374Y002957D01*
X023374Y003018D01*
X023313Y003080D01*
X023189Y003080D01*
X023128Y003018D01*
X020524Y002710D02*
X020278Y002710D01*
X020401Y002710D02*
X020401Y003080D01*
X020278Y002957D01*
X030871Y010183D02*
X030933Y010121D01*
X031180Y010121D01*
X031242Y010183D01*
X031242Y010306D01*
X031180Y010368D01*
X031242Y010490D02*
X031242Y010736D01*
X031242Y010613D02*
X030871Y010613D01*
X030995Y010490D01*
X030933Y010368D02*
X030871Y010306D01*
X030871Y010183D01*
X030933Y010858D02*
X030995Y010858D01*
X031056Y010920D01*
X031056Y011105D01*
X030933Y011105D02*
X031180Y011105D01*
X031242Y011043D01*
X031242Y010920D01*
X031180Y010858D01*
X030933Y010858D02*
X030871Y010920D01*
X030871Y011043D01*
X030933Y011105D01*
X030933Y011226D02*
X030871Y011288D01*
X030871Y011411D01*
X030933Y011473D01*
X030995Y011473D01*
X031056Y011411D01*
X031118Y011473D01*
X031180Y011473D01*
X031242Y011411D01*
X031242Y011288D01*
X031180Y011226D01*
X031056Y011350D02*
X031056Y011411D01*
X032049Y011411D02*
X032234Y011226D01*
X032234Y011473D01*
X032419Y011411D02*
X032049Y011411D01*
X032111Y011105D02*
X032049Y011043D01*
X032049Y010920D01*
X032111Y010858D01*
X032173Y010858D01*
X032234Y010920D01*
X032234Y011105D01*
X032111Y011105D02*
X032358Y011105D01*
X032419Y011043D01*
X032419Y010920D01*
X032358Y010858D01*
X032419Y010736D02*
X032419Y010490D01*
X032419Y010613D02*
X032049Y010613D01*
X032173Y010490D01*
X032111Y010368D02*
X032049Y010306D01*
X032049Y010183D01*
X032111Y010121D01*
X032358Y010121D01*
X032419Y010183D01*
X032419Y010306D01*
X032358Y010368D01*
X033312Y010258D02*
X033312Y010134D01*
X033374Y010072D01*
X033621Y010072D01*
X033682Y010134D01*
X033682Y010258D01*
X033621Y010319D01*
X033682Y010441D02*
X033682Y010688D01*
X033682Y010564D02*
X033312Y010564D01*
X033436Y010441D01*
X033374Y010319D02*
X033312Y010258D01*
X033374Y010809D02*
X033436Y010809D01*
X033497Y010871D01*
X033497Y011056D01*
X033497Y011177D02*
X033436Y011301D01*
X033436Y011363D01*
X033497Y011424D01*
X033621Y011424D01*
X033682Y011363D01*
X033682Y011239D01*
X033621Y011177D01*
X033621Y011056D02*
X033374Y011056D01*
X033312Y010994D01*
X033312Y010871D01*
X033374Y010809D01*
X033621Y010809D02*
X033682Y010871D01*
X033682Y010994D01*
X033621Y011056D01*
X033497Y011177D02*
X033312Y011177D01*
X033312Y011424D01*
X032319Y015813D02*
X032072Y015813D01*
X032010Y015875D01*
X032010Y015999D01*
X032072Y016060D01*
X032134Y016182D02*
X032010Y016305D01*
X032380Y016305D01*
X032380Y016182D02*
X032380Y016429D01*
X032380Y016550D02*
X032380Y016797D01*
X032380Y016674D02*
X032010Y016674D01*
X032134Y016550D01*
X032134Y016918D02*
X032195Y016980D01*
X032195Y017165D01*
X032072Y017165D02*
X032010Y017104D01*
X032010Y016980D01*
X032072Y016918D01*
X032134Y016918D01*
X032319Y016918D02*
X032380Y016980D01*
X032380Y017104D01*
X032319Y017165D01*
X032072Y017165D01*
X032072Y017782D02*
X032319Y017782D01*
X032380Y017844D01*
X032380Y017967D01*
X032319Y018029D01*
X032380Y018150D02*
X032380Y018397D01*
X032380Y018519D02*
X032380Y018765D01*
X032380Y018642D02*
X032010Y018642D01*
X032134Y018519D01*
X032010Y018274D02*
X032380Y018274D01*
X032134Y018150D02*
X032010Y018274D01*
X032072Y018029D02*
X032010Y017967D01*
X032010Y017844D01*
X032072Y017782D01*
X032072Y018887D02*
X032134Y018887D01*
X032195Y018949D01*
X032195Y019072D01*
X032257Y019134D01*
X032319Y019134D01*
X032380Y019072D01*
X032380Y018949D01*
X032319Y018887D01*
X032257Y018887D01*
X032195Y018949D01*
X032195Y019072D02*
X032134Y019134D01*
X032072Y019134D01*
X032010Y019072D01*
X032010Y018949D01*
X032072Y018887D01*
X034243Y021472D02*
X034490Y021472D01*
X034552Y021533D01*
X034552Y021657D01*
X034490Y021718D01*
X034552Y021840D02*
X034552Y022087D01*
X034552Y022208D02*
X034552Y022455D01*
X034552Y022332D02*
X034181Y022332D01*
X034305Y022208D01*
X034181Y021963D02*
X034552Y021963D01*
X034305Y021840D02*
X034181Y021963D01*
X034243Y021718D02*
X034181Y021657D01*
X034181Y021533D01*
X034243Y021472D01*
X033664Y021819D02*
X033602Y021757D01*
X033478Y021757D01*
X033417Y021819D01*
X033417Y021942D02*
X033540Y022004D01*
X033602Y022004D01*
X033664Y021942D01*
X033664Y021819D01*
X033417Y021942D02*
X033417Y022127D01*
X033664Y022127D01*
X033172Y022127D02*
X033172Y021757D01*
X033295Y021757D02*
X033048Y021757D01*
X032927Y021757D02*
X032680Y021757D01*
X032804Y021757D02*
X032804Y022127D01*
X032680Y022004D01*
X032559Y022065D02*
X032497Y022127D01*
X032373Y022127D01*
X032312Y022065D01*
X032312Y021819D01*
X032373Y021757D01*
X032497Y021757D01*
X032559Y021819D01*
X033048Y022004D02*
X033172Y022127D01*
X033172Y022962D02*
X033172Y023332D01*
X033048Y023208D01*
X033048Y022962D02*
X033295Y022962D01*
X033417Y023147D02*
X033664Y023147D01*
X033602Y022962D02*
X033602Y023332D01*
X033417Y023147D01*
X032927Y022962D02*
X032680Y022962D01*
X032804Y022962D02*
X032804Y023332D01*
X032680Y023208D01*
X032559Y023270D02*
X032497Y023332D01*
X032373Y023332D01*
X032312Y023270D01*
X032312Y023023D01*
X032373Y022962D01*
X032497Y022962D01*
X032559Y023023D01*
X034181Y022823D02*
X034243Y022700D01*
X034367Y022577D01*
X034367Y022762D01*
X034428Y022823D01*
X034490Y022823D01*
X034552Y022762D01*
X034552Y022638D01*
X034490Y022577D01*
X034367Y022577D01*
X035386Y022577D02*
X035386Y022823D01*
X035448Y022823D01*
X035695Y022577D01*
X035756Y022577D01*
X035756Y022455D02*
X035756Y022208D01*
X035756Y022087D02*
X035756Y021840D01*
X035756Y021963D02*
X035386Y021963D01*
X035510Y021840D01*
X035448Y021718D02*
X035386Y021657D01*
X035386Y021533D01*
X035448Y021472D01*
X035695Y021472D01*
X035756Y021533D01*
X035756Y021657D01*
X035695Y021718D01*
X035510Y022208D02*
X035386Y022332D01*
X035756Y022332D01*
X034495Y024924D02*
X034555Y024985D01*
X034555Y025046D01*
X034495Y025106D01*
X034313Y025106D01*
X034313Y024985D01*
X034373Y024924D01*
X034495Y024924D01*
X034313Y025106D02*
X034434Y025228D01*
X034555Y025288D01*
X034193Y025228D02*
X034193Y025167D01*
X034132Y025106D01*
X034193Y025046D01*
X034193Y024985D01*
X034132Y024924D01*
X034011Y024924D01*
X033950Y024985D01*
X033830Y024924D02*
X033588Y024924D01*
X033468Y024924D02*
X033347Y025046D01*
X033407Y025046D02*
X033225Y025046D01*
X033225Y024924D02*
X033225Y025288D01*
X033407Y025288D01*
X033468Y025228D01*
X033468Y025106D01*
X033407Y025046D01*
X033588Y025167D02*
X033709Y025288D01*
X033709Y024924D01*
X033950Y025228D02*
X034011Y025288D01*
X034132Y025288D01*
X034193Y025228D01*
X034132Y025106D02*
X034072Y025106D01*
X032587Y025106D02*
X032344Y025106D01*
X032526Y025288D01*
X032526Y024924D01*
X032224Y024985D02*
X032164Y024924D01*
X032042Y024924D01*
X031982Y024985D01*
X031862Y024924D02*
X031619Y024924D01*
X031499Y024924D02*
X031378Y025046D01*
X031439Y025046D02*
X031257Y025046D01*
X031257Y024924D02*
X031257Y025288D01*
X031439Y025288D01*
X031499Y025228D01*
X031499Y025106D01*
X031439Y025046D01*
X031619Y025167D02*
X031741Y025288D01*
X031741Y024924D01*
X031982Y025228D02*
X032042Y025288D01*
X032164Y025288D01*
X032224Y025228D01*
X032224Y025167D01*
X032164Y025106D01*
X032224Y025046D01*
X032224Y024985D01*
X032164Y025106D02*
X032103Y025106D01*
X032042Y026499D02*
X031982Y026560D01*
X032042Y026499D02*
X032164Y026499D01*
X032224Y026560D01*
X032224Y026621D01*
X032164Y026681D01*
X032103Y026681D01*
X032164Y026681D02*
X032224Y026742D01*
X032224Y026803D01*
X032164Y026863D01*
X032042Y026863D01*
X031982Y026803D01*
X031741Y026863D02*
X031741Y026499D01*
X031862Y026499D02*
X031619Y026499D01*
X031499Y026499D02*
X031378Y026621D01*
X031439Y026621D02*
X031257Y026621D01*
X031257Y026499D02*
X031257Y026863D01*
X031439Y026863D01*
X031499Y026803D01*
X031499Y026681D01*
X031439Y026621D01*
X031619Y026742D02*
X031741Y026863D01*
X032344Y026803D02*
X032405Y026863D01*
X032526Y026863D01*
X032587Y026803D01*
X032587Y026742D01*
X032526Y026681D01*
X032587Y026621D01*
X032587Y026560D01*
X032526Y026499D01*
X032405Y026499D01*
X032344Y026560D01*
X032466Y026681D02*
X032526Y026681D01*
X033225Y026621D02*
X033407Y026621D01*
X033468Y026681D01*
X033468Y026803D01*
X033407Y026863D01*
X033225Y026863D01*
X033225Y026499D01*
X033347Y026621D02*
X033468Y026499D01*
X033588Y026499D02*
X033830Y026499D01*
X033709Y026499D02*
X033709Y026863D01*
X033588Y026742D01*
X033950Y026803D02*
X034011Y026863D01*
X034132Y026863D01*
X034193Y026803D01*
X034193Y026742D01*
X034132Y026681D01*
X034193Y026621D01*
X034193Y026560D01*
X034132Y026499D01*
X034011Y026499D01*
X033950Y026560D01*
X034072Y026681D02*
X034132Y026681D01*
X034313Y026681D02*
X034313Y026863D01*
X034555Y026863D01*
X034495Y026742D02*
X034555Y026681D01*
X034555Y026560D01*
X034495Y026499D01*
X034373Y026499D01*
X034313Y026560D01*
X034313Y026681D02*
X034434Y026742D01*
X034495Y026742D01*
X034555Y028074D02*
X034313Y028074D01*
X034434Y028074D02*
X034434Y028438D01*
X034313Y028317D01*
X034193Y028317D02*
X034132Y028256D01*
X034193Y028195D01*
X034193Y028135D01*
X034132Y028074D01*
X034011Y028074D01*
X033950Y028135D01*
X033830Y028074D02*
X033588Y028074D01*
X033468Y028074D02*
X033347Y028195D01*
X033407Y028195D02*
X033225Y028195D01*
X033225Y028074D02*
X033225Y028438D01*
X033407Y028438D01*
X033468Y028377D01*
X033468Y028256D01*
X033407Y028195D01*
X033588Y028317D02*
X033709Y028438D01*
X033709Y028074D01*
X033950Y028377D02*
X034011Y028438D01*
X034132Y028438D01*
X034193Y028377D01*
X034193Y028317D01*
X034132Y028256D02*
X034072Y028256D01*
X035194Y028195D02*
X035376Y028195D01*
X035436Y028256D01*
X035436Y028377D01*
X035376Y028438D01*
X035194Y028438D01*
X035194Y028074D01*
X035315Y028195D02*
X035436Y028074D01*
X035556Y028074D02*
X035799Y028074D01*
X035678Y028074D02*
X035678Y028438D01*
X035556Y028317D01*
X035919Y028377D02*
X035979Y028438D01*
X036101Y028438D01*
X036161Y028377D01*
X036161Y028317D01*
X036101Y028256D01*
X036161Y028195D01*
X036161Y028135D01*
X036101Y028074D01*
X035979Y028074D01*
X035919Y028135D01*
X036040Y028256D02*
X036101Y028256D01*
X036281Y028377D02*
X036342Y028438D01*
X036463Y028438D01*
X036524Y028377D01*
X036524Y028317D01*
X036281Y028074D01*
X036524Y028074D01*
X034508Y029879D02*
X034508Y029939D01*
X034448Y030000D01*
X034266Y030000D01*
X034266Y029879D01*
X034326Y029818D01*
X034448Y029818D01*
X034508Y029879D01*
X034387Y030121D02*
X034266Y030000D01*
X034146Y030061D02*
X034146Y030121D01*
X034085Y030182D01*
X033964Y030182D01*
X033903Y030121D01*
X033662Y030182D02*
X033662Y029818D01*
X033541Y029818D02*
X033783Y029818D01*
X033903Y029818D02*
X034146Y030061D01*
X034146Y029818D02*
X033903Y029818D01*
X033541Y030061D02*
X033662Y030182D01*
X033421Y030121D02*
X033421Y030000D01*
X033360Y029939D01*
X033178Y029939D01*
X033178Y029818D02*
X033178Y030182D01*
X033360Y030182D01*
X033421Y030121D01*
X033299Y029939D02*
X033421Y029818D01*
X032437Y030043D02*
X032195Y030043D01*
X032377Y030225D01*
X032377Y029861D01*
X032075Y029861D02*
X031832Y029861D01*
X032075Y030104D01*
X032075Y030165D01*
X032014Y030225D01*
X031893Y030225D01*
X031832Y030165D01*
X031591Y030225D02*
X031591Y029861D01*
X031470Y029861D02*
X031712Y029861D01*
X031470Y030104D02*
X031591Y030225D01*
X031350Y030165D02*
X031350Y030043D01*
X031289Y029983D01*
X031107Y029983D01*
X031228Y029983D02*
X031350Y029861D01*
X031107Y029861D02*
X031107Y030225D01*
X031289Y030225D01*
X031350Y030165D01*
X031326Y031334D02*
X031205Y031455D01*
X031266Y031455D02*
X031084Y031455D01*
X031084Y031334D02*
X031084Y031698D01*
X031266Y031698D01*
X031326Y031637D01*
X031326Y031516D01*
X031266Y031455D01*
X031446Y031334D02*
X031689Y031334D01*
X031809Y031334D02*
X032051Y031577D01*
X032051Y031637D01*
X031991Y031698D01*
X031869Y031698D01*
X031809Y031637D01*
X031567Y031698D02*
X031567Y031334D01*
X031809Y031334D02*
X032051Y031334D01*
X032171Y031395D02*
X032232Y031334D01*
X032353Y031334D01*
X032414Y031395D01*
X032414Y031455D01*
X032353Y031516D01*
X032292Y031516D01*
X032353Y031516D02*
X032414Y031577D01*
X032414Y031637D01*
X032353Y031698D01*
X032232Y031698D01*
X032171Y031637D01*
X031567Y031698D02*
X031446Y031577D01*
X033111Y031514D02*
X033293Y031514D01*
X033354Y031575D01*
X033354Y031696D01*
X033293Y031757D01*
X033111Y031757D01*
X033111Y031393D01*
X033232Y031514D02*
X033354Y031393D01*
X033474Y031393D02*
X033716Y031393D01*
X033836Y031393D02*
X034079Y031636D01*
X034079Y031696D01*
X034018Y031757D01*
X033897Y031757D01*
X033836Y031696D01*
X033595Y031757D02*
X033595Y031393D01*
X033836Y031393D02*
X034079Y031393D01*
X034199Y031454D02*
X034259Y031393D01*
X034381Y031393D01*
X034441Y031454D01*
X034441Y031575D01*
X034381Y031636D01*
X034320Y031636D01*
X034199Y031575D01*
X034199Y031757D01*
X034441Y031757D01*
X033595Y031757D02*
X033474Y031636D01*
X033421Y032877D02*
X033299Y032999D01*
X033360Y032999D02*
X033178Y032999D01*
X033178Y032877D02*
X033178Y033241D01*
X033360Y033241D01*
X033421Y033181D01*
X033421Y033059D01*
X033360Y032999D01*
X033541Y033120D02*
X033662Y033241D01*
X033662Y032877D01*
X033541Y032877D02*
X033783Y032877D01*
X033903Y032877D02*
X034146Y033120D01*
X034146Y033181D01*
X034085Y033241D01*
X033964Y033241D01*
X033903Y033181D01*
X033903Y032877D02*
X034146Y032877D01*
X034266Y032877D02*
X034508Y032877D01*
X034387Y032877D02*
X034387Y033241D01*
X034266Y033120D01*
X035076Y033178D02*
X035258Y033178D01*
X035318Y033118D01*
X035318Y032996D01*
X035258Y032936D01*
X035076Y032936D01*
X035197Y032936D02*
X035318Y032814D01*
X035438Y032814D02*
X035681Y032814D01*
X035801Y032814D02*
X036043Y033057D01*
X036043Y033118D01*
X035983Y033178D01*
X035861Y033178D01*
X035801Y033118D01*
X035559Y033178D02*
X035559Y032814D01*
X035801Y032814D02*
X036043Y032814D01*
X036163Y032814D02*
X036406Y033057D01*
X036406Y033118D01*
X036345Y033178D01*
X036224Y033178D01*
X036163Y033118D01*
X036163Y032814D02*
X036406Y032814D01*
X036852Y033223D02*
X036790Y033285D01*
X036852Y033223D02*
X036975Y033223D01*
X037037Y033285D01*
X037037Y033347D01*
X036975Y033408D01*
X036913Y033408D01*
X036975Y033408D02*
X037037Y033470D01*
X037037Y033532D01*
X036975Y033594D01*
X036852Y033594D01*
X036790Y033532D01*
X035559Y033178D02*
X035438Y033057D01*
X035076Y033178D02*
X035076Y032814D01*
X034423Y033897D02*
X034119Y033897D01*
X034119Y034140D02*
X034423Y034140D01*
X034483Y034079D01*
X034483Y033958D01*
X034423Y033897D01*
X034301Y034259D02*
X034301Y034502D01*
X034241Y034622D02*
X034119Y034743D01*
X034483Y034743D01*
X034483Y034622D02*
X034483Y034865D01*
X034423Y034984D02*
X034483Y035045D01*
X034483Y035166D01*
X034423Y035227D01*
X034362Y035227D01*
X034301Y035166D01*
X034301Y035106D01*
X034301Y035166D02*
X034241Y035227D01*
X034180Y035227D01*
X034119Y035166D01*
X034119Y035045D01*
X034180Y034984D01*
X034119Y034441D02*
X034301Y034259D01*
X034483Y034441D02*
X034119Y034441D01*
X032508Y033181D02*
X032448Y033241D01*
X032326Y033241D01*
X032266Y033181D01*
X032266Y032938D01*
X032508Y033181D01*
X032508Y032938D01*
X032448Y032877D01*
X032326Y032877D01*
X032266Y032938D01*
X032146Y032877D02*
X031903Y032877D01*
X032146Y033120D01*
X032146Y033181D01*
X032085Y033241D01*
X031964Y033241D01*
X031903Y033181D01*
X031662Y033241D02*
X031662Y032877D01*
X031541Y032877D02*
X031783Y032877D01*
X031541Y033120D02*
X031662Y033241D01*
X031421Y033181D02*
X031421Y033059D01*
X031360Y032999D01*
X031178Y032999D01*
X031299Y032999D02*
X031421Y032877D01*
X031178Y032877D02*
X031178Y033241D01*
X031360Y033241D01*
X031421Y033181D01*
X031654Y033861D02*
X031957Y033861D01*
X032018Y033922D01*
X032018Y034043D01*
X031957Y034104D01*
X031654Y034104D01*
X031836Y034224D02*
X031836Y034467D01*
X031775Y034586D02*
X031654Y034708D01*
X032018Y034708D01*
X032018Y034829D02*
X032018Y034586D01*
X032018Y034406D02*
X031654Y034406D01*
X031836Y034224D01*
X031715Y034949D02*
X031654Y035010D01*
X031654Y035131D01*
X031715Y035192D01*
X031775Y035192D01*
X032018Y034949D01*
X032018Y035192D01*
X032351Y036308D02*
X032289Y036369D01*
X032351Y036308D02*
X032474Y036308D01*
X032536Y036369D01*
X032536Y036431D01*
X032474Y036493D01*
X032413Y036493D01*
X032474Y036493D02*
X032536Y036554D01*
X032536Y036616D01*
X032474Y036678D01*
X032351Y036678D01*
X032289Y036616D01*
X032356Y037276D02*
X032109Y037276D01*
X032356Y037523D01*
X032356Y037585D01*
X032294Y037647D01*
X032171Y037647D01*
X032109Y037585D01*
X032109Y038776D02*
X032356Y038776D01*
X032232Y038776D02*
X032232Y039147D01*
X032109Y039023D01*
X036139Y036654D02*
X036263Y036778D01*
X036263Y036408D01*
X036386Y036408D02*
X036139Y036408D01*
X036775Y036335D02*
X036837Y036273D01*
X036960Y036273D01*
X037022Y036335D01*
X037022Y036396D01*
X036960Y036458D01*
X036898Y036458D01*
X036960Y036458D02*
X037022Y036520D01*
X037022Y036581D01*
X036960Y036643D01*
X036837Y036643D01*
X036775Y036581D01*
X040625Y036620D02*
X040748Y036743D01*
X040748Y036373D01*
X040625Y036373D02*
X040872Y036373D01*
X041596Y036458D02*
X041843Y036458D01*
X041781Y036273D02*
X041781Y036643D01*
X041596Y036458D01*
X040763Y033694D02*
X040763Y033323D01*
X040640Y033323D02*
X040887Y033323D01*
X040640Y033570D02*
X040763Y033694D01*
X046446Y036273D02*
X046693Y036273D01*
X046570Y036273D02*
X046570Y036643D01*
X046446Y036520D01*
X047151Y036424D02*
X047213Y036486D01*
X047336Y036486D01*
X047398Y036424D01*
X047398Y036362D01*
X047336Y036301D01*
X047398Y036239D01*
X047398Y036177D01*
X047336Y036115D01*
X047213Y036115D01*
X047151Y036177D01*
X047274Y036301D02*
X047336Y036301D01*
X047398Y037115D02*
X047151Y037115D01*
X047398Y037362D01*
X047398Y037424D01*
X047336Y037486D01*
X047213Y037486D01*
X047151Y037424D01*
X047151Y038115D02*
X047398Y038115D01*
X047274Y038115D02*
X047274Y038486D01*
X047151Y038362D01*
X047624Y039365D02*
X047748Y039489D01*
X047748Y039736D01*
X047869Y039736D02*
X048054Y039736D01*
X048116Y039674D01*
X048116Y039551D01*
X048054Y039489D01*
X047869Y039489D01*
X047993Y039489D02*
X048116Y039365D01*
X048237Y039365D02*
X048484Y039365D01*
X048606Y039365D02*
X048853Y039365D01*
X048729Y039365D02*
X048729Y039736D01*
X048606Y039612D01*
X048361Y039736D02*
X048361Y039365D01*
X048237Y039612D02*
X048361Y039736D01*
X047869Y039736D02*
X047869Y039365D01*
X047624Y039365D02*
X047501Y039489D01*
X047501Y039736D01*
X048974Y039674D02*
X049036Y039736D01*
X049159Y039736D01*
X049221Y039674D01*
X048974Y039427D01*
X049036Y039365D01*
X049159Y039365D01*
X049221Y039427D01*
X049221Y039674D01*
X048974Y039674D02*
X048974Y039427D01*
X053922Y038362D02*
X054046Y038486D01*
X054046Y038115D01*
X054169Y038115D02*
X053922Y038115D01*
X053984Y037486D02*
X053922Y037424D01*
X053984Y037486D02*
X054108Y037486D01*
X054169Y037424D01*
X054169Y037362D01*
X053922Y037115D01*
X054169Y037115D01*
X054108Y036486D02*
X054169Y036424D01*
X054169Y036362D01*
X054108Y036301D01*
X054169Y036239D01*
X054169Y036177D01*
X054108Y036115D01*
X053984Y036115D01*
X053922Y036177D01*
X054046Y036301D02*
X054108Y036301D01*
X054108Y036486D02*
X053984Y036486D01*
X053922Y036424D01*
X051695Y034737D02*
X051695Y034373D01*
X051816Y034373D02*
X051573Y034373D01*
X051453Y034434D02*
X051393Y034373D01*
X051271Y034373D01*
X051211Y034434D01*
X051211Y034677D01*
X051271Y034737D01*
X051393Y034737D01*
X051453Y034677D01*
X051573Y034616D02*
X051695Y034737D01*
X051091Y034737D02*
X051091Y034677D01*
X050848Y034434D01*
X050848Y034373D01*
X051091Y034373D01*
X051091Y034737D02*
X050848Y034737D01*
X050728Y034677D02*
X050728Y034555D01*
X050668Y034495D01*
X050486Y034495D01*
X050486Y034373D02*
X050486Y034737D01*
X050668Y034737D01*
X050728Y034677D01*
X050366Y034313D02*
X050123Y034313D01*
X050003Y034373D02*
X049882Y034495D01*
X049943Y034495D02*
X049761Y034495D01*
X049761Y034373D02*
X049761Y034737D01*
X049943Y034737D01*
X050003Y034677D01*
X050003Y034555D01*
X049943Y034495D01*
X049309Y033127D02*
X049371Y033065D01*
X049371Y032941D01*
X049309Y032880D01*
X049062Y033127D01*
X049309Y033127D01*
X049062Y033127D02*
X049000Y033065D01*
X049000Y032941D01*
X049062Y032880D01*
X049309Y032880D01*
X049371Y032758D02*
X049371Y032511D01*
X049371Y032390D02*
X049371Y032143D01*
X049371Y032267D02*
X049000Y032267D01*
X049124Y032143D01*
X049062Y032022D02*
X049000Y031960D01*
X049000Y031836D01*
X049062Y031775D01*
X049309Y031775D01*
X049371Y031836D01*
X049371Y031960D01*
X049309Y032022D01*
X049124Y032511D02*
X049000Y032635D01*
X049371Y032635D01*
X050378Y032635D02*
X050749Y032635D01*
X050749Y032758D02*
X050749Y032511D01*
X050749Y032390D02*
X050749Y032143D01*
X050749Y032267D02*
X050378Y032267D01*
X050502Y032143D01*
X050440Y032022D02*
X050378Y031960D01*
X050378Y031836D01*
X050440Y031775D01*
X050687Y031775D01*
X050749Y031836D01*
X050749Y031960D01*
X050687Y032022D01*
X050502Y032511D02*
X050378Y032635D01*
X050502Y032880D02*
X050378Y033003D01*
X050749Y033003D01*
X050749Y032880D02*
X050749Y033127D01*
X052410Y030859D02*
X052410Y030556D01*
X052471Y030495D01*
X052592Y030495D01*
X052653Y030556D01*
X052653Y030859D01*
X052773Y030738D02*
X052894Y030859D01*
X052894Y030495D01*
X052773Y030495D02*
X053015Y030495D01*
X053135Y030495D02*
X053378Y030495D01*
X053498Y030495D02*
X053740Y030738D01*
X053740Y030799D01*
X053680Y030859D01*
X053558Y030859D01*
X053498Y030799D01*
X053257Y030859D02*
X053257Y030495D01*
X053498Y030495D02*
X053740Y030495D01*
X053257Y030859D02*
X053135Y030738D01*
X053276Y029950D02*
X053276Y029586D01*
X053155Y029586D02*
X053397Y029586D01*
X053517Y029586D02*
X053760Y029586D01*
X053880Y029586D02*
X053880Y029647D01*
X054122Y029889D01*
X054122Y029950D01*
X053880Y029950D01*
X053639Y029950D02*
X053639Y029586D01*
X053517Y029829D02*
X053639Y029950D01*
X053276Y029950D02*
X053155Y029829D01*
X053035Y029889D02*
X053035Y029768D01*
X052974Y029707D01*
X052792Y029707D01*
X052792Y029586D02*
X052792Y029950D01*
X052974Y029950D01*
X053035Y029889D01*
X052914Y029707D02*
X053035Y029586D01*
X051645Y029301D02*
X051645Y029239D01*
X051583Y029178D01*
X051645Y029116D01*
X051645Y029054D01*
X051583Y028993D01*
X051460Y028993D01*
X051398Y029054D01*
X051522Y029178D02*
X051583Y029178D01*
X051645Y029301D02*
X051583Y029363D01*
X051460Y029363D01*
X051398Y029301D01*
X050595Y029301D02*
X050533Y029363D01*
X050410Y029363D01*
X050348Y029301D01*
X050595Y029301D02*
X050595Y029239D01*
X050348Y028993D01*
X050595Y028993D01*
X049595Y028993D02*
X049348Y028993D01*
X049472Y028993D02*
X049472Y029363D01*
X049348Y029239D01*
X049472Y027394D02*
X049348Y027271D01*
X049472Y027394D02*
X049472Y027024D01*
X049595Y027024D02*
X049348Y027024D01*
X050348Y027024D02*
X050595Y027271D01*
X050595Y027333D01*
X050533Y027394D01*
X050410Y027394D01*
X050348Y027333D01*
X050348Y027024D02*
X050595Y027024D01*
X051398Y027086D02*
X051460Y027024D01*
X051583Y027024D01*
X051645Y027086D01*
X051645Y027147D01*
X051583Y027209D01*
X051522Y027209D01*
X051583Y027209D02*
X051645Y027271D01*
X051645Y027333D01*
X051583Y027394D01*
X051460Y027394D01*
X051398Y027333D01*
X052733Y027629D02*
X052733Y027993D01*
X052915Y027993D01*
X052976Y027933D01*
X052976Y027811D01*
X052915Y027751D01*
X052733Y027751D01*
X052854Y027751D02*
X052976Y027629D01*
X053096Y027629D02*
X053338Y027629D01*
X053458Y027629D02*
X053701Y027629D01*
X053579Y027629D02*
X053579Y027993D01*
X053458Y027872D01*
X053217Y027993D02*
X053217Y027629D01*
X053096Y027872D02*
X053217Y027993D01*
X053821Y027933D02*
X053881Y027993D01*
X054003Y027993D01*
X054063Y027933D01*
X053821Y027690D01*
X053881Y027629D01*
X054003Y027629D01*
X054063Y027690D01*
X054063Y027933D01*
X053821Y027933D02*
X053821Y027690D01*
X054733Y027751D02*
X054915Y027751D01*
X054976Y027811D01*
X054976Y027933D01*
X054915Y027993D01*
X054733Y027993D01*
X054733Y027629D01*
X054854Y027751D02*
X054976Y027629D01*
X055096Y027629D02*
X055338Y027629D01*
X055458Y027629D02*
X055701Y027629D01*
X055821Y027629D02*
X056063Y027629D01*
X055942Y027629D02*
X055942Y027993D01*
X055821Y027872D01*
X055579Y027993D02*
X055579Y027629D01*
X055458Y027872D02*
X055579Y027993D01*
X055217Y027993D02*
X055217Y027629D01*
X055096Y027872D02*
X055217Y027993D01*
X056757Y027970D02*
X056757Y027606D01*
X056757Y027727D02*
X056939Y027727D01*
X056999Y027788D01*
X056999Y027909D01*
X056939Y027970D01*
X056757Y027970D01*
X056878Y027727D02*
X056999Y027606D01*
X057119Y027606D02*
X057362Y027606D01*
X057482Y027606D02*
X057724Y027606D01*
X057844Y027606D02*
X058087Y027848D01*
X058087Y027909D01*
X058026Y027970D01*
X057905Y027970D01*
X057844Y027909D01*
X057603Y027970D02*
X057603Y027606D01*
X057844Y027606D02*
X058087Y027606D01*
X057603Y027970D02*
X057482Y027848D01*
X057241Y027970D02*
X057241Y027606D01*
X057119Y027848D02*
X057241Y027970D01*
X057331Y026502D02*
X057428Y026405D01*
X057428Y026212D01*
X057529Y026212D02*
X057626Y026212D01*
X057578Y026212D02*
X057578Y026502D01*
X057626Y026502D02*
X057529Y026502D01*
X057428Y026357D02*
X057235Y026357D01*
X057235Y026405D02*
X057331Y026502D01*
X057235Y026405D02*
X057235Y026212D01*
X057726Y026212D02*
X057726Y026502D01*
X057919Y026212D01*
X057919Y026502D01*
X058020Y026405D02*
X058117Y026502D01*
X058117Y026212D01*
X058020Y026212D02*
X058214Y026212D01*
X058315Y026357D02*
X058509Y026357D01*
X058412Y026454D02*
X058412Y026260D01*
X058117Y024927D02*
X058117Y024637D01*
X058020Y024637D02*
X058214Y024637D01*
X058315Y024782D02*
X058509Y024782D01*
X058117Y024927D02*
X058020Y024831D01*
X057919Y024927D02*
X057919Y024637D01*
X057726Y024927D01*
X057726Y024637D01*
X057626Y024637D02*
X057529Y024637D01*
X057578Y024637D02*
X057578Y024927D01*
X057626Y024927D02*
X057529Y024927D01*
X057428Y024831D02*
X057428Y024637D01*
X057428Y024782D02*
X057235Y024782D01*
X057235Y024831D02*
X057235Y024637D01*
X057235Y024831D02*
X057331Y024927D01*
X057428Y024831D01*
X056079Y024942D02*
X055958Y024881D01*
X055836Y024760D01*
X056018Y024760D01*
X056079Y024699D01*
X056079Y024639D01*
X056018Y024578D01*
X055897Y024578D01*
X055836Y024639D01*
X055836Y024760D01*
X055717Y024578D02*
X055474Y024578D01*
X055354Y024578D02*
X055111Y024578D01*
X054992Y024578D02*
X054870Y024699D01*
X054931Y024699D02*
X054749Y024699D01*
X054749Y024578D02*
X054749Y024942D01*
X054931Y024942D01*
X054992Y024881D01*
X054992Y024760D01*
X054931Y024699D01*
X055111Y024821D02*
X055233Y024942D01*
X055233Y024578D01*
X055474Y024821D02*
X055595Y024942D01*
X055595Y024578D01*
X054111Y024835D02*
X053868Y024835D01*
X054050Y025017D01*
X054050Y024653D01*
X053748Y024653D02*
X053505Y024653D01*
X053386Y024653D02*
X053143Y024653D01*
X053023Y024653D02*
X052902Y024774D01*
X052962Y024774D02*
X052780Y024774D01*
X052780Y024653D02*
X052780Y025017D01*
X052962Y025017D01*
X053023Y024956D01*
X053023Y024835D01*
X052962Y024774D01*
X053143Y024895D02*
X053264Y025017D01*
X053264Y024653D01*
X053505Y024895D02*
X053627Y025017D01*
X053627Y024653D01*
X053658Y026106D02*
X053658Y026470D01*
X053537Y026348D01*
X053537Y026106D02*
X053780Y026106D01*
X053899Y026166D02*
X053960Y026106D01*
X054081Y026106D01*
X054142Y026166D01*
X054142Y026227D01*
X054081Y026288D01*
X054021Y026288D01*
X054081Y026288D02*
X054142Y026348D01*
X054142Y026409D01*
X054081Y026470D01*
X053960Y026470D01*
X053899Y026409D01*
X053417Y026106D02*
X053174Y026106D01*
X053055Y026106D02*
X052933Y026227D01*
X052994Y026227D02*
X052812Y026227D01*
X052812Y026106D02*
X052812Y026470D01*
X052994Y026470D01*
X053055Y026409D01*
X053055Y026288D01*
X052994Y026227D01*
X053174Y026348D02*
X053296Y026470D01*
X053296Y026106D01*
X054749Y026086D02*
X054749Y026450D01*
X054931Y026450D01*
X054992Y026389D01*
X054992Y026268D01*
X054931Y026207D01*
X054749Y026207D01*
X054870Y026207D02*
X054992Y026086D01*
X055111Y026086D02*
X055354Y026086D01*
X055474Y026086D02*
X055717Y026086D01*
X055595Y026086D02*
X055595Y026450D01*
X055474Y026329D01*
X055233Y026450D02*
X055233Y026086D01*
X055111Y026329D02*
X055233Y026450D01*
X055836Y026450D02*
X055836Y026268D01*
X055958Y026329D01*
X056018Y026329D01*
X056079Y026268D01*
X056079Y026147D01*
X056018Y026086D01*
X055897Y026086D01*
X055836Y026147D01*
X055836Y026450D02*
X056079Y026450D01*
X056030Y029582D02*
X055909Y029582D01*
X055848Y029643D01*
X055848Y029703D01*
X055909Y029764D01*
X056030Y029764D01*
X056091Y029703D01*
X056091Y029643D01*
X056030Y029582D01*
X056030Y029764D02*
X056091Y029825D01*
X056091Y029885D01*
X056030Y029946D01*
X055909Y029946D01*
X055848Y029885D01*
X055848Y029825D01*
X055909Y029764D01*
X055728Y029582D02*
X055486Y029582D01*
X055366Y029582D02*
X055123Y029582D01*
X055003Y029582D02*
X054882Y029703D01*
X054943Y029703D02*
X054761Y029703D01*
X054761Y029582D02*
X054761Y029946D01*
X054943Y029946D01*
X055003Y029885D01*
X055003Y029764D01*
X054943Y029703D01*
X055123Y029825D02*
X055245Y029946D01*
X055245Y029582D01*
X055486Y029825D02*
X055607Y029946D01*
X055607Y029582D01*
X056737Y029684D02*
X056737Y030048D01*
X056919Y030048D01*
X056980Y029988D01*
X056980Y029866D01*
X056919Y029806D01*
X056737Y029806D01*
X056858Y029806D02*
X056980Y029684D01*
X057100Y029684D02*
X057342Y029684D01*
X057462Y029684D02*
X057705Y029684D01*
X057583Y029684D02*
X057583Y030048D01*
X057462Y029927D01*
X057221Y030048D02*
X057221Y029684D01*
X057100Y029927D02*
X057221Y030048D01*
X057825Y029988D02*
X057825Y029927D01*
X057885Y029866D01*
X058067Y029866D01*
X058067Y029745D02*
X058067Y029988D01*
X058007Y030048D01*
X057885Y030048D01*
X057825Y029988D01*
X057825Y029745D02*
X057885Y029684D01*
X058007Y029684D01*
X058067Y029745D01*
X057311Y031180D02*
X057117Y031180D01*
X057214Y031180D02*
X057214Y031471D01*
X057117Y031374D01*
X057016Y031471D02*
X056823Y031471D01*
X056919Y031471D02*
X056919Y031180D01*
X056722Y031229D02*
X056673Y031180D01*
X056576Y031180D01*
X056528Y031229D01*
X056528Y031471D01*
X056427Y031422D02*
X056379Y031471D01*
X056282Y031471D01*
X056233Y031422D01*
X056233Y031229D01*
X056282Y031180D01*
X056379Y031180D01*
X056427Y031229D01*
X056427Y031422D01*
X056722Y031471D02*
X056722Y031229D01*
X056132Y031132D02*
X055939Y031132D01*
X055789Y031277D02*
X055644Y031277D01*
X055644Y031180D02*
X055644Y031471D01*
X055789Y031471D01*
X055838Y031422D01*
X055838Y031325D01*
X055789Y031277D01*
X055608Y032562D02*
X055670Y032624D01*
X055670Y032747D01*
X055608Y032809D01*
X055670Y032930D02*
X055670Y033177D01*
X055670Y033299D02*
X055670Y033546D01*
X055670Y033667D02*
X055423Y033914D01*
X055361Y033914D01*
X055300Y033852D01*
X055300Y033729D01*
X055361Y033667D01*
X055300Y033422D02*
X055670Y033422D01*
X055670Y033667D02*
X055670Y033914D01*
X055300Y033422D02*
X055423Y033299D01*
X055300Y033054D02*
X055670Y033054D01*
X055423Y032930D02*
X055300Y033054D01*
X055361Y032809D02*
X055300Y032747D01*
X055300Y032624D01*
X055361Y032562D01*
X055608Y032562D01*
X056973Y032624D02*
X057035Y032562D01*
X057281Y032562D01*
X057343Y032624D01*
X057343Y032747D01*
X057281Y032809D01*
X057343Y032930D02*
X057343Y033177D01*
X057343Y033299D02*
X057343Y033546D01*
X057343Y033422D02*
X056973Y033422D01*
X057096Y033299D01*
X056973Y033054D02*
X057343Y033054D01*
X057096Y032930D02*
X056973Y033054D01*
X057035Y032809D02*
X056973Y032747D01*
X056973Y032624D01*
X057035Y033667D02*
X056973Y033729D01*
X056973Y033852D01*
X057035Y033914D01*
X057096Y033914D01*
X057158Y033852D01*
X057220Y033914D01*
X057281Y033914D01*
X057343Y033852D01*
X057343Y033729D01*
X057281Y033667D01*
X057158Y033791D02*
X057158Y033852D01*
X055931Y039365D02*
X055807Y039365D01*
X055746Y039427D01*
X055993Y039674D01*
X055993Y039427D01*
X055931Y039365D01*
X055746Y039427D02*
X055746Y039674D01*
X055807Y039736D01*
X055931Y039736D01*
X055993Y039674D01*
X055624Y039674D02*
X055377Y039427D01*
X055439Y039365D01*
X055563Y039365D01*
X055624Y039427D01*
X055624Y039674D01*
X055563Y039736D01*
X055439Y039736D01*
X055377Y039674D01*
X055377Y039427D01*
X055256Y039365D02*
X055009Y039365D01*
X054888Y039365D02*
X054764Y039489D01*
X054826Y039489D02*
X054641Y039489D01*
X054519Y039489D02*
X054519Y039736D01*
X054641Y039736D02*
X054826Y039736D01*
X054888Y039674D01*
X054888Y039551D01*
X054826Y039489D01*
X055009Y039612D02*
X055133Y039736D01*
X055133Y039365D01*
X054641Y039365D02*
X054641Y039736D01*
X054519Y039489D02*
X054396Y039365D01*
X054272Y039489D01*
X054272Y039736D01*
X034508Y030182D02*
X034387Y030121D01*
X032587Y028377D02*
X032526Y028438D01*
X032405Y028438D01*
X032344Y028377D01*
X032344Y028135D01*
X032587Y028377D01*
X032587Y028135D01*
X032526Y028074D01*
X032405Y028074D01*
X032344Y028135D01*
X032224Y028135D02*
X032164Y028074D01*
X032042Y028074D01*
X031982Y028135D01*
X031862Y028074D02*
X031619Y028074D01*
X031499Y028074D02*
X031378Y028195D01*
X031439Y028195D02*
X031257Y028195D01*
X031257Y028074D02*
X031257Y028438D01*
X031439Y028438D01*
X031499Y028377D01*
X031499Y028256D01*
X031439Y028195D01*
X031619Y028317D02*
X031741Y028438D01*
X031741Y028074D01*
X031982Y028377D02*
X032042Y028438D01*
X032164Y028438D01*
X032224Y028377D01*
X032224Y028317D01*
X032164Y028256D01*
X032224Y028195D01*
X032224Y028135D01*
X032164Y028256D02*
X032103Y028256D01*
X027856Y029558D02*
X027856Y029682D01*
X027794Y029743D01*
X027486Y029743D01*
X027609Y029865D02*
X027486Y029988D01*
X027856Y029988D01*
X027856Y029865D02*
X027856Y030112D01*
X027856Y030233D02*
X027609Y030480D01*
X027547Y030480D01*
X027486Y030418D01*
X027486Y030295D01*
X027547Y030233D01*
X027856Y030233D02*
X027856Y030480D01*
X027856Y030601D02*
X027856Y030848D01*
X027856Y030725D02*
X027486Y030725D01*
X027609Y030601D01*
X027856Y029558D02*
X027794Y029496D01*
X027486Y029496D01*
X028116Y025848D02*
X028116Y025601D01*
X028116Y025725D02*
X027745Y025725D01*
X027869Y025601D01*
X027869Y025480D02*
X027931Y025418D01*
X027992Y025480D01*
X028054Y025480D01*
X028116Y025418D01*
X028116Y025295D01*
X028054Y025233D01*
X028116Y025112D02*
X028116Y024865D01*
X028116Y024988D02*
X027745Y024988D01*
X027869Y024865D01*
X027745Y024743D02*
X028054Y024743D01*
X028116Y024682D01*
X028116Y024558D01*
X028054Y024496D01*
X027745Y024496D01*
X027807Y025233D02*
X027745Y025295D01*
X027745Y025418D01*
X027807Y025480D01*
X027869Y025480D01*
X027931Y025418D02*
X027931Y025357D01*
X020099Y028037D02*
X019852Y028037D01*
X020099Y028284D01*
X020099Y028345D01*
X020037Y028407D01*
X019914Y028407D01*
X019852Y028345D01*
X018654Y029030D02*
X018407Y029030D01*
X018286Y029030D02*
X018039Y029030D01*
X018286Y029277D01*
X018286Y029339D01*
X018224Y029400D01*
X018100Y029400D01*
X018039Y029339D01*
X017794Y029400D02*
X017794Y029030D01*
X017917Y029030D02*
X017670Y029030D01*
X017487Y029092D02*
X017487Y029400D01*
X017425Y029400D02*
X017549Y029400D01*
X017670Y029277D02*
X017794Y029400D01*
X017487Y029092D02*
X017425Y029030D01*
X017364Y029030D01*
X017302Y029092D01*
X017125Y028407D02*
X017125Y028037D01*
X017002Y028037D02*
X017249Y028037D01*
X017002Y028284D02*
X017125Y028407D01*
X018530Y029030D02*
X018530Y029400D01*
X018407Y029277D01*
X017249Y031580D02*
X017002Y031580D01*
X017125Y031580D02*
X017125Y031950D01*
X017002Y031827D01*
X019852Y031889D02*
X019914Y031950D01*
X020037Y031950D01*
X020099Y031889D01*
X020099Y031827D01*
X019852Y031580D01*
X020099Y031580D01*
X024608Y033272D02*
X024669Y033210D01*
X024793Y033210D01*
X024854Y033272D01*
X024854Y033333D01*
X024793Y033395D01*
X024731Y033395D01*
X024793Y033395D02*
X024854Y033457D01*
X024854Y033518D01*
X024793Y033580D01*
X024669Y033580D01*
X024608Y033518D01*
X024608Y034210D02*
X024854Y034457D01*
X024854Y034518D01*
X024793Y034580D01*
X024669Y034580D01*
X024608Y034518D01*
X024608Y034210D02*
X024854Y034210D01*
X024854Y035210D02*
X024608Y035210D01*
X024731Y035210D02*
X024731Y035580D01*
X024608Y035457D01*
X025694Y036398D02*
X025941Y036398D01*
X026062Y036522D02*
X026124Y036460D01*
X026248Y036460D01*
X026309Y036522D01*
X026431Y036522D02*
X026492Y036460D01*
X026616Y036460D01*
X026678Y036522D01*
X026678Y036768D01*
X026616Y036830D01*
X026492Y036830D01*
X026431Y036768D01*
X026431Y036522D01*
X026309Y036768D02*
X026248Y036830D01*
X026124Y036830D01*
X026062Y036768D01*
X026062Y036522D01*
X025573Y036460D02*
X025449Y036583D01*
X025511Y036583D02*
X025326Y036583D01*
X025204Y036583D02*
X025204Y036830D01*
X025326Y036830D02*
X025326Y036460D01*
X025204Y036583D02*
X025081Y036460D01*
X024958Y036583D01*
X024958Y036830D01*
X025326Y036830D02*
X025511Y036830D01*
X025573Y036768D01*
X025573Y036645D01*
X025511Y036583D01*
X024794Y037276D02*
X024794Y037647D01*
X024609Y037462D01*
X024856Y037462D01*
X024487Y037276D02*
X024241Y037276D01*
X024364Y037276D02*
X024364Y037647D01*
X024241Y037523D01*
X022827Y037451D02*
X022827Y037698D01*
X022765Y037759D01*
X022580Y037759D01*
X022580Y037389D01*
X022765Y037389D01*
X022827Y037451D01*
X022459Y037389D02*
X022459Y037759D01*
X022212Y037759D02*
X022459Y037389D01*
X022212Y037389D02*
X022212Y037759D01*
X022090Y037698D02*
X022029Y037759D01*
X021905Y037759D01*
X021843Y037698D01*
X021843Y037451D01*
X021905Y037389D01*
X022029Y037389D01*
X022090Y037451D01*
X022090Y037574D01*
X021967Y037574D01*
X024241Y038776D02*
X024487Y038776D01*
X024364Y038776D02*
X024364Y039147D01*
X024241Y039023D01*
X024609Y039085D02*
X024671Y039147D01*
X024794Y039147D01*
X024856Y039085D01*
X024856Y039023D01*
X024794Y038962D01*
X024856Y038900D01*
X024856Y038838D01*
X024794Y038776D01*
X024671Y038776D01*
X024609Y038838D01*
X024732Y038962D02*
X024794Y038962D01*
X026799Y036830D02*
X027046Y036460D01*
X027046Y036830D01*
X027167Y036830D02*
X027414Y036830D01*
X027291Y036830D02*
X027291Y036460D01*
X026799Y036460D02*
X026799Y036830D01*
X012242Y039267D02*
X012180Y039205D01*
X012057Y039205D01*
X011995Y039267D01*
X012242Y039514D01*
X012242Y039267D01*
X012242Y039514D02*
X012180Y039575D01*
X012057Y039575D01*
X011995Y039514D01*
X011995Y039267D01*
X011874Y039267D02*
X011812Y039205D01*
X011689Y039205D01*
X011627Y039267D01*
X011874Y039514D01*
X011874Y039267D01*
X011874Y039514D02*
X011812Y039575D01*
X011689Y039575D01*
X011627Y039514D01*
X011627Y039267D01*
X011505Y039267D02*
X011444Y039205D01*
X011320Y039205D01*
X011258Y039267D01*
X011382Y039390D02*
X011444Y039390D01*
X011505Y039329D01*
X011505Y039267D01*
X011444Y039390D02*
X011505Y039452D01*
X011505Y039514D01*
X011444Y039575D01*
X011320Y039575D01*
X011258Y039514D01*
X011137Y039575D02*
X011014Y039575D01*
X011075Y039575D02*
X011075Y039267D01*
X011014Y039205D01*
X010952Y039205D01*
X010890Y039267D01*
X005511Y039271D02*
X005264Y039271D01*
X005388Y039271D02*
X005388Y039641D01*
X005264Y039517D01*
X005143Y039579D02*
X004896Y039332D01*
X004958Y039271D01*
X005081Y039271D01*
X005143Y039332D01*
X005143Y039579D01*
X005081Y039641D01*
X004958Y039641D01*
X004896Y039579D01*
X004896Y039332D01*
X004775Y039332D02*
X004713Y039271D01*
X004590Y039271D01*
X004528Y039332D01*
X004651Y039456D02*
X004713Y039456D01*
X004775Y039394D01*
X004775Y039332D01*
X004713Y039456D02*
X004775Y039517D01*
X004775Y039579D01*
X004713Y039641D01*
X004590Y039641D01*
X004528Y039579D01*
X004406Y039641D02*
X004283Y039641D01*
X004345Y039641D02*
X004345Y039332D01*
X004283Y039271D01*
X004221Y039271D01*
X004159Y039332D01*
X017425Y025857D02*
X017549Y025857D01*
X017487Y025857D02*
X017487Y025548D01*
X017425Y025487D01*
X017364Y025487D01*
X017302Y025548D01*
X017670Y025487D02*
X017917Y025487D01*
X017794Y025487D02*
X017794Y025857D01*
X017670Y025734D01*
X018039Y025795D02*
X018100Y025857D01*
X018224Y025857D01*
X018286Y025795D01*
X018286Y025734D01*
X018224Y025672D01*
X018286Y025610D01*
X018286Y025548D01*
X018224Y025487D01*
X018100Y025487D01*
X018039Y025548D01*
X018162Y025672D02*
X018224Y025672D01*
X018407Y025734D02*
X018530Y025857D01*
X018530Y025487D01*
X018407Y025487D02*
X018654Y025487D01*
X018689Y025267D02*
X018812Y025267D01*
X018874Y025205D01*
X018874Y025144D01*
X018812Y025082D01*
X018874Y025020D01*
X018874Y024959D01*
X018812Y024897D01*
X018689Y024897D01*
X018627Y024959D01*
X018506Y024897D02*
X018382Y025020D01*
X018444Y025020D02*
X018259Y025020D01*
X018137Y025020D02*
X018137Y025267D01*
X018259Y025267D02*
X018444Y025267D01*
X018506Y025205D01*
X018506Y025082D01*
X018444Y025020D01*
X018259Y024897D02*
X018259Y025267D01*
X018137Y025020D02*
X018014Y024897D01*
X017891Y025020D01*
X017891Y025267D01*
X018627Y025205D02*
X018689Y025267D01*
X018751Y025082D02*
X018812Y025082D01*
X018996Y024959D02*
X019242Y025205D01*
X019242Y024959D01*
X019181Y024897D01*
X019057Y024897D01*
X018996Y024959D01*
X018996Y025205D01*
X019057Y025267D01*
X019181Y025267D01*
X019242Y025205D01*
X019364Y025205D02*
X019426Y025267D01*
X019549Y025267D01*
X019611Y025205D01*
X019364Y024959D01*
X019426Y024897D01*
X019549Y024897D01*
X019611Y024959D01*
X019611Y025205D01*
X019364Y025205D02*
X019364Y024959D01*
X017664Y024017D02*
X017664Y023647D01*
X017541Y023647D02*
X017787Y023647D01*
X017541Y023894D02*
X017664Y024017D01*
X017602Y023017D02*
X017541Y022955D01*
X017602Y023017D02*
X017726Y023017D01*
X017787Y022955D01*
X017787Y022894D01*
X017541Y022647D01*
X017787Y022647D01*
X017726Y022017D02*
X017602Y022017D01*
X017541Y021955D01*
X017664Y021832D02*
X017726Y021832D01*
X017787Y021770D01*
X017787Y021709D01*
X017726Y021647D01*
X017602Y021647D01*
X017541Y021709D01*
X017726Y021832D02*
X017787Y021894D01*
X017787Y021955D01*
X017726Y022017D01*
X017910Y020318D02*
X017910Y020072D01*
X018034Y019948D01*
X018157Y020072D01*
X018157Y020318D01*
X018279Y020318D02*
X018464Y020318D01*
X018525Y020257D01*
X018525Y020133D01*
X018464Y020072D01*
X018279Y020072D01*
X018402Y020072D02*
X018525Y019948D01*
X018647Y020010D02*
X018709Y019948D01*
X018832Y019948D01*
X018894Y020010D01*
X018894Y020072D01*
X018832Y020133D01*
X018770Y020133D01*
X018832Y020133D02*
X018894Y020195D01*
X018894Y020257D01*
X018832Y020318D01*
X018709Y020318D01*
X018647Y020257D01*
X019015Y020257D02*
X019077Y020318D01*
X019200Y020318D01*
X019262Y020257D01*
X019015Y020010D01*
X019077Y019948D01*
X019200Y019948D01*
X019262Y020010D01*
X019262Y020257D01*
X019384Y020195D02*
X019507Y020318D01*
X019507Y019948D01*
X019384Y019948D02*
X019630Y019948D01*
X019015Y020010D02*
X019015Y020257D01*
X018279Y020318D02*
X018279Y019948D01*
X017684Y019068D02*
X017684Y018698D01*
X017807Y018698D02*
X017560Y018698D01*
X017560Y018945D02*
X017684Y019068D01*
X017745Y018068D02*
X017622Y018068D01*
X017560Y018007D01*
X017745Y018068D02*
X017807Y018007D01*
X017807Y017945D01*
X017560Y017698D01*
X017807Y017698D01*
X017745Y017068D02*
X017622Y017068D01*
X017560Y017007D01*
X017684Y016883D02*
X017745Y016883D01*
X017807Y016822D01*
X017807Y016760D01*
X017745Y016698D01*
X017622Y016698D01*
X017560Y016760D01*
X017745Y016883D02*
X017807Y016945D01*
X017807Y017007D01*
X017745Y017068D01*
X011037Y020095D02*
X011037Y020218D01*
X010975Y020280D01*
X010666Y020280D01*
X010728Y020401D02*
X010666Y020463D01*
X010666Y020587D01*
X010728Y020648D01*
X010790Y020648D01*
X010851Y020587D01*
X010913Y020648D01*
X010975Y020648D01*
X011037Y020587D01*
X011037Y020463D01*
X010975Y020401D01*
X010851Y020525D02*
X010851Y020587D01*
X010728Y020770D02*
X010975Y020770D01*
X010728Y021017D01*
X010975Y021017D01*
X011037Y020955D01*
X011037Y020831D01*
X010975Y020770D01*
X010728Y020770D02*
X010666Y020831D01*
X010666Y020955D01*
X010728Y021017D01*
X010728Y021138D02*
X010666Y021200D01*
X010666Y021323D01*
X010728Y021385D01*
X010975Y021138D01*
X011037Y021200D01*
X011037Y021323D01*
X010975Y021385D01*
X010728Y021385D01*
X010728Y021138D02*
X010975Y021138D01*
X011037Y020095D02*
X010975Y020033D01*
X010666Y020033D01*
X004037Y020095D02*
X004037Y020218D01*
X003975Y020280D01*
X003666Y020280D01*
X003728Y020401D02*
X003666Y020463D01*
X003666Y020587D01*
X003728Y020648D01*
X003790Y020648D01*
X003851Y020587D01*
X003913Y020648D01*
X003975Y020648D01*
X004037Y020587D01*
X004037Y020463D01*
X003975Y020401D01*
X003851Y020525D02*
X003851Y020587D01*
X003728Y020770D02*
X003975Y020770D01*
X003728Y021017D01*
X003975Y021017D01*
X004037Y020955D01*
X004037Y020831D01*
X003975Y020770D01*
X003728Y020770D02*
X003666Y020831D01*
X003666Y020955D01*
X003728Y021017D01*
X003790Y021138D02*
X003666Y021261D01*
X004037Y021261D01*
X004037Y021138D02*
X004037Y021385D01*
X004037Y020095D02*
X003975Y020033D01*
X003666Y020033D01*
X001230Y020542D02*
X001230Y020735D01*
X001230Y020638D02*
X000940Y020638D01*
X001037Y020542D01*
X001037Y018648D02*
X001085Y018600D01*
X001133Y018648D01*
X001182Y018648D01*
X001230Y018600D01*
X001230Y018503D01*
X001182Y018455D01*
X001085Y018552D02*
X001085Y018600D01*
X001037Y018648D02*
X000988Y018648D01*
X000940Y018600D01*
X000940Y018503D01*
X000988Y018455D01*
X001232Y017737D02*
X001232Y017543D01*
X001232Y017640D02*
X000942Y017640D01*
X001038Y017543D01*
X001038Y015650D02*
X001087Y015602D01*
X001135Y015650D01*
X001183Y015650D01*
X001232Y015602D01*
X001232Y015505D01*
X001183Y015457D01*
X001087Y015553D02*
X001087Y015602D01*
X001038Y015650D02*
X000990Y015650D01*
X000942Y015602D01*
X000942Y015505D01*
X000990Y015457D01*
X000519Y014455D02*
X000519Y014208D01*
X000519Y014086D02*
X000828Y014086D01*
X000890Y014025D01*
X000890Y013901D01*
X000828Y013839D01*
X000519Y013839D01*
X000581Y013718D02*
X000519Y013656D01*
X000519Y013533D01*
X000581Y013471D01*
X000828Y013471D01*
X000890Y013533D01*
X000890Y013656D01*
X000828Y013718D01*
X000581Y013718D01*
X000519Y013350D02*
X000766Y013350D01*
X000890Y013226D01*
X000766Y013103D01*
X000519Y013103D01*
X000951Y012981D02*
X000951Y012734D01*
X000828Y012613D02*
X000890Y012551D01*
X000890Y012428D01*
X000828Y012366D01*
X000581Y012613D01*
X000828Y012613D01*
X000828Y012366D02*
X000581Y012366D01*
X000519Y012428D01*
X000519Y012551D01*
X000581Y012613D01*
X000519Y012245D02*
X000519Y011998D01*
X000705Y011998D01*
X000643Y012121D01*
X000643Y012183D01*
X000705Y012245D01*
X000828Y012245D01*
X000890Y012183D01*
X000890Y012060D01*
X000828Y011998D01*
X000828Y011876D02*
X000766Y011876D01*
X000705Y011815D01*
X000705Y011630D01*
X000828Y011630D01*
X000890Y011691D01*
X000890Y011815D01*
X000828Y011876D01*
X000581Y011753D02*
X000705Y011630D01*
X000581Y011753D02*
X000519Y011876D01*
X000519Y011508D02*
X000519Y011385D01*
X000519Y011446D02*
X000828Y011446D01*
X000890Y011385D01*
X000890Y011323D01*
X000828Y011261D01*
X003069Y009843D02*
X003255Y009658D01*
X003255Y009905D01*
X003440Y009843D02*
X003069Y009843D01*
X003440Y009046D02*
X003440Y008799D01*
X003440Y008922D02*
X003069Y008922D01*
X003193Y008799D01*
X000890Y008622D02*
X000766Y008746D01*
X000519Y008746D01*
X000519Y008499D02*
X000766Y008499D01*
X000890Y008622D01*
X000890Y008378D02*
X000890Y008131D01*
X000643Y008378D01*
X000581Y008378D01*
X000519Y008316D01*
X000519Y008192D01*
X000581Y008131D01*
X000519Y007886D02*
X000890Y007886D01*
X000890Y008009D02*
X000890Y007762D01*
X000951Y007641D02*
X000951Y007394D01*
X000828Y007273D02*
X000890Y007211D01*
X000890Y007088D01*
X000828Y007026D01*
X000581Y007273D01*
X000828Y007273D01*
X000581Y007273D02*
X000519Y007211D01*
X000519Y007088D01*
X000581Y007026D01*
X000828Y007026D01*
X000828Y006904D02*
X000890Y006843D01*
X000890Y006719D01*
X000828Y006657D01*
X000581Y006904D01*
X000828Y006904D01*
X000828Y006657D02*
X000581Y006657D01*
X000519Y006719D01*
X000519Y006843D01*
X000581Y006904D01*
X000519Y006536D02*
X000581Y006413D01*
X000705Y006289D01*
X000705Y006474D01*
X000766Y006536D01*
X000828Y006536D01*
X000890Y006474D01*
X000890Y006351D01*
X000828Y006289D01*
X000705Y006289D01*
X000828Y006106D02*
X000519Y006106D01*
X000519Y006044D02*
X000519Y006168D01*
X000828Y006106D02*
X000890Y006044D01*
X000890Y005983D01*
X000828Y005921D01*
X003069Y004134D02*
X003255Y003949D01*
X003255Y004196D01*
X003440Y004134D02*
X003069Y004134D01*
X000643Y007762D02*
X000519Y007886D01*
X004254Y010660D02*
X004448Y010660D01*
X004549Y010563D02*
X004597Y010515D01*
X004694Y010515D01*
X004743Y010563D01*
X004743Y010612D01*
X004694Y010660D01*
X004646Y010660D01*
X004694Y010660D02*
X004743Y010708D01*
X004743Y010757D01*
X004694Y010805D01*
X004597Y010805D01*
X004549Y010757D01*
X004844Y010805D02*
X004844Y010612D01*
X004940Y010515D01*
X005037Y010612D01*
X005037Y010805D01*
X005754Y010660D02*
X005948Y010660D01*
X006049Y010660D02*
X006146Y010708D01*
X006194Y010708D01*
X006243Y010660D01*
X006243Y010563D01*
X006194Y010515D01*
X006097Y010515D01*
X006049Y010563D01*
X006049Y010660D02*
X006049Y010805D01*
X006243Y010805D01*
X006344Y010805D02*
X006344Y010612D01*
X006440Y010515D01*
X006537Y010612D01*
X006537Y010805D01*
X003440Y014508D02*
X003440Y014755D01*
X003440Y014631D02*
X003069Y014631D01*
X003193Y014508D01*
X004564Y014985D02*
X004564Y015288D01*
X004806Y015288D02*
X004806Y014985D01*
X004746Y014924D01*
X004624Y014924D01*
X004564Y014985D01*
X004926Y014985D02*
X004987Y014924D01*
X005108Y014924D01*
X005169Y014985D01*
X005169Y015106D01*
X005108Y015167D01*
X005048Y015167D01*
X004926Y015106D01*
X004926Y015288D01*
X005169Y015288D01*
X005289Y015228D02*
X005350Y015288D01*
X005471Y015288D01*
X005532Y015228D01*
X005532Y015167D01*
X005289Y014924D01*
X005532Y014924D01*
X005651Y014985D02*
X005894Y015228D01*
X005894Y014985D01*
X005833Y014924D01*
X005712Y014924D01*
X005651Y014985D01*
X005651Y015228D01*
X005712Y015288D01*
X005833Y015288D01*
X005894Y015228D01*
X007402Y015277D02*
X007402Y014973D01*
X007463Y014913D01*
X007584Y014913D01*
X007645Y014973D01*
X007645Y015277D01*
X007765Y015216D02*
X007826Y015277D01*
X007947Y015277D01*
X008008Y015216D01*
X008008Y015155D01*
X007947Y015095D01*
X008008Y015034D01*
X008008Y014973D01*
X007947Y014913D01*
X007826Y014913D01*
X007765Y014973D01*
X007886Y015095D02*
X007947Y015095D01*
X008127Y015216D02*
X008127Y014973D01*
X008370Y015216D01*
X008370Y014973D01*
X008309Y014913D01*
X008188Y014913D01*
X008127Y014973D01*
X008127Y015216D02*
X008188Y015277D01*
X008309Y015277D01*
X008370Y015216D01*
X008490Y015216D02*
X008551Y015277D01*
X008672Y015277D01*
X008733Y015216D01*
X008733Y015155D01*
X008490Y014913D01*
X008733Y014913D01*
X000890Y014331D02*
X000519Y014331D01*
X032319Y015813D02*
X032380Y015875D01*
X032380Y015999D01*
X032319Y016060D01*
X049348Y016788D02*
X049595Y016788D01*
X049472Y016788D02*
X049472Y017158D01*
X049348Y017035D01*
X050348Y017096D02*
X050410Y017158D01*
X050533Y017158D01*
X050595Y017096D01*
X050595Y017035D01*
X050348Y016788D01*
X050595Y016788D01*
X051398Y016850D02*
X051460Y016788D01*
X051583Y016788D01*
X051645Y016850D01*
X051645Y016911D01*
X051583Y016973D01*
X051522Y016973D01*
X051583Y016973D02*
X051645Y017035D01*
X051645Y017096D01*
X051583Y017158D01*
X051460Y017158D01*
X051398Y017096D01*
X052772Y017417D02*
X052772Y017781D01*
X052954Y017781D01*
X053015Y017720D01*
X053015Y017599D01*
X052954Y017538D01*
X052772Y017538D01*
X052894Y017538D02*
X053015Y017417D01*
X053135Y017417D02*
X053378Y017417D01*
X053256Y017417D02*
X053256Y017781D01*
X053135Y017659D01*
X053498Y017720D02*
X053498Y017477D01*
X053740Y017720D01*
X053740Y017477D01*
X053680Y017417D01*
X053558Y017417D01*
X053498Y017477D01*
X053498Y017720D02*
X053558Y017781D01*
X053680Y017781D01*
X053740Y017720D01*
X053860Y017781D02*
X054103Y017781D01*
X054103Y017720D01*
X053860Y017477D01*
X053860Y017417D01*
X054772Y017417D02*
X054772Y017781D01*
X054954Y017781D01*
X055015Y017720D01*
X055015Y017599D01*
X054954Y017538D01*
X054772Y017538D01*
X054894Y017538D02*
X055015Y017417D01*
X055135Y017417D02*
X055378Y017417D01*
X055256Y017417D02*
X055256Y017781D01*
X055135Y017659D01*
X055498Y017720D02*
X055558Y017781D01*
X055680Y017781D01*
X055740Y017720D01*
X055498Y017477D01*
X055558Y017417D01*
X055680Y017417D01*
X055740Y017477D01*
X055740Y017720D01*
X055860Y017720D02*
X055860Y017659D01*
X055921Y017599D01*
X056042Y017599D01*
X056103Y017538D01*
X056103Y017477D01*
X056042Y017417D01*
X055921Y017417D01*
X055860Y017477D01*
X055860Y017538D01*
X055921Y017599D01*
X056042Y017599D02*
X056103Y017659D01*
X056103Y017720D01*
X056042Y017781D01*
X055921Y017781D01*
X055860Y017720D01*
X055498Y017720D02*
X055498Y017477D01*
X056741Y017417D02*
X056741Y017781D01*
X056923Y017781D01*
X056984Y017720D01*
X056984Y017599D01*
X056923Y017538D01*
X056741Y017538D01*
X056862Y017538D02*
X056984Y017417D01*
X057103Y017417D02*
X057346Y017417D01*
X057225Y017417D02*
X057225Y017781D01*
X057103Y017659D01*
X057466Y017720D02*
X057527Y017781D01*
X057648Y017781D01*
X057709Y017720D01*
X057466Y017477D01*
X057527Y017417D01*
X057648Y017417D01*
X057709Y017477D01*
X057709Y017720D01*
X057829Y017720D02*
X057829Y017659D01*
X057889Y017599D01*
X058071Y017599D01*
X058071Y017720D02*
X058071Y017477D01*
X058011Y017417D01*
X057889Y017417D01*
X057829Y017477D01*
X057829Y017720D02*
X057889Y017781D01*
X058011Y017781D01*
X058071Y017720D01*
X057466Y017720D02*
X057466Y017477D01*
X057211Y019031D02*
X057115Y019031D01*
X057066Y019079D01*
X057260Y019273D01*
X057260Y019079D01*
X057211Y019031D01*
X057066Y019079D02*
X057066Y019273D01*
X057115Y019321D01*
X057211Y019321D01*
X057260Y019273D01*
X056965Y019321D02*
X056772Y019321D01*
X056868Y019321D02*
X056868Y019031D01*
X056670Y019079D02*
X056670Y019321D01*
X056477Y019321D02*
X056477Y019079D01*
X056525Y019031D01*
X056622Y019031D01*
X056670Y019079D01*
X056376Y019079D02*
X056376Y019273D01*
X056327Y019321D01*
X056231Y019321D01*
X056182Y019273D01*
X056182Y019079D01*
X056231Y019031D01*
X056327Y019031D01*
X056376Y019079D01*
X056081Y018982D02*
X055888Y018982D01*
X055738Y019127D02*
X055593Y019127D01*
X055593Y019031D02*
X055593Y019321D01*
X055738Y019321D01*
X055786Y019273D01*
X055786Y019176D01*
X055738Y019127D01*
X055608Y020357D02*
X055670Y020419D01*
X055670Y020543D01*
X055608Y020604D01*
X055670Y020726D02*
X055670Y020973D01*
X055670Y020849D02*
X055300Y020849D01*
X055423Y020726D01*
X055361Y020604D02*
X055300Y020543D01*
X055300Y020419D01*
X055361Y020357D01*
X055608Y020357D01*
X055608Y021094D02*
X055361Y021341D01*
X055608Y021341D01*
X055670Y021279D01*
X055670Y021156D01*
X055608Y021094D01*
X055361Y021094D01*
X055300Y021156D01*
X055300Y021279D01*
X055361Y021341D01*
X055361Y021462D02*
X055300Y021524D01*
X055300Y021648D01*
X055361Y021709D01*
X055423Y021709D01*
X055670Y021462D01*
X055670Y021709D01*
X056973Y021648D02*
X056973Y021524D01*
X057035Y021462D01*
X057035Y021341D02*
X057281Y021094D01*
X057343Y021156D01*
X057343Y021279D01*
X057281Y021341D01*
X057035Y021341D01*
X056973Y021279D01*
X056973Y021156D01*
X057035Y021094D01*
X057281Y021094D01*
X057343Y020973D02*
X057343Y020726D01*
X057343Y020849D02*
X056973Y020849D01*
X057096Y020726D01*
X057035Y020604D02*
X056973Y020543D01*
X056973Y020419D01*
X057035Y020357D01*
X057281Y020357D01*
X057343Y020419D01*
X057343Y020543D01*
X057281Y020604D01*
X057281Y021462D02*
X057343Y021524D01*
X057343Y021648D01*
X057281Y021709D01*
X057220Y021709D01*
X057158Y021648D01*
X057158Y021586D01*
X057158Y021648D02*
X057096Y021709D01*
X057035Y021709D01*
X056973Y021648D01*
X053740Y018594D02*
X053680Y018655D01*
X053558Y018655D01*
X053498Y018594D01*
X053378Y018594D02*
X053135Y018351D01*
X053196Y018291D01*
X053317Y018291D01*
X053378Y018351D01*
X053378Y018594D01*
X053317Y018655D01*
X053196Y018655D01*
X053135Y018594D01*
X053135Y018351D01*
X053015Y018291D02*
X052773Y018291D01*
X052894Y018291D02*
X052894Y018655D01*
X052773Y018533D01*
X052653Y018655D02*
X052653Y018351D01*
X052592Y018291D01*
X052471Y018291D01*
X052410Y018351D01*
X052410Y018655D01*
X053498Y018291D02*
X053740Y018533D01*
X053740Y018594D01*
X053740Y018291D02*
X053498Y018291D01*
X050749Y019632D02*
X050749Y019755D01*
X050687Y019817D01*
X050749Y019938D02*
X050749Y020185D01*
X050749Y020062D02*
X050378Y020062D01*
X050502Y019938D01*
X050440Y019817D02*
X050378Y019755D01*
X050378Y019632D01*
X050440Y019570D01*
X050687Y019570D01*
X050749Y019632D01*
X050687Y020307D02*
X050440Y020307D01*
X050378Y020368D01*
X050378Y020492D01*
X050440Y020554D01*
X050687Y020307D01*
X050749Y020368D01*
X050749Y020492D01*
X050687Y020554D01*
X050440Y020554D01*
X050502Y020675D02*
X050378Y020798D01*
X050749Y020798D01*
X050749Y020675D02*
X050749Y020922D01*
X049371Y020860D02*
X049371Y020737D01*
X049309Y020675D01*
X049062Y020922D01*
X049309Y020922D01*
X049371Y020860D01*
X049309Y020675D02*
X049062Y020675D01*
X049000Y020737D01*
X049000Y020860D01*
X049062Y020922D01*
X049062Y020554D02*
X049309Y020307D01*
X049371Y020368D01*
X049371Y020492D01*
X049309Y020554D01*
X049062Y020554D01*
X049000Y020492D01*
X049000Y020368D01*
X049062Y020307D01*
X049309Y020307D01*
X049371Y020185D02*
X049371Y019938D01*
X049371Y020062D02*
X049000Y020062D01*
X049124Y019938D01*
X049062Y019817D02*
X049000Y019755D01*
X049000Y019632D01*
X049062Y019570D01*
X049309Y019570D01*
X049371Y019632D01*
X049371Y019755D01*
X049309Y019817D01*
X049761Y022169D02*
X049761Y022533D01*
X049943Y022533D01*
X050003Y022472D01*
X050003Y022351D01*
X049943Y022290D01*
X049761Y022290D01*
X049882Y022290D02*
X050003Y022169D01*
X050123Y022108D02*
X050366Y022108D01*
X050486Y022169D02*
X050486Y022533D01*
X050668Y022533D01*
X050728Y022472D01*
X050728Y022351D01*
X050668Y022290D01*
X050486Y022290D01*
X050848Y022229D02*
X051091Y022472D01*
X051091Y022533D01*
X050848Y022533D01*
X050848Y022229D02*
X050848Y022169D01*
X051091Y022169D01*
X051211Y022229D02*
X051271Y022169D01*
X051393Y022169D01*
X051453Y022229D01*
X051573Y022229D02*
X051816Y022472D01*
X051816Y022229D01*
X051755Y022169D01*
X051634Y022169D01*
X051573Y022229D01*
X051573Y022472D01*
X051634Y022533D01*
X051755Y022533D01*
X051816Y022472D01*
X051453Y022472D02*
X051393Y022533D01*
X051271Y022533D01*
X051211Y022472D01*
X051211Y022229D01*
X049700Y024154D02*
X049761Y024216D01*
X049761Y024339D01*
X049700Y024401D01*
X049391Y024401D01*
X049515Y024522D02*
X049391Y024646D01*
X049761Y024646D01*
X049761Y024769D02*
X049761Y024522D01*
X049761Y024891D02*
X049761Y025137D01*
X049761Y025259D02*
X049761Y025506D01*
X049761Y025382D02*
X049391Y025382D01*
X049515Y025259D01*
X049391Y025014D02*
X049761Y025014D01*
X049515Y024891D02*
X049391Y025014D01*
X049391Y024154D02*
X049700Y024154D01*
X052772Y015781D02*
X052954Y015781D01*
X053015Y015720D01*
X053015Y015599D01*
X052954Y015538D01*
X052772Y015538D01*
X052772Y015417D02*
X052772Y015781D01*
X052894Y015538D02*
X053015Y015417D01*
X053135Y015417D02*
X053378Y015417D01*
X053256Y015417D02*
X053256Y015781D01*
X053135Y015659D01*
X053498Y015720D02*
X053498Y015477D01*
X053740Y015720D01*
X053740Y015477D01*
X053680Y015417D01*
X053558Y015417D01*
X053498Y015477D01*
X053498Y015720D02*
X053558Y015781D01*
X053680Y015781D01*
X053740Y015720D01*
X053860Y015720D02*
X053860Y015477D01*
X054103Y015720D01*
X054103Y015477D01*
X054042Y015417D01*
X053921Y015417D01*
X053860Y015477D01*
X053860Y015720D02*
X053921Y015781D01*
X054042Y015781D01*
X054103Y015720D01*
X054772Y015781D02*
X054772Y015417D01*
X054772Y015538D02*
X054954Y015538D01*
X055015Y015599D01*
X055015Y015720D01*
X054954Y015781D01*
X054772Y015781D01*
X054894Y015538D02*
X055015Y015417D01*
X055135Y015417D02*
X055378Y015417D01*
X055256Y015417D02*
X055256Y015781D01*
X055135Y015659D01*
X055498Y015720D02*
X055558Y015781D01*
X055680Y015781D01*
X055740Y015720D01*
X055498Y015477D01*
X055558Y015417D01*
X055680Y015417D01*
X055740Y015477D01*
X055740Y015720D01*
X055860Y015659D02*
X055981Y015781D01*
X055981Y015417D01*
X055860Y015417D02*
X056103Y015417D01*
X055498Y015477D02*
X055498Y015720D01*
X056772Y015781D02*
X056772Y015417D01*
X056772Y015538D02*
X056954Y015538D01*
X057015Y015599D01*
X057015Y015720D01*
X056954Y015781D01*
X056772Y015781D01*
X056894Y015538D02*
X057015Y015417D01*
X057135Y015417D02*
X057378Y015417D01*
X057256Y015417D02*
X057256Y015781D01*
X057135Y015659D01*
X057498Y015720D02*
X057558Y015781D01*
X057680Y015781D01*
X057740Y015720D01*
X057498Y015477D01*
X057558Y015417D01*
X057680Y015417D01*
X057740Y015477D01*
X057740Y015720D01*
X057860Y015720D02*
X057921Y015781D01*
X058042Y015781D01*
X058103Y015720D01*
X058103Y015659D01*
X057860Y015417D01*
X058103Y015417D01*
X057498Y015477D02*
X057498Y015720D01*
X057503Y014388D02*
X057503Y014098D01*
X057455Y014098D02*
X057551Y014098D01*
X057651Y014098D02*
X057651Y014388D01*
X057844Y014098D01*
X057844Y014388D01*
X057946Y014340D02*
X057994Y014388D01*
X058091Y014388D01*
X058139Y014340D01*
X057946Y014146D01*
X057994Y014098D01*
X058091Y014098D01*
X058139Y014146D01*
X058139Y014340D01*
X058240Y014243D02*
X058434Y014243D01*
X058337Y014340D02*
X058337Y014146D01*
X057946Y014146D02*
X057946Y014340D01*
X057551Y014388D02*
X057455Y014388D01*
X057353Y014291D02*
X057353Y014098D01*
X057353Y014243D02*
X057160Y014243D01*
X057160Y014291D02*
X057257Y014388D01*
X057353Y014291D01*
X057160Y014291D02*
X057160Y014098D01*
X056103Y014099D02*
X056103Y013977D01*
X056042Y013917D01*
X055921Y013917D01*
X055860Y013977D01*
X055740Y013977D02*
X055680Y013917D01*
X055558Y013917D01*
X055498Y013977D01*
X055740Y014220D01*
X055740Y013977D01*
X055860Y014099D02*
X055981Y014159D01*
X056042Y014159D01*
X056103Y014099D01*
X056103Y014281D02*
X055860Y014281D01*
X055860Y014099D01*
X055740Y014220D02*
X055680Y014281D01*
X055558Y014281D01*
X055498Y014220D01*
X055498Y013977D01*
X055378Y013917D02*
X055135Y013917D01*
X055015Y013917D02*
X054894Y014038D01*
X054954Y014038D02*
X054772Y014038D01*
X054772Y013917D02*
X054772Y014281D01*
X054954Y014281D01*
X055015Y014220D01*
X055015Y014099D01*
X054954Y014038D01*
X055135Y014159D02*
X055256Y014281D01*
X055256Y013917D01*
X054103Y013977D02*
X054042Y013917D01*
X053921Y013917D01*
X053860Y013977D01*
X053740Y013977D02*
X053740Y014220D01*
X053498Y013977D01*
X053558Y013917D01*
X053680Y013917D01*
X053740Y013977D01*
X053498Y013977D02*
X053498Y014220D01*
X053558Y014281D01*
X053680Y014281D01*
X053740Y014220D01*
X053860Y014220D02*
X053921Y014281D01*
X054042Y014281D01*
X054103Y014220D01*
X054103Y014159D01*
X054042Y014099D01*
X054103Y014038D01*
X054103Y013977D01*
X054042Y014099D02*
X053981Y014099D01*
X053378Y013917D02*
X053135Y013917D01*
X053015Y013917D02*
X052894Y014038D01*
X052954Y014038D02*
X052772Y014038D01*
X052772Y013917D02*
X052772Y014281D01*
X052954Y014281D01*
X053015Y014220D01*
X053015Y014099D01*
X052954Y014038D01*
X053135Y014159D02*
X053256Y014281D01*
X053256Y013917D01*
X053256Y012781D02*
X053135Y012659D01*
X053015Y012599D02*
X052954Y012538D01*
X052772Y012538D01*
X052772Y012417D02*
X052772Y012781D01*
X052954Y012781D01*
X053015Y012720D01*
X053015Y012599D01*
X052894Y012538D02*
X053015Y012417D01*
X053135Y012417D02*
X053378Y012417D01*
X053256Y012417D02*
X053256Y012781D01*
X053498Y012720D02*
X053558Y012781D01*
X053680Y012781D01*
X053740Y012720D01*
X053498Y012477D01*
X053558Y012417D01*
X053680Y012417D01*
X053740Y012477D01*
X053740Y012720D01*
X053860Y012599D02*
X054103Y012599D01*
X054042Y012781D02*
X053860Y012599D01*
X054042Y012417D02*
X054042Y012781D01*
X053498Y012720D02*
X053498Y012477D01*
X054772Y012417D02*
X054772Y012781D01*
X054954Y012781D01*
X055015Y012720D01*
X055015Y012599D01*
X054954Y012538D01*
X054772Y012538D01*
X054894Y012538D02*
X055015Y012417D01*
X055135Y012417D02*
X055378Y012417D01*
X055256Y012417D02*
X055256Y012781D01*
X055135Y012659D01*
X055498Y012720D02*
X055558Y012781D01*
X055680Y012781D01*
X055740Y012720D01*
X055498Y012477D01*
X055558Y012417D01*
X055680Y012417D01*
X055740Y012477D01*
X055740Y012720D01*
X055860Y012599D02*
X056042Y012599D01*
X056103Y012538D01*
X056103Y012477D01*
X056042Y012417D01*
X055921Y012417D01*
X055860Y012477D01*
X055860Y012599D01*
X055981Y012720D01*
X056103Y012781D01*
X055498Y012720D02*
X055498Y012477D01*
X057160Y012448D02*
X057160Y012642D01*
X057257Y012738D01*
X057353Y012642D01*
X057353Y012448D01*
X057455Y012448D02*
X057551Y012448D01*
X057503Y012448D02*
X057503Y012738D01*
X057455Y012738D02*
X057551Y012738D01*
X057651Y012738D02*
X057844Y012448D01*
X057844Y012738D01*
X057946Y012690D02*
X057994Y012738D01*
X058091Y012738D01*
X058139Y012690D01*
X057946Y012496D01*
X057994Y012448D01*
X058091Y012448D01*
X058139Y012496D01*
X058139Y012690D01*
X058240Y012593D02*
X058434Y012593D01*
X057946Y012496D02*
X057946Y012690D01*
X057651Y012738D02*
X057651Y012448D01*
X057353Y012593D02*
X057160Y012593D01*
X051645Y014881D02*
X051583Y014819D01*
X051460Y014819D01*
X051398Y014881D01*
X051522Y015004D02*
X051583Y015004D01*
X051645Y014943D01*
X051645Y014881D01*
X051583Y015004D02*
X051645Y015066D01*
X051645Y015128D01*
X051583Y015190D01*
X051460Y015190D01*
X051398Y015128D01*
X050595Y015128D02*
X050533Y015190D01*
X050410Y015190D01*
X050348Y015128D01*
X050595Y015128D02*
X050595Y015066D01*
X050348Y014819D01*
X050595Y014819D01*
X049595Y014819D02*
X049348Y014819D01*
X049472Y014819D02*
X049472Y015190D01*
X049348Y015066D01*
X049761Y013301D02*
X049761Y013054D01*
X049761Y013178D02*
X049391Y013178D01*
X049515Y013054D01*
X049453Y012933D02*
X049700Y012686D01*
X049761Y012748D01*
X049761Y012871D01*
X049700Y012933D01*
X049453Y012933D01*
X049391Y012871D01*
X049391Y012748D01*
X049453Y012686D01*
X049700Y012686D01*
X049761Y012564D02*
X049761Y012318D01*
X049761Y012441D02*
X049391Y012441D01*
X049515Y012318D01*
X049391Y012196D02*
X049700Y012196D01*
X049761Y012134D01*
X049761Y012011D01*
X049700Y011949D01*
X049391Y011949D01*
X052637Y008308D02*
X052513Y008184D01*
X052637Y008308D02*
X052637Y007937D01*
X052760Y007937D02*
X052513Y007937D01*
X053513Y007937D02*
X053760Y008184D01*
X053760Y008246D01*
X053699Y008308D01*
X053575Y008308D01*
X053513Y008246D01*
X053513Y007937D02*
X053760Y007937D01*
X054563Y007999D02*
X054625Y007937D01*
X054749Y007937D01*
X054810Y007999D01*
X054810Y008061D01*
X054749Y008123D01*
X054687Y008123D01*
X054749Y008123D02*
X054810Y008184D01*
X054810Y008246D01*
X054749Y008308D01*
X054625Y008308D01*
X054563Y008246D01*
D13*
X054948Y008372D02*
X052448Y008372D01*
X052431Y008374D01*
X052414Y008378D01*
X052398Y008385D01*
X052384Y008395D01*
X052371Y008408D01*
X052361Y008422D01*
X052354Y008438D01*
X052350Y008455D01*
X052348Y008472D01*
X052348Y009472D01*
X052350Y009489D01*
X052354Y009506D01*
X052361Y009522D01*
X052371Y009536D01*
X052384Y009549D01*
X052398Y009559D01*
X052414Y009566D01*
X052431Y009570D01*
X052448Y009572D01*
X054948Y009572D01*
X054965Y009570D01*
X054982Y009566D01*
X054998Y009559D01*
X055012Y009549D01*
X055025Y009536D01*
X055035Y009522D01*
X055042Y009506D01*
X055046Y009489D01*
X055048Y009472D01*
X055048Y008472D01*
X055046Y008455D01*
X055042Y008438D01*
X055035Y008422D01*
X055025Y008408D01*
X055012Y008395D01*
X054998Y008385D01*
X054982Y008378D01*
X054965Y008374D01*
X054948Y008372D01*
X051783Y015254D02*
X049283Y015254D01*
X049266Y015256D01*
X049249Y015260D01*
X049233Y015267D01*
X049219Y015277D01*
X049206Y015290D01*
X049196Y015304D01*
X049189Y015320D01*
X049185Y015337D01*
X049183Y015354D01*
X049183Y016354D01*
X049185Y016371D01*
X049189Y016388D01*
X049196Y016404D01*
X049206Y016418D01*
X049219Y016431D01*
X049233Y016441D01*
X049249Y016448D01*
X049266Y016452D01*
X049283Y016454D01*
X051783Y016454D01*
X051800Y016452D01*
X051817Y016448D01*
X051833Y016441D01*
X051847Y016431D01*
X051860Y016418D01*
X051870Y016404D01*
X051877Y016388D01*
X051881Y016371D01*
X051883Y016354D01*
X051883Y015354D01*
X051881Y015337D01*
X051877Y015320D01*
X051870Y015304D01*
X051860Y015290D01*
X051847Y015277D01*
X051833Y015267D01*
X051817Y015260D01*
X051800Y015256D01*
X051783Y015254D01*
X051783Y017223D02*
X049283Y017223D01*
X049266Y017225D01*
X049249Y017229D01*
X049233Y017236D01*
X049219Y017246D01*
X049206Y017259D01*
X049196Y017273D01*
X049189Y017289D01*
X049185Y017306D01*
X049183Y017323D01*
X049183Y018323D01*
X049185Y018340D01*
X049189Y018357D01*
X049196Y018373D01*
X049206Y018387D01*
X049219Y018400D01*
X049233Y018410D01*
X049249Y018417D01*
X049266Y018421D01*
X049283Y018423D01*
X051783Y018423D01*
X051800Y018421D01*
X051817Y018417D01*
X051833Y018410D01*
X051847Y018400D01*
X051860Y018387D01*
X051870Y018373D01*
X051877Y018357D01*
X051881Y018340D01*
X051883Y018323D01*
X051883Y017323D01*
X051881Y017306D01*
X051877Y017289D01*
X051870Y017273D01*
X051860Y017259D01*
X051847Y017246D01*
X051833Y017236D01*
X051817Y017229D01*
X051800Y017225D01*
X051783Y017223D01*
X060982Y024026D02*
X061232Y023776D01*
X061732Y023776D01*
X061982Y024026D01*
X061982Y024526D01*
X061732Y024776D01*
X061982Y025026D01*
X061982Y025526D01*
X061732Y025776D01*
X061232Y025776D01*
X060982Y025526D01*
X060982Y025026D01*
X061232Y024776D01*
X061732Y024776D01*
X061232Y024776D02*
X060982Y024526D01*
X060982Y024026D01*
X061232Y025776D02*
X060982Y026026D01*
X060982Y026526D01*
X061232Y026776D01*
X060982Y027026D01*
X060982Y027526D01*
X061232Y027776D01*
X060982Y028026D01*
X060982Y028526D01*
X061232Y028776D01*
X061732Y028776D01*
X061982Y028526D01*
X061982Y028026D01*
X061732Y027776D01*
X061982Y027526D01*
X061982Y027026D01*
X061732Y026776D01*
X061982Y026526D01*
X061982Y026026D01*
X061732Y025776D01*
X061732Y026776D02*
X061232Y026776D01*
X061232Y027776D02*
X061732Y027776D01*
X051883Y027559D02*
X051883Y028559D01*
X051881Y028576D01*
X051877Y028593D01*
X051870Y028609D01*
X051860Y028623D01*
X051847Y028636D01*
X051833Y028646D01*
X051817Y028653D01*
X051800Y028657D01*
X051783Y028659D01*
X049283Y028659D01*
X049266Y028657D01*
X049249Y028653D01*
X049233Y028646D01*
X049219Y028636D01*
X049206Y028623D01*
X049196Y028609D01*
X049189Y028593D01*
X049185Y028576D01*
X049183Y028559D01*
X049183Y027559D01*
X049185Y027542D01*
X049189Y027525D01*
X049196Y027509D01*
X049206Y027495D01*
X049219Y027482D01*
X049233Y027472D01*
X049249Y027465D01*
X049266Y027461D01*
X049283Y027459D01*
X051783Y027459D01*
X051800Y027461D01*
X051817Y027465D01*
X051833Y027472D01*
X051847Y027482D01*
X051860Y027495D01*
X051870Y027509D01*
X051877Y027525D01*
X051881Y027542D01*
X051883Y027559D01*
X051783Y029428D02*
X049283Y029428D01*
X049266Y029430D01*
X049249Y029434D01*
X049233Y029441D01*
X049219Y029451D01*
X049206Y029464D01*
X049196Y029478D01*
X049189Y029494D01*
X049185Y029511D01*
X049183Y029528D01*
X049183Y030528D01*
X049185Y030545D01*
X049189Y030562D01*
X049196Y030578D01*
X049206Y030592D01*
X049219Y030605D01*
X049233Y030615D01*
X049249Y030622D01*
X049266Y030626D01*
X049283Y030628D01*
X051783Y030628D01*
X051800Y030626D01*
X051817Y030622D01*
X051833Y030615D01*
X051847Y030605D01*
X051860Y030592D01*
X051870Y030578D01*
X051877Y030562D01*
X051881Y030545D01*
X051883Y030528D01*
X051883Y029528D01*
X051881Y029511D01*
X051877Y029494D01*
X051870Y029478D01*
X051860Y029464D01*
X051847Y029451D01*
X051833Y029441D01*
X051817Y029434D01*
X051800Y029430D01*
X051783Y029428D01*
X039561Y028049D02*
X039561Y027549D01*
X039311Y027299D01*
X037811Y027299D01*
X037561Y027549D01*
X037561Y028049D01*
X037811Y028299D01*
X039311Y028299D01*
X039561Y028049D01*
X039311Y027299D02*
X039561Y027049D01*
X039561Y026549D01*
X039311Y026299D01*
X037811Y026299D01*
X037561Y026549D01*
X037561Y027049D01*
X037811Y027299D01*
X037811Y026299D02*
X037561Y026049D01*
X037561Y025549D01*
X037811Y025299D01*
X039311Y025299D01*
X039561Y025049D01*
X039561Y024549D01*
X039311Y024299D01*
X037811Y024299D01*
X037561Y024549D01*
X037561Y025049D01*
X037811Y025299D01*
X037811Y024299D02*
X037561Y024049D01*
X037561Y023549D01*
X037811Y023299D01*
X039311Y023299D01*
X039561Y023049D01*
X039561Y022549D01*
X039311Y022299D01*
X037811Y022299D01*
X037561Y022549D01*
X037561Y023049D01*
X037811Y023299D01*
X037811Y022299D02*
X037561Y022049D01*
X037561Y021549D01*
X037811Y021299D01*
X039311Y021299D01*
X039561Y021049D01*
X039561Y020549D01*
X039311Y020299D01*
X037811Y020299D01*
X037561Y020549D01*
X037561Y021049D01*
X037811Y021299D01*
X037811Y020299D02*
X037561Y020049D01*
X037561Y019549D01*
X037811Y019299D01*
X039311Y019299D01*
X039561Y019049D01*
X039561Y018549D01*
X039311Y018299D01*
X037811Y018299D01*
X037561Y018549D01*
X037561Y019049D01*
X037811Y019299D01*
X037811Y018299D02*
X037561Y018049D01*
X037561Y017549D01*
X037811Y017299D01*
X039311Y017299D01*
X039561Y017049D01*
X039561Y016549D01*
X039311Y016299D01*
X037811Y016299D01*
X037561Y016549D01*
X037561Y017049D01*
X037811Y017299D01*
X037811Y016299D02*
X037561Y016049D01*
X037561Y015549D01*
X037811Y015299D01*
X039311Y015299D01*
X039561Y015049D01*
X039561Y014549D01*
X039311Y014299D01*
X037811Y014299D01*
X037561Y014549D01*
X037561Y015049D01*
X037811Y015299D01*
X037811Y014299D02*
X037561Y014049D01*
X037561Y013549D01*
X037811Y013299D01*
X039311Y013299D01*
X039561Y013549D01*
X039561Y014049D01*
X039311Y014299D01*
X039311Y013299D02*
X039561Y013049D01*
X039561Y012549D01*
X039311Y012299D01*
X037811Y012299D01*
X037561Y012549D01*
X037561Y013049D01*
X037811Y013299D01*
X037811Y012299D02*
X037561Y012049D01*
X037561Y011549D01*
X037811Y011299D01*
X039311Y011299D01*
X039561Y011549D01*
X039561Y012049D01*
X039311Y012299D01*
X039311Y011299D02*
X039561Y011049D01*
X039561Y010549D01*
X039311Y010299D01*
X037811Y010299D01*
X037561Y010549D01*
X037561Y011049D01*
X037811Y011299D01*
X037811Y010299D02*
X037561Y010049D01*
X037561Y009549D01*
X037811Y009299D01*
X039311Y009299D01*
X039561Y009549D01*
X039561Y010049D01*
X039311Y010299D01*
X039311Y009299D02*
X039561Y009049D01*
X039561Y008549D01*
X039311Y008299D01*
X037811Y008299D01*
X037561Y008549D01*
X037561Y009049D01*
X037811Y009299D01*
X031868Y009250D02*
X031870Y009276D01*
X031876Y009302D01*
X031885Y009327D01*
X031898Y009350D01*
X031914Y009371D01*
X031933Y009389D01*
X031955Y009405D01*
X031978Y009417D01*
X032003Y009425D01*
X032029Y009430D01*
X032056Y009431D01*
X032082Y009428D01*
X032107Y009421D01*
X032132Y009411D01*
X032154Y009397D01*
X032175Y009380D01*
X032192Y009361D01*
X032207Y009339D01*
X032218Y009315D01*
X032226Y009289D01*
X032230Y009263D01*
X032230Y009237D01*
X032226Y009211D01*
X032218Y009185D01*
X032207Y009161D01*
X032192Y009139D01*
X032175Y009120D01*
X032154Y009103D01*
X032132Y009089D01*
X032107Y009079D01*
X032082Y009072D01*
X032056Y009069D01*
X032029Y009070D01*
X032003Y009075D01*
X031978Y009083D01*
X031955Y009095D01*
X031933Y009111D01*
X031914Y009129D01*
X031898Y009150D01*
X031885Y009173D01*
X031876Y009198D01*
X031870Y009224D01*
X031868Y009250D01*
X023651Y009049D02*
X023651Y008549D01*
X023401Y008299D01*
X021901Y008299D01*
X021651Y008549D01*
X021651Y009049D01*
X021901Y009299D01*
X023401Y009299D01*
X023651Y009549D01*
X023651Y010049D01*
X023401Y010299D01*
X021901Y010299D01*
X021651Y010549D01*
X021651Y011049D01*
X021901Y011299D01*
X023401Y011299D01*
X023651Y011549D01*
X023651Y012049D01*
X023401Y012299D01*
X021901Y012299D01*
X021651Y012549D01*
X021651Y013049D01*
X021901Y013299D01*
X023401Y013299D01*
X023651Y013549D01*
X023651Y014049D01*
X023401Y014299D01*
X021901Y014299D01*
X021651Y014549D01*
X021651Y015049D01*
X021901Y015299D01*
X023401Y015299D01*
X023651Y015049D01*
X023651Y014549D01*
X023401Y014299D01*
X023401Y013299D02*
X023651Y013049D01*
X023651Y012549D01*
X023401Y012299D01*
X023401Y011299D02*
X023651Y011049D01*
X023651Y010549D01*
X023401Y010299D01*
X023401Y009299D02*
X023651Y009049D01*
X021901Y009299D02*
X021651Y009549D01*
X021651Y010049D01*
X021901Y010299D01*
X021901Y011299D02*
X021651Y011549D01*
X021651Y012049D01*
X021901Y012299D01*
X021901Y013299D02*
X021651Y013549D01*
X021651Y014049D01*
X021901Y014299D01*
X021901Y015299D02*
X021651Y015549D01*
X021651Y016049D01*
X021901Y016299D01*
X023401Y016299D01*
X023651Y016049D01*
X023651Y015549D01*
X023401Y015299D01*
X023401Y016299D02*
X023651Y016549D01*
X023651Y017049D01*
X023401Y017299D01*
X021901Y017299D01*
X021651Y017549D01*
X021651Y018049D01*
X021901Y018299D01*
X023401Y018299D01*
X023901Y018299D01*
X023651Y018049D02*
X023651Y017549D01*
X023401Y017299D01*
X023651Y018049D02*
X023401Y018299D01*
X023651Y018549D01*
X023651Y019049D01*
X023401Y019299D01*
X021901Y019299D01*
X021651Y019549D01*
X021651Y020049D01*
X021901Y020299D01*
X023401Y020299D01*
X023651Y020049D01*
X023651Y019549D01*
X023401Y019299D01*
X023401Y020299D02*
X023651Y020549D01*
X023651Y021049D01*
X023401Y021299D01*
X021901Y021299D01*
X021651Y021549D01*
X021651Y022049D01*
X021901Y022299D01*
X023401Y022299D01*
X023651Y022049D01*
X023651Y021549D01*
X023401Y021299D01*
X023401Y022299D02*
X023651Y022549D01*
X023651Y023049D01*
X023401Y023299D01*
X021901Y023299D01*
X021651Y023549D01*
X021651Y024049D01*
X021901Y024299D01*
X023401Y024299D01*
X023651Y024049D01*
X023651Y023549D01*
X023401Y023299D01*
X023401Y024299D02*
X023651Y024549D01*
X023651Y025049D01*
X023401Y025299D01*
X021901Y025299D01*
X021651Y025549D01*
X021651Y026049D01*
X021901Y026299D01*
X023401Y026299D01*
X023651Y026049D01*
X023651Y025549D01*
X023401Y025299D01*
X023401Y026299D02*
X023651Y026549D01*
X023651Y027049D01*
X023401Y027299D01*
X023651Y027549D01*
X023651Y028049D01*
X023401Y028299D01*
X021901Y028299D01*
X021651Y028049D01*
X021651Y027549D01*
X021901Y027299D01*
X023401Y027299D01*
X021901Y027299D02*
X021651Y027049D01*
X021651Y026549D01*
X021901Y026299D01*
X021901Y025299D02*
X021651Y025049D01*
X021651Y024549D01*
X021901Y024299D01*
X021901Y023299D02*
X021651Y023049D01*
X021651Y022549D01*
X021901Y022299D01*
X021901Y021299D02*
X021651Y021049D01*
X021651Y020549D01*
X021901Y020299D01*
X021901Y019299D02*
X021651Y019049D01*
X021651Y018549D01*
X021901Y018299D01*
X021901Y017299D02*
X021651Y017049D01*
X021651Y016549D01*
X021901Y016299D01*
X006153Y007716D02*
X006155Y007779D01*
X006161Y007841D01*
X006171Y007903D01*
X006184Y007965D01*
X006202Y008025D01*
X006223Y008084D01*
X006248Y008142D01*
X006277Y008198D01*
X006309Y008252D01*
X006344Y008304D01*
X006382Y008353D01*
X006424Y008401D01*
X006468Y008445D01*
X006516Y008487D01*
X006565Y008525D01*
X006617Y008560D01*
X006671Y008592D01*
X006727Y008621D01*
X006785Y008646D01*
X006844Y008667D01*
X006904Y008685D01*
X006966Y008698D01*
X007028Y008708D01*
X007090Y008714D01*
X007153Y008716D01*
X007216Y008714D01*
X007278Y008708D01*
X007340Y008698D01*
X007402Y008685D01*
X007462Y008667D01*
X007521Y008646D01*
X007579Y008621D01*
X007635Y008592D01*
X007689Y008560D01*
X007741Y008525D01*
X007790Y008487D01*
X007838Y008445D01*
X007882Y008401D01*
X007924Y008353D01*
X007962Y008304D01*
X007997Y008252D01*
X008029Y008198D01*
X008058Y008142D01*
X008083Y008084D01*
X008104Y008025D01*
X008122Y007965D01*
X008135Y007903D01*
X008145Y007841D01*
X008151Y007779D01*
X008153Y007716D01*
X008151Y007653D01*
X008145Y007591D01*
X008135Y007529D01*
X008122Y007467D01*
X008104Y007407D01*
X008083Y007348D01*
X008058Y007290D01*
X008029Y007234D01*
X007997Y007180D01*
X007962Y007128D01*
X007924Y007079D01*
X007882Y007031D01*
X007838Y006987D01*
X007790Y006945D01*
X007741Y006907D01*
X007689Y006872D01*
X007635Y006840D01*
X007579Y006811D01*
X007521Y006786D01*
X007462Y006765D01*
X007402Y006747D01*
X007340Y006734D01*
X007278Y006724D01*
X007216Y006718D01*
X007153Y006716D01*
X007090Y006718D01*
X007028Y006724D01*
X006966Y006734D01*
X006904Y006747D01*
X006844Y006765D01*
X006785Y006786D01*
X006727Y006811D01*
X006671Y006840D01*
X006617Y006872D01*
X006565Y006907D01*
X006516Y006945D01*
X006468Y006987D01*
X006424Y007031D01*
X006382Y007079D01*
X006344Y007128D01*
X006309Y007180D01*
X006277Y007234D01*
X006248Y007290D01*
X006223Y007348D01*
X006202Y007407D01*
X006184Y007467D01*
X006171Y007529D01*
X006161Y007591D01*
X006155Y007653D01*
X006153Y007716D01*
X006653Y007266D02*
X006653Y007166D01*
X006553Y007166D01*
X006653Y007166D02*
X006753Y007166D01*
X006653Y007166D02*
X006653Y007066D01*
X003789Y007656D02*
X003791Y007719D01*
X003797Y007781D01*
X003807Y007843D01*
X003820Y007905D01*
X003838Y007965D01*
X003859Y008024D01*
X003884Y008082D01*
X003913Y008138D01*
X003945Y008192D01*
X003980Y008244D01*
X004018Y008293D01*
X004060Y008341D01*
X004104Y008385D01*
X004152Y008427D01*
X004201Y008465D01*
X004253Y008500D01*
X004307Y008532D01*
X004363Y008561D01*
X004421Y008586D01*
X004480Y008607D01*
X004540Y008625D01*
X004602Y008638D01*
X004664Y008648D01*
X004726Y008654D01*
X004789Y008656D01*
X004852Y008654D01*
X004914Y008648D01*
X004976Y008638D01*
X005038Y008625D01*
X005098Y008607D01*
X005157Y008586D01*
X005215Y008561D01*
X005271Y008532D01*
X005325Y008500D01*
X005377Y008465D01*
X005426Y008427D01*
X005474Y008385D01*
X005518Y008341D01*
X005560Y008293D01*
X005598Y008244D01*
X005633Y008192D01*
X005665Y008138D01*
X005694Y008082D01*
X005719Y008024D01*
X005740Y007965D01*
X005758Y007905D01*
X005771Y007843D01*
X005781Y007781D01*
X005787Y007719D01*
X005789Y007656D01*
X005787Y007593D01*
X005781Y007531D01*
X005771Y007469D01*
X005758Y007407D01*
X005740Y007347D01*
X005719Y007288D01*
X005694Y007230D01*
X005665Y007174D01*
X005633Y007120D01*
X005598Y007068D01*
X005560Y007019D01*
X005518Y006971D01*
X005474Y006927D01*
X005426Y006885D01*
X005377Y006847D01*
X005325Y006812D01*
X005271Y006780D01*
X005215Y006751D01*
X005157Y006726D01*
X005098Y006705D01*
X005038Y006687D01*
X004976Y006674D01*
X004914Y006664D01*
X004852Y006658D01*
X004789Y006656D01*
X004726Y006658D01*
X004664Y006664D01*
X004602Y006674D01*
X004540Y006687D01*
X004480Y006705D01*
X004421Y006726D01*
X004363Y006751D01*
X004307Y006780D01*
X004253Y006812D01*
X004201Y006847D01*
X004152Y006885D01*
X004104Y006927D01*
X004060Y006971D01*
X004018Y007019D01*
X003980Y007068D01*
X003945Y007120D01*
X003913Y007174D01*
X003884Y007230D01*
X003859Y007288D01*
X003838Y007347D01*
X003820Y007407D01*
X003807Y007469D01*
X003797Y007531D01*
X003791Y007593D01*
X003789Y007656D01*
X004289Y007206D02*
X004289Y007106D01*
X004189Y007106D01*
X004289Y007106D02*
X004389Y007106D01*
X004289Y007106D02*
X004289Y007006D01*
X039311Y015299D02*
X039561Y015549D01*
X039561Y016049D01*
X039311Y016299D01*
X039311Y017299D02*
X039561Y017549D01*
X039561Y018049D01*
X039311Y018299D01*
X039311Y019299D02*
X039561Y019549D01*
X039561Y020049D01*
X039311Y020299D01*
X039311Y021299D02*
X039561Y021549D01*
X039561Y022049D01*
X039311Y022299D01*
X039311Y023299D02*
X039561Y023549D01*
X039561Y024049D01*
X039311Y024299D01*
X039311Y025299D02*
X039561Y025549D01*
X039561Y026049D01*
X039311Y026299D01*
X030954Y033746D02*
X030704Y033496D01*
X030204Y033496D01*
X029954Y033746D01*
X029954Y035246D01*
X029704Y035496D01*
X029204Y035496D01*
X028954Y035246D01*
X028954Y033746D01*
X029204Y033496D01*
X029704Y033496D01*
X029954Y033746D01*
X030954Y033746D02*
X030954Y035246D01*
X030704Y035496D01*
X030204Y035496D01*
X029954Y035246D01*
X029712Y037161D02*
X029212Y037161D01*
X028962Y037411D01*
X028962Y038911D01*
X028712Y039161D01*
X028212Y039161D01*
X027962Y038911D01*
X027962Y037411D01*
X027712Y037161D01*
X027212Y037161D01*
X026962Y037411D01*
X026962Y038911D01*
X026712Y039161D01*
X026212Y039161D01*
X025962Y038911D01*
X025712Y039161D01*
X025212Y039161D01*
X024962Y038911D01*
X024962Y037411D01*
X025212Y037161D01*
X025712Y037161D01*
X025962Y037411D01*
X025962Y038911D01*
X026962Y038911D02*
X027212Y039161D01*
X027712Y039161D01*
X027962Y038911D01*
X028962Y038911D02*
X029212Y039161D01*
X029712Y039161D01*
X029962Y038911D01*
X029962Y037411D01*
X029712Y037161D01*
X029962Y037411D02*
X030212Y037161D01*
X030712Y037161D01*
X030962Y037411D01*
X030962Y038911D01*
X030712Y039161D01*
X030212Y039161D01*
X029962Y038911D01*
X030962Y038911D02*
X031212Y039161D01*
X031712Y039161D01*
X031962Y038911D01*
X031962Y037411D01*
X031712Y037161D01*
X031212Y037161D01*
X030962Y037411D01*
X028962Y037411D02*
X028712Y037161D01*
X028212Y037161D01*
X027962Y037411D01*
X026962Y037411D02*
X026712Y037161D01*
X026212Y037161D01*
X025962Y037411D01*
D14*
X031557Y032744D02*
X032344Y032744D01*
X032344Y032193D02*
X031557Y032193D01*
X031557Y032194D02*
X031526Y032178D01*
X031493Y032165D01*
X031459Y032157D01*
X031424Y032152D01*
X031389Y032151D01*
X031354Y032154D01*
X031320Y032161D01*
X031286Y032171D01*
X031254Y032185D01*
X031224Y032203D01*
X031196Y032224D01*
X031170Y032247D01*
X031147Y032274D01*
X031127Y032302D01*
X031110Y032333D01*
X031097Y032366D01*
X031088Y032399D01*
X031082Y032434D01*
X031080Y032469D01*
X031082Y032504D01*
X031088Y032539D01*
X031097Y032572D01*
X031110Y032605D01*
X031127Y032636D01*
X031147Y032664D01*
X031170Y032691D01*
X031196Y032714D01*
X031224Y032735D01*
X031254Y032753D01*
X031286Y032767D01*
X031320Y032777D01*
X031354Y032784D01*
X031389Y032787D01*
X031424Y032786D01*
X031459Y032781D01*
X031493Y032773D01*
X031526Y032760D01*
X031557Y032744D01*
X033557Y032744D02*
X033526Y032760D01*
X033493Y032773D01*
X033459Y032781D01*
X033424Y032786D01*
X033389Y032787D01*
X033354Y032784D01*
X033320Y032777D01*
X033286Y032767D01*
X033254Y032753D01*
X033224Y032735D01*
X033196Y032714D01*
X033170Y032691D01*
X033147Y032664D01*
X033127Y032636D01*
X033110Y032605D01*
X033097Y032572D01*
X033088Y032539D01*
X033082Y032504D01*
X033080Y032469D01*
X033082Y032434D01*
X033088Y032399D01*
X033097Y032366D01*
X033110Y032333D01*
X033127Y032302D01*
X033147Y032274D01*
X033170Y032247D01*
X033196Y032224D01*
X033224Y032203D01*
X033254Y032185D01*
X033286Y032171D01*
X033320Y032161D01*
X033354Y032154D01*
X033389Y032151D01*
X033424Y032152D01*
X033459Y032157D01*
X033493Y032165D01*
X033526Y032178D01*
X033557Y032194D01*
X033557Y032193D02*
X034344Y032193D01*
X034344Y032744D02*
X033557Y032744D01*
X035454Y032681D02*
X035423Y032697D01*
X035390Y032710D01*
X035356Y032718D01*
X035321Y032723D01*
X035286Y032724D01*
X035251Y032721D01*
X035217Y032714D01*
X035183Y032704D01*
X035151Y032690D01*
X035121Y032672D01*
X035093Y032651D01*
X035067Y032628D01*
X035044Y032601D01*
X035024Y032573D01*
X035007Y032542D01*
X034994Y032509D01*
X034985Y032476D01*
X034979Y032441D01*
X034977Y032406D01*
X034979Y032371D01*
X034985Y032336D01*
X034994Y032303D01*
X035007Y032270D01*
X035024Y032239D01*
X035044Y032211D01*
X035067Y032184D01*
X035093Y032161D01*
X035121Y032140D01*
X035151Y032122D01*
X035183Y032108D01*
X035217Y032098D01*
X035251Y032091D01*
X035286Y032088D01*
X035321Y032089D01*
X035356Y032094D01*
X035390Y032102D01*
X035423Y032115D01*
X035454Y032131D01*
X035454Y032130D02*
X036242Y032130D01*
X036242Y032681D02*
X035454Y032681D01*
X034277Y031260D02*
X033490Y031260D01*
X033490Y031259D02*
X033459Y031275D01*
X033426Y031288D01*
X033392Y031296D01*
X033357Y031301D01*
X033322Y031302D01*
X033287Y031299D01*
X033253Y031292D01*
X033219Y031282D01*
X033187Y031268D01*
X033157Y031250D01*
X033129Y031229D01*
X033103Y031206D01*
X033080Y031179D01*
X033060Y031151D01*
X033043Y031120D01*
X033030Y031087D01*
X033021Y031054D01*
X033015Y031019D01*
X033013Y030984D01*
X033015Y030949D01*
X033021Y030914D01*
X033030Y030881D01*
X033043Y030848D01*
X033060Y030817D01*
X033080Y030789D01*
X033103Y030762D01*
X033129Y030739D01*
X033157Y030718D01*
X033187Y030700D01*
X033219Y030686D01*
X033253Y030676D01*
X033287Y030669D01*
X033322Y030666D01*
X033357Y030667D01*
X033392Y030672D01*
X033426Y030680D01*
X033459Y030693D01*
X033490Y030709D01*
X034277Y030709D01*
X034344Y029685D02*
X033557Y029685D01*
X033557Y029684D02*
X033526Y029700D01*
X033493Y029713D01*
X033459Y029721D01*
X033424Y029726D01*
X033389Y029727D01*
X033354Y029724D01*
X033320Y029717D01*
X033286Y029707D01*
X033254Y029693D01*
X033224Y029675D01*
X033196Y029654D01*
X033170Y029631D01*
X033147Y029604D01*
X033127Y029576D01*
X033110Y029545D01*
X033097Y029512D01*
X033088Y029479D01*
X033082Y029444D01*
X033080Y029409D01*
X033082Y029374D01*
X033088Y029339D01*
X033097Y029306D01*
X033110Y029273D01*
X033127Y029242D01*
X033147Y029214D01*
X033170Y029187D01*
X033196Y029164D01*
X033224Y029143D01*
X033254Y029125D01*
X033286Y029111D01*
X033320Y029101D01*
X033354Y029094D01*
X033389Y029091D01*
X033424Y029092D01*
X033459Y029097D01*
X033493Y029105D01*
X033526Y029118D01*
X033557Y029134D01*
X034344Y029134D01*
X034391Y027941D02*
X033604Y027941D01*
X033604Y027940D02*
X033573Y027956D01*
X033540Y027969D01*
X033506Y027977D01*
X033471Y027982D01*
X033436Y027983D01*
X033401Y027980D01*
X033367Y027973D01*
X033333Y027963D01*
X033301Y027949D01*
X033271Y027931D01*
X033243Y027910D01*
X033217Y027887D01*
X033194Y027860D01*
X033174Y027832D01*
X033157Y027801D01*
X033144Y027768D01*
X033135Y027735D01*
X033129Y027700D01*
X033127Y027665D01*
X033129Y027630D01*
X033135Y027595D01*
X033144Y027562D01*
X033157Y027529D01*
X033174Y027498D01*
X033194Y027470D01*
X033217Y027443D01*
X033243Y027420D01*
X033271Y027399D01*
X033301Y027381D01*
X033333Y027367D01*
X033367Y027357D01*
X033401Y027350D01*
X033436Y027347D01*
X033471Y027348D01*
X033506Y027353D01*
X033540Y027361D01*
X033573Y027374D01*
X033604Y027390D01*
X034391Y027390D01*
X035572Y027390D02*
X035541Y027374D01*
X035508Y027361D01*
X035474Y027353D01*
X035439Y027348D01*
X035404Y027347D01*
X035369Y027350D01*
X035335Y027357D01*
X035301Y027367D01*
X035269Y027381D01*
X035239Y027399D01*
X035211Y027420D01*
X035185Y027443D01*
X035162Y027470D01*
X035142Y027498D01*
X035125Y027529D01*
X035112Y027562D01*
X035103Y027595D01*
X035097Y027630D01*
X035095Y027665D01*
X035097Y027700D01*
X035103Y027735D01*
X035112Y027768D01*
X035125Y027801D01*
X035142Y027832D01*
X035162Y027860D01*
X035185Y027887D01*
X035211Y027910D01*
X035239Y027931D01*
X035269Y027949D01*
X035301Y027963D01*
X035335Y027973D01*
X035369Y027980D01*
X035404Y027983D01*
X035439Y027982D01*
X035474Y027977D01*
X035508Y027969D01*
X035541Y027956D01*
X035572Y027940D01*
X035572Y027941D02*
X036360Y027941D01*
X036360Y027390D02*
X035572Y027390D01*
X034391Y026366D02*
X033604Y026366D01*
X033573Y026382D01*
X033540Y026395D01*
X033506Y026403D01*
X033471Y026408D01*
X033436Y026409D01*
X033401Y026406D01*
X033367Y026399D01*
X033333Y026389D01*
X033301Y026375D01*
X033271Y026357D01*
X033243Y026336D01*
X033217Y026313D01*
X033194Y026286D01*
X033174Y026258D01*
X033157Y026227D01*
X033144Y026194D01*
X033135Y026161D01*
X033129Y026126D01*
X033127Y026091D01*
X033129Y026056D01*
X033135Y026021D01*
X033144Y025988D01*
X033157Y025955D01*
X033174Y025924D01*
X033194Y025896D01*
X033217Y025869D01*
X033243Y025846D01*
X033271Y025825D01*
X033301Y025807D01*
X033333Y025793D01*
X033367Y025783D01*
X033401Y025776D01*
X033436Y025773D01*
X033471Y025774D01*
X033506Y025779D01*
X033540Y025787D01*
X033573Y025800D01*
X033604Y025816D01*
X033604Y025815D02*
X034391Y025815D01*
X034391Y024791D02*
X033604Y024791D01*
X033573Y024807D01*
X033540Y024820D01*
X033506Y024828D01*
X033471Y024833D01*
X033436Y024834D01*
X033401Y024831D01*
X033367Y024824D01*
X033333Y024814D01*
X033301Y024800D01*
X033271Y024782D01*
X033243Y024761D01*
X033217Y024738D01*
X033194Y024711D01*
X033174Y024683D01*
X033157Y024652D01*
X033144Y024619D01*
X033135Y024586D01*
X033129Y024551D01*
X033127Y024516D01*
X033129Y024481D01*
X033135Y024446D01*
X033144Y024413D01*
X033157Y024380D01*
X033174Y024349D01*
X033194Y024321D01*
X033217Y024294D01*
X033243Y024271D01*
X033271Y024250D01*
X033301Y024232D01*
X033333Y024218D01*
X033367Y024208D01*
X033401Y024201D01*
X033436Y024198D01*
X033471Y024199D01*
X033506Y024204D01*
X033540Y024212D01*
X033573Y024225D01*
X033604Y024241D01*
X033604Y024240D02*
X034391Y024240D01*
X032423Y024240D02*
X031635Y024240D01*
X031635Y024241D02*
X031604Y024225D01*
X031571Y024212D01*
X031537Y024204D01*
X031502Y024199D01*
X031467Y024198D01*
X031432Y024201D01*
X031398Y024208D01*
X031364Y024218D01*
X031332Y024232D01*
X031302Y024250D01*
X031274Y024271D01*
X031248Y024294D01*
X031225Y024321D01*
X031205Y024349D01*
X031188Y024380D01*
X031175Y024413D01*
X031166Y024446D01*
X031160Y024481D01*
X031158Y024516D01*
X031160Y024551D01*
X031166Y024586D01*
X031175Y024619D01*
X031188Y024652D01*
X031205Y024683D01*
X031225Y024711D01*
X031248Y024738D01*
X031274Y024761D01*
X031302Y024782D01*
X031332Y024800D01*
X031364Y024814D01*
X031398Y024824D01*
X031432Y024831D01*
X031467Y024834D01*
X031502Y024833D01*
X031537Y024828D01*
X031571Y024820D01*
X031604Y024807D01*
X031635Y024791D01*
X032423Y024791D01*
X032423Y025815D02*
X031635Y025815D01*
X031635Y025816D02*
X031604Y025800D01*
X031571Y025787D01*
X031537Y025779D01*
X031502Y025774D01*
X031467Y025773D01*
X031432Y025776D01*
X031398Y025783D01*
X031364Y025793D01*
X031332Y025807D01*
X031302Y025825D01*
X031274Y025846D01*
X031248Y025869D01*
X031225Y025896D01*
X031205Y025924D01*
X031188Y025955D01*
X031175Y025988D01*
X031166Y026021D01*
X031160Y026056D01*
X031158Y026091D01*
X031160Y026126D01*
X031166Y026161D01*
X031175Y026194D01*
X031188Y026227D01*
X031205Y026258D01*
X031225Y026286D01*
X031248Y026313D01*
X031274Y026336D01*
X031302Y026357D01*
X031332Y026375D01*
X031364Y026389D01*
X031398Y026399D01*
X031432Y026406D01*
X031467Y026409D01*
X031502Y026408D01*
X031537Y026403D01*
X031571Y026395D01*
X031604Y026382D01*
X031635Y026366D01*
X032423Y026366D01*
X032423Y027390D02*
X031635Y027390D01*
X031604Y027374D01*
X031571Y027361D01*
X031537Y027353D01*
X031502Y027348D01*
X031467Y027347D01*
X031432Y027350D01*
X031398Y027357D01*
X031364Y027367D01*
X031332Y027381D01*
X031302Y027399D01*
X031274Y027420D01*
X031248Y027443D01*
X031225Y027470D01*
X031205Y027498D01*
X031188Y027529D01*
X031175Y027562D01*
X031166Y027595D01*
X031160Y027630D01*
X031158Y027665D01*
X031160Y027700D01*
X031166Y027735D01*
X031175Y027768D01*
X031188Y027801D01*
X031205Y027832D01*
X031225Y027860D01*
X031248Y027887D01*
X031274Y027910D01*
X031302Y027931D01*
X031332Y027949D01*
X031364Y027963D01*
X031398Y027973D01*
X031432Y027980D01*
X031467Y027983D01*
X031502Y027982D01*
X031537Y027977D01*
X031571Y027969D01*
X031604Y027956D01*
X031635Y027940D01*
X031635Y027941D02*
X032423Y027941D01*
X032273Y029177D02*
X031486Y029177D01*
X031486Y029178D02*
X031455Y029162D01*
X031422Y029149D01*
X031388Y029141D01*
X031353Y029136D01*
X031318Y029135D01*
X031283Y029138D01*
X031249Y029145D01*
X031215Y029155D01*
X031183Y029169D01*
X031153Y029187D01*
X031125Y029208D01*
X031099Y029231D01*
X031076Y029258D01*
X031056Y029286D01*
X031039Y029317D01*
X031026Y029350D01*
X031017Y029383D01*
X031011Y029418D01*
X031009Y029453D01*
X031011Y029488D01*
X031017Y029523D01*
X031026Y029556D01*
X031039Y029589D01*
X031056Y029620D01*
X031076Y029648D01*
X031099Y029675D01*
X031125Y029698D01*
X031153Y029719D01*
X031183Y029737D01*
X031215Y029751D01*
X031249Y029761D01*
X031283Y029768D01*
X031318Y029771D01*
X031353Y029770D01*
X031388Y029765D01*
X031422Y029757D01*
X031455Y029744D01*
X031486Y029728D01*
X032273Y029728D01*
X032250Y030650D02*
X031462Y030650D01*
X031431Y030634D01*
X031398Y030621D01*
X031364Y030613D01*
X031329Y030608D01*
X031294Y030607D01*
X031259Y030610D01*
X031225Y030617D01*
X031191Y030627D01*
X031159Y030641D01*
X031129Y030659D01*
X031101Y030680D01*
X031075Y030703D01*
X031052Y030730D01*
X031032Y030758D01*
X031015Y030789D01*
X031002Y030822D01*
X030993Y030855D01*
X030987Y030890D01*
X030985Y030925D01*
X030987Y030960D01*
X030993Y030995D01*
X031002Y031028D01*
X031015Y031061D01*
X031032Y031092D01*
X031052Y031120D01*
X031075Y031147D01*
X031101Y031170D01*
X031129Y031191D01*
X031159Y031209D01*
X031191Y031223D01*
X031225Y031233D01*
X031259Y031240D01*
X031294Y031243D01*
X031329Y031242D01*
X031364Y031237D01*
X031398Y031229D01*
X031431Y031216D01*
X031462Y031200D01*
X031462Y031201D02*
X032250Y031201D01*
X050139Y033690D02*
X050109Y033674D01*
X050077Y033662D01*
X050044Y033653D01*
X050010Y033648D01*
X049976Y033647D01*
X049942Y033649D01*
X049908Y033655D01*
X049875Y033665D01*
X049844Y033678D01*
X049814Y033694D01*
X049786Y033713D01*
X049760Y033736D01*
X049736Y033761D01*
X049716Y033788D01*
X049698Y033817D01*
X049684Y033848D01*
X049673Y033881D01*
X049666Y033914D01*
X049662Y033948D01*
X049662Y033982D01*
X049666Y034016D01*
X049673Y034049D01*
X049684Y034082D01*
X049698Y034113D01*
X049716Y034142D01*
X049736Y034169D01*
X049760Y034194D01*
X049786Y034217D01*
X049814Y034236D01*
X049844Y034252D01*
X049875Y034265D01*
X049908Y034275D01*
X049942Y034281D01*
X049976Y034283D01*
X050010Y034282D01*
X050044Y034277D01*
X050077Y034268D01*
X050109Y034256D01*
X050139Y034240D01*
X050927Y034240D01*
X050927Y033689D02*
X050139Y033689D01*
X053171Y029453D02*
X053958Y029453D01*
X053958Y028902D02*
X053171Y028902D01*
X053141Y028886D01*
X053109Y028874D01*
X053076Y028865D01*
X053042Y028860D01*
X053008Y028859D01*
X052974Y028861D01*
X052940Y028867D01*
X052907Y028877D01*
X052876Y028890D01*
X052846Y028906D01*
X052818Y028925D01*
X052792Y028948D01*
X052768Y028973D01*
X052748Y029000D01*
X052730Y029029D01*
X052716Y029060D01*
X052705Y029093D01*
X052698Y029126D01*
X052694Y029160D01*
X052694Y029194D01*
X052698Y029228D01*
X052705Y029261D01*
X052716Y029294D01*
X052730Y029325D01*
X052748Y029354D01*
X052768Y029381D01*
X052792Y029406D01*
X052818Y029429D01*
X052846Y029448D01*
X052876Y029464D01*
X052907Y029477D01*
X052940Y029487D01*
X052974Y029493D01*
X053008Y029495D01*
X053042Y029494D01*
X053076Y029489D01*
X053109Y029480D01*
X053141Y029468D01*
X053171Y029452D01*
X055139Y029448D02*
X055109Y029464D01*
X055077Y029476D01*
X055044Y029485D01*
X055010Y029490D01*
X054976Y029491D01*
X054942Y029489D01*
X054908Y029483D01*
X054875Y029473D01*
X054844Y029460D01*
X054814Y029444D01*
X054786Y029425D01*
X054760Y029402D01*
X054736Y029377D01*
X054716Y029350D01*
X054698Y029321D01*
X054684Y029290D01*
X054673Y029257D01*
X054666Y029224D01*
X054662Y029190D01*
X054662Y029156D01*
X054666Y029122D01*
X054673Y029089D01*
X054684Y029056D01*
X054698Y029025D01*
X054716Y028996D01*
X054736Y028969D01*
X054760Y028944D01*
X054786Y028921D01*
X054814Y028902D01*
X054844Y028886D01*
X054875Y028873D01*
X054908Y028863D01*
X054942Y028857D01*
X054976Y028855D01*
X055010Y028856D01*
X055044Y028861D01*
X055077Y028870D01*
X055109Y028882D01*
X055139Y028898D01*
X055927Y028898D01*
X055927Y029449D02*
X055139Y029449D01*
X057116Y029551D02*
X057086Y029567D01*
X057054Y029579D01*
X057021Y029588D01*
X056987Y029593D01*
X056953Y029594D01*
X056919Y029592D01*
X056885Y029586D01*
X056852Y029576D01*
X056821Y029563D01*
X056791Y029547D01*
X056763Y029528D01*
X056737Y029505D01*
X056713Y029480D01*
X056693Y029453D01*
X056675Y029424D01*
X056661Y029393D01*
X056650Y029360D01*
X056643Y029327D01*
X056639Y029293D01*
X056639Y029259D01*
X056643Y029225D01*
X056650Y029192D01*
X056661Y029159D01*
X056675Y029128D01*
X056693Y029099D01*
X056713Y029072D01*
X056737Y029047D01*
X056763Y029024D01*
X056791Y029005D01*
X056821Y028989D01*
X056852Y028976D01*
X056885Y028966D01*
X056919Y028960D01*
X056953Y028958D01*
X056987Y028959D01*
X057021Y028964D01*
X057054Y028973D01*
X057086Y028985D01*
X057116Y029001D01*
X057116Y029000D02*
X057903Y029000D01*
X057903Y029551D02*
X057116Y029551D01*
X057135Y027472D02*
X057923Y027472D01*
X057923Y026921D02*
X057135Y026921D01*
X057135Y026922D02*
X057105Y026906D01*
X057073Y026894D01*
X057040Y026885D01*
X057006Y026880D01*
X056972Y026879D01*
X056938Y026881D01*
X056904Y026887D01*
X056871Y026897D01*
X056840Y026910D01*
X056810Y026926D01*
X056782Y026945D01*
X056756Y026968D01*
X056732Y026993D01*
X056712Y027020D01*
X056694Y027049D01*
X056680Y027080D01*
X056669Y027113D01*
X056662Y027146D01*
X056658Y027180D01*
X056658Y027214D01*
X056662Y027248D01*
X056669Y027281D01*
X056680Y027314D01*
X056694Y027345D01*
X056712Y027374D01*
X056732Y027401D01*
X056756Y027426D01*
X056782Y027449D01*
X056810Y027468D01*
X056840Y027484D01*
X056871Y027497D01*
X056904Y027507D01*
X056938Y027513D01*
X056972Y027515D01*
X057006Y027514D01*
X057040Y027509D01*
X057073Y027500D01*
X057105Y027488D01*
X057135Y027472D01*
X055899Y027496D02*
X055112Y027496D01*
X055112Y027495D02*
X055082Y027511D01*
X055050Y027523D01*
X055017Y027532D01*
X054983Y027537D01*
X054949Y027538D01*
X054915Y027536D01*
X054881Y027530D01*
X054848Y027520D01*
X054817Y027507D01*
X054787Y027491D01*
X054759Y027472D01*
X054733Y027449D01*
X054709Y027424D01*
X054689Y027397D01*
X054671Y027368D01*
X054657Y027337D01*
X054646Y027304D01*
X054639Y027271D01*
X054635Y027237D01*
X054635Y027203D01*
X054639Y027169D01*
X054646Y027136D01*
X054657Y027103D01*
X054671Y027072D01*
X054689Y027043D01*
X054709Y027016D01*
X054733Y026991D01*
X054759Y026968D01*
X054787Y026949D01*
X054817Y026933D01*
X054848Y026920D01*
X054881Y026910D01*
X054915Y026904D01*
X054949Y026902D01*
X054983Y026903D01*
X055017Y026908D01*
X055050Y026917D01*
X055082Y026929D01*
X055112Y026945D01*
X055899Y026945D01*
X055915Y025953D02*
X055128Y025953D01*
X055127Y025952D02*
X055097Y025968D01*
X055065Y025980D01*
X055032Y025989D01*
X054998Y025994D01*
X054964Y025995D01*
X054930Y025993D01*
X054896Y025987D01*
X054863Y025977D01*
X054832Y025964D01*
X054802Y025948D01*
X054774Y025929D01*
X054748Y025906D01*
X054724Y025881D01*
X054704Y025854D01*
X054686Y025825D01*
X054672Y025794D01*
X054661Y025761D01*
X054654Y025728D01*
X054650Y025694D01*
X054650Y025660D01*
X054654Y025626D01*
X054661Y025593D01*
X054672Y025560D01*
X054686Y025529D01*
X054704Y025500D01*
X054724Y025473D01*
X054748Y025448D01*
X054774Y025425D01*
X054802Y025406D01*
X054832Y025390D01*
X054863Y025377D01*
X054896Y025367D01*
X054930Y025361D01*
X054964Y025359D01*
X054998Y025360D01*
X055032Y025365D01*
X055065Y025374D01*
X055097Y025386D01*
X055127Y025402D01*
X055128Y025402D02*
X055915Y025402D01*
X055915Y024445D02*
X055128Y024445D01*
X055127Y024444D02*
X055097Y024460D01*
X055065Y024472D01*
X055032Y024481D01*
X054998Y024486D01*
X054964Y024487D01*
X054930Y024485D01*
X054896Y024479D01*
X054863Y024469D01*
X054832Y024456D01*
X054802Y024440D01*
X054774Y024421D01*
X054748Y024398D01*
X054724Y024373D01*
X054704Y024346D01*
X054686Y024317D01*
X054672Y024286D01*
X054661Y024253D01*
X054654Y024220D01*
X054650Y024186D01*
X054650Y024152D01*
X054654Y024118D01*
X054661Y024085D01*
X054672Y024052D01*
X054686Y024021D01*
X054704Y023992D01*
X054724Y023965D01*
X054748Y023940D01*
X054774Y023917D01*
X054802Y023898D01*
X054832Y023882D01*
X054863Y023869D01*
X054896Y023859D01*
X054930Y023853D01*
X054964Y023851D01*
X054998Y023852D01*
X055032Y023857D01*
X055065Y023866D01*
X055097Y023878D01*
X055127Y023894D01*
X055128Y023894D02*
X055915Y023894D01*
X053946Y023969D02*
X053159Y023969D01*
X053129Y023953D01*
X053097Y023941D01*
X053064Y023932D01*
X053030Y023927D01*
X052996Y023926D01*
X052962Y023928D01*
X052928Y023934D01*
X052895Y023944D01*
X052864Y023957D01*
X052834Y023973D01*
X052806Y023992D01*
X052780Y024015D01*
X052756Y024040D01*
X052736Y024067D01*
X052718Y024096D01*
X052704Y024127D01*
X052693Y024160D01*
X052686Y024193D01*
X052682Y024227D01*
X052682Y024261D01*
X052686Y024295D01*
X052693Y024328D01*
X052704Y024361D01*
X052718Y024392D01*
X052736Y024421D01*
X052756Y024448D01*
X052780Y024473D01*
X052806Y024496D01*
X052834Y024515D01*
X052864Y024531D01*
X052895Y024544D01*
X052928Y024554D01*
X052962Y024560D01*
X052996Y024562D01*
X053030Y024561D01*
X053064Y024556D01*
X053097Y024547D01*
X053129Y024535D01*
X053159Y024519D01*
X053159Y024520D02*
X053946Y024520D01*
X053978Y025421D02*
X053191Y025421D01*
X053190Y025422D02*
X053160Y025406D01*
X053128Y025394D01*
X053095Y025385D01*
X053061Y025380D01*
X053027Y025379D01*
X052993Y025381D01*
X052959Y025387D01*
X052926Y025397D01*
X052895Y025410D01*
X052865Y025426D01*
X052837Y025445D01*
X052811Y025468D01*
X052787Y025493D01*
X052767Y025520D01*
X052749Y025549D01*
X052735Y025580D01*
X052724Y025613D01*
X052717Y025646D01*
X052713Y025680D01*
X052713Y025714D01*
X052717Y025748D01*
X052724Y025781D01*
X052735Y025814D01*
X052749Y025845D01*
X052767Y025874D01*
X052787Y025901D01*
X052811Y025926D01*
X052837Y025949D01*
X052865Y025968D01*
X052895Y025984D01*
X052926Y025997D01*
X052959Y026007D01*
X052993Y026013D01*
X053027Y026015D01*
X053061Y026014D01*
X053095Y026009D01*
X053128Y026000D01*
X053160Y025988D01*
X053190Y025972D01*
X053191Y025972D02*
X053978Y025972D01*
X053899Y026945D02*
X053112Y026945D01*
X053082Y026929D01*
X053050Y026917D01*
X053017Y026908D01*
X052983Y026903D01*
X052949Y026902D01*
X052915Y026904D01*
X052881Y026910D01*
X052848Y026920D01*
X052817Y026933D01*
X052787Y026949D01*
X052759Y026968D01*
X052733Y026991D01*
X052709Y027016D01*
X052689Y027043D01*
X052671Y027072D01*
X052657Y027103D01*
X052646Y027136D01*
X052639Y027169D01*
X052635Y027203D01*
X052635Y027237D01*
X052639Y027271D01*
X052646Y027304D01*
X052657Y027337D01*
X052671Y027368D01*
X052689Y027397D01*
X052709Y027424D01*
X052733Y027449D01*
X052759Y027472D01*
X052787Y027491D01*
X052817Y027507D01*
X052848Y027520D01*
X052881Y027530D01*
X052915Y027536D01*
X052949Y027538D01*
X052983Y027537D01*
X053017Y027532D01*
X053050Y027523D01*
X053082Y027511D01*
X053112Y027495D01*
X053112Y027496D02*
X053899Y027496D01*
X050927Y022035D02*
X050139Y022035D01*
X050109Y022051D01*
X050077Y022063D01*
X050044Y022072D01*
X050010Y022077D01*
X049976Y022078D01*
X049942Y022076D01*
X049908Y022070D01*
X049875Y022060D01*
X049844Y022047D01*
X049814Y022031D01*
X049786Y022012D01*
X049760Y021989D01*
X049736Y021964D01*
X049716Y021937D01*
X049698Y021908D01*
X049684Y021877D01*
X049673Y021844D01*
X049666Y021811D01*
X049662Y021777D01*
X049662Y021743D01*
X049666Y021709D01*
X049673Y021676D01*
X049684Y021643D01*
X049698Y021612D01*
X049716Y021583D01*
X049736Y021556D01*
X049760Y021531D01*
X049786Y021508D01*
X049814Y021489D01*
X049844Y021473D01*
X049875Y021460D01*
X049908Y021450D01*
X049942Y021444D01*
X049976Y021442D01*
X050010Y021443D01*
X050044Y021448D01*
X050077Y021457D01*
X050109Y021469D01*
X050139Y021485D01*
X050139Y021484D02*
X050927Y021484D01*
X053151Y017283D02*
X053939Y017283D01*
X055151Y017283D02*
X055121Y017299D01*
X055089Y017311D01*
X055056Y017320D01*
X055022Y017325D01*
X054988Y017326D01*
X054954Y017324D01*
X054920Y017318D01*
X054887Y017308D01*
X054856Y017295D01*
X054826Y017279D01*
X054798Y017260D01*
X054772Y017237D01*
X054748Y017212D01*
X054728Y017185D01*
X054710Y017156D01*
X054696Y017125D01*
X054685Y017092D01*
X054678Y017059D01*
X054674Y017025D01*
X054674Y016991D01*
X054678Y016957D01*
X054685Y016924D01*
X054696Y016891D01*
X054710Y016860D01*
X054728Y016831D01*
X054748Y016804D01*
X054772Y016779D01*
X054798Y016756D01*
X054826Y016737D01*
X054856Y016721D01*
X054887Y016708D01*
X054920Y016698D01*
X054954Y016692D01*
X054988Y016690D01*
X055022Y016691D01*
X055056Y016696D01*
X055089Y016705D01*
X055121Y016717D01*
X055151Y016733D01*
X055151Y016732D02*
X055939Y016732D01*
X055939Y017283D02*
X055151Y017283D01*
X053939Y016732D02*
X053151Y016732D01*
X053151Y016733D02*
X053121Y016717D01*
X053089Y016705D01*
X053056Y016696D01*
X053022Y016691D01*
X052988Y016690D01*
X052954Y016692D01*
X052920Y016698D01*
X052887Y016708D01*
X052856Y016721D01*
X052826Y016737D01*
X052798Y016756D01*
X052772Y016779D01*
X052748Y016804D01*
X052728Y016831D01*
X052710Y016860D01*
X052696Y016891D01*
X052685Y016924D01*
X052678Y016957D01*
X052674Y016991D01*
X052674Y017025D01*
X052678Y017059D01*
X052685Y017092D01*
X052696Y017125D01*
X052710Y017156D01*
X052728Y017185D01*
X052748Y017212D01*
X052772Y017237D01*
X052798Y017260D01*
X052826Y017279D01*
X052856Y017295D01*
X052887Y017308D01*
X052920Y017318D01*
X052954Y017324D01*
X052988Y017326D01*
X053022Y017325D01*
X053056Y017320D01*
X053089Y017311D01*
X053121Y017299D01*
X053151Y017283D01*
X053151Y015283D02*
X053939Y015283D01*
X055151Y015283D02*
X055121Y015299D01*
X055089Y015311D01*
X055056Y015320D01*
X055022Y015325D01*
X054988Y015326D01*
X054954Y015324D01*
X054920Y015318D01*
X054887Y015308D01*
X054856Y015295D01*
X054826Y015279D01*
X054798Y015260D01*
X054772Y015237D01*
X054748Y015212D01*
X054728Y015185D01*
X054710Y015156D01*
X054696Y015125D01*
X054685Y015092D01*
X054678Y015059D01*
X054674Y015025D01*
X054674Y014991D01*
X054678Y014957D01*
X054685Y014924D01*
X054696Y014891D01*
X054710Y014860D01*
X054728Y014831D01*
X054748Y014804D01*
X054772Y014779D01*
X054798Y014756D01*
X054826Y014737D01*
X054856Y014721D01*
X054887Y014708D01*
X054920Y014698D01*
X054954Y014692D01*
X054988Y014690D01*
X055022Y014691D01*
X055056Y014696D01*
X055089Y014705D01*
X055121Y014717D01*
X055151Y014733D01*
X055151Y014732D02*
X055939Y014732D01*
X055939Y015283D02*
X055151Y015283D01*
X053939Y014732D02*
X053151Y014732D01*
X053151Y014733D02*
X053121Y014717D01*
X053089Y014705D01*
X053056Y014696D01*
X053022Y014691D01*
X052988Y014690D01*
X052954Y014692D01*
X052920Y014698D01*
X052887Y014708D01*
X052856Y014721D01*
X052826Y014737D01*
X052798Y014756D01*
X052772Y014779D01*
X052748Y014804D01*
X052728Y014831D01*
X052710Y014860D01*
X052696Y014891D01*
X052685Y014924D01*
X052678Y014957D01*
X052674Y014991D01*
X052674Y015025D01*
X052678Y015059D01*
X052685Y015092D01*
X052696Y015125D01*
X052710Y015156D01*
X052728Y015185D01*
X052748Y015212D01*
X052772Y015237D01*
X052798Y015260D01*
X052826Y015279D01*
X052856Y015295D01*
X052887Y015308D01*
X052920Y015318D01*
X052954Y015324D01*
X052988Y015326D01*
X053022Y015325D01*
X053056Y015320D01*
X053089Y015311D01*
X053121Y015299D01*
X053151Y015283D01*
X053151Y013783D02*
X053939Y013783D01*
X053939Y013232D02*
X053151Y013232D01*
X053151Y013233D02*
X053121Y013217D01*
X053089Y013205D01*
X053056Y013196D01*
X053022Y013191D01*
X052988Y013190D01*
X052954Y013192D01*
X052920Y013198D01*
X052887Y013208D01*
X052856Y013221D01*
X052826Y013237D01*
X052798Y013256D01*
X052772Y013279D01*
X052748Y013304D01*
X052728Y013331D01*
X052710Y013360D01*
X052696Y013391D01*
X052685Y013424D01*
X052678Y013457D01*
X052674Y013491D01*
X052674Y013525D01*
X052678Y013559D01*
X052685Y013592D01*
X052696Y013625D01*
X052710Y013656D01*
X052728Y013685D01*
X052748Y013712D01*
X052772Y013737D01*
X052798Y013760D01*
X052826Y013779D01*
X052856Y013795D01*
X052887Y013808D01*
X052920Y013818D01*
X052954Y013824D01*
X052988Y013826D01*
X053022Y013825D01*
X053056Y013820D01*
X053089Y013811D01*
X053121Y013799D01*
X053151Y013783D01*
X055151Y013783D02*
X055121Y013799D01*
X055089Y013811D01*
X055056Y013820D01*
X055022Y013825D01*
X054988Y013826D01*
X054954Y013824D01*
X054920Y013818D01*
X054887Y013808D01*
X054856Y013795D01*
X054826Y013779D01*
X054798Y013760D01*
X054772Y013737D01*
X054748Y013712D01*
X054728Y013685D01*
X054710Y013656D01*
X054696Y013625D01*
X054685Y013592D01*
X054678Y013559D01*
X054674Y013525D01*
X054674Y013491D01*
X054678Y013457D01*
X054685Y013424D01*
X054696Y013391D01*
X054710Y013360D01*
X054728Y013331D01*
X054748Y013304D01*
X054772Y013279D01*
X054798Y013256D01*
X054826Y013237D01*
X054856Y013221D01*
X054887Y013208D01*
X054920Y013198D01*
X054954Y013192D01*
X054988Y013190D01*
X055022Y013191D01*
X055056Y013196D01*
X055089Y013205D01*
X055121Y013217D01*
X055151Y013233D01*
X055151Y013232D02*
X055939Y013232D01*
X055939Y013783D02*
X055151Y013783D01*
X057151Y014733D02*
X057121Y014717D01*
X057089Y014705D01*
X057056Y014696D01*
X057022Y014691D01*
X056988Y014690D01*
X056954Y014692D01*
X056920Y014698D01*
X056887Y014708D01*
X056856Y014721D01*
X056826Y014737D01*
X056798Y014756D01*
X056772Y014779D01*
X056748Y014804D01*
X056728Y014831D01*
X056710Y014860D01*
X056696Y014891D01*
X056685Y014924D01*
X056678Y014957D01*
X056674Y014991D01*
X056674Y015025D01*
X056678Y015059D01*
X056685Y015092D01*
X056696Y015125D01*
X056710Y015156D01*
X056728Y015185D01*
X056748Y015212D01*
X056772Y015237D01*
X056798Y015260D01*
X056826Y015279D01*
X056856Y015295D01*
X056887Y015308D01*
X056920Y015318D01*
X056954Y015324D01*
X056988Y015326D01*
X057022Y015325D01*
X057056Y015320D01*
X057089Y015311D01*
X057121Y015299D01*
X057151Y015283D01*
X057939Y015283D01*
X057939Y014732D02*
X057151Y014732D01*
X057120Y016732D02*
X057907Y016732D01*
X057120Y016733D02*
X057090Y016717D01*
X057058Y016705D01*
X057025Y016696D01*
X056991Y016691D01*
X056957Y016690D01*
X056923Y016692D01*
X056889Y016698D01*
X056856Y016708D01*
X056825Y016721D01*
X056795Y016737D01*
X056767Y016756D01*
X056741Y016779D01*
X056717Y016804D01*
X056697Y016831D01*
X056679Y016860D01*
X056665Y016891D01*
X056654Y016924D01*
X056647Y016957D01*
X056643Y016991D01*
X056643Y017025D01*
X056647Y017059D01*
X056654Y017092D01*
X056665Y017125D01*
X056679Y017156D01*
X056697Y017185D01*
X056717Y017212D01*
X056741Y017237D01*
X056767Y017260D01*
X056795Y017279D01*
X056825Y017295D01*
X056856Y017308D01*
X056889Y017318D01*
X056923Y017324D01*
X056957Y017326D01*
X056991Y017325D01*
X057025Y017320D01*
X057058Y017311D01*
X057090Y017299D01*
X057120Y017283D01*
X057907Y017283D01*
X055939Y012283D02*
X055151Y012283D01*
X055121Y012299D01*
X055089Y012311D01*
X055056Y012320D01*
X055022Y012325D01*
X054988Y012326D01*
X054954Y012324D01*
X054920Y012318D01*
X054887Y012308D01*
X054856Y012295D01*
X054826Y012279D01*
X054798Y012260D01*
X054772Y012237D01*
X054748Y012212D01*
X054728Y012185D01*
X054710Y012156D01*
X054696Y012125D01*
X054685Y012092D01*
X054678Y012059D01*
X054674Y012025D01*
X054674Y011991D01*
X054678Y011957D01*
X054685Y011924D01*
X054696Y011891D01*
X054710Y011860D01*
X054728Y011831D01*
X054748Y011804D01*
X054772Y011779D01*
X054798Y011756D01*
X054826Y011737D01*
X054856Y011721D01*
X054887Y011708D01*
X054920Y011698D01*
X054954Y011692D01*
X054988Y011690D01*
X055022Y011691D01*
X055056Y011696D01*
X055089Y011705D01*
X055121Y011717D01*
X055151Y011733D01*
X055151Y011732D02*
X055939Y011732D01*
X053939Y011732D02*
X053151Y011732D01*
X053151Y011733D02*
X053121Y011717D01*
X053089Y011705D01*
X053056Y011696D01*
X053022Y011691D01*
X052988Y011690D01*
X052954Y011692D01*
X052920Y011698D01*
X052887Y011708D01*
X052856Y011721D01*
X052826Y011737D01*
X052798Y011756D01*
X052772Y011779D01*
X052748Y011804D01*
X052728Y011831D01*
X052710Y011860D01*
X052696Y011891D01*
X052685Y011924D01*
X052678Y011957D01*
X052674Y011991D01*
X052674Y012025D01*
X052678Y012059D01*
X052685Y012092D01*
X052696Y012125D01*
X052710Y012156D01*
X052728Y012185D01*
X052748Y012212D01*
X052772Y012237D01*
X052798Y012260D01*
X052826Y012279D01*
X052856Y012295D01*
X052887Y012308D01*
X052920Y012318D01*
X052954Y012324D01*
X052988Y012326D01*
X053022Y012325D01*
X053056Y012320D01*
X053089Y012311D01*
X053121Y012299D01*
X053151Y012283D01*
X053939Y012283D01*
X040124Y002988D02*
X039336Y002988D01*
X039305Y003004D01*
X039272Y003017D01*
X039238Y003025D01*
X039203Y003030D01*
X039168Y003031D01*
X039133Y003028D01*
X039099Y003021D01*
X039065Y003011D01*
X039033Y002997D01*
X039003Y002979D01*
X038975Y002958D01*
X038949Y002935D01*
X038926Y002908D01*
X038906Y002880D01*
X038889Y002849D01*
X038876Y002816D01*
X038867Y002783D01*
X038861Y002748D01*
X038859Y002713D01*
X038861Y002678D01*
X038867Y002643D01*
X038876Y002610D01*
X038889Y002577D01*
X038906Y002546D01*
X038926Y002518D01*
X038949Y002491D01*
X038975Y002468D01*
X039003Y002447D01*
X039033Y002429D01*
X039065Y002415D01*
X039099Y002405D01*
X039133Y002398D01*
X039168Y002395D01*
X039203Y002396D01*
X039238Y002401D01*
X039272Y002409D01*
X039305Y002422D01*
X039336Y002438D01*
X039336Y002437D02*
X040124Y002437D01*
D15*
X016277Y016213D02*
X016277Y019165D01*
X010569Y019165D01*
X010569Y016213D01*
X016277Y016213D01*
X009376Y016169D02*
X009376Y019122D01*
X003667Y019122D01*
X003667Y016169D01*
X009376Y016169D01*
D16*
X031729Y009570D02*
X031729Y005603D01*
X033904Y005603D01*
X033904Y009570D01*
X031729Y009570D01*
M02*
