G75*
%MOIN*%
%OFA0B0*%
%FSLAX24Y24*%
%IPPOS*%
%LPD*%
%AMOC8*
5,1,8,0,0,1.08239X$1,22.5*
%
%ADD10OC8,0.0660*%
%ADD11C,0.1500*%
%ADD12C,0.1000*%
%ADD13C,0.0660*%
%ADD14R,0.0224X0.0374*%
%ADD15R,0.0433X0.0512*%
%ADD16OC8,0.0600*%
%ADD17R,0.0551X0.0177*%
%ADD18OC8,0.0850*%
%ADD19R,0.0512X0.0591*%
%ADD20R,0.0591X0.0512*%
%ADD21R,0.0157X0.0591*%
%ADD22R,0.0600X0.0600*%
%ADD23C,0.0600*%
%ADD24R,0.0610X0.0236*%
%ADD25R,0.0472X0.0669*%
%ADD26C,0.0472*%
%ADD27R,0.0787X0.0394*%
%ADD28R,0.0512X0.0433*%
%ADD29R,0.0394X0.0433*%
%ADD30R,0.0669X0.0472*%
%ADD31C,0.0512*%
%ADD32OC8,0.0630*%
%ADD33C,0.0630*%
%ADD34C,0.0760*%
%ADD35C,0.1890*%
%ADD36R,0.0224X0.0433*%
%ADD37C,0.0531*%
%ADD38C,0.0600*%
%ADD39C,0.0050*%
%ADD40C,0.0236*%
%ADD41C,0.0100*%
D10*
X006214Y022224D03*
X006214Y023224D03*
X006214Y024224D03*
X006214Y025224D03*
X006214Y026224D03*
X013214Y026224D03*
X013214Y025224D03*
X013214Y024224D03*
X013214Y023224D03*
X013214Y022224D03*
X013214Y031224D03*
X013214Y034224D03*
X006214Y034224D03*
X006214Y031224D03*
D11*
X003458Y035213D03*
X010458Y035213D03*
X009757Y021236D03*
X009100Y018177D03*
X010844Y018220D03*
X016002Y018220D03*
X016757Y021236D03*
X003943Y018177D03*
D12*
X009243Y008800D03*
X012993Y008800D03*
X015258Y008800D03*
X019008Y008800D03*
X019008Y001300D03*
X017758Y001300D03*
X016508Y001300D03*
X015258Y001300D03*
X012993Y001300D03*
X011743Y001300D03*
X010493Y001300D03*
X009243Y001300D03*
X008020Y038163D03*
X005020Y038163D03*
X012214Y038137D03*
X015214Y038137D03*
D13*
X011361Y013552D03*
X011342Y011332D03*
X020342Y011332D03*
X020361Y013552D03*
D14*
X017851Y013346D03*
X017477Y013346D03*
X017103Y013346D03*
X017103Y014331D03*
X017851Y014331D03*
X017875Y011693D03*
X017127Y011693D03*
X017127Y010709D03*
X017501Y010709D03*
X017875Y010709D03*
X045411Y022339D03*
X046159Y022339D03*
X045785Y023339D03*
D15*
X052521Y010736D03*
X053269Y010736D03*
X054490Y010736D03*
X055238Y010736D03*
X045726Y001835D03*
X044978Y001835D03*
X043757Y001811D03*
X043009Y001811D03*
X018624Y004043D03*
X017876Y004043D03*
X017876Y005224D03*
X018624Y005224D03*
X018624Y006406D03*
X017876Y006406D03*
X016655Y006406D03*
X015907Y006406D03*
X016714Y008673D03*
X017462Y008673D03*
X015587Y010327D03*
X014839Y010327D03*
X014839Y011535D03*
X015587Y011535D03*
X015611Y013102D03*
X014863Y013102D03*
X014863Y014311D03*
X015611Y014311D03*
X007206Y011524D03*
X006458Y011524D03*
X010809Y008685D03*
X011557Y008685D03*
X011970Y006406D03*
X012718Y006406D03*
X012718Y005224D03*
X011970Y005224D03*
X011970Y004043D03*
X012718Y004043D03*
X010750Y006406D03*
X010002Y006406D03*
D16*
X022151Y008799D03*
X023151Y008799D03*
X023151Y009799D03*
X022151Y009799D03*
X022151Y010799D03*
X023151Y010799D03*
X023151Y011799D03*
X022151Y011799D03*
X022151Y012799D03*
X023151Y012799D03*
X023151Y013799D03*
X022151Y013799D03*
X022151Y014799D03*
X023151Y014799D03*
X023151Y015799D03*
X022151Y015799D03*
X022151Y016799D03*
X023151Y016799D03*
X023151Y017799D03*
X022151Y017799D03*
X022151Y018799D03*
X023151Y018799D03*
X023151Y019799D03*
X022151Y019799D03*
X022151Y020799D03*
X023151Y020799D03*
X023151Y021799D03*
X022151Y021799D03*
X022151Y022799D03*
X023151Y022799D03*
X023151Y023799D03*
X022151Y023799D03*
X022151Y024799D03*
X023151Y024799D03*
X023151Y025799D03*
X022151Y025799D03*
X022151Y026799D03*
X023151Y026799D03*
X023151Y027799D03*
X022151Y027799D03*
X029454Y033996D03*
X030454Y033996D03*
X030454Y034996D03*
X029454Y034996D03*
X029462Y037661D03*
X028462Y037661D03*
X027462Y037661D03*
X026462Y037661D03*
X025462Y037661D03*
X025462Y038661D03*
X026462Y038661D03*
X027462Y038661D03*
X028462Y038661D03*
X029462Y038661D03*
X030462Y038661D03*
X031462Y038661D03*
X031462Y037661D03*
X030462Y037661D03*
X038061Y027799D03*
X039061Y027799D03*
X039061Y026799D03*
X038061Y026799D03*
X038061Y025799D03*
X039061Y025799D03*
X039061Y024799D03*
X038061Y024799D03*
X038061Y023799D03*
X039061Y023799D03*
X039061Y022799D03*
X038061Y022799D03*
X038061Y021799D03*
X039061Y021799D03*
X039061Y020799D03*
X038061Y020799D03*
X038061Y019799D03*
X039061Y019799D03*
X039061Y018799D03*
X038061Y018799D03*
X038061Y017799D03*
X039061Y017799D03*
X039061Y016799D03*
X038061Y016799D03*
X038061Y015799D03*
X039061Y015799D03*
X039061Y014799D03*
X038061Y014799D03*
X038061Y013799D03*
X039061Y013799D03*
X039061Y012799D03*
X038061Y012799D03*
X038061Y011799D03*
X039061Y011799D03*
X039061Y010799D03*
X038061Y010799D03*
X038061Y009799D03*
X039061Y009799D03*
X039061Y008799D03*
X038061Y008799D03*
D17*
X043287Y008715D03*
X043287Y008970D03*
X043287Y009226D03*
X043287Y009482D03*
X043287Y009738D03*
X043287Y008459D03*
X043287Y008203D03*
X043287Y007947D03*
X043287Y007691D03*
X043287Y007435D03*
X043287Y007179D03*
X043287Y006923D03*
X043287Y006667D03*
X043287Y006411D03*
X045630Y006411D03*
X045630Y006667D03*
X045630Y006923D03*
X045630Y007179D03*
X045630Y007435D03*
X045630Y007691D03*
X045630Y007947D03*
X045630Y008203D03*
X045630Y008459D03*
X045630Y008715D03*
X045630Y008970D03*
X045630Y009226D03*
X045630Y009482D03*
X045630Y009738D03*
X027917Y014730D03*
X027917Y014986D03*
X027917Y015242D03*
X027917Y015498D03*
X027917Y015754D03*
X027917Y016010D03*
X027917Y016266D03*
X027917Y016522D03*
X027917Y016778D03*
X027917Y017033D03*
X027917Y017289D03*
X027917Y017545D03*
X027917Y017801D03*
X027917Y018057D03*
X025574Y018057D03*
X025574Y017801D03*
X025574Y017545D03*
X025574Y017289D03*
X025574Y017033D03*
X025574Y016778D03*
X025574Y016522D03*
X025574Y016266D03*
X025574Y016010D03*
X025574Y015754D03*
X025574Y015498D03*
X025574Y015242D03*
X025574Y014986D03*
X025574Y014730D03*
X024736Y023348D03*
X024736Y023604D03*
X024736Y023860D03*
X024736Y024116D03*
X024736Y024372D03*
X024736Y024628D03*
X024736Y024884D03*
X024736Y025140D03*
X024736Y025396D03*
X024736Y025652D03*
X024736Y025907D03*
X024736Y026163D03*
X024736Y026419D03*
X024736Y026675D03*
X027078Y026675D03*
X027078Y026419D03*
X027078Y026163D03*
X027078Y025907D03*
X027078Y025652D03*
X027078Y025396D03*
X027078Y025140D03*
X027078Y024884D03*
X027078Y024628D03*
X027078Y024372D03*
X027078Y024116D03*
X027078Y023860D03*
X027078Y023604D03*
X027078Y023348D03*
D18*
X029754Y022417D03*
X031139Y013957D03*
X031167Y012398D03*
X035285Y001287D03*
X036285Y001287D03*
X037285Y001287D03*
X048143Y002429D03*
X057545Y011933D03*
X057545Y013583D03*
X055978Y018516D03*
X061793Y019791D03*
X061793Y020972D03*
X061793Y022154D03*
X057620Y024122D03*
X057620Y025697D03*
X056029Y030665D03*
X021120Y033531D03*
X021120Y034531D03*
X021120Y035531D03*
X021120Y036531D03*
X021120Y037531D03*
X006139Y010000D03*
X004639Y010000D03*
D19*
X025356Y020972D03*
X026104Y020972D03*
X027718Y020972D03*
X028466Y020972D03*
X028466Y022154D03*
X027718Y022154D03*
X026202Y022154D03*
X025454Y022154D03*
X028012Y013098D03*
X028760Y013098D03*
X028760Y011894D03*
X028012Y011894D03*
X047506Y005272D03*
X048254Y005272D03*
X048254Y003969D03*
X047506Y003969D03*
D20*
X045080Y003807D03*
X045080Y004555D03*
X043777Y004555D03*
X043777Y003807D03*
X048171Y007016D03*
X048171Y007764D03*
X048171Y009181D03*
X048171Y009929D03*
X029667Y015087D03*
X029667Y015835D03*
X029667Y017055D03*
X029667Y017803D03*
X026472Y013071D03*
X026472Y012323D03*
X025268Y012323D03*
X025268Y013071D03*
X025702Y010661D03*
X025702Y009913D03*
X026878Y009923D03*
X026878Y010671D03*
X028078Y010639D03*
X028078Y009891D03*
X025435Y029654D03*
X025435Y030402D03*
X024155Y030402D03*
X024155Y029654D03*
D21*
X025126Y008321D03*
X025381Y008321D03*
X025637Y008321D03*
X025893Y008321D03*
X026149Y008321D03*
X026405Y008321D03*
X026661Y008321D03*
X026917Y008321D03*
X027173Y008321D03*
X027429Y008321D03*
X027685Y008321D03*
X027941Y008321D03*
X028196Y008321D03*
X028452Y008321D03*
X028452Y005467D03*
X028196Y005467D03*
X027941Y005467D03*
X027685Y005467D03*
X027429Y005467D03*
X027173Y005467D03*
X026917Y005467D03*
X026661Y005467D03*
X026405Y005467D03*
X026149Y005467D03*
X025893Y005467D03*
X025637Y005467D03*
X025381Y005467D03*
X025126Y005467D03*
D22*
X042840Y031949D03*
D23*
X041839Y031954D03*
X041839Y030954D03*
X042839Y030954D03*
X042839Y029954D03*
X041839Y029954D03*
X041839Y028954D03*
X042839Y028954D03*
X042839Y027954D03*
X041839Y027954D03*
X041839Y026954D03*
X042839Y026954D03*
X042839Y025954D03*
X041839Y025954D03*
X041839Y024954D03*
X042839Y024954D03*
X042839Y023954D03*
X041839Y023954D03*
X041839Y022954D03*
X042839Y022954D03*
X042839Y021954D03*
X041839Y021954D03*
X041839Y020954D03*
X042839Y020954D03*
X042839Y019954D03*
X041839Y019954D03*
X041839Y018954D03*
X042839Y018954D03*
X042839Y017954D03*
X041839Y017954D03*
X041839Y016954D03*
X042839Y016954D03*
X042839Y015954D03*
X041839Y015954D03*
X041839Y014954D03*
X042839Y014954D03*
X042839Y013954D03*
X041839Y013954D03*
X041839Y012954D03*
X042839Y012954D03*
D24*
X044895Y024970D03*
X044895Y025470D03*
X044895Y025970D03*
X044895Y026470D03*
X044895Y026970D03*
X044895Y027470D03*
X044895Y027970D03*
X044895Y028470D03*
X046998Y028470D03*
X046998Y027970D03*
X046998Y027470D03*
X046998Y026970D03*
X046998Y026470D03*
X046998Y025970D03*
X046998Y025470D03*
X046998Y024970D03*
D25*
X046399Y030421D03*
X045218Y030421D03*
X045218Y031996D03*
X046399Y031996D03*
X015750Y027858D03*
X014569Y027858D03*
X014553Y026457D03*
X015734Y026457D03*
X015750Y025165D03*
X014569Y025165D03*
X011950Y025106D03*
X010769Y025106D03*
X010769Y026484D03*
X011950Y026484D03*
X011950Y027862D03*
X010769Y027862D03*
X010545Y002988D03*
X009364Y002988D03*
X015313Y002988D03*
X016494Y002988D03*
D26*
X008805Y013717D03*
X008175Y013717D03*
X007545Y013717D03*
X005966Y013728D03*
X005336Y013728D03*
X004706Y013728D03*
X001714Y015736D03*
X001714Y016642D03*
X001714Y017547D03*
X001713Y018735D03*
X001713Y019640D03*
X001713Y020546D03*
X018876Y021882D03*
X018876Y022882D03*
X018876Y023882D03*
X018895Y018933D03*
X018895Y017933D03*
X018895Y016933D03*
X025943Y033445D03*
X025943Y034445D03*
X025943Y035445D03*
X033214Y035264D03*
X033214Y034634D03*
X033214Y034004D03*
X035680Y034039D03*
X035680Y034669D03*
X035680Y035299D03*
X048486Y036350D03*
X048486Y037350D03*
X048486Y038350D03*
X055257Y038350D03*
X055257Y037350D03*
X055257Y036350D03*
D27*
X058572Y007551D03*
X058572Y006961D03*
X058572Y006370D03*
X058572Y005780D03*
X058572Y005189D03*
X058572Y004598D03*
X058572Y004008D03*
X058572Y003417D03*
X058572Y002827D03*
X058572Y002236D03*
X051872Y002236D03*
X051872Y002827D03*
X051872Y003417D03*
X051872Y004008D03*
X051872Y004598D03*
X051872Y005189D03*
X051872Y005780D03*
X051872Y006370D03*
X051872Y006961D03*
X051872Y007551D03*
D28*
X051202Y009807D03*
X050096Y009807D03*
X050096Y010555D03*
X051202Y010555D03*
D29*
X061163Y006346D03*
X061163Y005677D03*
D30*
X061163Y007783D03*
X061163Y008965D03*
D31*
X019643Y032965D03*
X018643Y033965D03*
X017643Y032965D03*
X017643Y034965D03*
X017643Y036508D03*
X018643Y037508D03*
X019643Y036508D03*
X019643Y034965D03*
X019643Y038508D03*
X017643Y038508D03*
X050399Y038665D03*
X051399Y037665D03*
X052399Y038665D03*
X052399Y036665D03*
X050399Y036665D03*
X057171Y036665D03*
X058171Y037665D03*
X059171Y038665D03*
X057171Y038665D03*
X059171Y036665D03*
D32*
X007153Y008216D03*
X004789Y008156D03*
D33*
X004789Y007156D03*
X007153Y007216D03*
D34*
X002305Y007102D03*
X002305Y006102D03*
X002305Y005102D03*
X002305Y008102D03*
X002305Y010811D03*
X002305Y011811D03*
X002305Y012811D03*
X002305Y013811D03*
X021313Y001945D03*
X022313Y001945D03*
X019037Y027272D03*
X018037Y027272D03*
X018037Y030815D03*
X019037Y030815D03*
X033443Y037443D03*
X034443Y037443D03*
X035443Y037443D03*
X037928Y037408D03*
X038928Y037408D03*
X039928Y037408D03*
X042750Y037408D03*
X043750Y037408D03*
X044750Y037408D03*
X045750Y037408D03*
X039943Y034358D03*
X038943Y034358D03*
X037943Y034358D03*
D35*
X005706Y005551D03*
X007557Y004370D03*
X005706Y003228D03*
D36*
X010986Y022783D03*
X011360Y022783D03*
X011734Y022783D03*
X011734Y023906D03*
X011360Y023906D03*
X010986Y023906D03*
X014895Y023965D03*
X015269Y023965D03*
X015643Y023965D03*
X015643Y022843D03*
X015269Y022843D03*
X014895Y022843D03*
D37*
X014801Y017157D03*
X013817Y017157D03*
X013029Y017157D03*
X012045Y017157D03*
X007899Y017114D03*
X006915Y017114D03*
X006128Y017114D03*
X005143Y017114D03*
D38*
X061182Y024276D02*
X061782Y024276D01*
X061782Y025276D02*
X061182Y025276D01*
X061182Y026276D02*
X061782Y026276D01*
X061782Y027276D02*
X061182Y027276D01*
X061182Y028276D02*
X061782Y028276D01*
D39*
X061950Y027705D02*
X061163Y027705D01*
X060651Y028217D01*
X044549Y028217D01*
X044352Y028413D01*
X039313Y028413D01*
X039194Y028295D01*
X037502Y028295D01*
X037502Y027350D01*
X038053Y026799D01*
X038061Y026799D01*
X039116Y026366D02*
X032817Y026366D01*
X032226Y026957D01*
X030848Y026957D01*
X029509Y028295D01*
X020769Y028295D01*
X018958Y026484D01*
X015769Y026484D01*
X015734Y026457D01*
X015730Y026445D01*
X015257Y025972D01*
X014431Y025972D01*
X014313Y025854D01*
X014273Y025618D02*
X013250Y024594D01*
X013250Y024240D01*
X013214Y024224D01*
X014549Y024594D02*
X014549Y025146D01*
X014569Y025165D01*
X014903Y024752D02*
X015336Y024752D01*
X015750Y025165D01*
X014903Y024752D02*
X014903Y023965D01*
X014895Y023965D01*
X015257Y023177D02*
X014352Y023177D01*
X014313Y023138D01*
X014549Y022902D02*
X014824Y022902D01*
X014864Y022862D01*
X014895Y022843D01*
X015257Y022862D02*
X015269Y022843D01*
X015257Y022862D02*
X015257Y023177D01*
X016124Y025618D02*
X018840Y022902D01*
X018876Y022882D01*
X021832Y022232D02*
X023210Y022232D01*
X023880Y022902D01*
X027502Y022902D01*
X027777Y023177D01*
X028328Y023177D01*
X028368Y023138D01*
X029076Y023138D01*
X029155Y023217D01*
X039076Y023217D01*
X040179Y024319D01*
X040415Y023768D02*
X041675Y022508D01*
X042895Y022508D01*
X043840Y021563D01*
X043722Y020500D02*
X043486Y020264D01*
X043486Y019791D01*
X043210Y019516D01*
X042344Y019516D01*
X041872Y019988D01*
X041839Y019954D01*
X040730Y019476D02*
X041675Y018531D01*
X043289Y018531D01*
X043565Y018256D01*
X042265Y017508D02*
X041675Y017508D01*
X039824Y019358D01*
X033368Y019358D01*
X032305Y020421D01*
X034037Y020657D02*
X034628Y021248D01*
X034391Y022154D02*
X035021Y022783D01*
X038053Y022783D01*
X038061Y022799D01*
X038604Y022350D02*
X039037Y022783D01*
X039061Y022799D01*
X038604Y022350D02*
X036872Y022350D01*
X036202Y021681D01*
X033210Y021681D01*
X030415Y018886D01*
X030769Y018650D02*
X026557Y018650D01*
X025574Y018057D02*
X023368Y020264D01*
X022069Y020264D01*
X021714Y020618D01*
X021714Y021799D01*
X022151Y021799D01*
X022151Y020799D02*
X022187Y020776D01*
X022580Y020382D01*
X025966Y020382D01*
X025966Y017665D01*
X025887Y017587D01*
X025651Y017587D01*
X025612Y017547D01*
X025574Y017545D01*
X025612Y017311D02*
X025574Y017289D01*
X025612Y017311D02*
X025887Y017311D01*
X026084Y017508D01*
X026084Y020539D01*
X023407Y020539D01*
X023171Y020776D01*
X023151Y020799D01*
X025356Y020972D02*
X025376Y020972D01*
X025376Y022154D01*
X025454Y022154D01*
X025966Y022665D01*
X026399Y022665D02*
X026399Y022154D01*
X026202Y022154D01*
X026124Y022154D01*
X026124Y020972D01*
X026104Y020972D01*
X028210Y022941D02*
X029234Y022941D01*
X029746Y022429D01*
X029754Y022417D01*
X028958Y023374D02*
X028998Y023413D01*
X037698Y023413D01*
X038053Y023768D01*
X038061Y023799D01*
X038604Y024240D02*
X037423Y024240D01*
X036832Y023650D01*
X036478Y023650D02*
X037620Y024791D01*
X038053Y024791D01*
X038061Y024799D01*
X037659Y024988D02*
X037895Y025224D01*
X038643Y025224D01*
X039037Y024831D01*
X039061Y024799D01*
X038604Y024240D02*
X039037Y023807D01*
X039061Y023799D01*
X037659Y024988D02*
X030769Y024988D01*
X030533Y024752D01*
X030533Y025106D02*
X031360Y025106D01*
X031596Y025264D01*
X033998Y025264D01*
X034194Y025461D01*
X033643Y025500D02*
X031045Y025500D01*
X031202Y025343D01*
X031045Y025500D02*
X030848Y025697D01*
X030730Y025697D01*
X029549Y026169D02*
X037069Y026169D01*
X037895Y025343D01*
X039864Y025343D01*
X041754Y023453D01*
X045139Y023453D01*
X045376Y022862D02*
X045376Y022665D01*
X060100Y022665D01*
X061793Y020972D01*
X061793Y022154D02*
X062226Y022154D01*
X062226Y027429D01*
X061950Y027705D01*
X061482Y027276D02*
X060927Y026720D01*
X046281Y026720D01*
X046754Y027232D02*
X046990Y026996D01*
X046998Y026970D01*
X046754Y027232D02*
X046360Y027232D01*
X046202Y027705D02*
X046793Y027705D01*
X046990Y027508D01*
X046998Y027470D01*
X046998Y027970D02*
X046990Y027980D01*
X045730Y027980D01*
X045730Y028571D02*
X045179Y029122D01*
X045730Y028571D02*
X046911Y028571D01*
X046990Y028492D01*
X046998Y028470D01*
X046950Y028807D02*
X046399Y029358D01*
X043053Y029358D01*
X043013Y029398D01*
X040612Y029398D01*
X040179Y028965D01*
X022698Y028965D01*
X021832Y029004D02*
X015336Y029004D01*
X016478Y030776D02*
X012777Y030776D01*
X006242Y024240D01*
X006214Y024224D01*
X006214Y025224D02*
X005730Y025224D01*
X005730Y023059D01*
X006045Y022744D01*
X006360Y022744D01*
X008761Y020343D01*
X015494Y020343D01*
X012344Y022980D02*
X012029Y022980D01*
X011872Y023138D01*
X011360Y023138D01*
X011320Y023177D01*
X010061Y023177D01*
X010061Y022547D01*
X010651Y022941D02*
X010809Y022941D01*
X010966Y022783D01*
X010986Y022783D01*
X011360Y022783D02*
X011360Y023138D01*
X010986Y023906D02*
X011006Y023925D01*
X011006Y024634D01*
X011478Y024634D01*
X011950Y025106D01*
X010769Y025106D02*
X010651Y025106D01*
X010651Y024555D01*
X012344Y026012D02*
X012344Y026484D01*
X011950Y026484D01*
X014273Y025618D02*
X016124Y025618D01*
X018037Y027272D02*
X018053Y027272D01*
X019194Y028413D01*
X026911Y028413D01*
X027029Y028531D01*
X031557Y028531D01*
X031950Y028138D01*
X031990Y027193D02*
X030887Y028295D01*
X030730Y028295D01*
X030297Y029949D02*
X031163Y029949D01*
X031202Y029988D01*
X031320Y030106D01*
X031990Y030106D01*
X032108Y029988D01*
X033919Y029988D01*
X034076Y030146D01*
X034155Y030146D01*
X034155Y030343D01*
X033761Y030264D02*
X033446Y030461D01*
X031439Y030461D01*
X031281Y030618D01*
X030297Y030618D01*
X030612Y031091D02*
X032777Y031091D01*
X033446Y031760D01*
X034824Y031760D01*
X034313Y031484D02*
X033683Y030854D01*
X023683Y030854D01*
X021832Y029004D01*
X022151Y027799D02*
X022187Y027783D01*
X022620Y027350D01*
X024037Y027350D01*
X024706Y026681D01*
X024736Y026675D01*
X024746Y026445D02*
X024736Y026419D01*
X024746Y026445D02*
X025061Y026445D01*
X025139Y026524D01*
X025139Y027783D01*
X023171Y027783D01*
X023151Y027799D01*
X022187Y026799D02*
X022151Y026799D01*
X022187Y026799D02*
X022620Y026366D01*
X023210Y026366D01*
X023368Y026209D01*
X024667Y026209D01*
X024706Y026169D01*
X024736Y026163D01*
X024706Y025933D02*
X024736Y025907D01*
X024706Y025933D02*
X024037Y025933D01*
X023368Y025185D02*
X023171Y025382D01*
X022580Y025382D01*
X022187Y025776D01*
X022151Y025799D01*
X023368Y025185D02*
X024667Y025185D01*
X024706Y025146D01*
X024736Y025140D01*
X024706Y024909D02*
X024736Y024884D01*
X024706Y024909D02*
X024116Y024909D01*
X023880Y024673D02*
X024667Y024673D01*
X024706Y024634D01*
X024736Y024628D01*
X024706Y024398D02*
X024736Y024372D01*
X024706Y024398D02*
X023565Y024398D01*
X023171Y024791D01*
X023151Y024799D01*
X023328Y024240D02*
X022620Y024240D01*
X022187Y023807D01*
X022151Y023799D01*
X023151Y023799D02*
X023171Y023807D01*
X023210Y023846D01*
X024706Y023846D01*
X024736Y023860D01*
X024736Y024116D02*
X024706Y024122D01*
X024667Y024161D01*
X023407Y024161D01*
X023328Y024240D01*
X026124Y025697D02*
X027029Y025697D01*
X027069Y025657D01*
X027078Y025652D01*
X027069Y025421D02*
X026399Y025421D01*
X027069Y025421D02*
X027078Y025396D01*
X027108Y025894D02*
X027078Y025907D01*
X027108Y025894D02*
X027462Y025894D01*
X027935Y025421D01*
X028210Y025421D01*
X028761Y025933D02*
X033171Y025933D01*
X032265Y026563D02*
X029431Y026563D01*
X029037Y026169D01*
X028761Y025933D02*
X028525Y026169D01*
X027580Y026406D02*
X027108Y026406D01*
X027078Y026419D01*
X027078Y024628D02*
X027108Y024594D01*
X027383Y024594D01*
X027462Y024516D01*
X032777Y024516D01*
X032856Y024594D01*
X033013Y024358D02*
X027108Y024358D01*
X027078Y024372D01*
X027147Y023650D02*
X036478Y023650D01*
X035454Y021917D02*
X032541Y021917D01*
X036006Y020382D02*
X038643Y020382D01*
X039061Y020799D01*
X039234Y019240D02*
X034588Y019240D01*
X033880Y018531D01*
X029667Y018531D01*
X028958Y017823D01*
X028407Y017823D01*
X028407Y017862D01*
X028407Y017823D02*
X027935Y017823D01*
X027917Y017801D01*
X027935Y017311D02*
X027917Y017289D01*
X027935Y017311D02*
X028683Y017311D01*
X028407Y016996D02*
X027935Y016996D01*
X027917Y017033D01*
X027917Y016778D02*
X027895Y016760D01*
X027423Y016760D01*
X027147Y016012D02*
X027895Y016012D01*
X027917Y016010D01*
X027895Y015776D02*
X027917Y015754D01*
X027895Y015776D02*
X026950Y015776D01*
X026911Y015815D01*
X027147Y016012D02*
X026675Y016484D01*
X025574Y016522D02*
X025533Y016563D01*
X023998Y016563D01*
X023210Y017350D01*
X021872Y017350D01*
X022151Y016799D02*
X022187Y016799D01*
X022620Y016366D01*
X023210Y016366D01*
X024076Y015500D01*
X025572Y015500D01*
X025574Y015498D01*
X025574Y015242D02*
X025572Y015224D01*
X024746Y015224D01*
X025061Y015776D02*
X025572Y015776D01*
X025574Y015754D01*
X025574Y016010D02*
X025533Y016051D01*
X024431Y016051D01*
X025061Y016287D02*
X025572Y016287D01*
X025574Y016266D01*
X025574Y017801D02*
X025572Y017823D01*
X025061Y017823D01*
X027917Y014986D02*
X027935Y014949D01*
X028919Y014949D01*
X028683Y014437D02*
X030691Y012429D01*
X031163Y012429D01*
X031167Y012398D01*
X028761Y011917D02*
X028760Y011894D01*
X028722Y011878D01*
X028289Y011445D01*
X026163Y011445D01*
X025297Y012311D01*
X025268Y012323D01*
X024549Y011642D02*
X023407Y012783D01*
X023171Y012783D01*
X023151Y012799D01*
X023328Y013374D02*
X022580Y013374D01*
X022187Y013768D01*
X022151Y013799D01*
X023151Y013799D02*
X023171Y013768D01*
X026517Y013768D01*
X027502Y012783D01*
X027974Y013098D02*
X028012Y013098D01*
X028013Y013098D01*
X028013Y012350D01*
X026478Y012350D01*
X026472Y012323D01*
X025572Y011248D02*
X041084Y011248D01*
X041320Y011484D02*
X039352Y011484D01*
X039234Y011366D01*
X037895Y011366D01*
X037620Y011642D01*
X037620Y012783D01*
X038053Y012783D01*
X038061Y012799D01*
X038604Y012311D02*
X038092Y011799D01*
X038061Y011799D01*
X038604Y012311D02*
X042738Y012311D01*
X044037Y011012D01*
X043525Y011878D02*
X042895Y012508D01*
X039352Y012508D01*
X039061Y012799D01*
X038565Y013335D02*
X039037Y013807D01*
X039061Y013799D01*
X038565Y013335D02*
X036911Y013335D01*
X036124Y013610D01*
X035887Y013217D02*
X032069Y017193D01*
X030887Y017193D01*
X031399Y017311D02*
X030887Y017823D01*
X031124Y018059D02*
X032659Y018059D01*
X032777Y018177D01*
X032895Y018413D02*
X030061Y018413D01*
X029943Y018295D01*
X030769Y018650D02*
X030887Y018768D01*
X031399Y017311D02*
X032108Y017311D01*
X032541Y016878D01*
X037974Y016878D01*
X038053Y016799D01*
X038061Y016799D01*
X039061Y016799D01*
X038604Y016248D02*
X038013Y016248D01*
X037856Y016406D01*
X035218Y016406D01*
X034982Y016642D01*
X035218Y016169D02*
X037029Y014831D01*
X038053Y014831D01*
X038061Y014799D01*
X038643Y015224D02*
X039037Y014831D01*
X039061Y014799D01*
X038643Y015224D02*
X037541Y015224D01*
X036596Y016169D01*
X037029Y016169D02*
X037383Y015815D01*
X038053Y015815D01*
X038061Y015799D01*
X038604Y016248D02*
X039037Y015815D01*
X039061Y015799D01*
X039943Y015500D02*
X041163Y014280D01*
X041517Y014280D01*
X041832Y013965D01*
X041839Y013954D01*
X041320Y013531D02*
X043092Y013531D01*
X047187Y017547D01*
X047187Y019673D01*
X047108Y019752D01*
X047383Y019555D02*
X047502Y019752D01*
X047383Y019555D02*
X047383Y017350D01*
X043407Y013374D01*
X041242Y013374D01*
X040415Y014240D01*
X036911Y014240D01*
X036596Y014516D01*
X035572Y014516D01*
X033880Y016248D01*
X034116Y016524D02*
X035966Y014673D01*
X036754Y014673D01*
X037069Y014358D01*
X040494Y014358D01*
X041320Y013531D01*
X041439Y013217D02*
X035887Y013217D01*
X036360Y014004D02*
X036872Y013807D01*
X038053Y013807D01*
X038061Y013799D01*
X040848Y014949D02*
X041832Y014949D01*
X041839Y014954D01*
X042265Y014516D02*
X041360Y014516D01*
X042265Y014516D02*
X042817Y013965D01*
X042839Y013954D01*
X041832Y012980D02*
X041839Y012954D01*
X041832Y012980D02*
X041439Y013217D01*
X040612Y012075D02*
X042620Y012075D01*
X045179Y009516D01*
X045612Y009516D01*
X045630Y009482D01*
X045651Y009516D01*
X046006Y009516D01*
X046793Y010303D01*
X048958Y010303D01*
X049903Y009358D01*
X052974Y009358D01*
X053328Y009713D01*
X052974Y009713D02*
X051281Y009713D01*
X051202Y009791D01*
X051202Y009807D01*
X050572Y009594D02*
X050297Y009594D01*
X050100Y009791D01*
X050096Y009807D01*
X050096Y010555D02*
X050061Y010579D01*
X049509Y011130D01*
X050415Y011366D02*
X047698Y011366D01*
X048368Y011878D02*
X050139Y013413D01*
X057383Y013413D01*
X057541Y013571D01*
X057545Y013583D01*
X057545Y011933D02*
X057541Y011917D01*
X048998Y011917D01*
X048683Y011602D01*
X050415Y011366D02*
X051202Y010579D01*
X051202Y010555D01*
X052029Y012390D02*
X052541Y012390D01*
X052777Y012626D01*
X055021Y012626D01*
X053919Y012941D02*
X053446Y013177D01*
X051045Y013177D01*
X050415Y012547D01*
X050415Y013650D02*
X054746Y013650D01*
X053446Y012862D02*
X053092Y013059D01*
X052541Y013059D01*
X052423Y012941D01*
X052777Y012626D02*
X052974Y012823D01*
X053269Y010736D02*
X054490Y010736D01*
X054509Y010736D01*
X054509Y009713D01*
X057108Y008453D02*
X052344Y003689D01*
X052147Y003689D01*
X051911Y003453D01*
X051872Y003417D01*
X048919Y002429D02*
X048143Y002429D01*
X048919Y002429D02*
X048919Y007902D01*
X048565Y008256D01*
X048368Y008256D01*
X047698Y008925D01*
X045691Y008925D01*
X045651Y008965D01*
X045630Y008970D01*
X045630Y008715D02*
X045651Y008689D01*
X047777Y008689D01*
X048328Y008138D01*
X048525Y008138D01*
X048801Y007862D01*
X048801Y005303D01*
X048289Y005303D01*
X048254Y005272D01*
X048250Y005264D01*
X048250Y004004D01*
X048254Y003969D01*
X047698Y003413D01*
X044194Y003413D01*
X043801Y003807D01*
X043777Y003807D01*
X045080Y003807D02*
X045100Y003807D01*
X045257Y003965D01*
X047502Y003965D01*
X047506Y003969D01*
X047502Y004004D01*
X047502Y005264D01*
X047506Y005272D01*
X047502Y005303D01*
X047069Y005736D01*
X046045Y006051D02*
X046045Y006524D01*
X045927Y006642D01*
X045651Y006642D01*
X045630Y006667D01*
X045630Y006411D02*
X045612Y006406D01*
X045376Y006169D01*
X040494Y006169D01*
X039943Y006720D01*
X037502Y006720D01*
X035179Y009043D01*
X035572Y009358D02*
X032502Y009358D01*
X032147Y009004D01*
X030887Y007980D02*
X029746Y006839D01*
X023131Y006839D01*
X023840Y006484D02*
X028446Y006484D01*
X028446Y005500D01*
X028452Y005467D01*
X027429Y005467D02*
X027423Y005500D01*
X027423Y006248D01*
X025572Y006248D01*
X025415Y007508D02*
X025415Y008295D01*
X025381Y008321D01*
X025139Y008295D02*
X025139Y007783D01*
X025179Y007783D01*
X025139Y008295D02*
X025126Y008321D01*
X026242Y009516D02*
X028919Y009516D01*
X030257Y008256D01*
X032777Y005854D02*
X034431Y005854D01*
X034746Y006169D01*
X034037Y005618D02*
X033565Y005146D01*
X032423Y005146D01*
X036399Y002154D02*
X025139Y002154D01*
X023131Y004161D01*
X019470Y004398D02*
X040139Y004398D01*
X040257Y006051D02*
X046045Y006051D01*
X045966Y007469D02*
X046124Y007626D01*
X045966Y007469D02*
X045651Y007469D01*
X045630Y007435D01*
X045630Y007691D02*
X045612Y007705D01*
X045139Y007705D01*
X045100Y007744D01*
X045630Y008459D02*
X045651Y008453D01*
X045691Y008413D01*
X046242Y008413D01*
X046990Y007665D01*
X044037Y009201D02*
X043289Y009201D01*
X043287Y009226D01*
X043250Y009004D02*
X043287Y008970D01*
X043250Y009004D02*
X041911Y009004D01*
X039903Y011012D01*
X039864Y011012D01*
X041320Y010736D02*
X041320Y011484D01*
X041320Y010736D02*
X041950Y010106D01*
X042895Y010106D01*
X043250Y009752D01*
X043287Y009738D01*
X043289Y009516D02*
X043287Y009482D01*
X043289Y009516D02*
X043801Y009516D01*
X043287Y008203D02*
X043250Y008217D01*
X038840Y008217D01*
X038840Y007705D02*
X043250Y007705D01*
X043287Y007691D01*
X043250Y007469D02*
X042620Y007469D01*
X043250Y007469D02*
X043287Y007435D01*
X043250Y007193D02*
X043287Y007179D01*
X043250Y007193D02*
X038998Y007193D01*
X038092Y008098D01*
X038092Y008768D01*
X038061Y008799D01*
X039061Y009799D02*
X039076Y009791D01*
X040297Y009791D01*
X041084Y009004D01*
X039903Y007980D02*
X043250Y007980D01*
X043287Y007947D01*
X043250Y006957D02*
X043287Y006923D01*
X043250Y006957D02*
X039903Y006957D01*
X045730Y003177D02*
X045730Y001839D01*
X045726Y001835D01*
X045297Y001406D01*
X043407Y001406D01*
X043013Y001799D01*
X043009Y001811D01*
X057383Y002272D02*
X058565Y002272D01*
X058572Y002236D01*
X058572Y002827D02*
X058565Y002862D01*
X058171Y002862D01*
X057935Y003098D01*
X042839Y014954D02*
X042817Y014988D01*
X042305Y015500D01*
X040966Y015500D01*
X039234Y017232D01*
X036045Y017232D01*
X034982Y018295D01*
X033013Y018295D01*
X032895Y018413D01*
X036478Y018177D02*
X037305Y017350D01*
X038604Y017350D01*
X039037Y017783D01*
X039061Y017799D01*
X038643Y018374D02*
X039037Y018768D01*
X039061Y018799D01*
X038643Y018374D02*
X037069Y018374D01*
X036754Y018689D01*
X037029Y018965D02*
X037187Y018807D01*
X038053Y018807D01*
X038061Y018799D01*
X038053Y017823D02*
X037344Y017823D01*
X037029Y018138D01*
X038053Y017823D02*
X038061Y017799D01*
X039234Y019240D02*
X040257Y018217D01*
X042265Y017508D02*
X042265Y016524D01*
X042817Y015972D01*
X042839Y015954D01*
X043722Y020500D02*
X049943Y020500D01*
X050572Y021130D01*
X055415Y021130D01*
X056714Y022429D01*
X055494Y023571D02*
X055336Y023728D01*
X043880Y023728D01*
X044116Y023217D02*
X043880Y022980D01*
X042856Y022980D01*
X042839Y022954D01*
X043289Y024358D02*
X054943Y024358D01*
X055257Y024673D01*
X060887Y024673D01*
X061478Y025264D01*
X061482Y025276D01*
X061482Y026276D02*
X061478Y026287D01*
X055297Y026287D01*
X054943Y025933D01*
X047935Y025933D01*
X047659Y026209D01*
X045415Y026209D01*
X045179Y025972D01*
X044903Y025972D01*
X044895Y025970D01*
X044864Y025933D01*
X044667Y025736D01*
X044155Y025736D01*
X043643Y025461D02*
X044864Y025461D01*
X044895Y025470D01*
X044903Y025500D01*
X045061Y025500D01*
X045454Y025894D01*
X045257Y026209D02*
X043210Y026209D01*
X043013Y026406D01*
X040848Y026406D01*
X040179Y025736D01*
X039982Y025500D02*
X039116Y026366D01*
X039391Y027350D02*
X040415Y026327D01*
X040651Y026563D02*
X039431Y027783D01*
X039076Y027783D01*
X039061Y027799D01*
X039431Y028177D02*
X041635Y028177D01*
X041832Y027980D01*
X041839Y027954D01*
X042423Y028531D02*
X042817Y028925D01*
X042839Y028954D01*
X042423Y028531D02*
X038565Y028531D01*
X038328Y028768D02*
X038289Y028728D01*
X038328Y028768D02*
X041675Y028768D01*
X041832Y028925D01*
X041839Y028954D01*
X040179Y029319D02*
X027895Y029319D01*
X027817Y030224D02*
X026793Y029201D01*
X026399Y029437D02*
X025435Y030402D01*
X024667Y029949D02*
X024588Y029949D01*
X024155Y030382D01*
X024155Y030402D01*
X026793Y028650D02*
X033565Y028650D01*
X033328Y030224D02*
X027817Y030224D01*
X028131Y031091D02*
X028683Y031642D01*
X032974Y031642D01*
X032777Y031445D01*
X032974Y031642D02*
X033328Y031996D01*
X033840Y031996D01*
X034313Y031484D02*
X042935Y031484D01*
X043210Y031209D01*
X045651Y031209D01*
X045651Y031996D01*
X046202Y032547D01*
X053919Y032547D01*
X054785Y031681D01*
X055100Y031681D01*
X056950Y033531D01*
X054785Y033098D02*
X051872Y033098D01*
X052069Y034201D02*
X053643Y034201D01*
X056517Y037075D01*
X057580Y037075D01*
X058171Y037665D01*
X055257Y037350D02*
X055179Y037272D01*
X051242Y037272D01*
X050809Y037705D01*
X048328Y037705D01*
X047502Y036878D01*
X021439Y036878D01*
X021124Y036563D01*
X021120Y036531D01*
X021124Y035539D02*
X022344Y036760D01*
X047895Y036760D01*
X048486Y037350D01*
X048683Y037154D01*
X052462Y037154D01*
X053683Y035933D01*
X053604Y034673D02*
X052620Y034673D01*
X053171Y034437D02*
X050376Y034437D01*
X048486Y036327D01*
X048486Y036350D01*
X046714Y033295D02*
X044116Y035894D01*
X030730Y035894D01*
X030100Y035657D02*
X029470Y035028D01*
X029454Y034996D01*
X030100Y035657D02*
X043998Y035657D01*
X046872Y032783D01*
X045966Y032665D02*
X043761Y034870D01*
X039470Y034870D01*
X038958Y034358D01*
X038943Y034358D01*
X037383Y032941D02*
X036557Y033768D01*
X036202Y032823D02*
X035376Y033650D01*
X033053Y033650D01*
X032856Y033846D01*
X032856Y034634D01*
X033214Y034634D01*
X033486Y032823D02*
X035848Y032823D01*
X036202Y032823D02*
X043289Y032823D01*
X044667Y031445D01*
X045218Y030421D02*
X044391Y029594D01*
X044588Y027941D02*
X044864Y027941D01*
X044895Y027970D01*
X044588Y027941D02*
X044391Y027744D01*
X044864Y026957D02*
X044895Y026970D01*
X044864Y026957D02*
X044628Y026720D01*
X044155Y026720D01*
X043643Y026445D02*
X044864Y026445D01*
X044895Y026470D01*
X045257Y026209D02*
X045376Y026327D01*
X046872Y026327D01*
X046990Y026445D01*
X046998Y026470D01*
X047029Y025972D02*
X046998Y025970D01*
X047029Y025972D02*
X047541Y025972D01*
X046990Y025500D02*
X046998Y025470D01*
X046990Y025500D02*
X046754Y025736D01*
X046478Y025736D01*
X046596Y025264D02*
X045297Y025264D01*
X045257Y025224D01*
X043171Y025224D01*
X042895Y025500D01*
X039982Y025500D01*
X039391Y027350D02*
X038525Y027350D01*
X038092Y027783D01*
X038061Y027799D01*
X033210Y024240D02*
X033013Y024358D01*
X027580Y023335D02*
X027108Y023335D01*
X027078Y023348D01*
X027078Y023604D02*
X027108Y023610D01*
X027147Y023650D01*
X019549Y028768D02*
X019194Y028413D01*
X016478Y030776D02*
X019234Y033531D01*
X021120Y033531D01*
X018998Y031760D02*
X018053Y030815D01*
X018037Y030815D01*
X018998Y031760D02*
X032423Y031760D01*
X033131Y032469D01*
X033486Y032823D01*
X030612Y031091D02*
X030297Y031406D01*
X037383Y032941D02*
X045139Y032941D01*
X045691Y032390D01*
X050533Y030736D02*
X053171Y030736D01*
X054667Y031445D02*
X053801Y032311D01*
X052935Y031878D02*
X051635Y031878D01*
X054667Y031445D02*
X056045Y031445D01*
X056675Y030815D01*
X056478Y029240D02*
X056006Y028768D01*
X050257Y028768D01*
X051360Y027705D02*
X054076Y027705D01*
X056006Y027705D01*
X055139Y026484D02*
X054391Y026484D01*
X054076Y026169D01*
X053565Y026169D02*
X053289Y026445D01*
X049824Y026445D01*
X051084Y027429D02*
X051360Y027705D01*
X051045Y025500D02*
X053565Y025500D01*
X053840Y025224D01*
X053604Y024988D02*
X053565Y025028D01*
X053604Y024988D02*
X054076Y024988D01*
X054116Y025028D01*
X055927Y025028D01*
X056950Y026051D01*
X055021Y024791D02*
X052856Y024791D01*
X051872Y024791D01*
X051872Y025264D02*
X052502Y025264D01*
X052738Y025028D01*
X052856Y024791D02*
X053131Y024988D01*
X051045Y025500D02*
X050415Y024870D01*
X047502Y025224D02*
X046635Y025224D01*
X046596Y025264D01*
X046478Y025028D02*
X046950Y025028D01*
X046990Y024988D01*
X046998Y024970D01*
X045376Y022665D02*
X045376Y022350D01*
X045411Y022339D01*
X047069Y022035D02*
X047069Y021917D01*
X047069Y022035D02*
X047520Y022361D01*
X054638Y022361D01*
X054706Y022429D01*
X054893Y022182D02*
X054982Y022193D01*
X054893Y022182D02*
X047601Y022182D01*
X047498Y022118D01*
X047502Y021878D01*
X050336Y020539D02*
X051084Y019791D01*
X051754Y019791D01*
X052069Y019476D01*
X052580Y019476D01*
X053171Y018531D02*
X050533Y018531D01*
X050809Y016996D02*
X052108Y018295D01*
X056124Y018295D01*
X055978Y018516D01*
X056006Y018492D01*
X056006Y018413D01*
X056124Y018295D01*
X057895Y016524D01*
X056360Y016996D02*
X055848Y016484D01*
X050100Y016484D01*
X050494Y016878D02*
X050651Y016720D01*
X051399Y016720D01*
X054785Y020500D02*
X056832Y018453D01*
X054785Y020500D02*
X053958Y020500D01*
X054667Y020736D02*
X051754Y020736D01*
X053840Y023492D02*
X055218Y023492D01*
X055494Y023571D02*
X060809Y023571D01*
X061478Y024240D01*
X061482Y024276D01*
X053604Y034673D02*
X055257Y036327D01*
X055257Y036350D01*
X040454Y038413D02*
X039785Y039083D01*
X026872Y039083D01*
X026478Y038689D01*
X026462Y038661D01*
X021124Y035539D02*
X021120Y035531D01*
X041950Y020972D02*
X042502Y021524D01*
X041950Y020972D02*
X041872Y020972D01*
X041839Y020954D01*
X034470Y012587D02*
X032383Y014673D01*
X027974Y014673D01*
X027917Y014730D01*
X027895Y014713D01*
X027856Y014713D01*
X027856Y014398D01*
X028407Y013610D02*
X028407Y013098D01*
X028760Y013098D01*
X028761Y013098D01*
X028761Y011917D01*
X028013Y011917D02*
X028013Y012350D01*
X028013Y011917D02*
X028012Y011894D01*
X027974Y013098D02*
X027541Y013531D01*
X025809Y013374D02*
X025730Y013453D01*
X023407Y013453D01*
X023328Y013374D01*
X025572Y011248D02*
X024706Y010382D01*
X022108Y010382D01*
X021163Y009437D01*
X019008Y008800D02*
X018998Y008768D01*
X017541Y008768D01*
X017462Y008689D01*
X017462Y008673D01*
X016872Y009949D02*
X015218Y009949D01*
X014864Y010303D01*
X014839Y010327D01*
X016439Y011012D02*
X016832Y011012D01*
X017108Y010736D01*
X017127Y010709D01*
X017147Y010067D02*
X016872Y009949D01*
X017875Y010709D02*
X017895Y010736D01*
X017895Y011209D01*
X017974Y011209D01*
X017974Y012114D02*
X017698Y012390D01*
X016596Y012390D01*
X016281Y012705D01*
X015257Y012705D01*
X014864Y013098D01*
X014863Y013102D01*
X014588Y013492D02*
X014037Y012941D01*
X014588Y013492D02*
X016950Y013492D01*
X017069Y013374D01*
X017103Y013346D01*
X017851Y013346D02*
X017856Y013335D01*
X017856Y012587D01*
X014839Y011535D02*
X014824Y011563D01*
X014234Y011563D01*
X014037Y011760D01*
X010769Y013374D02*
X010730Y013335D01*
X008565Y013335D01*
X008210Y013689D01*
X008175Y013717D01*
X008171Y013728D01*
X005927Y015972D01*
X003565Y015972D01*
X003053Y016484D01*
X001793Y016720D02*
X014352Y016720D01*
X014785Y017154D01*
X014801Y017157D01*
X015257Y014752D02*
X014824Y014319D01*
X014863Y014311D01*
X010769Y009161D02*
X009352Y010579D01*
X006320Y010579D01*
X005612Y011287D01*
X005376Y011524D02*
X006458Y011524D01*
X005572Y010579D02*
X006124Y010028D01*
X006139Y010000D01*
X005218Y009437D02*
X010139Y009437D01*
X010179Y009398D01*
X010769Y009161D02*
X011754Y009161D01*
X011635Y008768D02*
X012974Y008768D01*
X012993Y008800D01*
X012226Y007862D02*
X014588Y007862D01*
X014509Y006406D02*
X015907Y006406D01*
X017108Y006406D02*
X017876Y006406D01*
X017147Y005933D02*
X012029Y005933D01*
X011990Y005224D02*
X011970Y005224D01*
X011950Y005224D01*
X011163Y006012D01*
X010376Y006012D01*
X010021Y006406D02*
X010002Y006406D01*
X010021Y006406D02*
X010533Y006917D01*
X010750Y006406D02*
X010769Y006406D01*
X012226Y007862D01*
X011557Y008685D02*
X011557Y008689D01*
X011635Y008768D01*
X011970Y006406D02*
X011202Y006406D01*
X011990Y005224D02*
X011990Y004043D01*
X011970Y004043D01*
X012718Y005224D02*
X012738Y005224D01*
X013013Y005500D01*
X017226Y005500D01*
X017147Y005933D02*
X017856Y005224D01*
X017876Y005224D01*
X017895Y005224D01*
X017895Y004043D01*
X017876Y004043D01*
X018643Y005224D02*
X019470Y004398D01*
X018643Y005224D02*
X018624Y005224D01*
X005218Y009437D02*
X004667Y009988D01*
X004639Y010000D01*
X005572Y010579D02*
X003525Y010579D01*
X002305Y011799D01*
X002305Y011811D01*
X004746Y014319D02*
X005336Y013728D01*
X004746Y014319D02*
X001163Y014319D01*
X001163Y016996D01*
X001714Y017547D01*
X001793Y016720D02*
X001714Y016642D01*
D40*
X003053Y016484D03*
X005809Y015736D03*
X010769Y013374D03*
X014037Y012941D03*
X014037Y011760D03*
X016439Y011012D03*
X016990Y011287D03*
X017305Y012154D03*
X017974Y012114D03*
X017856Y012587D03*
X016714Y012626D03*
X016006Y013925D03*
X015257Y014752D03*
X017580Y014004D03*
X017974Y011209D03*
X017147Y010067D03*
X016675Y010185D03*
X016675Y009161D03*
X014588Y007862D03*
X015218Y006839D03*
X014509Y006406D03*
X012698Y007626D03*
X011754Y009161D03*
X010179Y009398D03*
X009706Y010579D03*
X007147Y011996D03*
X005612Y011287D03*
X005376Y011524D03*
X010533Y006917D03*
X011202Y006406D03*
X010376Y006012D03*
X012029Y005933D03*
X015297Y002429D03*
X017226Y005500D03*
X018604Y005697D03*
X017108Y006406D03*
X021163Y009437D03*
X023131Y006839D03*
X023840Y006484D03*
X024194Y007075D03*
X025179Y007783D03*
X025415Y007508D03*
X026439Y007783D03*
X026242Y009516D03*
X026360Y010185D03*
X026202Y011012D03*
X024549Y011642D03*
X025809Y013374D03*
X025533Y014398D03*
X024746Y015224D03*
X025061Y015776D03*
X025061Y016287D03*
X024431Y016051D03*
X025061Y017823D03*
X026557Y018650D03*
X028407Y017862D03*
X028683Y017311D03*
X028407Y016996D03*
X027423Y016760D03*
X026675Y016484D03*
X026911Y015815D03*
X028919Y014949D03*
X028683Y014437D03*
X027856Y014398D03*
X028407Y013610D03*
X027541Y013531D03*
X027502Y012783D03*
X031360Y015776D03*
X032383Y016524D03*
X032856Y017114D03*
X031832Y017547D03*
X031478Y017665D03*
X031124Y018059D03*
X030887Y017823D03*
X029943Y018295D03*
X030887Y018768D03*
X030415Y018886D03*
X031163Y019988D03*
X032305Y020421D03*
X034037Y020657D03*
X034628Y021248D03*
X034391Y022154D03*
X035454Y021917D03*
X036675Y021799D03*
X036006Y020382D03*
X037029Y018965D03*
X036754Y018689D03*
X036478Y018177D03*
X037029Y018138D03*
X034982Y017941D03*
X035021Y017547D03*
X034982Y016642D03*
X035218Y016169D03*
X034116Y016524D03*
X033880Y016248D03*
X033880Y017469D03*
X032698Y017705D03*
X032777Y018177D03*
X032777Y018768D03*
X032147Y018768D03*
X033880Y018531D03*
X030887Y017193D03*
X032383Y014673D03*
X034470Y012587D03*
X036124Y013610D03*
X036360Y014004D03*
X036596Y016169D03*
X037029Y016169D03*
X039943Y015500D03*
X040848Y014949D03*
X041360Y014516D03*
X040612Y012075D03*
X041084Y011248D03*
X039864Y011012D03*
X041084Y009004D03*
X039903Y007980D03*
X039903Y006957D03*
X040257Y006051D03*
X038840Y007705D03*
X038840Y008217D03*
X035572Y009358D03*
X035179Y009043D03*
X033801Y009831D03*
X033131Y009122D03*
X032974Y008295D03*
X032147Y009004D03*
X031872Y008768D03*
X031872Y008020D03*
X030887Y007980D03*
X030494Y007941D03*
X030257Y008256D03*
X032777Y005854D03*
X032423Y005146D03*
X034037Y005618D03*
X034746Y006169D03*
X034746Y007508D03*
X040139Y004398D03*
X039116Y002232D03*
X036399Y002154D03*
X043328Y002272D03*
X045730Y003177D03*
X044273Y004161D03*
X047069Y005736D03*
X044824Y007390D03*
X045100Y007744D03*
X046124Y007626D03*
X046124Y008177D03*
X046990Y007665D03*
X047147Y009161D03*
X048683Y009398D03*
X050572Y009594D03*
X049509Y011130D03*
X048683Y011602D03*
X048368Y011878D03*
X047698Y011366D03*
X050415Y012547D03*
X050415Y013650D03*
X052423Y012941D03*
X052974Y012823D03*
X053446Y012862D03*
X053919Y012941D03*
X055021Y012626D03*
X054746Y013650D03*
X052502Y014673D03*
X051399Y016720D03*
X050809Y016996D03*
X050494Y016878D03*
X050100Y016484D03*
X050533Y018531D03*
X051754Y019791D03*
X052580Y019476D03*
X053171Y018531D03*
X053958Y020500D03*
X054667Y020736D03*
X054785Y021366D03*
X054982Y022193D03*
X054706Y022429D03*
X055218Y023492D03*
X053840Y023492D03*
X055021Y024791D03*
X053840Y025224D03*
X053565Y025028D03*
X053131Y024988D03*
X052738Y025028D03*
X051872Y025264D03*
X051872Y024791D03*
X050966Y024791D03*
X050415Y024870D03*
X049824Y026445D03*
X051084Y027429D03*
X050257Y028768D03*
X050533Y030736D03*
X051635Y031878D03*
X052935Y031878D03*
X053801Y032311D03*
X054785Y031681D03*
X055376Y030776D03*
X056675Y030815D03*
X056478Y029240D03*
X056006Y027705D03*
X055139Y026484D03*
X054076Y026169D03*
X053565Y026169D03*
X054076Y027705D03*
X056950Y026051D03*
X056714Y022429D03*
X052580Y021563D03*
X051754Y020736D03*
X050336Y020539D03*
X047502Y019752D03*
X047108Y019752D03*
X047502Y021878D03*
X047069Y021917D03*
X045376Y022862D03*
X045139Y023453D03*
X046084Y023492D03*
X046360Y024594D03*
X046478Y025028D03*
X046478Y025736D03*
X046281Y026720D03*
X046360Y027232D03*
X046202Y027705D03*
X045730Y027980D03*
X045415Y028531D03*
X045179Y029122D03*
X044391Y029594D03*
X043289Y029673D03*
X044667Y031445D03*
X045415Y031445D03*
X045691Y032390D03*
X045966Y032665D03*
X046872Y032783D03*
X046714Y033295D03*
X051872Y033098D03*
X052069Y034201D03*
X052620Y034673D03*
X053171Y034437D03*
X053171Y033965D03*
X054785Y033571D03*
X054785Y033098D03*
X056950Y033531D03*
X053683Y035933D03*
X053998Y030776D03*
X053171Y030736D03*
X046950Y028807D03*
X044391Y027744D03*
X044155Y026720D03*
X043643Y026445D03*
X044155Y025736D03*
X043643Y025461D03*
X043289Y024358D03*
X043880Y023728D03*
X044116Y023217D03*
X045415Y024594D03*
X045454Y025894D03*
X047541Y025972D03*
X047502Y025224D03*
X043840Y021563D03*
X042502Y021524D03*
X040730Y019476D03*
X040257Y018217D03*
X043565Y018256D03*
X040415Y023768D03*
X040179Y024319D03*
X041439Y024476D03*
X040179Y025736D03*
X040415Y026327D03*
X040651Y026563D03*
X039431Y028177D03*
X038565Y028531D03*
X038289Y028728D03*
X040179Y029319D03*
X034824Y031760D03*
X033840Y031996D03*
X033131Y032469D03*
X032777Y031445D03*
X032777Y031091D03*
X033328Y030224D03*
X033761Y030264D03*
X034155Y030343D03*
X031872Y029870D03*
X031202Y029988D03*
X031439Y030461D03*
X030297Y030618D03*
X030297Y029949D03*
X029470Y029555D03*
X027895Y029319D03*
X026793Y029201D03*
X026399Y029437D03*
X026793Y028650D03*
X024667Y029949D03*
X024903Y030618D03*
X022698Y028965D03*
X019549Y028768D03*
X015336Y029004D03*
X012069Y028413D03*
X012344Y026012D03*
X014313Y025854D03*
X014549Y024594D03*
X012069Y023571D03*
X012344Y022980D03*
X012069Y022744D03*
X010651Y022941D03*
X010061Y022547D03*
X009470Y022232D03*
X010651Y024555D03*
X014313Y023138D03*
X014549Y022902D03*
X014313Y021130D03*
X015494Y020343D03*
X021832Y022232D03*
X023880Y024673D03*
X024116Y024909D03*
X024037Y025933D03*
X026124Y025697D03*
X026399Y025421D03*
X027580Y024831D03*
X028210Y025421D03*
X028525Y026169D03*
X029037Y026169D03*
X029549Y026169D03*
X030730Y025697D03*
X031202Y025343D03*
X031596Y025264D03*
X030533Y025106D03*
X030533Y024752D03*
X029509Y025146D03*
X028958Y023886D03*
X028958Y023374D03*
X028210Y022941D03*
X028683Y022665D03*
X027580Y023335D03*
X027305Y022587D03*
X026399Y022665D03*
X025966Y022665D03*
X027580Y026406D03*
X029234Y028059D03*
X029509Y028295D03*
X030730Y028295D03*
X031950Y028138D03*
X033210Y028413D03*
X033565Y028650D03*
X033643Y028138D03*
X031990Y027193D03*
X032265Y026563D03*
X033171Y025933D03*
X033643Y025500D03*
X034194Y025461D03*
X033210Y024240D03*
X032856Y024594D03*
X032541Y021917D03*
X036832Y023650D03*
X028131Y031091D03*
X030297Y031406D03*
X035848Y032823D03*
X036557Y033768D03*
X030730Y035894D03*
X027974Y036524D03*
X040454Y038413D03*
X041950Y038217D03*
X056832Y018453D03*
X056360Y016996D03*
X057895Y016524D03*
X052029Y012390D03*
X051163Y011524D03*
X052541Y009949D03*
X052974Y009713D03*
X053328Y009713D03*
X054509Y009713D03*
X057108Y008453D03*
X052698Y007587D03*
X057935Y003098D03*
X057383Y002272D03*
X043801Y008689D03*
X044037Y009201D03*
X043801Y009516D03*
X044037Y011012D03*
X043525Y011878D03*
X042620Y007469D03*
X026911Y004634D03*
X025572Y006248D03*
X024667Y004634D03*
X023131Y004161D03*
X021872Y017350D03*
D41*
X005691Y003256D02*
X003880Y005067D01*
X002305Y005067D01*
X002305Y005102D01*
X002305Y007102D02*
X002305Y007114D01*
X004706Y007114D01*
X004746Y007154D01*
X004789Y007156D01*
X004824Y007193D01*
X007147Y007193D01*
X007153Y007216D01*
X007226Y008138D02*
X007187Y008177D01*
X007153Y008216D01*
X007108Y008217D01*
X004864Y008217D01*
X004824Y008177D01*
X004789Y008156D01*
X007226Y008138D02*
X010297Y008138D01*
X010317Y008157D01*
X010336Y008138D01*
X016202Y008138D01*
X016714Y008650D01*
X016714Y008673D01*
X016675Y008689D01*
X016675Y009161D01*
X016281Y009791D02*
X017462Y009791D01*
X018998Y011327D01*
X018998Y011366D01*
X018210Y011366D01*
X017895Y011681D01*
X017875Y011693D01*
X017856Y011720D01*
X017738Y011720D01*
X017305Y012154D01*
X017108Y011720D02*
X017127Y011693D01*
X017108Y011720D02*
X016793Y012035D01*
X012029Y012035D01*
X011360Y011366D01*
X011342Y011332D01*
X011320Y011366D01*
X007383Y011366D01*
X007226Y011524D01*
X007206Y011524D01*
X007187Y011563D01*
X007147Y011563D01*
X007147Y011996D01*
X007187Y013335D02*
X005100Y013335D01*
X004706Y013728D01*
X002580Y013098D02*
X010887Y013098D01*
X011320Y013531D01*
X011361Y013552D01*
X011399Y013571D01*
X011478Y013650D01*
X016399Y013650D01*
X017069Y014319D01*
X017103Y014331D01*
X017147Y014319D01*
X018092Y015264D01*
X024313Y015264D01*
X025100Y014476D01*
X025533Y014476D01*
X025533Y014398D01*
X025533Y014476D02*
X026832Y014476D01*
X027580Y015224D01*
X027895Y015224D01*
X027917Y015242D01*
X027935Y015224D01*
X029549Y015224D01*
X029667Y015106D01*
X029667Y015087D01*
X029706Y015106D01*
X030139Y015539D01*
X030139Y015776D01*
X031360Y015776D01*
X030139Y015776D02*
X030139Y016484D01*
X029155Y016484D01*
X029155Y016524D01*
X029667Y017035D01*
X029667Y017055D01*
X029470Y017587D02*
X028289Y017587D01*
X028250Y017547D01*
X027935Y017547D01*
X027917Y017545D01*
X027895Y017547D01*
X027580Y017547D01*
X026832Y016799D01*
X026832Y016760D01*
X025612Y016760D01*
X025574Y016778D01*
X025533Y016799D01*
X024155Y016799D01*
X023171Y017783D01*
X023151Y017799D01*
X023131Y017823D01*
X022187Y017823D01*
X022151Y017799D01*
X022108Y017823D01*
X020021Y017823D01*
X018919Y018925D01*
X018895Y018933D01*
X018880Y018925D01*
X018210Y018256D01*
X016793Y018256D01*
X016793Y021209D01*
X016757Y021236D01*
X015454Y022469D02*
X014588Y022469D01*
X014352Y022705D01*
X012069Y022705D01*
X012069Y022744D01*
X012069Y022705D02*
X011832Y022705D01*
X011754Y022783D01*
X011734Y022783D01*
X011832Y022665D01*
X011399Y022232D01*
X009470Y022232D01*
X009155Y021287D02*
X009757Y021236D01*
X009746Y021248D01*
X008210Y021248D01*
X006242Y023217D01*
X006214Y023224D01*
X006214Y022224D02*
X006202Y022193D01*
X004234Y022193D01*
X001714Y019673D01*
X001713Y019640D01*
X003943Y018177D02*
X004076Y018177D01*
X004726Y017528D01*
X004746Y017547D01*
X008446Y017547D01*
X009076Y018177D01*
X009100Y018177D01*
X010844Y018220D02*
X010848Y018217D01*
X011006Y018217D01*
X011655Y017567D01*
X011675Y017587D01*
X015336Y017587D01*
X015966Y018217D01*
X016002Y018220D01*
X016006Y018256D01*
X016793Y018256D01*
X014313Y021130D02*
X013250Y022193D01*
X013214Y022224D01*
X013214Y023224D02*
X013250Y023256D01*
X013407Y023413D01*
X015257Y023413D01*
X015257Y023965D01*
X015269Y023965D01*
X015643Y023965D02*
X015651Y023965D01*
X015651Y022862D01*
X015643Y022843D01*
X015612Y022823D01*
X015612Y022626D01*
X015454Y022469D01*
X013214Y023224D02*
X013210Y023256D01*
X012738Y023256D01*
X012738Y026878D01*
X012757Y026898D01*
X011990Y027665D01*
X011950Y027862D01*
X011950Y027665D01*
X010769Y026484D01*
X010769Y027862D02*
X011281Y028374D01*
X012069Y028374D01*
X012069Y028413D01*
X012069Y028374D02*
X014037Y028374D01*
X014175Y028236D01*
X017856Y031917D01*
X022423Y031917D01*
X025927Y035421D01*
X025943Y035445D01*
X025966Y035461D01*
X027029Y036524D01*
X027974Y036524D01*
X029982Y038138D02*
X031006Y038138D01*
X031439Y037705D01*
X031462Y037661D01*
X031478Y037626D01*
X031635Y037469D01*
X033407Y037469D01*
X033443Y037443D01*
X033214Y035264D02*
X031754Y035264D01*
X030494Y034004D01*
X030454Y033996D01*
X030454Y034004D01*
X029470Y034004D01*
X029454Y033996D01*
X029431Y033965D01*
X026478Y033965D01*
X025966Y033453D01*
X025943Y033445D01*
X024943Y030618D02*
X024903Y030618D01*
X024943Y030618D02*
X024943Y029673D01*
X024155Y029673D01*
X024155Y029654D01*
X024943Y029673D02*
X025415Y029673D01*
X025435Y029654D01*
X028092Y026917D02*
X029234Y028059D01*
X029470Y029555D02*
X031557Y029555D01*
X031872Y029870D01*
X033210Y028413D02*
X033368Y028413D01*
X033643Y028138D01*
X029785Y025264D02*
X029785Y024870D01*
X027580Y024870D01*
X027580Y024831D01*
X027580Y024870D02*
X027108Y024870D01*
X027078Y024884D01*
X027069Y024870D01*
X026635Y024870D01*
X026202Y024870D01*
X025691Y025382D01*
X024746Y025382D01*
X024736Y025396D01*
X024736Y025652D02*
X024746Y025657D01*
X025533Y025657D01*
X025533Y025697D01*
X026754Y026917D01*
X028092Y026917D01*
X027423Y026169D02*
X027108Y026169D01*
X027078Y026163D01*
X027423Y026169D02*
X027895Y025697D01*
X029352Y025697D01*
X029785Y025264D01*
X029509Y025146D02*
X027108Y025146D01*
X027078Y025140D01*
X027069Y025146D01*
X026202Y025146D01*
X025691Y025657D01*
X025533Y025657D01*
X026635Y024870D02*
X026635Y024240D01*
X026754Y024122D01*
X027069Y024122D01*
X027078Y024116D01*
X027108Y023886D02*
X027078Y023860D01*
X027108Y023886D02*
X028958Y023886D01*
X028683Y022665D02*
X028683Y022193D01*
X028486Y022193D01*
X028466Y022154D01*
X028486Y022154D01*
X028486Y021012D01*
X028466Y020972D01*
X030179Y020972D01*
X031163Y019988D01*
X032147Y018768D02*
X032777Y018768D01*
X032580Y017862D02*
X031635Y017862D01*
X031517Y017665D01*
X031478Y017665D01*
X031832Y017547D02*
X031911Y017469D01*
X032462Y017469D01*
X032817Y017114D01*
X032856Y017114D01*
X034628Y017114D01*
X035021Y017547D01*
X034982Y017941D02*
X034509Y017469D01*
X033880Y017469D01*
X032698Y017705D02*
X032580Y017862D01*
X031990Y016917D02*
X030572Y016917D01*
X029706Y017783D01*
X029667Y017803D01*
X029667Y017783D01*
X029470Y017587D01*
X029155Y016524D02*
X027935Y016524D01*
X027917Y016522D01*
X027895Y016287D02*
X027502Y016287D01*
X027029Y016760D01*
X026832Y016760D01*
X026281Y017429D02*
X026281Y020500D01*
X028013Y020500D01*
X028486Y020972D01*
X028466Y020972D01*
X027738Y020972D02*
X027718Y020972D01*
X027738Y020972D02*
X027738Y022154D01*
X027718Y022154D01*
X027698Y022193D01*
X027305Y022587D01*
X026281Y017429D02*
X025887Y017035D01*
X025612Y017035D01*
X025574Y017033D01*
X027895Y016287D02*
X027917Y016266D01*
X027935Y016248D01*
X028250Y016248D01*
X028958Y015539D01*
X028958Y015500D01*
X027935Y015500D01*
X027917Y015498D01*
X028958Y015500D02*
X029352Y015500D01*
X029667Y015815D01*
X029667Y015835D01*
X031990Y016917D02*
X032383Y016524D01*
X026472Y013071D02*
X026439Y013098D01*
X025297Y013098D01*
X025268Y013071D01*
X025218Y013059D01*
X024824Y012665D01*
X024824Y011366D01*
X023604Y011366D01*
X023171Y011799D01*
X023151Y011799D01*
X023131Y011839D01*
X022698Y012272D01*
X019628Y012272D01*
X018210Y013689D01*
X017502Y013689D01*
X017502Y013374D01*
X017477Y013346D01*
X017462Y013335D01*
X017462Y012980D01*
X016714Y012980D01*
X016714Y012626D01*
X016714Y012980D02*
X015730Y012980D01*
X015612Y013098D01*
X015611Y013102D01*
X015966Y013925D02*
X016006Y013925D01*
X015966Y013925D02*
X015612Y014280D01*
X015611Y014311D01*
X017580Y014004D02*
X017856Y014280D01*
X017851Y014331D01*
X017856Y014319D01*
X018604Y013571D01*
X020336Y013571D01*
X020361Y013552D01*
X020336Y011366D02*
X018998Y011366D01*
X020336Y011366D02*
X020342Y011332D01*
X017501Y010709D02*
X017462Y010697D01*
X017462Y010343D01*
X016675Y010343D01*
X016675Y010185D01*
X016675Y010343D02*
X015612Y010343D01*
X015587Y010327D01*
X016281Y009791D02*
X015297Y008807D01*
X015258Y008800D01*
X015218Y006839D02*
X016202Y006839D01*
X016635Y006406D01*
X016655Y006406D01*
X018604Y006406D02*
X018604Y005697D01*
X018604Y006406D02*
X018624Y006406D01*
X018624Y004043D02*
X018643Y004004D01*
X020257Y004004D01*
X022305Y001957D01*
X022313Y001945D01*
X018624Y004043D02*
X018604Y004043D01*
X018053Y003492D01*
X015809Y003492D01*
X015336Y003020D01*
X015313Y002988D01*
X015297Y002941D01*
X015297Y002429D01*
X015313Y002988D02*
X015297Y003020D01*
X013761Y003020D01*
X013151Y003630D01*
X013131Y003610D01*
X009982Y003610D01*
X009391Y003020D01*
X009364Y002988D01*
X009313Y002980D01*
X009076Y003217D01*
X005730Y003217D01*
X005706Y003228D01*
X005691Y003256D01*
X009352Y002980D02*
X009352Y001327D01*
X009273Y001327D01*
X009243Y001300D01*
X010493Y001300D02*
X010572Y001327D01*
X011714Y001327D01*
X011743Y001300D01*
X011754Y001327D01*
X012383Y001957D01*
X016517Y001957D01*
X016517Y002980D01*
X016494Y002988D01*
X016517Y001957D02*
X016517Y001327D01*
X016508Y001300D01*
X016557Y001327D01*
X017738Y001327D01*
X017758Y001300D01*
X013151Y003630D02*
X012738Y004043D01*
X012718Y004043D01*
X010545Y002988D02*
X010533Y002980D01*
X010533Y001327D01*
X010494Y001327D01*
X010493Y001300D01*
X009352Y002980D02*
X009364Y002988D01*
X012698Y006406D02*
X012718Y006406D01*
X012698Y006406D02*
X012698Y007114D01*
X024116Y007114D01*
X024155Y007075D01*
X024194Y007075D01*
X024352Y007232D01*
X025848Y007232D01*
X026399Y007783D01*
X026439Y007783D01*
X026439Y008295D01*
X026405Y008321D01*
X026635Y008335D02*
X026635Y008768D01*
X025887Y008768D01*
X025887Y008335D01*
X025893Y008321D01*
X025887Y008768D02*
X025887Y009909D01*
X025730Y009909D01*
X025702Y009913D01*
X025927Y009909D01*
X026872Y009909D01*
X026878Y009923D01*
X026911Y009909D01*
X028053Y009909D01*
X028078Y009891D01*
X028092Y010618D02*
X028078Y010639D01*
X028096Y010657D01*
X028446Y010657D01*
X030612Y008492D01*
X032462Y008492D01*
X033092Y009122D01*
X033131Y009122D01*
X034746Y007508D01*
X032974Y008295D02*
X030809Y008295D01*
X030494Y007980D01*
X030494Y007941D01*
X030415Y007862D01*
X028053Y007862D01*
X026793Y007862D01*
X026714Y007941D01*
X026675Y007941D01*
X026675Y008295D01*
X026661Y008321D01*
X026635Y008335D01*
X027685Y008321D02*
X027698Y008335D01*
X027895Y008335D01*
X027941Y008321D01*
X027974Y008295D01*
X027974Y007941D01*
X028053Y007862D01*
X027685Y005467D02*
X027698Y005461D01*
X027698Y005028D01*
X028880Y005028D01*
X031872Y008020D01*
X031872Y008768D02*
X031872Y009831D01*
X031832Y009831D01*
X030572Y011091D01*
X026202Y011091D01*
X026202Y011012D01*
X026202Y011091D02*
X026124Y011091D01*
X025730Y010697D01*
X025702Y010661D01*
X026360Y010185D02*
X026832Y010657D01*
X026872Y010657D01*
X026878Y010671D01*
X026911Y010657D01*
X028053Y010657D01*
X028078Y010639D01*
X028092Y010618D02*
X028131Y010618D01*
X031872Y009831D02*
X033801Y009831D01*
X033840Y009831D01*
X034273Y010264D01*
X040415Y010264D01*
X041950Y008728D01*
X043250Y008728D01*
X043287Y008715D01*
X043289Y008689D01*
X043801Y008689D01*
X043643Y008453D02*
X044076Y008020D01*
X045179Y008020D01*
X045179Y009083D01*
X045297Y009201D01*
X045612Y009201D01*
X045630Y009226D01*
X045651Y009240D01*
X045966Y009240D01*
X046320Y009594D01*
X047856Y009594D01*
X047954Y009693D01*
X047974Y009673D01*
X048958Y009673D01*
X048958Y009358D01*
X051320Y006996D01*
X051320Y006957D01*
X051872Y006957D01*
X051872Y006961D01*
X051911Y006996D01*
X052108Y006996D01*
X052698Y007587D01*
X051320Y006957D02*
X051320Y003177D01*
X051439Y003059D01*
X051675Y003059D01*
X051872Y002862D01*
X051872Y002827D01*
X051911Y002862D01*
X052108Y002862D01*
X052620Y003374D01*
X058486Y003374D01*
X058525Y003413D01*
X058572Y003417D01*
X058604Y003453D01*
X058801Y003650D01*
X059116Y003650D01*
X061124Y005657D01*
X061163Y005677D01*
X061163Y005697D01*
X060907Y005953D01*
X060927Y005972D01*
X061517Y005972D01*
X061517Y006642D01*
X061439Y006720D01*
X061163Y006720D01*
X061163Y007783D01*
X060376Y008177D02*
X060376Y006957D01*
X060572Y006957D01*
X061163Y006366D01*
X061163Y006346D01*
X060907Y005953D02*
X060494Y006366D01*
X058604Y006366D01*
X058572Y006370D01*
X058604Y006957D02*
X058572Y006961D01*
X058565Y006996D01*
X058565Y007508D01*
X058572Y007551D01*
X058565Y007587D01*
X058407Y007587D01*
X055257Y010736D01*
X055238Y010736D01*
X055218Y010776D01*
X054470Y011524D01*
X051163Y011524D01*
X052521Y010736D02*
X052541Y010736D01*
X052541Y009949D01*
X048683Y009398D02*
X048486Y009201D01*
X048210Y009201D01*
X048171Y009181D01*
X048171Y009161D01*
X047147Y009161D01*
X047954Y009693D02*
X048171Y009909D01*
X048171Y009929D01*
X046124Y008177D02*
X045651Y008177D01*
X045630Y008203D01*
X045630Y007947D02*
X045612Y007941D01*
X045297Y007941D01*
X045218Y008020D01*
X045179Y008020D01*
X045630Y007947D02*
X045651Y007941D01*
X045966Y007941D01*
X046006Y007902D01*
X046242Y007902D01*
X046911Y007232D01*
X046911Y007193D01*
X045651Y007193D01*
X045630Y007179D01*
X045630Y006923D02*
X045612Y006917D01*
X045297Y006917D01*
X044824Y007390D01*
X045630Y006923D02*
X045651Y006917D01*
X046202Y006917D01*
X048092Y006917D01*
X048171Y006996D01*
X048171Y007016D01*
X048525Y006602D02*
X048643Y006720D01*
X048643Y007705D01*
X048171Y007705D01*
X048171Y007764D01*
X048171Y007744D01*
X048131Y007744D01*
X047580Y007193D01*
X046911Y007193D01*
X047108Y006602D02*
X048525Y006602D01*
X047108Y006602D02*
X045100Y004594D01*
X045080Y004555D01*
X044273Y004555D01*
X044273Y004161D01*
X044273Y004555D02*
X043777Y004555D01*
X043328Y003453D02*
X043328Y005894D01*
X046124Y005894D01*
X046202Y005972D01*
X046202Y006917D01*
X043643Y008453D02*
X043289Y008453D01*
X043287Y008459D01*
X043089Y012705D02*
X047383Y012705D01*
X049352Y014673D01*
X052502Y014673D01*
X043089Y012705D02*
X042839Y012954D01*
X041872Y015933D02*
X041839Y015954D01*
X041839Y017954D02*
X041832Y017980D01*
X040454Y019358D01*
X040454Y020382D01*
X040474Y020402D01*
X040533Y020461D01*
X042108Y020461D01*
X042614Y019954D01*
X042839Y019954D01*
X042817Y019949D01*
X040474Y020402D02*
X039076Y021799D01*
X039061Y021799D01*
X038061Y021799D02*
X036675Y021799D01*
X041439Y024476D02*
X043013Y024476D01*
X043171Y024634D01*
X044549Y024634D01*
X044864Y024949D01*
X044895Y024970D01*
X044903Y024949D01*
X045061Y024949D01*
X045415Y024594D01*
X046360Y024594D02*
X050769Y024594D01*
X050966Y024791D01*
X052580Y021563D02*
X046911Y021563D01*
X046163Y022311D01*
X046159Y022339D01*
X045966Y023374D02*
X046084Y023492D01*
X045966Y023374D02*
X045769Y023374D01*
X045785Y023339D01*
X044895Y027470D02*
X044864Y027469D01*
X043328Y027469D01*
X042856Y027941D01*
X042839Y027954D01*
X044895Y028470D02*
X044903Y028492D01*
X044943Y028531D01*
X045415Y028531D01*
X043289Y029673D02*
X043289Y030421D01*
X042974Y030421D01*
X042954Y030441D01*
X043446Y030933D01*
X046399Y030933D01*
X046399Y030421D01*
X046399Y030933D02*
X046399Y031996D01*
X045415Y031996D02*
X045415Y031445D01*
X045415Y031996D02*
X045218Y031996D01*
X042954Y030441D02*
X042935Y030421D01*
X042305Y030421D01*
X041872Y029988D01*
X041839Y029954D01*
X039391Y033807D02*
X037738Y033807D01*
X037502Y034043D01*
X035691Y034043D01*
X035680Y034039D01*
X035651Y034004D01*
X033214Y034004D01*
X035691Y035264D02*
X035680Y035299D01*
X035691Y035264D02*
X037029Y035264D01*
X037935Y034358D01*
X037943Y034358D01*
X039391Y033807D02*
X039943Y034358D01*
X039943Y034358D01*
X039928Y037408D02*
X039943Y037429D01*
X040454Y037941D01*
X045218Y037941D01*
X045730Y037429D01*
X045750Y037408D01*
X048328Y038217D02*
X041950Y038217D01*
X041872Y038138D01*
X038643Y038138D01*
X037935Y037429D01*
X037928Y037408D01*
X029982Y038138D02*
X029470Y038650D01*
X029462Y038661D01*
X017643Y034965D02*
X017620Y034949D01*
X013919Y031248D01*
X013250Y031248D01*
X013214Y031224D01*
X014175Y028236D02*
X014549Y027862D01*
X014569Y027858D01*
X015730Y027823D02*
X015750Y027858D01*
X015769Y027626D01*
X016675Y026720D01*
X018486Y026720D01*
X019037Y027272D01*
X015730Y027626D02*
X015730Y027823D01*
X015730Y027626D02*
X014588Y026484D01*
X014553Y026457D01*
X014785Y026720D01*
X012935Y026720D01*
X012757Y026898D01*
X011734Y023906D02*
X012069Y023571D01*
X011911Y023335D02*
X011990Y023256D01*
X012738Y023256D01*
X011911Y023335D02*
X011360Y023335D01*
X009155Y023335D01*
X009155Y021287D01*
X011360Y023335D02*
X011360Y023906D01*
X011655Y017567D02*
X012029Y017193D01*
X012045Y017157D01*
X007545Y013717D02*
X007541Y013689D01*
X007187Y013335D01*
X005809Y015736D02*
X001714Y015736D01*
X004726Y017528D02*
X005139Y017114D01*
X005143Y017114D01*
X002580Y013098D02*
X002305Y012823D01*
X002305Y012811D01*
X009706Y010579D02*
X009982Y010854D01*
X014903Y010854D01*
X015572Y011524D01*
X015587Y011535D01*
X015612Y011524D01*
X015848Y011287D01*
X016990Y011287D01*
X012698Y007626D02*
X012698Y007114D01*
X010809Y008650D02*
X010809Y008685D01*
X010809Y008650D02*
X010317Y008157D01*
X024667Y004634D02*
X026911Y004634D01*
X026911Y005461D01*
X026917Y005467D01*
X035285Y001287D02*
X035297Y001287D01*
X035887Y001878D01*
X038722Y001878D01*
X039076Y002232D01*
X039116Y002232D01*
X043328Y002232D01*
X043328Y002272D01*
X043328Y002232D02*
X043722Y001839D01*
X043757Y001811D01*
X044943Y001839D02*
X044978Y001835D01*
X044943Y001839D02*
X043328Y003453D01*
X058604Y006957D02*
X060376Y006957D01*
X060376Y008177D02*
X061163Y008965D01*
X054785Y021366D02*
X054588Y021563D01*
X052580Y021563D01*
X053998Y030776D02*
X055376Y030776D01*
X054785Y033571D02*
X054391Y033965D01*
X053171Y033965D01*
X055139Y038256D02*
X050809Y038256D01*
X050399Y038665D01*
X050376Y038650D01*
X048761Y038650D01*
X048486Y038374D01*
X048486Y038350D01*
X048446Y038335D01*
X048328Y038217D01*
X055139Y038256D02*
X055218Y038335D01*
X055257Y038350D01*
X055257Y038374D01*
X055533Y038650D01*
X057147Y038650D01*
X057171Y038665D01*
M02*
