G75*
%MOIN*%
%OFA0B0*%
%FSLAX24Y24*%
%IPPOS*%
%LPD*%
%AMOC8*
5,1,8,0,0,1.08239X$1,22.5*
%
%ADD10C,0.0050*%
%ADD11C,0.0040*%
%ADD12C,0.0039*%
%ADD13C,0.0030*%
%ADD14C,0.0080*%
%ADD15C,0.0348*%
D10*
X016930Y010886D02*
X016930Y011516D01*
X018072Y011516D01*
X018072Y011201D01*
X018096Y011212D01*
X018121Y011220D01*
X018147Y011224D01*
X018173Y011225D01*
X018199Y011221D01*
X018224Y011214D01*
X018248Y011204D01*
X018271Y011190D01*
X018291Y011173D01*
X018308Y011153D01*
X018322Y011131D01*
X018333Y011107D01*
X018341Y011082D01*
X018345Y011056D01*
X018345Y011030D01*
X018341Y011004D01*
X018333Y010979D01*
X018322Y010955D01*
X018308Y010933D01*
X018291Y010913D01*
X018271Y010896D01*
X018248Y010882D01*
X018224Y010872D01*
X018199Y010865D01*
X018173Y010861D01*
X018147Y010862D01*
X018121Y010866D01*
X018096Y010874D01*
X018072Y010885D01*
X018072Y010886D02*
X016930Y010886D01*
X016906Y013524D02*
X016906Y014154D01*
X018048Y014154D01*
X018048Y013839D01*
X018072Y013850D01*
X018097Y013858D01*
X018123Y013862D01*
X018149Y013863D01*
X018175Y013859D01*
X018200Y013852D01*
X018224Y013842D01*
X018247Y013828D01*
X018267Y013811D01*
X018284Y013791D01*
X018298Y013769D01*
X018309Y013745D01*
X018317Y013720D01*
X018321Y013694D01*
X018321Y013668D01*
X018317Y013642D01*
X018309Y013617D01*
X018298Y013593D01*
X018284Y013571D01*
X018267Y013551D01*
X018247Y013534D01*
X018224Y013520D01*
X018200Y013510D01*
X018175Y013503D01*
X018149Y013499D01*
X018123Y013500D01*
X018097Y013504D01*
X018072Y013512D01*
X018048Y013523D01*
X018048Y013524D02*
X016906Y013524D01*
X025884Y014504D02*
X027617Y014504D01*
X027617Y018283D01*
X027617Y018284D02*
X027631Y018312D01*
X027642Y018343D01*
X027650Y018374D01*
X027654Y018406D01*
X027654Y018438D01*
X027650Y018470D01*
X027642Y018501D01*
X027631Y018532D01*
X027617Y018561D01*
X027599Y018587D01*
X027578Y018612D01*
X027555Y018634D01*
X027529Y018653D01*
X027501Y018670D01*
X027472Y018682D01*
X027441Y018692D01*
X027409Y018697D01*
X027377Y018699D01*
X027345Y018697D01*
X027313Y018692D01*
X027282Y018682D01*
X027253Y018670D01*
X027225Y018653D01*
X027199Y018634D01*
X027176Y018612D01*
X027155Y018587D01*
X027137Y018561D01*
X027123Y018532D01*
X027112Y018501D01*
X027104Y018470D01*
X027100Y018438D01*
X027100Y018406D01*
X027104Y018374D01*
X027112Y018343D01*
X027123Y018312D01*
X027137Y018284D01*
X027136Y018283D02*
X025884Y018283D01*
X025884Y014504D01*
X025046Y023122D02*
X026778Y023122D01*
X026778Y026902D01*
X026792Y026930D01*
X026803Y026961D01*
X026811Y026992D01*
X026815Y027024D01*
X026815Y027056D01*
X026811Y027088D01*
X026803Y027119D01*
X026792Y027150D01*
X026778Y027179D01*
X026760Y027205D01*
X026739Y027230D01*
X026716Y027252D01*
X026690Y027271D01*
X026662Y027288D01*
X026633Y027300D01*
X026602Y027310D01*
X026570Y027315D01*
X026538Y027317D01*
X026506Y027315D01*
X026474Y027310D01*
X026443Y027300D01*
X026414Y027288D01*
X026386Y027271D01*
X026360Y027252D01*
X026337Y027230D01*
X026316Y027205D01*
X026298Y027179D01*
X026284Y027150D01*
X026273Y027119D01*
X026265Y027088D01*
X026261Y027056D01*
X026261Y027024D01*
X026265Y026992D01*
X026273Y026961D01*
X026284Y026930D01*
X026298Y026902D01*
X025046Y026902D01*
X025046Y023122D01*
X015840Y023078D02*
X015864Y023067D01*
X015889Y023059D01*
X015915Y023055D01*
X015941Y023054D01*
X015967Y023058D01*
X015992Y023065D01*
X016016Y023075D01*
X016039Y023089D01*
X016059Y023106D01*
X016076Y023126D01*
X016090Y023148D01*
X016101Y023172D01*
X016109Y023197D01*
X016113Y023223D01*
X016113Y023249D01*
X016109Y023275D01*
X016101Y023300D01*
X016090Y023324D01*
X016076Y023346D01*
X016059Y023366D01*
X016039Y023383D01*
X016016Y023397D01*
X015992Y023407D01*
X015967Y023414D01*
X015941Y023418D01*
X015915Y023417D01*
X015889Y023413D01*
X015864Y023405D01*
X015840Y023394D01*
X015840Y023709D01*
X014698Y023709D01*
X014698Y023079D01*
X015840Y023079D01*
X011931Y023019D02*
X011955Y023008D01*
X011980Y023000D01*
X012006Y022996D01*
X012032Y022995D01*
X012058Y022999D01*
X012083Y023006D01*
X012107Y023016D01*
X012130Y023030D01*
X012150Y023047D01*
X012167Y023067D01*
X012181Y023089D01*
X012192Y023113D01*
X012200Y023138D01*
X012204Y023164D01*
X012204Y023190D01*
X012200Y023216D01*
X012192Y023241D01*
X012181Y023265D01*
X012167Y023287D01*
X012150Y023307D01*
X012130Y023324D01*
X012107Y023338D01*
X012083Y023348D01*
X012058Y023355D01*
X012032Y023359D01*
X012006Y023358D01*
X011980Y023354D01*
X011955Y023346D01*
X011931Y023335D01*
X011931Y023650D01*
X010789Y023650D01*
X010789Y023020D01*
X011931Y023020D01*
X043597Y009965D02*
X043597Y006185D01*
X045329Y006185D01*
X045329Y009965D01*
X045343Y009993D01*
X045354Y010024D01*
X045362Y010055D01*
X045366Y010087D01*
X045366Y010119D01*
X045362Y010151D01*
X045354Y010182D01*
X045343Y010213D01*
X045329Y010242D01*
X045311Y010268D01*
X045290Y010293D01*
X045267Y010315D01*
X045241Y010334D01*
X045213Y010351D01*
X045184Y010363D01*
X045153Y010373D01*
X045121Y010378D01*
X045089Y010380D01*
X045057Y010378D01*
X045025Y010373D01*
X044994Y010363D01*
X044965Y010351D01*
X044937Y010334D01*
X044911Y010315D01*
X044888Y010293D01*
X044867Y010268D01*
X044849Y010242D01*
X044835Y010213D01*
X044824Y010182D01*
X044816Y010151D01*
X044812Y010119D01*
X044812Y010087D01*
X044816Y010055D01*
X044824Y010024D01*
X044835Y009993D01*
X044849Y009965D01*
X043597Y009965D01*
X052072Y008043D02*
X052072Y001744D01*
X058372Y001744D01*
X058372Y008043D01*
X052072Y008043D01*
X057249Y007551D02*
X057251Y007578D01*
X057257Y007605D01*
X057266Y007631D01*
X057279Y007655D01*
X057295Y007678D01*
X057314Y007697D01*
X057336Y007714D01*
X057360Y007728D01*
X057385Y007738D01*
X057412Y007745D01*
X057439Y007748D01*
X057467Y007747D01*
X057494Y007742D01*
X057520Y007734D01*
X057544Y007722D01*
X057567Y007706D01*
X057588Y007688D01*
X057605Y007667D01*
X057620Y007643D01*
X057631Y007618D01*
X057639Y007592D01*
X057643Y007565D01*
X057643Y007537D01*
X057639Y007510D01*
X057631Y007484D01*
X057620Y007459D01*
X057605Y007435D01*
X057588Y007414D01*
X057567Y007396D01*
X057545Y007380D01*
X057520Y007368D01*
X057494Y007360D01*
X057467Y007355D01*
X057439Y007354D01*
X057412Y007357D01*
X057385Y007364D01*
X057360Y007374D01*
X057336Y007388D01*
X057314Y007405D01*
X057295Y007424D01*
X057279Y007447D01*
X057266Y007471D01*
X057257Y007497D01*
X057251Y007524D01*
X057249Y007551D01*
X046356Y022516D02*
X045214Y022516D01*
X045214Y023146D01*
X046356Y023146D01*
X046356Y022831D01*
X046380Y022842D01*
X046405Y022850D01*
X046431Y022854D01*
X046457Y022855D01*
X046483Y022851D01*
X046508Y022844D01*
X046532Y022834D01*
X046555Y022820D01*
X046575Y022803D01*
X046592Y022783D01*
X046606Y022761D01*
X046617Y022737D01*
X046625Y022712D01*
X046629Y022686D01*
X046629Y022660D01*
X046625Y022634D01*
X046617Y022609D01*
X046606Y022585D01*
X046592Y022563D01*
X046575Y022543D01*
X046555Y022526D01*
X046532Y022512D01*
X046508Y022502D01*
X046483Y022495D01*
X046457Y022491D01*
X046431Y022492D01*
X046405Y022496D01*
X046380Y022504D01*
X046356Y022515D01*
X046710Y024746D02*
X045175Y024746D01*
X045175Y028667D01*
X046317Y028667D01*
X046316Y028668D02*
X046303Y028694D01*
X046294Y028722D01*
X046288Y028751D01*
X046286Y028781D01*
X046288Y028811D01*
X046294Y028840D01*
X046303Y028868D01*
X046316Y028895D01*
X046333Y028919D01*
X046352Y028942D01*
X046375Y028961D01*
X046400Y028978D01*
X046426Y028991D01*
X046454Y029000D01*
X046483Y029006D01*
X046513Y029008D01*
X046543Y029006D01*
X046572Y029000D01*
X046600Y028991D01*
X046627Y028978D01*
X046651Y028961D01*
X046674Y028942D01*
X046693Y028919D01*
X046710Y028895D01*
X046723Y028868D01*
X046732Y028840D01*
X046738Y028811D01*
X046740Y028781D01*
X046738Y028751D01*
X046732Y028722D01*
X046723Y028694D01*
X046710Y028668D01*
X046710Y028667D02*
X046710Y024746D01*
D11*
X046552Y022130D02*
X046552Y021746D01*
X046476Y021670D01*
X046322Y021670D01*
X046246Y021746D01*
X046246Y022130D01*
X046092Y021900D02*
X045785Y021900D01*
X045632Y021977D02*
X045478Y022130D01*
X045478Y021670D01*
X045325Y021670D02*
X045632Y021670D01*
X045862Y021670D02*
X045862Y022130D01*
X046092Y021900D01*
X045171Y021977D02*
X045018Y022130D01*
X045018Y021670D01*
X045171Y021670D02*
X044864Y021670D01*
X045429Y029378D02*
X045583Y029378D01*
X045659Y029455D01*
X045353Y029762D01*
X045353Y029455D01*
X045429Y029378D01*
X045659Y029455D02*
X045659Y029762D01*
X045583Y029839D01*
X045429Y029839D01*
X045353Y029762D01*
X045813Y029378D02*
X046120Y029378D01*
X045966Y029378D02*
X045966Y029839D01*
X046120Y029685D01*
X046273Y029608D02*
X046580Y029608D01*
X046350Y029839D01*
X046350Y029378D01*
X046734Y029455D02*
X046734Y029839D01*
X047041Y029839D02*
X047041Y029455D01*
X046964Y029378D01*
X046810Y029378D01*
X046734Y029455D01*
X027809Y019543D02*
X027809Y019160D01*
X027733Y019083D01*
X027579Y019083D01*
X027502Y019160D01*
X027502Y019543D01*
X027349Y019390D02*
X027195Y019543D01*
X027195Y019083D01*
X027042Y019083D02*
X027349Y019083D01*
X026889Y019083D02*
X026582Y019390D01*
X026582Y019467D01*
X026658Y019543D01*
X026812Y019543D01*
X026889Y019467D01*
X026889Y019083D02*
X026582Y019083D01*
X026428Y019160D02*
X026121Y019467D01*
X026121Y019160D01*
X026198Y019083D01*
X026351Y019083D01*
X026428Y019160D01*
X026428Y019467D01*
X026351Y019543D01*
X026198Y019543D01*
X026121Y019467D01*
X018245Y013138D02*
X018245Y012754D01*
X018168Y012677D01*
X018014Y012677D01*
X017938Y012754D01*
X017938Y013138D01*
X017784Y013138D02*
X017784Y012908D01*
X017631Y012984D01*
X017554Y012984D01*
X017477Y012908D01*
X017477Y012754D01*
X017554Y012677D01*
X017707Y012677D01*
X017784Y012754D01*
X017784Y013138D02*
X017477Y013138D01*
X017324Y012984D02*
X017170Y013138D01*
X017170Y012677D01*
X017017Y012677D02*
X017324Y012677D01*
X016863Y012754D02*
X016556Y013061D01*
X016556Y012754D01*
X016633Y012677D01*
X016787Y012677D01*
X016863Y012754D01*
X016863Y013061D01*
X016787Y013138D01*
X016633Y013138D01*
X016556Y013061D01*
X016657Y010500D02*
X016580Y010423D01*
X016887Y010116D01*
X016810Y010040D01*
X016657Y010040D01*
X016580Y010116D01*
X016580Y010423D01*
X016657Y010500D02*
X016810Y010500D01*
X016887Y010423D01*
X016887Y010116D01*
X017040Y010116D02*
X017117Y010040D01*
X017271Y010040D01*
X017347Y010116D01*
X017040Y010423D01*
X017040Y010116D01*
X017040Y010423D02*
X017117Y010500D01*
X017271Y010500D01*
X017347Y010423D01*
X017347Y010116D01*
X017501Y010116D02*
X017578Y010040D01*
X017731Y010040D01*
X017808Y010116D01*
X017961Y010116D02*
X017961Y010500D01*
X017808Y010500D02*
X017808Y010270D01*
X017654Y010347D01*
X017578Y010347D01*
X017501Y010270D01*
X017501Y010116D01*
X017501Y010500D02*
X017808Y010500D01*
X017961Y010116D02*
X018038Y010040D01*
X018191Y010040D01*
X018268Y010116D01*
X018268Y010500D01*
X028965Y007797D02*
X028965Y007643D01*
X029042Y007566D01*
X029349Y007873D01*
X029042Y007873D01*
X028965Y007797D01*
X029042Y007566D02*
X029349Y007566D01*
X029425Y007643D01*
X029425Y007797D01*
X029349Y007873D01*
X029349Y007413D02*
X029042Y007413D01*
X028965Y007336D01*
X028965Y007183D01*
X029042Y007106D01*
X029349Y007413D01*
X029425Y007336D01*
X029425Y007183D01*
X029349Y007106D01*
X029042Y007106D01*
X028965Y006953D02*
X028965Y006646D01*
X028965Y006799D02*
X029425Y006799D01*
X029272Y006646D01*
X029349Y006492D02*
X029425Y006415D01*
X029425Y006262D01*
X029349Y006185D01*
X029042Y006185D01*
X028965Y006262D01*
X028965Y006415D01*
X029042Y006492D01*
X028965Y006032D02*
X028965Y005878D01*
X028965Y005955D02*
X029425Y005955D01*
X029425Y005878D02*
X029425Y006032D01*
X043834Y010841D02*
X043911Y010764D01*
X044064Y010764D01*
X044141Y010841D01*
X043834Y011148D01*
X043834Y010841D01*
X044141Y010841D02*
X044141Y011148D01*
X044064Y011224D01*
X043911Y011224D01*
X043834Y011148D01*
X044294Y011148D02*
X044371Y011224D01*
X044524Y011224D01*
X044601Y011148D01*
X044601Y010841D01*
X044294Y011148D01*
X044294Y010841D01*
X044371Y010764D01*
X044524Y010764D01*
X044601Y010841D01*
X044755Y010764D02*
X045062Y010764D01*
X044908Y010764D02*
X044908Y011224D01*
X045062Y011071D01*
X045215Y011224D02*
X045215Y010841D01*
X045292Y010764D01*
X045445Y010764D01*
X045522Y010841D01*
X045522Y011224D01*
X051777Y008664D02*
X051777Y008357D01*
X051854Y008280D01*
X052007Y008280D01*
X052084Y008357D01*
X051777Y008664D01*
X051854Y008740D01*
X052007Y008740D01*
X052084Y008664D01*
X052084Y008357D01*
X052238Y008280D02*
X052545Y008280D01*
X052238Y008587D01*
X052238Y008664D01*
X052314Y008740D01*
X052468Y008740D01*
X052545Y008664D01*
X056014Y008414D02*
X056321Y008414D01*
X056167Y008414D02*
X056167Y008874D01*
X056321Y008721D01*
X056474Y008797D02*
X056551Y008874D01*
X056705Y008874D01*
X056781Y008797D01*
X056781Y008721D01*
X056705Y008644D01*
X056474Y008644D01*
X056474Y008797D02*
X056474Y008490D01*
X056551Y008414D01*
X056705Y008414D01*
X056781Y008490D01*
X056935Y008414D02*
X057242Y008414D01*
X057088Y008414D02*
X057088Y008874D01*
X057242Y008721D01*
X057395Y008874D02*
X057395Y008490D01*
X057472Y008414D01*
X057625Y008414D01*
X057702Y008490D01*
X057702Y008874D01*
X058297Y008740D02*
X058297Y008280D01*
X058450Y008280D02*
X058143Y008280D01*
X058450Y008587D02*
X058297Y008740D01*
X058307Y001614D02*
X058153Y001614D01*
X058076Y001538D01*
X058383Y001231D01*
X058307Y001154D01*
X058153Y001154D01*
X058076Y001231D01*
X058076Y001538D01*
X058307Y001614D02*
X058383Y001538D01*
X058383Y001231D01*
X058537Y001154D02*
X058844Y001154D01*
X058690Y001154D02*
X058690Y001614D01*
X058844Y001461D01*
X052348Y001461D02*
X052194Y001614D01*
X052194Y001154D01*
X052041Y001154D02*
X052348Y001154D01*
X051887Y001154D02*
X051580Y001154D01*
X051734Y001154D02*
X051734Y001614D01*
X051887Y001461D01*
X016037Y022270D02*
X015960Y022193D01*
X015806Y022193D01*
X015730Y022270D01*
X015730Y022654D01*
X015576Y022423D02*
X015346Y022423D01*
X015269Y022347D01*
X015269Y022270D01*
X015346Y022193D01*
X015500Y022193D01*
X015576Y022270D01*
X015576Y022423D01*
X015423Y022577D01*
X015269Y022654D01*
X015116Y022577D02*
X015039Y022654D01*
X014886Y022654D01*
X014809Y022577D01*
X014809Y022500D01*
X015116Y022193D01*
X014809Y022193D01*
X014656Y022270D02*
X014349Y022577D01*
X014349Y022270D01*
X014425Y022193D01*
X014579Y022193D01*
X014656Y022270D01*
X014656Y022577D01*
X014579Y022654D01*
X014425Y022654D01*
X014349Y022577D01*
X016037Y022654D02*
X016037Y022270D01*
X012127Y022211D02*
X012051Y022134D01*
X011897Y022134D01*
X011820Y022211D01*
X011820Y022595D01*
X011667Y022364D02*
X011513Y022518D01*
X011360Y022595D01*
X011206Y022518D02*
X011130Y022595D01*
X010976Y022595D01*
X010900Y022518D01*
X010900Y022441D01*
X011206Y022134D01*
X010900Y022134D01*
X010746Y022134D02*
X010439Y022134D01*
X010593Y022134D02*
X010593Y022595D01*
X010746Y022441D01*
X011360Y022288D02*
X011437Y022364D01*
X011667Y022364D01*
X011667Y022211D01*
X011590Y022134D01*
X011437Y022134D01*
X011360Y022211D01*
X011360Y022288D01*
X012127Y022211D02*
X012127Y022595D01*
X024102Y027384D02*
X024178Y027307D01*
X024332Y027307D01*
X024408Y027384D01*
X024102Y027691D01*
X024102Y027384D01*
X024408Y027384D02*
X024408Y027691D01*
X024332Y027768D01*
X024178Y027768D01*
X024102Y027691D01*
X024562Y027691D02*
X024562Y027614D01*
X024639Y027538D01*
X024562Y027461D01*
X024562Y027384D01*
X024639Y027307D01*
X024792Y027307D01*
X024869Y027384D01*
X025022Y027307D02*
X025329Y027307D01*
X025176Y027307D02*
X025176Y027768D01*
X025329Y027614D01*
X025483Y027768D02*
X025483Y027384D01*
X025559Y027307D01*
X025713Y027307D01*
X025790Y027384D01*
X025790Y027768D01*
X024869Y027691D02*
X024792Y027768D01*
X024639Y027768D01*
X024562Y027691D01*
X024639Y027538D02*
X024715Y027538D01*
D12*
X015789Y027504D02*
X015825Y027493D01*
X015863Y027485D01*
X015901Y027481D01*
X015939Y027482D01*
X015977Y027486D01*
X016014Y027493D01*
X016050Y027505D01*
X016085Y027520D01*
X016118Y027539D01*
X016150Y027560D01*
X016178Y027585D01*
X016205Y027613D01*
X016228Y027643D01*
X016248Y027676D01*
X016265Y027710D01*
X016278Y027745D01*
X016287Y027782D01*
X016293Y027820D01*
X016295Y027858D01*
X016293Y027896D01*
X016287Y027934D01*
X016278Y027971D01*
X016265Y028006D01*
X016248Y028040D01*
X016228Y028073D01*
X016205Y028103D01*
X016178Y028131D01*
X016150Y028156D01*
X016118Y028177D01*
X016085Y028196D01*
X016050Y028211D01*
X016014Y028223D01*
X015977Y028230D01*
X015939Y028234D01*
X015901Y028235D01*
X015863Y028231D01*
X015825Y028223D01*
X015789Y028212D01*
X015789Y028213D02*
X014529Y028213D01*
X014529Y027504D02*
X015789Y027504D01*
X015773Y026811D02*
X014513Y026811D01*
X014513Y026102D02*
X015773Y026102D01*
X015773Y026103D02*
X015809Y026092D01*
X015847Y026084D01*
X015885Y026080D01*
X015923Y026081D01*
X015961Y026085D01*
X015998Y026092D01*
X016034Y026104D01*
X016069Y026119D01*
X016102Y026138D01*
X016134Y026159D01*
X016162Y026184D01*
X016189Y026212D01*
X016212Y026242D01*
X016232Y026275D01*
X016249Y026309D01*
X016262Y026344D01*
X016271Y026381D01*
X016277Y026419D01*
X016279Y026457D01*
X016277Y026495D01*
X016271Y026533D01*
X016262Y026570D01*
X016249Y026605D01*
X016232Y026639D01*
X016212Y026672D01*
X016189Y026702D01*
X016162Y026730D01*
X016134Y026755D01*
X016102Y026776D01*
X016069Y026795D01*
X016034Y026810D01*
X015998Y026822D01*
X015961Y026829D01*
X015923Y026833D01*
X015885Y026834D01*
X015847Y026830D01*
X015809Y026822D01*
X015773Y026811D01*
X015789Y025520D02*
X014529Y025520D01*
X014529Y024811D02*
X015789Y024811D01*
X015825Y024800D01*
X015863Y024792D01*
X015901Y024788D01*
X015939Y024789D01*
X015977Y024793D01*
X016014Y024800D01*
X016050Y024812D01*
X016085Y024827D01*
X016118Y024846D01*
X016150Y024867D01*
X016178Y024892D01*
X016205Y024920D01*
X016228Y024950D01*
X016248Y024983D01*
X016265Y025017D01*
X016278Y025052D01*
X016287Y025089D01*
X016293Y025127D01*
X016295Y025165D01*
X016293Y025203D01*
X016287Y025241D01*
X016278Y025278D01*
X016265Y025313D01*
X016248Y025347D01*
X016228Y025380D01*
X016205Y025410D01*
X016178Y025438D01*
X016150Y025463D01*
X016118Y025484D01*
X016085Y025503D01*
X016050Y025518D01*
X016014Y025530D01*
X015977Y025537D01*
X015939Y025541D01*
X015901Y025542D01*
X015863Y025538D01*
X015825Y025530D01*
X015789Y025519D01*
X011990Y025460D02*
X012026Y025471D01*
X012064Y025479D01*
X012102Y025483D01*
X012140Y025482D01*
X012178Y025478D01*
X012215Y025471D01*
X012251Y025459D01*
X012286Y025444D01*
X012319Y025425D01*
X012351Y025404D01*
X012379Y025379D01*
X012406Y025351D01*
X012429Y025321D01*
X012449Y025288D01*
X012466Y025254D01*
X012479Y025219D01*
X012488Y025182D01*
X012494Y025144D01*
X012496Y025106D01*
X012494Y025068D01*
X012488Y025030D01*
X012479Y024993D01*
X012466Y024958D01*
X012449Y024924D01*
X012429Y024891D01*
X012406Y024861D01*
X012379Y024833D01*
X012351Y024808D01*
X012319Y024787D01*
X012286Y024768D01*
X012251Y024753D01*
X012215Y024741D01*
X012178Y024734D01*
X012140Y024730D01*
X012102Y024729D01*
X012064Y024733D01*
X012026Y024741D01*
X011990Y024752D01*
X010730Y024752D01*
X010730Y025461D02*
X011990Y025461D01*
X011990Y026130D02*
X010730Y026130D01*
X010730Y026839D02*
X011990Y026839D01*
X011990Y026838D02*
X012026Y026849D01*
X012064Y026857D01*
X012102Y026861D01*
X012140Y026860D01*
X012178Y026856D01*
X012215Y026849D01*
X012251Y026837D01*
X012286Y026822D01*
X012319Y026803D01*
X012351Y026782D01*
X012379Y026757D01*
X012406Y026729D01*
X012429Y026699D01*
X012449Y026666D01*
X012466Y026632D01*
X012479Y026597D01*
X012488Y026560D01*
X012494Y026522D01*
X012496Y026484D01*
X012494Y026446D01*
X012488Y026408D01*
X012479Y026371D01*
X012466Y026336D01*
X012449Y026302D01*
X012429Y026269D01*
X012406Y026239D01*
X012379Y026211D01*
X012351Y026186D01*
X012319Y026165D01*
X012286Y026146D01*
X012251Y026131D01*
X012215Y026119D01*
X012178Y026112D01*
X012140Y026108D01*
X012102Y026107D01*
X012064Y026111D01*
X012026Y026119D01*
X011990Y026130D01*
X011990Y027508D02*
X010730Y027508D01*
X010730Y028217D02*
X011990Y028217D01*
X011990Y028216D02*
X012026Y028227D01*
X012064Y028235D01*
X012102Y028239D01*
X012140Y028238D01*
X012178Y028234D01*
X012215Y028227D01*
X012251Y028215D01*
X012286Y028200D01*
X012319Y028181D01*
X012351Y028160D01*
X012379Y028135D01*
X012406Y028107D01*
X012429Y028077D01*
X012449Y028044D01*
X012466Y028010D01*
X012479Y027975D01*
X012488Y027938D01*
X012494Y027900D01*
X012496Y027862D01*
X012494Y027824D01*
X012488Y027786D01*
X012479Y027749D01*
X012466Y027714D01*
X012449Y027680D01*
X012429Y027647D01*
X012406Y027617D01*
X012379Y027589D01*
X012351Y027564D01*
X012319Y027543D01*
X012286Y027524D01*
X012251Y027509D01*
X012215Y027497D01*
X012178Y027490D01*
X012140Y027486D01*
X012102Y027485D01*
X012064Y027489D01*
X012026Y027497D01*
X011990Y027508D01*
X014843Y014587D02*
X015631Y014587D01*
X015631Y014586D02*
X015661Y014602D01*
X015693Y014614D01*
X015726Y014623D01*
X015760Y014628D01*
X015794Y014629D01*
X015828Y014627D01*
X015862Y014621D01*
X015895Y014611D01*
X015926Y014598D01*
X015956Y014582D01*
X015984Y014563D01*
X016010Y014540D01*
X016034Y014515D01*
X016054Y014488D01*
X016072Y014459D01*
X016086Y014428D01*
X016097Y014395D01*
X016104Y014362D01*
X016108Y014328D01*
X016108Y014294D01*
X016104Y014260D01*
X016097Y014227D01*
X016086Y014194D01*
X016072Y014163D01*
X016054Y014134D01*
X016034Y014107D01*
X016010Y014082D01*
X015984Y014059D01*
X015956Y014040D01*
X015926Y014024D01*
X015895Y014011D01*
X015862Y014001D01*
X015828Y013995D01*
X015794Y013993D01*
X015760Y013994D01*
X015726Y013999D01*
X015693Y014008D01*
X015661Y014020D01*
X015631Y014036D01*
X015631Y014035D02*
X014843Y014035D01*
X014843Y013378D02*
X015631Y013378D01*
X015631Y013377D02*
X015661Y013393D01*
X015693Y013405D01*
X015726Y013414D01*
X015760Y013419D01*
X015794Y013420D01*
X015828Y013418D01*
X015862Y013412D01*
X015895Y013402D01*
X015926Y013389D01*
X015956Y013373D01*
X015984Y013354D01*
X016010Y013331D01*
X016034Y013306D01*
X016054Y013279D01*
X016072Y013250D01*
X016086Y013219D01*
X016097Y013186D01*
X016104Y013153D01*
X016108Y013119D01*
X016108Y013085D01*
X016104Y013051D01*
X016097Y013018D01*
X016086Y012985D01*
X016072Y012954D01*
X016054Y012925D01*
X016034Y012898D01*
X016010Y012873D01*
X015984Y012850D01*
X015956Y012831D01*
X015926Y012815D01*
X015895Y012802D01*
X015862Y012792D01*
X015828Y012786D01*
X015794Y012784D01*
X015760Y012785D01*
X015726Y012790D01*
X015693Y012799D01*
X015661Y012811D01*
X015631Y012827D01*
X014843Y012827D01*
X014820Y011811D02*
X015607Y011811D01*
X015607Y011810D02*
X015637Y011826D01*
X015669Y011838D01*
X015702Y011847D01*
X015736Y011852D01*
X015770Y011853D01*
X015804Y011851D01*
X015838Y011845D01*
X015871Y011835D01*
X015902Y011822D01*
X015932Y011806D01*
X015960Y011787D01*
X015986Y011764D01*
X016010Y011739D01*
X016030Y011712D01*
X016048Y011683D01*
X016062Y011652D01*
X016073Y011619D01*
X016080Y011586D01*
X016084Y011552D01*
X016084Y011518D01*
X016080Y011484D01*
X016073Y011451D01*
X016062Y011418D01*
X016048Y011387D01*
X016030Y011358D01*
X016010Y011331D01*
X015986Y011306D01*
X015960Y011283D01*
X015932Y011264D01*
X015902Y011248D01*
X015871Y011235D01*
X015838Y011225D01*
X015804Y011219D01*
X015770Y011217D01*
X015736Y011218D01*
X015702Y011223D01*
X015669Y011232D01*
X015637Y011244D01*
X015607Y011260D01*
X014820Y011260D01*
X014820Y010602D02*
X015607Y010602D01*
X015637Y010618D01*
X015669Y010630D01*
X015702Y010639D01*
X015736Y010644D01*
X015770Y010645D01*
X015804Y010643D01*
X015838Y010637D01*
X015871Y010627D01*
X015902Y010614D01*
X015932Y010598D01*
X015960Y010579D01*
X015986Y010556D01*
X016010Y010531D01*
X016030Y010504D01*
X016048Y010475D01*
X016062Y010444D01*
X016073Y010411D01*
X016080Y010378D01*
X016084Y010344D01*
X016084Y010310D01*
X016080Y010276D01*
X016073Y010243D01*
X016062Y010210D01*
X016048Y010179D01*
X016030Y010150D01*
X016010Y010123D01*
X015986Y010098D01*
X015960Y010075D01*
X015932Y010056D01*
X015902Y010040D01*
X015871Y010027D01*
X015838Y010017D01*
X015804Y010011D01*
X015770Y010009D01*
X015736Y010010D01*
X015702Y010015D01*
X015669Y010024D01*
X015637Y010036D01*
X015607Y010052D01*
X015607Y010051D02*
X014820Y010051D01*
X016694Y008949D02*
X017482Y008949D01*
X016694Y008948D02*
X016664Y008964D01*
X016632Y008976D01*
X016599Y008985D01*
X016565Y008990D01*
X016531Y008991D01*
X016497Y008989D01*
X016463Y008983D01*
X016430Y008973D01*
X016399Y008960D01*
X016369Y008944D01*
X016341Y008925D01*
X016315Y008902D01*
X016291Y008877D01*
X016271Y008850D01*
X016253Y008821D01*
X016239Y008790D01*
X016228Y008757D01*
X016221Y008724D01*
X016217Y008690D01*
X016217Y008656D01*
X016221Y008622D01*
X016228Y008589D01*
X016239Y008556D01*
X016253Y008525D01*
X016271Y008496D01*
X016291Y008469D01*
X016315Y008444D01*
X016341Y008421D01*
X016369Y008402D01*
X016399Y008386D01*
X016430Y008373D01*
X016463Y008363D01*
X016497Y008357D01*
X016531Y008355D01*
X016565Y008356D01*
X016599Y008361D01*
X016632Y008370D01*
X016664Y008382D01*
X016694Y008398D01*
X017482Y008398D01*
X017856Y006681D02*
X018643Y006681D01*
X018643Y006130D02*
X017856Y006130D01*
X017856Y006131D02*
X017826Y006115D01*
X017794Y006103D01*
X017761Y006094D01*
X017727Y006089D01*
X017693Y006088D01*
X017659Y006090D01*
X017625Y006096D01*
X017592Y006106D01*
X017561Y006119D01*
X017531Y006135D01*
X017503Y006154D01*
X017477Y006177D01*
X017453Y006202D01*
X017433Y006229D01*
X017415Y006258D01*
X017401Y006289D01*
X017390Y006322D01*
X017383Y006355D01*
X017379Y006389D01*
X017379Y006423D01*
X017383Y006457D01*
X017390Y006490D01*
X017401Y006523D01*
X017415Y006554D01*
X017433Y006583D01*
X017453Y006610D01*
X017477Y006635D01*
X017503Y006658D01*
X017531Y006677D01*
X017561Y006693D01*
X017592Y006706D01*
X017625Y006716D01*
X017659Y006722D01*
X017693Y006724D01*
X017727Y006723D01*
X017761Y006718D01*
X017794Y006709D01*
X017826Y006697D01*
X017856Y006681D01*
X016675Y006681D02*
X015887Y006681D01*
X015857Y006697D01*
X015825Y006709D01*
X015792Y006718D01*
X015758Y006723D01*
X015724Y006724D01*
X015690Y006722D01*
X015656Y006716D01*
X015623Y006706D01*
X015592Y006693D01*
X015562Y006677D01*
X015534Y006658D01*
X015508Y006635D01*
X015484Y006610D01*
X015464Y006583D01*
X015446Y006554D01*
X015432Y006523D01*
X015421Y006490D01*
X015414Y006457D01*
X015410Y006423D01*
X015410Y006389D01*
X015414Y006355D01*
X015421Y006322D01*
X015432Y006289D01*
X015446Y006258D01*
X015464Y006229D01*
X015484Y006202D01*
X015508Y006177D01*
X015534Y006154D01*
X015562Y006135D01*
X015592Y006119D01*
X015623Y006106D01*
X015656Y006096D01*
X015690Y006090D01*
X015724Y006088D01*
X015758Y006089D01*
X015792Y006094D01*
X015825Y006103D01*
X015857Y006115D01*
X015887Y006131D01*
X015887Y006130D02*
X016675Y006130D01*
X017856Y005500D02*
X018643Y005500D01*
X018643Y004949D02*
X017856Y004949D01*
X017826Y004933D01*
X017794Y004921D01*
X017761Y004912D01*
X017727Y004907D01*
X017693Y004906D01*
X017659Y004908D01*
X017625Y004914D01*
X017592Y004924D01*
X017561Y004937D01*
X017531Y004953D01*
X017503Y004972D01*
X017477Y004995D01*
X017453Y005020D01*
X017433Y005047D01*
X017415Y005076D01*
X017401Y005107D01*
X017390Y005140D01*
X017383Y005173D01*
X017379Y005207D01*
X017379Y005241D01*
X017383Y005275D01*
X017390Y005308D01*
X017401Y005341D01*
X017415Y005372D01*
X017433Y005401D01*
X017453Y005428D01*
X017477Y005453D01*
X017503Y005476D01*
X017531Y005495D01*
X017561Y005511D01*
X017592Y005524D01*
X017625Y005534D01*
X017659Y005540D01*
X017693Y005542D01*
X017727Y005541D01*
X017761Y005536D01*
X017794Y005527D01*
X017826Y005515D01*
X017856Y005499D01*
X017856Y004319D02*
X018643Y004319D01*
X018643Y003768D02*
X017856Y003768D01*
X017826Y003752D01*
X017794Y003740D01*
X017761Y003731D01*
X017727Y003726D01*
X017693Y003725D01*
X017659Y003727D01*
X017625Y003733D01*
X017592Y003743D01*
X017561Y003756D01*
X017531Y003772D01*
X017503Y003791D01*
X017477Y003814D01*
X017453Y003839D01*
X017433Y003866D01*
X017415Y003895D01*
X017401Y003926D01*
X017390Y003959D01*
X017383Y003992D01*
X017379Y004026D01*
X017379Y004060D01*
X017383Y004094D01*
X017390Y004127D01*
X017401Y004160D01*
X017415Y004191D01*
X017433Y004220D01*
X017453Y004247D01*
X017477Y004272D01*
X017503Y004295D01*
X017531Y004314D01*
X017561Y004330D01*
X017592Y004343D01*
X017625Y004353D01*
X017659Y004359D01*
X017693Y004361D01*
X017727Y004360D01*
X017761Y004355D01*
X017794Y004346D01*
X017826Y004334D01*
X017856Y004318D01*
X016533Y003343D02*
X015273Y003343D01*
X015273Y003342D02*
X015237Y003353D01*
X015199Y003361D01*
X015161Y003365D01*
X015123Y003364D01*
X015085Y003360D01*
X015048Y003353D01*
X015012Y003341D01*
X014977Y003326D01*
X014944Y003307D01*
X014912Y003286D01*
X014884Y003261D01*
X014857Y003233D01*
X014834Y003203D01*
X014814Y003170D01*
X014797Y003136D01*
X014784Y003101D01*
X014775Y003064D01*
X014769Y003026D01*
X014767Y002988D01*
X014769Y002950D01*
X014775Y002912D01*
X014784Y002875D01*
X014797Y002840D01*
X014814Y002806D01*
X014834Y002773D01*
X014857Y002743D01*
X014884Y002715D01*
X014912Y002690D01*
X014944Y002669D01*
X014977Y002650D01*
X015012Y002635D01*
X015048Y002623D01*
X015085Y002616D01*
X015123Y002612D01*
X015161Y002611D01*
X015199Y002615D01*
X015237Y002623D01*
X015273Y002634D01*
X016533Y002634D01*
X012738Y003768D02*
X011950Y003768D01*
X011920Y003752D01*
X011888Y003740D01*
X011855Y003731D01*
X011821Y003726D01*
X011787Y003725D01*
X011753Y003727D01*
X011719Y003733D01*
X011686Y003743D01*
X011655Y003756D01*
X011625Y003772D01*
X011597Y003791D01*
X011571Y003814D01*
X011547Y003839D01*
X011527Y003866D01*
X011509Y003895D01*
X011495Y003926D01*
X011484Y003959D01*
X011477Y003992D01*
X011473Y004026D01*
X011473Y004060D01*
X011477Y004094D01*
X011484Y004127D01*
X011495Y004160D01*
X011509Y004191D01*
X011527Y004220D01*
X011547Y004247D01*
X011571Y004272D01*
X011597Y004295D01*
X011625Y004314D01*
X011655Y004330D01*
X011686Y004343D01*
X011719Y004353D01*
X011753Y004359D01*
X011787Y004361D01*
X011821Y004360D01*
X011855Y004355D01*
X011888Y004346D01*
X011920Y004334D01*
X011950Y004318D01*
X011950Y004319D02*
X012738Y004319D01*
X012738Y004949D02*
X011950Y004949D01*
X011920Y004933D01*
X011888Y004921D01*
X011855Y004912D01*
X011821Y004907D01*
X011787Y004906D01*
X011753Y004908D01*
X011719Y004914D01*
X011686Y004924D01*
X011655Y004937D01*
X011625Y004953D01*
X011597Y004972D01*
X011571Y004995D01*
X011547Y005020D01*
X011527Y005047D01*
X011509Y005076D01*
X011495Y005107D01*
X011484Y005140D01*
X011477Y005173D01*
X011473Y005207D01*
X011473Y005241D01*
X011477Y005275D01*
X011484Y005308D01*
X011495Y005341D01*
X011509Y005372D01*
X011527Y005401D01*
X011547Y005428D01*
X011571Y005453D01*
X011597Y005476D01*
X011625Y005495D01*
X011655Y005511D01*
X011686Y005524D01*
X011719Y005534D01*
X011753Y005540D01*
X011787Y005542D01*
X011821Y005541D01*
X011855Y005536D01*
X011888Y005527D01*
X011920Y005515D01*
X011950Y005499D01*
X011950Y005500D02*
X012738Y005500D01*
X012738Y006130D02*
X011950Y006130D01*
X011950Y006131D02*
X011920Y006115D01*
X011888Y006103D01*
X011855Y006094D01*
X011821Y006089D01*
X011787Y006088D01*
X011753Y006090D01*
X011719Y006096D01*
X011686Y006106D01*
X011655Y006119D01*
X011625Y006135D01*
X011597Y006154D01*
X011571Y006177D01*
X011547Y006202D01*
X011527Y006229D01*
X011509Y006258D01*
X011495Y006289D01*
X011484Y006322D01*
X011477Y006355D01*
X011473Y006389D01*
X011473Y006423D01*
X011477Y006457D01*
X011484Y006490D01*
X011495Y006523D01*
X011509Y006554D01*
X011527Y006583D01*
X011547Y006610D01*
X011571Y006635D01*
X011597Y006658D01*
X011625Y006677D01*
X011655Y006693D01*
X011686Y006706D01*
X011719Y006716D01*
X011753Y006722D01*
X011787Y006724D01*
X011821Y006723D01*
X011855Y006718D01*
X011888Y006709D01*
X011920Y006697D01*
X011950Y006681D01*
X012738Y006681D01*
X010769Y006681D02*
X009982Y006681D01*
X009951Y006697D01*
X009918Y006710D01*
X009884Y006718D01*
X009849Y006723D01*
X009814Y006724D01*
X009779Y006721D01*
X009745Y006714D01*
X009711Y006704D01*
X009679Y006690D01*
X009649Y006672D01*
X009621Y006651D01*
X009595Y006628D01*
X009572Y006601D01*
X009552Y006573D01*
X009535Y006542D01*
X009522Y006509D01*
X009513Y006476D01*
X009507Y006441D01*
X009505Y006406D01*
X009507Y006371D01*
X009513Y006336D01*
X009522Y006303D01*
X009535Y006270D01*
X009552Y006239D01*
X009572Y006211D01*
X009595Y006184D01*
X009621Y006161D01*
X009649Y006140D01*
X009679Y006122D01*
X009711Y006108D01*
X009745Y006098D01*
X009779Y006091D01*
X009814Y006088D01*
X009849Y006089D01*
X009884Y006094D01*
X009918Y006102D01*
X009951Y006115D01*
X009982Y006131D01*
X009982Y006130D02*
X010769Y006130D01*
X010789Y008409D02*
X011576Y008409D01*
X011576Y008961D02*
X010789Y008961D01*
X010789Y008960D02*
X010759Y008976D01*
X010727Y008988D01*
X010694Y008997D01*
X010660Y009002D01*
X010626Y009003D01*
X010592Y009001D01*
X010558Y008995D01*
X010525Y008985D01*
X010494Y008972D01*
X010464Y008956D01*
X010436Y008937D01*
X010410Y008914D01*
X010386Y008889D01*
X010366Y008862D01*
X010348Y008833D01*
X010334Y008802D01*
X010323Y008769D01*
X010316Y008736D01*
X010312Y008702D01*
X010312Y008668D01*
X010316Y008634D01*
X010323Y008601D01*
X010334Y008568D01*
X010348Y008537D01*
X010366Y008508D01*
X010386Y008481D01*
X010410Y008456D01*
X010436Y008433D01*
X010464Y008414D01*
X010494Y008398D01*
X010525Y008385D01*
X010558Y008375D01*
X010592Y008369D01*
X010626Y008367D01*
X010660Y008368D01*
X010694Y008373D01*
X010727Y008382D01*
X010759Y008394D01*
X010789Y008410D01*
X007226Y011248D02*
X006439Y011248D01*
X006438Y011249D02*
X006407Y011233D01*
X006374Y011220D01*
X006340Y011212D01*
X006305Y011207D01*
X006270Y011206D01*
X006235Y011209D01*
X006201Y011216D01*
X006167Y011226D01*
X006135Y011240D01*
X006105Y011258D01*
X006077Y011279D01*
X006051Y011302D01*
X006028Y011329D01*
X006008Y011357D01*
X005991Y011388D01*
X005978Y011421D01*
X005969Y011454D01*
X005963Y011489D01*
X005961Y011524D01*
X005963Y011559D01*
X005969Y011594D01*
X005978Y011627D01*
X005991Y011660D01*
X006008Y011691D01*
X006028Y011719D01*
X006051Y011746D01*
X006077Y011769D01*
X006105Y011790D01*
X006135Y011808D01*
X006167Y011822D01*
X006201Y011832D01*
X006235Y011839D01*
X006270Y011842D01*
X006305Y011841D01*
X006340Y011836D01*
X006374Y011828D01*
X006407Y011815D01*
X006438Y011799D01*
X006439Y011799D02*
X007226Y011799D01*
X009324Y003343D02*
X010584Y003343D01*
X010584Y002634D02*
X009324Y002634D01*
X009288Y002623D01*
X009250Y002615D01*
X009212Y002611D01*
X009174Y002612D01*
X009136Y002616D01*
X009099Y002623D01*
X009063Y002635D01*
X009028Y002650D01*
X008995Y002669D01*
X008963Y002690D01*
X008935Y002715D01*
X008908Y002743D01*
X008885Y002773D01*
X008865Y002806D01*
X008848Y002840D01*
X008835Y002875D01*
X008826Y002912D01*
X008820Y002950D01*
X008818Y002988D01*
X008820Y003026D01*
X008826Y003064D01*
X008835Y003101D01*
X008848Y003136D01*
X008865Y003170D01*
X008885Y003203D01*
X008908Y003233D01*
X008935Y003261D01*
X008963Y003286D01*
X008995Y003307D01*
X009028Y003326D01*
X009063Y003341D01*
X009099Y003353D01*
X009136Y003360D01*
X009174Y003364D01*
X009212Y003365D01*
X009250Y003361D01*
X009288Y003353D01*
X009324Y003342D01*
X042990Y002086D02*
X042960Y002102D01*
X042928Y002114D01*
X042895Y002123D01*
X042861Y002128D01*
X042827Y002129D01*
X042793Y002127D01*
X042759Y002121D01*
X042726Y002111D01*
X042695Y002098D01*
X042665Y002082D01*
X042637Y002063D01*
X042611Y002040D01*
X042587Y002015D01*
X042567Y001988D01*
X042549Y001959D01*
X042535Y001928D01*
X042524Y001895D01*
X042517Y001862D01*
X042513Y001828D01*
X042513Y001794D01*
X042517Y001760D01*
X042524Y001727D01*
X042535Y001694D01*
X042549Y001663D01*
X042567Y001634D01*
X042587Y001607D01*
X042611Y001582D01*
X042637Y001559D01*
X042665Y001540D01*
X042695Y001524D01*
X042726Y001511D01*
X042759Y001501D01*
X042793Y001495D01*
X042827Y001493D01*
X042861Y001494D01*
X042895Y001499D01*
X042928Y001508D01*
X042960Y001520D01*
X042990Y001536D01*
X042990Y001535D02*
X043777Y001535D01*
X044958Y001560D02*
X044928Y001544D01*
X044896Y001532D01*
X044863Y001523D01*
X044829Y001518D01*
X044795Y001517D01*
X044761Y001519D01*
X044727Y001525D01*
X044694Y001535D01*
X044663Y001548D01*
X044633Y001564D01*
X044605Y001583D01*
X044579Y001606D01*
X044555Y001631D01*
X044535Y001658D01*
X044517Y001687D01*
X044503Y001718D01*
X044492Y001751D01*
X044485Y001784D01*
X044481Y001818D01*
X044481Y001852D01*
X044485Y001886D01*
X044492Y001919D01*
X044503Y001952D01*
X044517Y001983D01*
X044535Y002012D01*
X044555Y002039D01*
X044579Y002064D01*
X044605Y002087D01*
X044633Y002106D01*
X044663Y002122D01*
X044694Y002135D01*
X044727Y002145D01*
X044761Y002151D01*
X044795Y002153D01*
X044829Y002152D01*
X044863Y002147D01*
X044896Y002138D01*
X044928Y002126D01*
X044958Y002110D01*
X045746Y002110D01*
X045746Y001559D02*
X044958Y001559D01*
X043777Y002087D02*
X042990Y002087D01*
X049820Y009787D02*
X049820Y010575D01*
X050372Y010575D02*
X050372Y009787D01*
X050371Y009787D02*
X050387Y009756D01*
X050400Y009723D01*
X050408Y009689D01*
X050413Y009654D01*
X050414Y009619D01*
X050411Y009584D01*
X050404Y009550D01*
X050394Y009516D01*
X050380Y009484D01*
X050362Y009454D01*
X050341Y009426D01*
X050318Y009400D01*
X050291Y009377D01*
X050263Y009357D01*
X050232Y009340D01*
X050199Y009327D01*
X050166Y009318D01*
X050131Y009312D01*
X050096Y009310D01*
X050061Y009312D01*
X050026Y009318D01*
X049993Y009327D01*
X049960Y009340D01*
X049929Y009357D01*
X049901Y009377D01*
X049874Y009400D01*
X049851Y009426D01*
X049830Y009454D01*
X049812Y009484D01*
X049798Y009516D01*
X049788Y009550D01*
X049781Y009584D01*
X049778Y009619D01*
X049779Y009654D01*
X049784Y009689D01*
X049792Y009723D01*
X049805Y009756D01*
X049821Y009787D01*
X050927Y009787D02*
X050927Y010575D01*
X051478Y010575D02*
X051478Y009787D01*
X051477Y009787D02*
X051493Y009756D01*
X051506Y009723D01*
X051514Y009689D01*
X051519Y009654D01*
X051520Y009619D01*
X051517Y009584D01*
X051510Y009550D01*
X051500Y009516D01*
X051486Y009484D01*
X051468Y009454D01*
X051447Y009426D01*
X051424Y009400D01*
X051397Y009377D01*
X051369Y009357D01*
X051338Y009340D01*
X051305Y009327D01*
X051272Y009318D01*
X051237Y009312D01*
X051202Y009310D01*
X051167Y009312D01*
X051132Y009318D01*
X051099Y009327D01*
X051066Y009340D01*
X051035Y009357D01*
X051007Y009377D01*
X050980Y009400D01*
X050957Y009426D01*
X050936Y009454D01*
X050918Y009484D01*
X050904Y009516D01*
X050894Y009550D01*
X050887Y009584D01*
X050884Y009619D01*
X050885Y009654D01*
X050890Y009689D01*
X050898Y009723D01*
X050911Y009756D01*
X050927Y009787D01*
X052502Y010461D02*
X053289Y010461D01*
X053319Y010445D01*
X053351Y010433D01*
X053384Y010424D01*
X053418Y010419D01*
X053452Y010418D01*
X053486Y010420D01*
X053520Y010426D01*
X053553Y010436D01*
X053584Y010449D01*
X053614Y010465D01*
X053642Y010484D01*
X053668Y010507D01*
X053692Y010532D01*
X053712Y010559D01*
X053730Y010588D01*
X053744Y010619D01*
X053755Y010652D01*
X053762Y010685D01*
X053766Y010719D01*
X053766Y010753D01*
X053762Y010787D01*
X053755Y010820D01*
X053744Y010853D01*
X053730Y010884D01*
X053712Y010913D01*
X053692Y010940D01*
X053668Y010965D01*
X053642Y010988D01*
X053614Y011007D01*
X053584Y011023D01*
X053553Y011036D01*
X053520Y011046D01*
X053486Y011052D01*
X053452Y011054D01*
X053418Y011053D01*
X053384Y011048D01*
X053351Y011039D01*
X053319Y011027D01*
X053289Y011011D01*
X053289Y011012D02*
X052502Y011012D01*
X054470Y011012D02*
X055257Y011012D01*
X055258Y011011D02*
X055288Y011027D01*
X055320Y011039D01*
X055353Y011048D01*
X055387Y011053D01*
X055421Y011054D01*
X055455Y011052D01*
X055489Y011046D01*
X055522Y011036D01*
X055553Y011023D01*
X055583Y011007D01*
X055611Y010988D01*
X055637Y010965D01*
X055661Y010940D01*
X055681Y010913D01*
X055699Y010884D01*
X055713Y010853D01*
X055724Y010820D01*
X055731Y010787D01*
X055735Y010753D01*
X055735Y010719D01*
X055731Y010685D01*
X055724Y010652D01*
X055713Y010619D01*
X055699Y010588D01*
X055681Y010559D01*
X055661Y010532D01*
X055637Y010507D01*
X055611Y010484D01*
X055583Y010465D01*
X055553Y010449D01*
X055522Y010436D01*
X055489Y010426D01*
X055455Y010420D01*
X055421Y010418D01*
X055387Y010419D01*
X055353Y010424D01*
X055320Y010433D01*
X055288Y010445D01*
X055258Y010461D01*
X055257Y010461D02*
X054470Y010461D01*
X060809Y009004D02*
X060809Y007744D01*
X060798Y007708D01*
X060790Y007670D01*
X060786Y007632D01*
X060787Y007594D01*
X060791Y007556D01*
X060798Y007519D01*
X060810Y007483D01*
X060825Y007448D01*
X060844Y007415D01*
X060865Y007383D01*
X060890Y007355D01*
X060918Y007328D01*
X060948Y007305D01*
X060981Y007285D01*
X061015Y007268D01*
X061050Y007255D01*
X061087Y007246D01*
X061125Y007240D01*
X061163Y007238D01*
X061201Y007240D01*
X061239Y007246D01*
X061276Y007255D01*
X061311Y007268D01*
X061345Y007285D01*
X061378Y007305D01*
X061408Y007328D01*
X061436Y007355D01*
X061461Y007383D01*
X061482Y007415D01*
X061501Y007448D01*
X061516Y007483D01*
X061528Y007519D01*
X061535Y007556D01*
X061539Y007594D01*
X061540Y007632D01*
X061536Y007670D01*
X061528Y007708D01*
X061517Y007744D01*
X061517Y009004D01*
X046439Y030067D02*
X045179Y030067D01*
X045179Y030776D02*
X046439Y030776D01*
X046439Y030775D02*
X046475Y030786D01*
X046513Y030794D01*
X046551Y030798D01*
X046589Y030797D01*
X046627Y030793D01*
X046664Y030786D01*
X046700Y030774D01*
X046735Y030759D01*
X046768Y030740D01*
X046800Y030719D01*
X046828Y030694D01*
X046855Y030666D01*
X046878Y030636D01*
X046898Y030603D01*
X046915Y030569D01*
X046928Y030534D01*
X046937Y030497D01*
X046943Y030459D01*
X046945Y030421D01*
X046943Y030383D01*
X046937Y030345D01*
X046928Y030308D01*
X046915Y030273D01*
X046898Y030239D01*
X046878Y030206D01*
X046855Y030176D01*
X046828Y030148D01*
X046800Y030123D01*
X046768Y030102D01*
X046735Y030083D01*
X046700Y030068D01*
X046664Y030056D01*
X046627Y030049D01*
X046589Y030045D01*
X046551Y030044D01*
X046513Y030048D01*
X046475Y030056D01*
X046439Y030067D01*
X046439Y031642D02*
X045179Y031642D01*
X045179Y032350D02*
X046439Y032350D01*
X046475Y032361D01*
X046513Y032369D01*
X046551Y032373D01*
X046589Y032372D01*
X046627Y032368D01*
X046664Y032361D01*
X046700Y032349D01*
X046735Y032334D01*
X046768Y032315D01*
X046800Y032294D01*
X046828Y032269D01*
X046855Y032241D01*
X046878Y032211D01*
X046898Y032178D01*
X046915Y032144D01*
X046928Y032109D01*
X046937Y032072D01*
X046943Y032034D01*
X046945Y031996D01*
X046943Y031958D01*
X046937Y031920D01*
X046928Y031883D01*
X046915Y031848D01*
X046898Y031814D01*
X046878Y031781D01*
X046855Y031751D01*
X046828Y031723D01*
X046800Y031698D01*
X046768Y031677D01*
X046735Y031658D01*
X046700Y031643D01*
X046664Y031631D01*
X046627Y031624D01*
X046589Y031620D01*
X046551Y031619D01*
X046513Y031623D01*
X046475Y031631D01*
X046439Y031642D01*
D13*
X009514Y002216D02*
X009272Y002216D01*
X009393Y002216D02*
X009393Y002580D01*
X009514Y002458D01*
X009634Y002216D02*
X009877Y002216D01*
X009756Y002216D02*
X009756Y002580D01*
X009877Y002458D01*
X009997Y002337D02*
X010057Y002398D01*
X010239Y002398D01*
X010239Y002276D01*
X010179Y002216D01*
X010057Y002216D01*
X009997Y002276D01*
X009997Y002337D01*
X010118Y002519D02*
X010239Y002398D01*
X010359Y002519D02*
X010420Y002580D01*
X010541Y002580D01*
X010602Y002519D01*
X010602Y002276D01*
X010541Y002216D01*
X010420Y002216D01*
X010359Y002276D01*
X010118Y002519D02*
X009997Y002580D01*
X011662Y003271D02*
X011904Y003271D01*
X011662Y003514D01*
X011662Y003574D01*
X011722Y003635D01*
X011844Y003635D01*
X011904Y003574D01*
X012024Y003574D02*
X012085Y003635D01*
X012206Y003635D01*
X012267Y003574D01*
X012387Y003635D02*
X012629Y003635D01*
X012629Y003453D01*
X012508Y003514D01*
X012447Y003514D01*
X012387Y003453D01*
X012387Y003332D01*
X012447Y003271D01*
X012569Y003271D01*
X012629Y003332D01*
X012749Y003271D02*
X012870Y003392D01*
X012810Y003392D02*
X012992Y003392D01*
X012992Y003271D02*
X012992Y003635D01*
X012810Y003635D01*
X012749Y003574D01*
X012749Y003453D01*
X012810Y003392D01*
X012267Y003271D02*
X012024Y003514D01*
X012024Y003574D01*
X012024Y003271D02*
X012267Y003271D01*
X012267Y004452D02*
X012024Y004695D01*
X012024Y004755D01*
X012085Y004816D01*
X012206Y004816D01*
X012267Y004755D01*
X012387Y004816D02*
X012629Y004816D01*
X012629Y004634D01*
X012508Y004695D01*
X012447Y004695D01*
X012387Y004634D01*
X012387Y004513D01*
X012447Y004452D01*
X012569Y004452D01*
X012629Y004513D01*
X012749Y004452D02*
X012870Y004573D01*
X012810Y004573D02*
X012992Y004573D01*
X012992Y004452D02*
X012992Y004816D01*
X012810Y004816D01*
X012749Y004755D01*
X012749Y004634D01*
X012810Y004573D01*
X012267Y004452D02*
X012024Y004452D01*
X011904Y004452D02*
X011662Y004452D01*
X011783Y004452D02*
X011783Y004816D01*
X011904Y004695D01*
X011844Y005633D02*
X011904Y005694D01*
X011662Y005936D01*
X011662Y005694D01*
X011722Y005633D01*
X011844Y005633D01*
X011904Y005694D02*
X011904Y005936D01*
X011844Y005997D01*
X011722Y005997D01*
X011662Y005936D01*
X012024Y005936D02*
X012085Y005997D01*
X012206Y005997D01*
X012267Y005936D01*
X012387Y005997D02*
X012629Y005997D01*
X012629Y005815D01*
X012508Y005876D01*
X012447Y005876D01*
X012387Y005815D01*
X012387Y005694D01*
X012447Y005633D01*
X012569Y005633D01*
X012629Y005694D01*
X012749Y005633D02*
X012870Y005754D01*
X012810Y005754D02*
X012992Y005754D01*
X012992Y005633D02*
X012992Y005997D01*
X012810Y005997D01*
X012749Y005936D01*
X012749Y005815D01*
X012810Y005754D01*
X012267Y005633D02*
X012024Y005876D01*
X012024Y005936D01*
X012024Y005633D02*
X012267Y005633D01*
X011023Y005633D02*
X011023Y005997D01*
X010841Y005997D01*
X010781Y005936D01*
X010781Y005815D01*
X010841Y005754D01*
X011023Y005754D01*
X010902Y005754D02*
X010781Y005633D01*
X010661Y005694D02*
X010600Y005633D01*
X010479Y005633D01*
X010418Y005694D01*
X010418Y005815D01*
X010479Y005876D01*
X010539Y005876D01*
X010661Y005815D01*
X010661Y005997D01*
X010418Y005997D01*
X010298Y005936D02*
X010238Y005997D01*
X010116Y005997D01*
X010056Y005936D01*
X010056Y005876D01*
X010298Y005633D01*
X010056Y005633D01*
X009936Y005694D02*
X009875Y005633D01*
X009754Y005633D01*
X009693Y005694D01*
X009693Y005754D01*
X009754Y005815D01*
X009814Y005815D01*
X009754Y005815D02*
X009693Y005876D01*
X009693Y005936D01*
X009754Y005997D01*
X009875Y005997D01*
X009936Y005936D01*
X010561Y007913D02*
X010682Y007913D01*
X010743Y007973D01*
X010500Y008216D01*
X010500Y007973D01*
X010561Y007913D01*
X010743Y007973D02*
X010743Y008216D01*
X010682Y008277D01*
X010561Y008277D01*
X010500Y008216D01*
X010863Y007913D02*
X011105Y007913D01*
X010984Y007913D02*
X010984Y008277D01*
X011105Y008155D01*
X011225Y008034D02*
X011286Y008095D01*
X011468Y008095D01*
X011468Y007973D01*
X011407Y007913D01*
X011286Y007913D01*
X011225Y007973D01*
X011225Y008034D01*
X011346Y008216D02*
X011468Y008095D01*
X011588Y008095D02*
X011648Y008034D01*
X011830Y008034D01*
X011709Y008034D02*
X011588Y007913D01*
X011588Y008095D02*
X011588Y008216D01*
X011648Y008277D01*
X011830Y008277D01*
X011830Y007913D01*
X011346Y008216D02*
X011225Y008277D01*
X014656Y010735D02*
X014898Y010735D01*
X014656Y010978D01*
X014656Y011039D01*
X014716Y011099D01*
X014838Y011099D01*
X014898Y011039D01*
X015139Y011099D02*
X015139Y010735D01*
X015018Y010735D02*
X015261Y010735D01*
X015381Y010796D02*
X015441Y010735D01*
X015563Y010735D01*
X015623Y010796D01*
X015623Y010917D02*
X015502Y010978D01*
X015441Y010978D01*
X015381Y010917D01*
X015381Y010796D01*
X015261Y010978D02*
X015139Y011099D01*
X015381Y011099D02*
X015623Y011099D01*
X015623Y010917D01*
X015743Y010917D02*
X015804Y010857D01*
X015986Y010857D01*
X015986Y010735D02*
X015986Y011099D01*
X015804Y011099D01*
X015743Y011039D01*
X015743Y010917D01*
X015864Y010857D02*
X015743Y010735D01*
X015743Y011944D02*
X015864Y012065D01*
X015804Y012065D02*
X015986Y012065D01*
X015986Y011944D02*
X015986Y012308D01*
X015804Y012308D01*
X015743Y012247D01*
X015743Y012126D01*
X015804Y012065D01*
X015623Y012005D02*
X015563Y011944D01*
X015441Y011944D01*
X015381Y012005D01*
X015381Y012126D01*
X015441Y012187D01*
X015502Y012187D01*
X015623Y012126D01*
X015623Y012308D01*
X015381Y012308D01*
X015261Y012187D02*
X015139Y012308D01*
X015139Y011944D01*
X015018Y011944D02*
X015261Y011944D01*
X014898Y011944D02*
X014656Y011944D01*
X014777Y011944D02*
X014777Y012308D01*
X014898Y012187D01*
X014922Y013511D02*
X014679Y013754D01*
X014679Y013814D01*
X014740Y013875D01*
X014861Y013875D01*
X014922Y013814D01*
X015042Y013814D02*
X015284Y013572D01*
X015224Y013511D01*
X015102Y013511D01*
X015042Y013572D01*
X015042Y013814D01*
X015102Y013875D01*
X015224Y013875D01*
X015284Y013814D01*
X015284Y013572D01*
X015404Y013572D02*
X015465Y013511D01*
X015586Y013511D01*
X015647Y013572D01*
X015647Y013693D02*
X015526Y013754D01*
X015465Y013754D01*
X015404Y013693D01*
X015404Y013572D01*
X015647Y013693D02*
X015647Y013875D01*
X015404Y013875D01*
X015767Y013814D02*
X015767Y013693D01*
X015827Y013632D01*
X016009Y013632D01*
X015888Y013632D02*
X015767Y013511D01*
X016009Y013511D02*
X016009Y013875D01*
X015827Y013875D01*
X015767Y013814D01*
X014922Y013511D02*
X014679Y013511D01*
X014679Y014720D02*
X014922Y014720D01*
X014801Y014720D02*
X014801Y015084D01*
X014922Y014962D01*
X015042Y015023D02*
X015284Y014780D01*
X015224Y014720D01*
X015102Y014720D01*
X015042Y014780D01*
X015042Y015023D01*
X015102Y015084D01*
X015224Y015084D01*
X015284Y015023D01*
X015284Y014780D01*
X015404Y014780D02*
X015465Y014720D01*
X015586Y014720D01*
X015647Y014780D01*
X015647Y014902D02*
X015526Y014962D01*
X015465Y014962D01*
X015404Y014902D01*
X015404Y014780D01*
X015647Y014902D02*
X015647Y015084D01*
X015404Y015084D01*
X015767Y015023D02*
X015767Y014902D01*
X015827Y014841D01*
X016009Y014841D01*
X015888Y014841D02*
X015767Y014720D01*
X016009Y014720D02*
X016009Y015084D01*
X015827Y015084D01*
X015767Y015023D01*
X007480Y011115D02*
X007480Y010751D01*
X007480Y010873D02*
X007298Y010873D01*
X007237Y010933D01*
X007237Y011055D01*
X007298Y011115D01*
X007480Y011115D01*
X007359Y010873D02*
X007237Y010751D01*
X007117Y010812D02*
X007057Y010751D01*
X006935Y010751D01*
X006875Y010812D01*
X006875Y010873D01*
X006935Y010933D01*
X007117Y010933D01*
X007117Y010812D01*
X007117Y010933D02*
X006996Y011055D01*
X006875Y011115D01*
X006755Y011055D02*
X006694Y011115D01*
X006573Y011115D01*
X006512Y011055D01*
X006755Y010812D01*
X006694Y010751D01*
X006573Y010751D01*
X006512Y010812D01*
X006512Y011055D01*
X006392Y010994D02*
X006271Y011115D01*
X006271Y010751D01*
X006392Y010751D02*
X006150Y010751D01*
X006755Y010812D02*
X006755Y011055D01*
X015599Y005936D02*
X015599Y005876D01*
X015659Y005815D01*
X015599Y005754D01*
X015599Y005694D01*
X015659Y005633D01*
X015781Y005633D01*
X015841Y005694D01*
X015961Y005694D02*
X016022Y005633D01*
X016143Y005633D01*
X016204Y005694D01*
X015961Y005936D01*
X015961Y005694D01*
X015961Y005936D02*
X016022Y005997D01*
X016143Y005997D01*
X016204Y005936D01*
X016204Y005694D01*
X016324Y005694D02*
X016384Y005633D01*
X016506Y005633D01*
X016566Y005694D01*
X016686Y005633D02*
X016807Y005754D01*
X016747Y005754D02*
X016929Y005754D01*
X016929Y005633D02*
X016929Y005997D01*
X016747Y005997D01*
X016686Y005936D01*
X016686Y005815D01*
X016747Y005754D01*
X016566Y005936D02*
X016506Y005997D01*
X016384Y005997D01*
X016324Y005936D01*
X016324Y005876D01*
X016384Y005815D01*
X016324Y005754D01*
X016324Y005694D01*
X016384Y005815D02*
X016445Y005815D01*
X015841Y005936D02*
X015781Y005997D01*
X015659Y005997D01*
X015599Y005936D01*
X015659Y005815D02*
X015720Y005815D01*
X017567Y005694D02*
X017628Y005633D01*
X017749Y005633D01*
X017810Y005694D01*
X017567Y005936D01*
X017567Y005694D01*
X017567Y005936D02*
X017628Y005997D01*
X017749Y005997D01*
X017810Y005936D01*
X017810Y005694D01*
X017930Y005694D02*
X017990Y005633D01*
X018112Y005633D01*
X018172Y005694D01*
X017930Y005936D01*
X017930Y005694D01*
X018172Y005694D02*
X018172Y005936D01*
X018112Y005997D01*
X017990Y005997D01*
X017930Y005936D01*
X018292Y005936D02*
X018292Y005876D01*
X018353Y005815D01*
X018292Y005754D01*
X018292Y005694D01*
X018353Y005633D01*
X018474Y005633D01*
X018535Y005694D01*
X018655Y005633D02*
X018776Y005754D01*
X018715Y005754D02*
X018897Y005754D01*
X018897Y005633D02*
X018897Y005997D01*
X018715Y005997D01*
X018655Y005936D01*
X018655Y005815D01*
X018715Y005754D01*
X018535Y005936D02*
X018474Y005997D01*
X018353Y005997D01*
X018292Y005936D01*
X018353Y005815D02*
X018413Y005815D01*
X018353Y004816D02*
X018292Y004755D01*
X018292Y004695D01*
X018353Y004634D01*
X018292Y004573D01*
X018292Y004513D01*
X018353Y004452D01*
X018474Y004452D01*
X018535Y004513D01*
X018655Y004452D02*
X018776Y004573D01*
X018715Y004573D02*
X018897Y004573D01*
X018897Y004452D02*
X018897Y004816D01*
X018715Y004816D01*
X018655Y004755D01*
X018655Y004634D01*
X018715Y004573D01*
X018535Y004755D02*
X018474Y004816D01*
X018353Y004816D01*
X018353Y004634D02*
X018413Y004634D01*
X018172Y004513D02*
X017930Y004755D01*
X017930Y004513D01*
X017990Y004452D01*
X018112Y004452D01*
X018172Y004513D01*
X018172Y004755D01*
X018112Y004816D01*
X017990Y004816D01*
X017930Y004755D01*
X017810Y004695D02*
X017688Y004816D01*
X017688Y004452D01*
X017567Y004452D02*
X017810Y004452D01*
X017749Y003635D02*
X017628Y003635D01*
X017567Y003574D01*
X017567Y003514D01*
X017810Y003271D01*
X017567Y003271D01*
X017930Y003332D02*
X017990Y003271D01*
X018112Y003271D01*
X018172Y003332D01*
X017930Y003574D01*
X017930Y003332D01*
X018172Y003332D02*
X018172Y003574D01*
X018112Y003635D01*
X017990Y003635D01*
X017930Y003574D01*
X017810Y003574D02*
X017749Y003635D01*
X018292Y003574D02*
X018292Y003514D01*
X018353Y003453D01*
X018292Y003392D01*
X018292Y003332D01*
X018353Y003271D01*
X018474Y003271D01*
X018535Y003332D01*
X018655Y003271D02*
X018776Y003392D01*
X018715Y003392D02*
X018897Y003392D01*
X018897Y003271D02*
X018897Y003635D01*
X018715Y003635D01*
X018655Y003574D01*
X018655Y003453D01*
X018715Y003392D01*
X018535Y003574D02*
X018474Y003635D01*
X018353Y003635D01*
X018292Y003574D01*
X018353Y003453D02*
X018413Y003453D01*
X016551Y002519D02*
X016551Y002276D01*
X016490Y002216D01*
X016369Y002216D01*
X016308Y002276D01*
X016188Y002276D02*
X016128Y002216D01*
X016006Y002216D01*
X015946Y002276D01*
X015946Y002337D01*
X016006Y002398D01*
X016188Y002398D01*
X016188Y002276D01*
X016188Y002398D02*
X016067Y002519D01*
X015946Y002580D01*
X015826Y002519D02*
X015765Y002580D01*
X015644Y002580D01*
X015583Y002519D01*
X015826Y002276D01*
X015765Y002216D01*
X015644Y002216D01*
X015583Y002276D01*
X015583Y002519D01*
X015463Y002458D02*
X015342Y002580D01*
X015342Y002216D01*
X015463Y002216D02*
X015221Y002216D01*
X015826Y002276D02*
X015826Y002519D01*
X016308Y002519D02*
X016369Y002580D01*
X016490Y002580D01*
X016551Y002519D01*
X016588Y007901D02*
X016648Y007961D01*
X016406Y008204D01*
X016406Y007961D01*
X016466Y007901D01*
X016588Y007901D01*
X016648Y007961D02*
X016648Y008204D01*
X016588Y008265D01*
X016466Y008265D01*
X016406Y008204D01*
X016768Y008204D02*
X017011Y007961D01*
X016950Y007901D01*
X016829Y007901D01*
X016768Y007961D01*
X016768Y008204D01*
X016829Y008265D01*
X016950Y008265D01*
X017011Y008204D01*
X017011Y007961D01*
X017131Y007961D02*
X017131Y008022D01*
X017191Y008083D01*
X017373Y008083D01*
X017373Y007961D01*
X017313Y007901D01*
X017191Y007901D01*
X017131Y007961D01*
X017252Y008204D02*
X017373Y008083D01*
X017493Y008083D02*
X017554Y008022D01*
X017736Y008022D01*
X017736Y007901D02*
X017736Y008265D01*
X017554Y008265D01*
X017493Y008204D01*
X017493Y008083D01*
X017615Y008022D02*
X017493Y007901D01*
X017252Y008204D02*
X017131Y008265D01*
X024957Y009521D02*
X024957Y009644D01*
X025018Y009706D01*
X024957Y009827D02*
X024957Y010074D01*
X024957Y009951D02*
X025327Y009951D01*
X025203Y009827D01*
X025265Y009706D02*
X025327Y009644D01*
X025327Y009521D01*
X025265Y009459D01*
X025018Y009459D01*
X024957Y009521D01*
X025018Y010196D02*
X024957Y010257D01*
X024957Y010381D01*
X025018Y010443D01*
X025265Y010443D01*
X025327Y010381D01*
X025327Y010257D01*
X025265Y010196D01*
X025203Y010196D01*
X025142Y010257D01*
X025142Y010443D01*
X025265Y010564D02*
X025327Y010626D01*
X025327Y010749D01*
X025265Y010811D01*
X025203Y010811D01*
X024957Y010564D01*
X024957Y010811D01*
X026133Y010820D02*
X026133Y010574D01*
X026133Y010697D02*
X026503Y010697D01*
X026380Y010574D01*
X026442Y010452D02*
X026503Y010390D01*
X026503Y010267D01*
X026442Y010205D01*
X026380Y010205D01*
X026318Y010267D01*
X026318Y010452D01*
X026195Y010452D02*
X026442Y010452D01*
X026195Y010452D02*
X026133Y010390D01*
X026133Y010267D01*
X026195Y010205D01*
X026133Y010084D02*
X026133Y009837D01*
X026133Y009960D02*
X026503Y009960D01*
X026380Y009837D01*
X026442Y009715D02*
X026503Y009654D01*
X026503Y009530D01*
X026442Y009469D01*
X026195Y009469D01*
X026133Y009530D01*
X026133Y009654D01*
X026195Y009715D01*
X027333Y009805D02*
X027333Y010052D01*
X027333Y009929D02*
X027703Y009929D01*
X027580Y009805D01*
X027642Y009684D02*
X027703Y009622D01*
X027703Y009499D01*
X027642Y009437D01*
X027395Y009437D01*
X027333Y009499D01*
X027333Y009622D01*
X027395Y009684D01*
X027395Y010174D02*
X027333Y010235D01*
X027333Y010359D01*
X027395Y010421D01*
X027642Y010421D01*
X027703Y010359D01*
X027703Y010235D01*
X027642Y010174D01*
X027580Y010174D01*
X027518Y010235D01*
X027518Y010421D01*
X027395Y010542D02*
X027642Y010789D01*
X027395Y010789D01*
X027333Y010727D01*
X027333Y010604D01*
X027395Y010542D01*
X027642Y010542D01*
X027703Y010604D01*
X027703Y010727D01*
X027642Y010789D01*
X027156Y012082D02*
X026909Y012082D01*
X026847Y012144D01*
X026847Y012267D01*
X026909Y012329D01*
X026847Y012450D02*
X026847Y012697D01*
X026847Y012818D02*
X027094Y013065D01*
X027156Y013065D01*
X027218Y013004D01*
X027218Y012880D01*
X027156Y012818D01*
X027218Y012574D02*
X026847Y012574D01*
X026847Y012818D02*
X026847Y013065D01*
X026909Y013187D02*
X026847Y013249D01*
X026847Y013372D01*
X026909Y013434D01*
X026971Y013434D01*
X027033Y013372D01*
X027033Y013187D01*
X026909Y013187D01*
X027033Y013187D02*
X027156Y013310D01*
X027218Y013434D01*
X027649Y013659D02*
X027896Y013659D01*
X027711Y013844D01*
X027711Y013473D01*
X028017Y013473D02*
X028264Y013473D01*
X028017Y013720D01*
X028017Y013782D01*
X028079Y013844D01*
X028202Y013844D01*
X028264Y013782D01*
X028509Y013844D02*
X028509Y013473D01*
X028386Y013473D02*
X028633Y013473D01*
X028754Y013535D02*
X028816Y013473D01*
X028939Y013473D01*
X029001Y013535D01*
X029001Y013782D01*
X028939Y013844D01*
X028816Y013844D01*
X028754Y013782D01*
X028633Y013720D02*
X028509Y013844D01*
X028984Y014632D02*
X028922Y014694D01*
X028922Y014818D01*
X028984Y014879D01*
X028922Y015001D02*
X028922Y015248D01*
X028922Y015369D02*
X029169Y015616D01*
X029231Y015616D01*
X029292Y015554D01*
X029292Y015431D01*
X029231Y015369D01*
X029292Y015124D02*
X028922Y015124D01*
X028922Y015369D02*
X028922Y015616D01*
X028984Y015737D02*
X028922Y015799D01*
X028922Y015922D01*
X028984Y015984D01*
X029231Y015984D01*
X029292Y015922D01*
X029292Y015799D01*
X029231Y015737D01*
X029169Y015737D01*
X029107Y015799D01*
X029107Y015984D01*
X028984Y016601D02*
X028922Y016663D01*
X028922Y016786D01*
X028984Y016848D01*
X028922Y016969D02*
X028922Y017216D01*
X028922Y017338D02*
X029169Y017584D01*
X029231Y017584D01*
X029292Y017523D01*
X029292Y017399D01*
X029231Y017338D01*
X029292Y017093D02*
X028922Y017093D01*
X028922Y017338D02*
X028922Y017584D01*
X028984Y017706D02*
X029045Y017706D01*
X029107Y017768D01*
X029107Y017891D01*
X029045Y017953D01*
X028984Y017953D01*
X028922Y017891D01*
X028922Y017768D01*
X028984Y017706D01*
X029107Y017768D02*
X029169Y017706D01*
X029231Y017706D01*
X029292Y017768D01*
X029292Y017891D01*
X029231Y017953D01*
X029169Y017953D01*
X029107Y017891D01*
X029292Y017093D02*
X029169Y016969D01*
X029231Y016848D02*
X029292Y016786D01*
X029292Y016663D01*
X029231Y016601D01*
X028984Y016601D01*
X029292Y015124D02*
X029169Y015001D01*
X029231Y014879D02*
X029292Y014818D01*
X029292Y014694D01*
X029231Y014632D01*
X028984Y014632D01*
X026013Y013434D02*
X026013Y013187D01*
X025951Y013065D02*
X026013Y013004D01*
X026013Y012880D01*
X025951Y012818D01*
X025951Y013065D02*
X025890Y013065D01*
X025643Y012818D01*
X025643Y013065D01*
X025643Y013187D02*
X025704Y013187D01*
X025951Y013434D01*
X026013Y013434D01*
X025643Y012697D02*
X025643Y012450D01*
X025643Y012574D02*
X026013Y012574D01*
X025890Y012450D01*
X025951Y012329D02*
X026013Y012267D01*
X026013Y012144D01*
X025951Y012082D01*
X025704Y012082D01*
X025643Y012144D01*
X025643Y012267D01*
X025704Y012329D01*
X027094Y012450D02*
X027218Y012574D01*
X027156Y012329D02*
X027218Y012267D01*
X027218Y012144D01*
X027156Y012082D01*
X027649Y012330D02*
X027649Y012454D01*
X027711Y012516D01*
X027772Y012516D01*
X027896Y012454D01*
X027896Y012639D01*
X027649Y012639D01*
X027649Y012330D02*
X027711Y012269D01*
X027834Y012269D01*
X027896Y012330D01*
X028017Y012269D02*
X028264Y012269D01*
X028017Y012516D01*
X028017Y012577D01*
X028079Y012639D01*
X028202Y012639D01*
X028264Y012577D01*
X028509Y012639D02*
X028509Y012269D01*
X028386Y012269D02*
X028633Y012269D01*
X028754Y012330D02*
X028816Y012269D01*
X028939Y012269D01*
X029001Y012330D01*
X029001Y012577D01*
X028939Y012639D01*
X028816Y012639D01*
X028754Y012577D01*
X028633Y012516D02*
X028509Y012639D01*
X028552Y020227D02*
X028305Y020227D01*
X028429Y020227D02*
X028429Y020598D01*
X028552Y020474D01*
X028674Y020536D02*
X028735Y020598D01*
X028859Y020598D01*
X028920Y020536D01*
X028920Y020289D01*
X028859Y020227D01*
X028735Y020227D01*
X028674Y020289D01*
X028184Y020289D02*
X028122Y020227D01*
X027999Y020227D01*
X027937Y020289D01*
X027937Y020351D01*
X027999Y020413D01*
X028060Y020413D01*
X027999Y020413D02*
X027937Y020474D01*
X027937Y020536D01*
X027999Y020598D01*
X028122Y020598D01*
X028184Y020536D01*
X027815Y020536D02*
X027815Y020474D01*
X027754Y020413D01*
X027630Y020413D01*
X027569Y020351D01*
X027569Y020289D01*
X027630Y020227D01*
X027754Y020227D01*
X027815Y020289D01*
X027815Y020351D01*
X027754Y020413D01*
X027630Y020413D02*
X027569Y020474D01*
X027569Y020536D01*
X027630Y020598D01*
X027754Y020598D01*
X027815Y020536D01*
X027754Y021409D02*
X027630Y021409D01*
X027569Y021470D01*
X027569Y021717D01*
X027630Y021779D01*
X027754Y021779D01*
X027815Y021717D01*
X027815Y021655D01*
X027754Y021594D01*
X027569Y021594D01*
X027754Y021409D02*
X027815Y021470D01*
X027937Y021470D02*
X027999Y021409D01*
X028122Y021409D01*
X028184Y021470D01*
X028305Y021409D02*
X028552Y021409D01*
X028429Y021409D02*
X028429Y021779D01*
X028552Y021655D01*
X028674Y021717D02*
X028735Y021779D01*
X028859Y021779D01*
X028920Y021717D01*
X028920Y021470D01*
X028859Y021409D01*
X028735Y021409D01*
X028674Y021470D01*
X028184Y021717D02*
X028122Y021779D01*
X027999Y021779D01*
X027937Y021717D01*
X027937Y021655D01*
X027999Y021594D01*
X027937Y021532D01*
X027937Y021470D01*
X027999Y021594D02*
X028060Y021594D01*
X026657Y021717D02*
X026657Y021470D01*
X026595Y021409D01*
X026471Y021409D01*
X026410Y021470D01*
X026288Y021409D02*
X026041Y021409D01*
X026165Y021409D02*
X026165Y021779D01*
X026288Y021655D01*
X026410Y021717D02*
X026471Y021779D01*
X026595Y021779D01*
X026657Y021717D01*
X025920Y021717D02*
X025858Y021779D01*
X025735Y021779D01*
X025673Y021717D01*
X025673Y021655D01*
X025735Y021594D01*
X025673Y021532D01*
X025673Y021470D01*
X025735Y021409D01*
X025858Y021409D01*
X025920Y021470D01*
X025797Y021594D02*
X025735Y021594D01*
X025552Y021594D02*
X025428Y021655D01*
X025367Y021655D01*
X025305Y021594D01*
X025305Y021470D01*
X025367Y021409D01*
X025490Y021409D01*
X025552Y021470D01*
X025552Y021594D02*
X025552Y021779D01*
X025305Y021779D01*
X025268Y020598D02*
X025453Y020413D01*
X025206Y020413D01*
X025268Y020598D02*
X025268Y020227D01*
X025575Y020289D02*
X025636Y020227D01*
X025760Y020227D01*
X025822Y020289D01*
X025943Y020227D02*
X026190Y020227D01*
X026066Y020227D02*
X026066Y020598D01*
X026190Y020474D01*
X026311Y020536D02*
X026373Y020598D01*
X026496Y020598D01*
X026558Y020536D01*
X026558Y020289D01*
X026496Y020227D01*
X026373Y020227D01*
X026311Y020289D01*
X025822Y020536D02*
X025760Y020598D01*
X025636Y020598D01*
X025575Y020536D01*
X025575Y020474D01*
X025636Y020413D01*
X025575Y020351D01*
X025575Y020289D01*
X025636Y020413D02*
X025698Y020413D01*
X015931Y025635D02*
X015871Y025574D01*
X015749Y025574D01*
X015689Y025635D01*
X015569Y025635D02*
X015508Y025574D01*
X015387Y025574D01*
X015326Y025635D01*
X015326Y025695D01*
X015387Y025756D01*
X015569Y025756D01*
X015569Y025635D01*
X015569Y025756D02*
X015448Y025877D01*
X015326Y025938D01*
X015206Y025877D02*
X015146Y025938D01*
X015024Y025938D01*
X014964Y025877D01*
X014964Y025817D01*
X015206Y025574D01*
X014964Y025574D01*
X014844Y025574D02*
X014601Y025817D01*
X014601Y025877D01*
X014662Y025938D01*
X014783Y025938D01*
X014844Y025877D01*
X014844Y025574D02*
X014601Y025574D01*
X015689Y025877D02*
X015749Y025938D01*
X015871Y025938D01*
X015931Y025877D01*
X015931Y025635D01*
X015855Y026865D02*
X015734Y026865D01*
X015673Y026926D01*
X015553Y026926D02*
X015493Y026865D01*
X015371Y026865D01*
X015311Y026926D01*
X015311Y026987D01*
X015371Y027047D01*
X015553Y027047D01*
X015553Y026926D01*
X015553Y027047D02*
X015432Y027169D01*
X015311Y027229D01*
X015191Y027169D02*
X015130Y027229D01*
X015009Y027229D01*
X014948Y027169D01*
X014948Y027108D01*
X015191Y026865D01*
X014948Y026865D01*
X014828Y026865D02*
X014585Y026865D01*
X014707Y026865D02*
X014707Y027229D01*
X014828Y027108D01*
X015673Y027169D02*
X015734Y027229D01*
X015855Y027229D01*
X015916Y027169D01*
X015916Y026926D01*
X015855Y026865D01*
X015871Y028267D02*
X015749Y028267D01*
X015689Y028328D01*
X015569Y028328D02*
X015508Y028267D01*
X015387Y028267D01*
X015326Y028328D01*
X015326Y028388D01*
X015387Y028449D01*
X015569Y028449D01*
X015569Y028328D01*
X015569Y028449D02*
X015448Y028570D01*
X015326Y028631D01*
X015206Y028570D02*
X015146Y028631D01*
X015024Y028631D01*
X014964Y028570D01*
X014964Y028510D01*
X015206Y028267D01*
X014964Y028267D01*
X014844Y028328D02*
X014601Y028570D01*
X014601Y028328D01*
X014662Y028267D01*
X014783Y028267D01*
X014844Y028328D01*
X014844Y028570D01*
X014783Y028631D01*
X014662Y028631D01*
X014601Y028570D01*
X015689Y028570D02*
X015749Y028631D01*
X015871Y028631D01*
X015931Y028570D01*
X015931Y028328D01*
X015871Y028267D01*
X012132Y028332D02*
X012072Y028271D01*
X011950Y028271D01*
X011890Y028332D01*
X011770Y028332D02*
X011709Y028271D01*
X011588Y028271D01*
X011527Y028332D01*
X011527Y028392D01*
X011588Y028453D01*
X011770Y028453D01*
X011770Y028332D01*
X011770Y028453D02*
X011648Y028574D01*
X011527Y028635D01*
X011407Y028574D02*
X011347Y028635D01*
X011225Y028635D01*
X011165Y028574D01*
X011165Y028514D01*
X011407Y028271D01*
X011165Y028271D01*
X011045Y028332D02*
X010984Y028271D01*
X010863Y028271D01*
X010802Y028332D01*
X010802Y028392D01*
X010863Y028453D01*
X010923Y028453D01*
X010863Y028453D02*
X010802Y028514D01*
X010802Y028574D01*
X010863Y028635D01*
X010984Y028635D01*
X011045Y028574D01*
X011890Y028574D02*
X011950Y028635D01*
X012072Y028635D01*
X012132Y028574D01*
X012132Y028332D01*
X012072Y027257D02*
X011950Y027257D01*
X011890Y027196D01*
X011770Y027075D02*
X011588Y027075D01*
X011527Y027014D01*
X011527Y026954D01*
X011588Y026893D01*
X011709Y026893D01*
X011770Y026954D01*
X011770Y027075D01*
X011648Y027196D01*
X011527Y027257D01*
X011407Y027196D02*
X011347Y027257D01*
X011225Y027257D01*
X011165Y027196D01*
X011165Y027136D01*
X011407Y026893D01*
X011165Y026893D01*
X011045Y027075D02*
X010802Y027075D01*
X010863Y027257D02*
X011045Y027075D01*
X010863Y026893D02*
X010863Y027257D01*
X011890Y026954D02*
X011950Y026893D01*
X012072Y026893D01*
X012132Y026954D01*
X012132Y027196D01*
X012072Y027257D01*
X012072Y025879D02*
X011950Y025879D01*
X011890Y025818D01*
X011770Y025697D02*
X011588Y025697D01*
X011527Y025636D01*
X011527Y025576D01*
X011588Y025515D01*
X011709Y025515D01*
X011770Y025576D01*
X011770Y025697D01*
X011648Y025818D01*
X011527Y025879D01*
X011407Y025818D02*
X011347Y025879D01*
X011225Y025879D01*
X011165Y025818D01*
X011165Y025758D01*
X011407Y025515D01*
X011165Y025515D01*
X011045Y025576D02*
X010984Y025515D01*
X010863Y025515D01*
X010802Y025576D01*
X010802Y025697D01*
X010863Y025758D01*
X010923Y025758D01*
X011045Y025697D01*
X011045Y025879D01*
X010802Y025879D01*
X011890Y025576D02*
X011950Y025515D01*
X012072Y025515D01*
X012132Y025576D01*
X012132Y025818D01*
X012072Y025879D01*
X023410Y029261D02*
X023410Y029384D01*
X023472Y029446D01*
X023410Y029568D02*
X023410Y029814D01*
X023410Y029691D02*
X023780Y029691D01*
X023657Y029568D01*
X023719Y029446D02*
X023780Y029384D01*
X023780Y029261D01*
X023719Y029199D01*
X023472Y029199D01*
X023410Y029261D01*
X023472Y029936D02*
X023410Y029998D01*
X023410Y030121D01*
X023472Y030183D01*
X023534Y030183D01*
X023595Y030121D01*
X023595Y030059D01*
X023595Y030121D02*
X023657Y030183D01*
X023719Y030183D01*
X023780Y030121D01*
X023780Y029998D01*
X023719Y029936D01*
X023780Y030304D02*
X023780Y030551D01*
X023719Y030551D01*
X023472Y030304D01*
X023410Y030304D01*
X024690Y030366D02*
X024690Y030489D01*
X024751Y030551D01*
X024813Y030551D01*
X024875Y030489D01*
X024875Y030304D01*
X024751Y030304D01*
X024690Y030366D01*
X024751Y030183D02*
X024690Y030121D01*
X024690Y029998D01*
X024751Y029936D01*
X024690Y029814D02*
X024690Y029568D01*
X024690Y029691D02*
X025060Y029691D01*
X024937Y029568D01*
X024998Y029446D02*
X025060Y029384D01*
X025060Y029261D01*
X024998Y029199D01*
X024751Y029199D01*
X024690Y029261D01*
X024690Y029384D01*
X024751Y029446D01*
X024998Y029936D02*
X025060Y029998D01*
X025060Y030121D01*
X024998Y030183D01*
X024937Y030183D01*
X024875Y030121D01*
X024813Y030183D01*
X024751Y030183D01*
X024875Y030121D02*
X024875Y030059D01*
X024875Y030304D02*
X024998Y030428D01*
X025060Y030551D01*
X045251Y030830D02*
X045494Y030830D01*
X045613Y030830D02*
X045856Y030830D01*
X045735Y030830D02*
X045735Y031194D01*
X045856Y031073D01*
X045976Y031012D02*
X046219Y031012D01*
X046037Y031194D01*
X046037Y030830D01*
X046338Y030891D02*
X046399Y030830D01*
X046520Y030830D01*
X046581Y030891D01*
X046581Y031133D01*
X046520Y031194D01*
X046399Y031194D01*
X046338Y031133D01*
X045494Y031073D02*
X045372Y031194D01*
X045372Y030830D01*
X045312Y032405D02*
X045433Y032405D01*
X045494Y032465D01*
X045251Y032708D01*
X045251Y032465D01*
X045312Y032405D01*
X045494Y032465D02*
X045494Y032708D01*
X045433Y032769D01*
X045312Y032769D01*
X045251Y032708D01*
X045613Y032405D02*
X045856Y032405D01*
X045735Y032405D02*
X045735Y032769D01*
X045856Y032647D01*
X045976Y032587D02*
X046219Y032587D01*
X046037Y032769D01*
X046037Y032405D01*
X046338Y032465D02*
X046399Y032405D01*
X046520Y032405D01*
X046581Y032465D01*
X046581Y032708D01*
X046520Y032769D01*
X046399Y032769D01*
X046338Y032708D01*
X052398Y011509D02*
X052337Y011448D01*
X052337Y011388D01*
X052398Y011327D01*
X052337Y011266D01*
X052337Y011206D01*
X052398Y011145D01*
X052519Y011145D01*
X052580Y011206D01*
X052700Y011206D02*
X052700Y011448D01*
X052761Y011509D01*
X052882Y011509D01*
X052943Y011448D01*
X052943Y011388D01*
X052882Y011327D01*
X052700Y011327D01*
X052700Y011206D02*
X052761Y011145D01*
X052882Y011145D01*
X052943Y011206D01*
X053062Y011145D02*
X053305Y011145D01*
X053425Y011145D02*
X053546Y011266D01*
X053486Y011266D02*
X053668Y011266D01*
X053668Y011145D02*
X053668Y011509D01*
X053486Y011509D01*
X053425Y011448D01*
X053425Y011327D01*
X053486Y011266D01*
X053305Y011388D02*
X053184Y011509D01*
X053184Y011145D01*
X052580Y011448D02*
X052519Y011509D01*
X052398Y011509D01*
X052398Y011327D02*
X052459Y011327D01*
X051975Y010739D02*
X051914Y010739D01*
X051672Y010496D01*
X051611Y010496D01*
X051672Y010376D02*
X051914Y010376D01*
X051975Y010316D01*
X051975Y010194D01*
X051914Y010134D01*
X051854Y010134D01*
X051793Y010194D01*
X051793Y010376D01*
X051672Y010376D02*
X051611Y010316D01*
X051611Y010194D01*
X051672Y010134D01*
X051611Y010014D02*
X051611Y009771D01*
X051611Y009651D02*
X051732Y009530D01*
X051732Y009591D02*
X051732Y009409D01*
X051611Y009409D02*
X051975Y009409D01*
X051975Y009591D01*
X051914Y009651D01*
X051793Y009651D01*
X051732Y009591D01*
X051854Y009771D02*
X051975Y009893D01*
X051611Y009893D01*
X050869Y009893D02*
X050505Y009893D01*
X050505Y010014D02*
X050505Y009771D01*
X050505Y009651D02*
X050626Y009530D01*
X050626Y009591D02*
X050626Y009409D01*
X050505Y009409D02*
X050869Y009409D01*
X050869Y009591D01*
X050808Y009651D01*
X050687Y009651D01*
X050626Y009591D01*
X050747Y009771D02*
X050869Y009893D01*
X050808Y010134D02*
X050747Y010134D01*
X050687Y010194D01*
X050687Y010376D01*
X050808Y010376D02*
X050869Y010316D01*
X050869Y010194D01*
X050808Y010134D01*
X050808Y010376D02*
X050565Y010376D01*
X050505Y010316D01*
X050505Y010194D01*
X050565Y010134D01*
X050565Y010496D02*
X050626Y010496D01*
X050687Y010557D01*
X050687Y010678D01*
X050626Y010739D01*
X050565Y010739D01*
X050505Y010678D01*
X050505Y010557D01*
X050565Y010496D01*
X050687Y010557D02*
X050747Y010496D01*
X050808Y010496D01*
X050869Y010557D01*
X050869Y010678D01*
X050808Y010739D01*
X050747Y010739D01*
X050687Y010678D01*
X051975Y010739D02*
X051975Y010496D01*
X054306Y011145D02*
X054549Y011145D01*
X054306Y011388D01*
X054306Y011448D01*
X054367Y011509D01*
X054488Y011509D01*
X054549Y011448D01*
X054668Y011448D02*
X054729Y011509D01*
X054850Y011509D01*
X054911Y011448D01*
X054911Y011388D01*
X054850Y011327D01*
X054668Y011327D01*
X054668Y011206D02*
X054668Y011448D01*
X054668Y011206D02*
X054729Y011145D01*
X054850Y011145D01*
X054911Y011206D01*
X055031Y011145D02*
X055274Y011145D01*
X055394Y011145D02*
X055515Y011266D01*
X055454Y011266D02*
X055636Y011266D01*
X055636Y011145D02*
X055636Y011509D01*
X055454Y011509D01*
X055394Y011448D01*
X055394Y011327D01*
X055454Y011266D01*
X055274Y011388D02*
X055152Y011509D01*
X055152Y011145D01*
X061572Y008871D02*
X061572Y008750D01*
X061632Y008689D01*
X061693Y008689D01*
X061754Y008750D01*
X061754Y008871D01*
X061693Y008932D01*
X061632Y008932D01*
X061572Y008871D01*
X061754Y008871D02*
X061814Y008932D01*
X061875Y008932D01*
X061936Y008871D01*
X061936Y008750D01*
X061875Y008689D01*
X061814Y008689D01*
X061754Y008750D01*
X061754Y008569D02*
X061754Y008387D01*
X061814Y008327D01*
X061875Y008327D01*
X061936Y008387D01*
X061936Y008509D01*
X061875Y008569D01*
X061632Y008569D01*
X061572Y008509D01*
X061572Y008387D01*
X061632Y008327D01*
X061572Y008207D02*
X061572Y007964D01*
X061572Y008085D02*
X061936Y008085D01*
X061814Y007964D01*
X061875Y007844D02*
X061936Y007784D01*
X061936Y007662D01*
X061875Y007602D01*
X061632Y007602D01*
X061572Y007662D01*
X061572Y007784D01*
X061632Y007844D01*
X061737Y006879D02*
X061490Y006632D01*
X061428Y006632D01*
X061490Y006510D02*
X061737Y006510D01*
X061798Y006449D01*
X061798Y006325D01*
X061737Y006263D01*
X061675Y006263D01*
X061613Y006325D01*
X061613Y006510D01*
X061490Y006510D02*
X061428Y006449D01*
X061428Y006325D01*
X061490Y006263D01*
X061428Y006142D02*
X061428Y005895D01*
X061428Y006019D02*
X061798Y006019D01*
X061675Y005895D01*
X061737Y005774D02*
X061798Y005712D01*
X061798Y005589D01*
X061737Y005527D01*
X061490Y005527D01*
X061428Y005589D01*
X061428Y005712D01*
X061490Y005774D01*
X061798Y006632D02*
X061798Y006879D01*
X061737Y006879D01*
X048495Y005955D02*
X048495Y005708D01*
X048433Y005647D01*
X048309Y005647D01*
X048248Y005708D01*
X048126Y005647D02*
X047879Y005647D01*
X048003Y005647D02*
X048003Y006017D01*
X048126Y005894D01*
X048248Y005955D02*
X048309Y006017D01*
X048433Y006017D01*
X048495Y005955D01*
X047758Y005955D02*
X047696Y006017D01*
X047573Y006017D01*
X047511Y005955D01*
X047758Y005708D01*
X047696Y005647D01*
X047573Y005647D01*
X047511Y005708D01*
X047511Y005955D01*
X047390Y005832D02*
X047204Y006017D01*
X047204Y005647D01*
X047143Y005832D02*
X047390Y005832D01*
X047758Y005708D02*
X047758Y005955D01*
X047734Y006562D02*
X047488Y006562D01*
X047426Y006623D01*
X047426Y006747D01*
X047488Y006808D01*
X047426Y006930D02*
X047426Y007177D01*
X047426Y007053D02*
X047796Y007053D01*
X047673Y006930D01*
X047734Y006808D02*
X047796Y006747D01*
X047796Y006623D01*
X047734Y006562D01*
X047734Y007298D02*
X047796Y007360D01*
X047796Y007483D01*
X047734Y007545D01*
X047488Y007298D01*
X047426Y007360D01*
X047426Y007483D01*
X047488Y007545D01*
X047734Y007545D01*
X047734Y007666D02*
X047673Y007666D01*
X047611Y007728D01*
X047611Y007913D01*
X047488Y007913D02*
X047734Y007913D01*
X047796Y007852D01*
X047796Y007728D01*
X047734Y007666D01*
X047488Y007666D02*
X047426Y007728D01*
X047426Y007852D01*
X047488Y007913D01*
X047488Y007298D02*
X047734Y007298D01*
X047734Y008727D02*
X047488Y008727D01*
X047426Y008789D01*
X047426Y008912D01*
X047488Y008974D01*
X047426Y009095D02*
X047426Y009342D01*
X047426Y009219D02*
X047796Y009219D01*
X047673Y009095D01*
X047734Y008974D02*
X047796Y008912D01*
X047796Y008789D01*
X047734Y008727D01*
X047734Y009463D02*
X047796Y009525D01*
X047796Y009649D01*
X047734Y009710D01*
X047488Y009463D01*
X047426Y009525D01*
X047426Y009649D01*
X047488Y009710D01*
X047734Y009710D01*
X047734Y009832D02*
X047673Y009832D01*
X047611Y009894D01*
X047611Y010017D01*
X047549Y010079D01*
X047488Y010079D01*
X047426Y010017D01*
X047426Y009894D01*
X047488Y009832D01*
X047549Y009832D01*
X047611Y009894D01*
X047611Y010017D02*
X047673Y010079D01*
X047734Y010079D01*
X047796Y010017D01*
X047796Y009894D01*
X047734Y009832D01*
X047734Y009463D02*
X047488Y009463D01*
X045826Y004918D02*
X045764Y004794D01*
X045640Y004671D01*
X045640Y004856D01*
X045579Y004918D01*
X045517Y004918D01*
X045455Y004856D01*
X045455Y004733D01*
X045517Y004671D01*
X045640Y004671D01*
X045517Y004550D02*
X045764Y004550D01*
X045517Y004303D01*
X045455Y004364D01*
X045455Y004488D01*
X045517Y004550D01*
X045764Y004550D02*
X045826Y004488D01*
X045826Y004364D01*
X045764Y004303D01*
X045517Y004303D01*
X045455Y004181D02*
X045455Y003934D01*
X045455Y004058D02*
X045826Y004058D01*
X045702Y003934D01*
X045764Y003813D02*
X045826Y003751D01*
X045826Y003628D01*
X045764Y003566D01*
X045517Y003566D01*
X045455Y003628D01*
X045455Y003751D01*
X045517Y003813D01*
X044522Y003751D02*
X044522Y003628D01*
X044461Y003566D01*
X044214Y003566D01*
X044152Y003628D01*
X044152Y003751D01*
X044214Y003813D01*
X044152Y003934D02*
X044152Y004181D01*
X044152Y004058D02*
X044522Y004058D01*
X044399Y003934D01*
X044461Y003813D02*
X044522Y003751D01*
X044461Y004303D02*
X044214Y004303D01*
X044461Y004550D01*
X044214Y004550D01*
X044152Y004488D01*
X044152Y004364D01*
X044214Y004303D01*
X044461Y004303D02*
X044522Y004364D01*
X044522Y004488D01*
X044461Y004550D01*
X044522Y004671D02*
X044522Y004918D01*
X044461Y004918D01*
X044214Y004671D01*
X044152Y004671D01*
X047143Y004714D02*
X047390Y004714D01*
X047390Y004529D01*
X047266Y004590D01*
X047204Y004590D01*
X047143Y004529D01*
X047143Y004405D01*
X047204Y004344D01*
X047328Y004344D01*
X047390Y004405D01*
X047511Y004405D02*
X047573Y004344D01*
X047696Y004344D01*
X047758Y004405D01*
X047511Y004652D01*
X047511Y004405D01*
X047758Y004405D02*
X047758Y004652D01*
X047696Y004714D01*
X047573Y004714D01*
X047511Y004652D01*
X047879Y004344D02*
X048126Y004344D01*
X048003Y004344D02*
X048003Y004714D01*
X048126Y004590D01*
X048248Y004652D02*
X048309Y004714D01*
X048433Y004714D01*
X048495Y004652D01*
X048495Y004405D01*
X048433Y004344D01*
X048309Y004344D01*
X048248Y004405D01*
X046000Y001426D02*
X045818Y001426D01*
X045757Y001366D01*
X045757Y001244D01*
X045818Y001184D01*
X046000Y001184D01*
X045878Y001184D02*
X045757Y001062D01*
X045637Y001062D02*
X045394Y001062D01*
X045516Y001062D02*
X045516Y001426D01*
X045637Y001305D01*
X045275Y001305D02*
X045214Y001244D01*
X045032Y001244D01*
X045032Y001123D02*
X045032Y001366D01*
X045093Y001426D01*
X045214Y001426D01*
X045275Y001366D01*
X045275Y001305D01*
X045275Y001123D02*
X045214Y001062D01*
X045093Y001062D01*
X045032Y001123D01*
X044912Y001123D02*
X044669Y001366D01*
X044669Y001123D01*
X044730Y001062D01*
X044851Y001062D01*
X044912Y001123D01*
X044912Y001366D01*
X044851Y001426D01*
X044730Y001426D01*
X044669Y001366D01*
X044031Y001403D02*
X044031Y001039D01*
X044031Y001160D02*
X043849Y001160D01*
X043788Y001221D01*
X043788Y001342D01*
X043849Y001403D01*
X044031Y001403D01*
X043910Y001160D02*
X043788Y001039D01*
X043669Y001039D02*
X043426Y001039D01*
X043547Y001039D02*
X043547Y001403D01*
X043669Y001281D01*
X043306Y001281D02*
X043245Y001221D01*
X043063Y001221D01*
X043063Y001342D02*
X043124Y001403D01*
X043245Y001403D01*
X043306Y001342D01*
X043306Y001281D01*
X043306Y001099D02*
X043245Y001039D01*
X043124Y001039D01*
X043063Y001099D01*
X043063Y001342D01*
X042944Y001281D02*
X042822Y001403D01*
X042822Y001039D01*
X042701Y001039D02*
X042944Y001039D01*
X046000Y001062D02*
X046000Y001426D01*
D14*
X028797Y005870D02*
X028797Y007917D01*
X024781Y007917D01*
X024781Y005870D01*
X028797Y005870D01*
D15*
X028443Y006254D03*
M02*
