G75*
%MOIN*%
%OFA0B0*%
%FSLAX24Y24*%
%IPPOS*%
%LPD*%
%AMOC8*
5,1,8,0,0,1.08239X$1,22.5*
%
%ADD10C,0.0079*%
%ADD11C,0.0000*%
D10*
X000139Y000500D02*
X000139Y039870D01*
X063131Y039870D01*
X063131Y000500D01*
X000139Y000500D01*
D11*
X001509Y002500D02*
X001511Y002550D01*
X001517Y002600D01*
X001527Y002649D01*
X001541Y002697D01*
X001558Y002744D01*
X001579Y002789D01*
X001604Y002833D01*
X001632Y002874D01*
X001664Y002913D01*
X001698Y002950D01*
X001735Y002984D01*
X001775Y003014D01*
X001817Y003041D01*
X001861Y003065D01*
X001907Y003086D01*
X001954Y003102D01*
X002002Y003115D01*
X002052Y003124D01*
X002101Y003129D01*
X002152Y003130D01*
X002202Y003127D01*
X002251Y003120D01*
X002300Y003109D01*
X002348Y003094D01*
X002394Y003076D01*
X002439Y003054D01*
X002482Y003028D01*
X002523Y002999D01*
X002562Y002967D01*
X002598Y002932D01*
X002630Y002894D01*
X002660Y002854D01*
X002687Y002811D01*
X002710Y002767D01*
X002729Y002721D01*
X002745Y002673D01*
X002757Y002624D01*
X002765Y002575D01*
X002769Y002525D01*
X002769Y002475D01*
X002765Y002425D01*
X002757Y002376D01*
X002745Y002327D01*
X002729Y002279D01*
X002710Y002233D01*
X002687Y002189D01*
X002660Y002146D01*
X002630Y002106D01*
X002598Y002068D01*
X002562Y002033D01*
X002523Y002001D01*
X002482Y001972D01*
X002439Y001946D01*
X002394Y001924D01*
X002348Y001906D01*
X002300Y001891D01*
X002251Y001880D01*
X002202Y001873D01*
X002152Y001870D01*
X002101Y001871D01*
X002052Y001876D01*
X002002Y001885D01*
X001954Y001898D01*
X001907Y001914D01*
X001861Y001935D01*
X001817Y001959D01*
X001775Y001986D01*
X001735Y002016D01*
X001698Y002050D01*
X001664Y002087D01*
X001632Y002126D01*
X001604Y002167D01*
X001579Y002211D01*
X001558Y002256D01*
X001541Y002303D01*
X001527Y002351D01*
X001517Y002400D01*
X001511Y002450D01*
X001509Y002500D01*
X021383Y005370D02*
X021385Y005422D01*
X021391Y005474D01*
X021401Y005525D01*
X021414Y005575D01*
X021432Y005625D01*
X021453Y005672D01*
X021477Y005718D01*
X021506Y005762D01*
X021537Y005804D01*
X021571Y005843D01*
X021608Y005880D01*
X021648Y005913D01*
X021691Y005944D01*
X021735Y005971D01*
X021781Y005995D01*
X021830Y006015D01*
X021879Y006031D01*
X021930Y006044D01*
X021981Y006053D01*
X022033Y006058D01*
X022085Y006059D01*
X022137Y006056D01*
X022189Y006049D01*
X022240Y006038D01*
X022290Y006024D01*
X022339Y006005D01*
X022386Y005983D01*
X022431Y005958D01*
X022475Y005929D01*
X022516Y005897D01*
X022555Y005862D01*
X022590Y005824D01*
X022623Y005783D01*
X022653Y005741D01*
X022679Y005696D01*
X022702Y005649D01*
X022721Y005600D01*
X022737Y005550D01*
X022749Y005500D01*
X022757Y005448D01*
X022761Y005396D01*
X022761Y005344D01*
X022757Y005292D01*
X022749Y005240D01*
X022737Y005190D01*
X022721Y005140D01*
X022702Y005091D01*
X022679Y005044D01*
X022653Y004999D01*
X022623Y004957D01*
X022590Y004916D01*
X022555Y004878D01*
X022516Y004843D01*
X022475Y004811D01*
X022431Y004782D01*
X022386Y004757D01*
X022339Y004735D01*
X022290Y004716D01*
X022240Y004702D01*
X022189Y004691D01*
X022137Y004684D01*
X022085Y004681D01*
X022033Y004682D01*
X021981Y004687D01*
X021930Y004696D01*
X021879Y004709D01*
X021830Y004725D01*
X021781Y004745D01*
X021735Y004769D01*
X021691Y004796D01*
X021648Y004827D01*
X021608Y004860D01*
X021571Y004897D01*
X021537Y004936D01*
X021506Y004978D01*
X021477Y005022D01*
X021453Y005068D01*
X021432Y005115D01*
X021414Y005165D01*
X021401Y005215D01*
X021391Y005266D01*
X021385Y005318D01*
X021383Y005370D01*
X025074Y002793D02*
X025076Y002821D01*
X025082Y002848D01*
X025091Y002874D01*
X025104Y002899D01*
X025121Y002922D01*
X025140Y002942D01*
X025162Y002959D01*
X025186Y002973D01*
X025212Y002983D01*
X025239Y002990D01*
X025267Y002993D01*
X025295Y002992D01*
X025322Y002987D01*
X025349Y002978D01*
X025374Y002966D01*
X025397Y002951D01*
X025418Y002932D01*
X025436Y002911D01*
X025451Y002887D01*
X025462Y002861D01*
X025470Y002835D01*
X025474Y002807D01*
X025474Y002779D01*
X025470Y002751D01*
X025462Y002725D01*
X025451Y002699D01*
X025436Y002675D01*
X025418Y002654D01*
X025397Y002635D01*
X025374Y002620D01*
X025349Y002608D01*
X025322Y002599D01*
X025295Y002594D01*
X025267Y002593D01*
X025239Y002596D01*
X025212Y002603D01*
X025186Y002613D01*
X025162Y002627D01*
X025140Y002644D01*
X025121Y002664D01*
X025104Y002687D01*
X025091Y002712D01*
X025082Y002738D01*
X025076Y002765D01*
X025074Y002793D01*
X026774Y002793D02*
X026776Y002821D01*
X026782Y002848D01*
X026791Y002874D01*
X026804Y002899D01*
X026821Y002922D01*
X026840Y002942D01*
X026862Y002959D01*
X026886Y002973D01*
X026912Y002983D01*
X026939Y002990D01*
X026967Y002993D01*
X026995Y002992D01*
X027022Y002987D01*
X027049Y002978D01*
X027074Y002966D01*
X027097Y002951D01*
X027118Y002932D01*
X027136Y002911D01*
X027151Y002887D01*
X027162Y002861D01*
X027170Y002835D01*
X027174Y002807D01*
X027174Y002779D01*
X027170Y002751D01*
X027162Y002725D01*
X027151Y002699D01*
X027136Y002675D01*
X027118Y002654D01*
X027097Y002635D01*
X027074Y002620D01*
X027049Y002608D01*
X027022Y002599D01*
X026995Y002594D01*
X026967Y002593D01*
X026939Y002596D01*
X026912Y002603D01*
X026886Y002613D01*
X026862Y002627D01*
X026840Y002644D01*
X026821Y002664D01*
X026804Y002687D01*
X026791Y002712D01*
X026782Y002738D01*
X026776Y002765D01*
X026774Y002793D01*
X030585Y002793D02*
X030587Y002821D01*
X030593Y002848D01*
X030602Y002874D01*
X030615Y002899D01*
X030632Y002922D01*
X030651Y002942D01*
X030673Y002959D01*
X030697Y002973D01*
X030723Y002983D01*
X030750Y002990D01*
X030778Y002993D01*
X030806Y002992D01*
X030833Y002987D01*
X030860Y002978D01*
X030885Y002966D01*
X030908Y002951D01*
X030929Y002932D01*
X030947Y002911D01*
X030962Y002887D01*
X030973Y002861D01*
X030981Y002835D01*
X030985Y002807D01*
X030985Y002779D01*
X030981Y002751D01*
X030973Y002725D01*
X030962Y002699D01*
X030947Y002675D01*
X030929Y002654D01*
X030908Y002635D01*
X030885Y002620D01*
X030860Y002608D01*
X030833Y002599D01*
X030806Y002594D01*
X030778Y002593D01*
X030750Y002596D01*
X030723Y002603D01*
X030697Y002613D01*
X030673Y002627D01*
X030651Y002644D01*
X030632Y002664D01*
X030615Y002687D01*
X030602Y002712D01*
X030593Y002738D01*
X030587Y002765D01*
X030585Y002793D01*
X032285Y002793D02*
X032287Y002821D01*
X032293Y002848D01*
X032302Y002874D01*
X032315Y002899D01*
X032332Y002922D01*
X032351Y002942D01*
X032373Y002959D01*
X032397Y002973D01*
X032423Y002983D01*
X032450Y002990D01*
X032478Y002993D01*
X032506Y002992D01*
X032533Y002987D01*
X032560Y002978D01*
X032585Y002966D01*
X032608Y002951D01*
X032629Y002932D01*
X032647Y002911D01*
X032662Y002887D01*
X032673Y002861D01*
X032681Y002835D01*
X032685Y002807D01*
X032685Y002779D01*
X032681Y002751D01*
X032673Y002725D01*
X032662Y002699D01*
X032647Y002675D01*
X032629Y002654D01*
X032608Y002635D01*
X032585Y002620D01*
X032560Y002608D01*
X032533Y002599D01*
X032506Y002594D01*
X032478Y002593D01*
X032450Y002596D01*
X032423Y002603D01*
X032397Y002613D01*
X032373Y002627D01*
X032351Y002644D01*
X032332Y002664D01*
X032315Y002687D01*
X032302Y002712D01*
X032293Y002738D01*
X032287Y002765D01*
X032285Y002793D01*
X038313Y005370D02*
X038315Y005422D01*
X038321Y005474D01*
X038331Y005525D01*
X038344Y005575D01*
X038362Y005625D01*
X038383Y005672D01*
X038407Y005718D01*
X038436Y005762D01*
X038467Y005804D01*
X038501Y005843D01*
X038538Y005880D01*
X038578Y005913D01*
X038621Y005944D01*
X038665Y005971D01*
X038711Y005995D01*
X038760Y006015D01*
X038809Y006031D01*
X038860Y006044D01*
X038911Y006053D01*
X038963Y006058D01*
X039015Y006059D01*
X039067Y006056D01*
X039119Y006049D01*
X039170Y006038D01*
X039220Y006024D01*
X039269Y006005D01*
X039316Y005983D01*
X039361Y005958D01*
X039405Y005929D01*
X039446Y005897D01*
X039485Y005862D01*
X039520Y005824D01*
X039553Y005783D01*
X039583Y005741D01*
X039609Y005696D01*
X039632Y005649D01*
X039651Y005600D01*
X039667Y005550D01*
X039679Y005500D01*
X039687Y005448D01*
X039691Y005396D01*
X039691Y005344D01*
X039687Y005292D01*
X039679Y005240D01*
X039667Y005190D01*
X039651Y005140D01*
X039632Y005091D01*
X039609Y005044D01*
X039583Y004999D01*
X039553Y004957D01*
X039520Y004916D01*
X039485Y004878D01*
X039446Y004843D01*
X039405Y004811D01*
X039361Y004782D01*
X039316Y004757D01*
X039269Y004735D01*
X039220Y004716D01*
X039170Y004702D01*
X039119Y004691D01*
X039067Y004684D01*
X039015Y004681D01*
X038963Y004682D01*
X038911Y004687D01*
X038860Y004696D01*
X038809Y004709D01*
X038760Y004725D01*
X038711Y004745D01*
X038665Y004769D01*
X038621Y004796D01*
X038578Y004827D01*
X038538Y004860D01*
X038501Y004897D01*
X038467Y004936D01*
X038436Y004978D01*
X038407Y005022D01*
X038383Y005068D01*
X038362Y005115D01*
X038344Y005165D01*
X038331Y005215D01*
X038321Y005266D01*
X038315Y005318D01*
X038313Y005370D01*
X041651Y011031D02*
X041653Y011083D01*
X041659Y011135D01*
X041669Y011186D01*
X041682Y011236D01*
X041700Y011286D01*
X041721Y011333D01*
X041745Y011379D01*
X041774Y011423D01*
X041805Y011465D01*
X041839Y011504D01*
X041876Y011541D01*
X041916Y011574D01*
X041959Y011605D01*
X042003Y011632D01*
X042049Y011656D01*
X042098Y011676D01*
X042147Y011692D01*
X042198Y011705D01*
X042249Y011714D01*
X042301Y011719D01*
X042353Y011720D01*
X042405Y011717D01*
X042457Y011710D01*
X042508Y011699D01*
X042558Y011685D01*
X042607Y011666D01*
X042654Y011644D01*
X042699Y011619D01*
X042743Y011590D01*
X042784Y011558D01*
X042823Y011523D01*
X042858Y011485D01*
X042891Y011444D01*
X042921Y011402D01*
X042947Y011357D01*
X042970Y011310D01*
X042989Y011261D01*
X043005Y011211D01*
X043017Y011161D01*
X043025Y011109D01*
X043029Y011057D01*
X043029Y011005D01*
X043025Y010953D01*
X043017Y010901D01*
X043005Y010851D01*
X042989Y010801D01*
X042970Y010752D01*
X042947Y010705D01*
X042921Y010660D01*
X042891Y010618D01*
X042858Y010577D01*
X042823Y010539D01*
X042784Y010504D01*
X042743Y010472D01*
X042699Y010443D01*
X042654Y010418D01*
X042607Y010396D01*
X042558Y010377D01*
X042508Y010363D01*
X042457Y010352D01*
X042405Y010345D01*
X042353Y010342D01*
X042301Y010343D01*
X042249Y010348D01*
X042198Y010357D01*
X042147Y010370D01*
X042098Y010386D01*
X042049Y010406D01*
X042003Y010430D01*
X041959Y010457D01*
X041916Y010488D01*
X041876Y010521D01*
X041839Y010558D01*
X041805Y010597D01*
X041774Y010639D01*
X041745Y010683D01*
X041721Y010729D01*
X041700Y010776D01*
X041682Y010826D01*
X041669Y010876D01*
X041659Y010927D01*
X041653Y010979D01*
X041651Y011031D01*
X054887Y005209D02*
X054889Y005240D01*
X054895Y005271D01*
X054904Y005301D01*
X054917Y005330D01*
X054934Y005357D01*
X054954Y005381D01*
X054976Y005403D01*
X055002Y005422D01*
X055029Y005438D01*
X055058Y005450D01*
X055088Y005459D01*
X055119Y005464D01*
X055151Y005465D01*
X055182Y005462D01*
X055213Y005455D01*
X055243Y005445D01*
X055271Y005431D01*
X055297Y005413D01*
X055321Y005393D01*
X055342Y005369D01*
X055361Y005344D01*
X055376Y005316D01*
X055387Y005287D01*
X055395Y005256D01*
X055399Y005225D01*
X055399Y005193D01*
X055395Y005162D01*
X055387Y005131D01*
X055376Y005102D01*
X055361Y005074D01*
X055342Y005049D01*
X055321Y005025D01*
X055297Y005005D01*
X055271Y004987D01*
X055243Y004973D01*
X055213Y004963D01*
X055182Y004956D01*
X055151Y004953D01*
X055119Y004954D01*
X055088Y004959D01*
X055058Y004968D01*
X055029Y004980D01*
X055002Y004996D01*
X054976Y005015D01*
X054954Y005037D01*
X054934Y005061D01*
X054917Y005088D01*
X054904Y005117D01*
X054895Y005147D01*
X054889Y005178D01*
X054887Y005209D01*
X060501Y002500D02*
X060503Y002550D01*
X060509Y002600D01*
X060519Y002649D01*
X060533Y002697D01*
X060550Y002744D01*
X060571Y002789D01*
X060596Y002833D01*
X060624Y002874D01*
X060656Y002913D01*
X060690Y002950D01*
X060727Y002984D01*
X060767Y003014D01*
X060809Y003041D01*
X060853Y003065D01*
X060899Y003086D01*
X060946Y003102D01*
X060994Y003115D01*
X061044Y003124D01*
X061093Y003129D01*
X061144Y003130D01*
X061194Y003127D01*
X061243Y003120D01*
X061292Y003109D01*
X061340Y003094D01*
X061386Y003076D01*
X061431Y003054D01*
X061474Y003028D01*
X061515Y002999D01*
X061554Y002967D01*
X061590Y002932D01*
X061622Y002894D01*
X061652Y002854D01*
X061679Y002811D01*
X061702Y002767D01*
X061721Y002721D01*
X061737Y002673D01*
X061749Y002624D01*
X061757Y002575D01*
X061761Y002525D01*
X061761Y002475D01*
X061757Y002425D01*
X061749Y002376D01*
X061737Y002327D01*
X061721Y002279D01*
X061702Y002233D01*
X061679Y002189D01*
X061652Y002146D01*
X061622Y002106D01*
X061590Y002068D01*
X061554Y002033D01*
X061515Y002001D01*
X061474Y001972D01*
X061431Y001946D01*
X061386Y001924D01*
X061340Y001906D01*
X061292Y001891D01*
X061243Y001880D01*
X061194Y001873D01*
X061144Y001870D01*
X061093Y001871D01*
X061044Y001876D01*
X060994Y001885D01*
X060946Y001898D01*
X060899Y001914D01*
X060853Y001935D01*
X060809Y001959D01*
X060767Y001986D01*
X060727Y002016D01*
X060690Y002050D01*
X060656Y002087D01*
X060624Y002126D01*
X060596Y002167D01*
X060571Y002211D01*
X060550Y002256D01*
X060533Y002303D01*
X060519Y002351D01*
X060509Y002400D01*
X060503Y002450D01*
X060501Y002500D01*
X060942Y011031D02*
X060944Y011083D01*
X060950Y011135D01*
X060960Y011186D01*
X060973Y011236D01*
X060991Y011286D01*
X061012Y011333D01*
X061036Y011379D01*
X061065Y011423D01*
X061096Y011465D01*
X061130Y011504D01*
X061167Y011541D01*
X061207Y011574D01*
X061250Y011605D01*
X061294Y011632D01*
X061340Y011656D01*
X061389Y011676D01*
X061438Y011692D01*
X061489Y011705D01*
X061540Y011714D01*
X061592Y011719D01*
X061644Y011720D01*
X061696Y011717D01*
X061748Y011710D01*
X061799Y011699D01*
X061849Y011685D01*
X061898Y011666D01*
X061945Y011644D01*
X061990Y011619D01*
X062034Y011590D01*
X062075Y011558D01*
X062114Y011523D01*
X062149Y011485D01*
X062182Y011444D01*
X062212Y011402D01*
X062238Y011357D01*
X062261Y011310D01*
X062280Y011261D01*
X062296Y011211D01*
X062308Y011161D01*
X062316Y011109D01*
X062320Y011057D01*
X062320Y011005D01*
X062316Y010953D01*
X062308Y010901D01*
X062296Y010851D01*
X062280Y010801D01*
X062261Y010752D01*
X062238Y010705D01*
X062212Y010660D01*
X062182Y010618D01*
X062149Y010577D01*
X062114Y010539D01*
X062075Y010504D01*
X062034Y010472D01*
X061990Y010443D01*
X061945Y010418D01*
X061898Y010396D01*
X061849Y010377D01*
X061799Y010363D01*
X061748Y010352D01*
X061696Y010345D01*
X061644Y010342D01*
X061592Y010343D01*
X061540Y010348D01*
X061489Y010357D01*
X061438Y010370D01*
X061389Y010386D01*
X061340Y010406D01*
X061294Y010430D01*
X061250Y010457D01*
X061207Y010488D01*
X061167Y010521D01*
X061130Y010558D01*
X061096Y010597D01*
X061065Y010639D01*
X061036Y010683D01*
X061012Y010729D01*
X060991Y010776D01*
X060973Y010826D01*
X060960Y010876D01*
X060950Y010927D01*
X060944Y010979D01*
X060942Y011031D01*
X038313Y030567D02*
X038315Y030619D01*
X038321Y030671D01*
X038331Y030722D01*
X038344Y030772D01*
X038362Y030822D01*
X038383Y030869D01*
X038407Y030915D01*
X038436Y030959D01*
X038467Y031001D01*
X038501Y031040D01*
X038538Y031077D01*
X038578Y031110D01*
X038621Y031141D01*
X038665Y031168D01*
X038711Y031192D01*
X038760Y031212D01*
X038809Y031228D01*
X038860Y031241D01*
X038911Y031250D01*
X038963Y031255D01*
X039015Y031256D01*
X039067Y031253D01*
X039119Y031246D01*
X039170Y031235D01*
X039220Y031221D01*
X039269Y031202D01*
X039316Y031180D01*
X039361Y031155D01*
X039405Y031126D01*
X039446Y031094D01*
X039485Y031059D01*
X039520Y031021D01*
X039553Y030980D01*
X039583Y030938D01*
X039609Y030893D01*
X039632Y030846D01*
X039651Y030797D01*
X039667Y030747D01*
X039679Y030697D01*
X039687Y030645D01*
X039691Y030593D01*
X039691Y030541D01*
X039687Y030489D01*
X039679Y030437D01*
X039667Y030387D01*
X039651Y030337D01*
X039632Y030288D01*
X039609Y030241D01*
X039583Y030196D01*
X039553Y030154D01*
X039520Y030113D01*
X039485Y030075D01*
X039446Y030040D01*
X039405Y030008D01*
X039361Y029979D01*
X039316Y029954D01*
X039269Y029932D01*
X039220Y029913D01*
X039170Y029899D01*
X039119Y029888D01*
X039067Y029881D01*
X039015Y029878D01*
X038963Y029879D01*
X038911Y029884D01*
X038860Y029893D01*
X038809Y029906D01*
X038760Y029922D01*
X038711Y029942D01*
X038665Y029966D01*
X038621Y029993D01*
X038578Y030024D01*
X038538Y030057D01*
X038501Y030094D01*
X038467Y030133D01*
X038436Y030175D01*
X038407Y030219D01*
X038383Y030265D01*
X038362Y030312D01*
X038344Y030362D01*
X038331Y030412D01*
X038321Y030463D01*
X038315Y030515D01*
X038313Y030567D01*
X041651Y033866D02*
X041653Y033918D01*
X041659Y033970D01*
X041669Y034021D01*
X041682Y034071D01*
X041700Y034121D01*
X041721Y034168D01*
X041745Y034214D01*
X041774Y034258D01*
X041805Y034300D01*
X041839Y034339D01*
X041876Y034376D01*
X041916Y034409D01*
X041959Y034440D01*
X042003Y034467D01*
X042049Y034491D01*
X042098Y034511D01*
X042147Y034527D01*
X042198Y034540D01*
X042249Y034549D01*
X042301Y034554D01*
X042353Y034555D01*
X042405Y034552D01*
X042457Y034545D01*
X042508Y034534D01*
X042558Y034520D01*
X042607Y034501D01*
X042654Y034479D01*
X042699Y034454D01*
X042743Y034425D01*
X042784Y034393D01*
X042823Y034358D01*
X042858Y034320D01*
X042891Y034279D01*
X042921Y034237D01*
X042947Y034192D01*
X042970Y034145D01*
X042989Y034096D01*
X043005Y034046D01*
X043017Y033996D01*
X043025Y033944D01*
X043029Y033892D01*
X043029Y033840D01*
X043025Y033788D01*
X043017Y033736D01*
X043005Y033686D01*
X042989Y033636D01*
X042970Y033587D01*
X042947Y033540D01*
X042921Y033495D01*
X042891Y033453D01*
X042858Y033412D01*
X042823Y033374D01*
X042784Y033339D01*
X042743Y033307D01*
X042699Y033278D01*
X042654Y033253D01*
X042607Y033231D01*
X042558Y033212D01*
X042508Y033198D01*
X042457Y033187D01*
X042405Y033180D01*
X042353Y033177D01*
X042301Y033178D01*
X042249Y033183D01*
X042198Y033192D01*
X042147Y033205D01*
X042098Y033221D01*
X042049Y033241D01*
X042003Y033265D01*
X041959Y033292D01*
X041916Y033323D01*
X041876Y033356D01*
X041839Y033393D01*
X041805Y033432D01*
X041774Y033474D01*
X041745Y033518D01*
X041721Y033564D01*
X041700Y033611D01*
X041682Y033661D01*
X041669Y033711D01*
X041659Y033762D01*
X041653Y033814D01*
X041651Y033866D01*
X021383Y030567D02*
X021385Y030619D01*
X021391Y030671D01*
X021401Y030722D01*
X021414Y030772D01*
X021432Y030822D01*
X021453Y030869D01*
X021477Y030915D01*
X021506Y030959D01*
X021537Y031001D01*
X021571Y031040D01*
X021608Y031077D01*
X021648Y031110D01*
X021691Y031141D01*
X021735Y031168D01*
X021781Y031192D01*
X021830Y031212D01*
X021879Y031228D01*
X021930Y031241D01*
X021981Y031250D01*
X022033Y031255D01*
X022085Y031256D01*
X022137Y031253D01*
X022189Y031246D01*
X022240Y031235D01*
X022290Y031221D01*
X022339Y031202D01*
X022386Y031180D01*
X022431Y031155D01*
X022475Y031126D01*
X022516Y031094D01*
X022555Y031059D01*
X022590Y031021D01*
X022623Y030980D01*
X022653Y030938D01*
X022679Y030893D01*
X022702Y030846D01*
X022721Y030797D01*
X022737Y030747D01*
X022749Y030697D01*
X022757Y030645D01*
X022761Y030593D01*
X022761Y030541D01*
X022757Y030489D01*
X022749Y030437D01*
X022737Y030387D01*
X022721Y030337D01*
X022702Y030288D01*
X022679Y030241D01*
X022653Y030196D01*
X022623Y030154D01*
X022590Y030113D01*
X022555Y030075D01*
X022516Y030040D01*
X022475Y030008D01*
X022431Y029979D01*
X022386Y029954D01*
X022339Y029932D01*
X022290Y029913D01*
X022240Y029899D01*
X022189Y029888D01*
X022137Y029881D01*
X022085Y029878D01*
X022033Y029879D01*
X021981Y029884D01*
X021930Y029893D01*
X021879Y029906D01*
X021830Y029922D01*
X021781Y029942D01*
X021735Y029966D01*
X021691Y029993D01*
X021648Y030024D01*
X021608Y030057D01*
X021571Y030094D01*
X021537Y030133D01*
X021506Y030175D01*
X021477Y030219D01*
X021453Y030265D01*
X021432Y030312D01*
X021414Y030362D01*
X021401Y030412D01*
X021391Y030463D01*
X021385Y030515D01*
X021383Y030567D01*
X001509Y037870D02*
X001511Y037920D01*
X001517Y037970D01*
X001527Y038019D01*
X001541Y038067D01*
X001558Y038114D01*
X001579Y038159D01*
X001604Y038203D01*
X001632Y038244D01*
X001664Y038283D01*
X001698Y038320D01*
X001735Y038354D01*
X001775Y038384D01*
X001817Y038411D01*
X001861Y038435D01*
X001907Y038456D01*
X001954Y038472D01*
X002002Y038485D01*
X002052Y038494D01*
X002101Y038499D01*
X002152Y038500D01*
X002202Y038497D01*
X002251Y038490D01*
X002300Y038479D01*
X002348Y038464D01*
X002394Y038446D01*
X002439Y038424D01*
X002482Y038398D01*
X002523Y038369D01*
X002562Y038337D01*
X002598Y038302D01*
X002630Y038264D01*
X002660Y038224D01*
X002687Y038181D01*
X002710Y038137D01*
X002729Y038091D01*
X002745Y038043D01*
X002757Y037994D01*
X002765Y037945D01*
X002769Y037895D01*
X002769Y037845D01*
X002765Y037795D01*
X002757Y037746D01*
X002745Y037697D01*
X002729Y037649D01*
X002710Y037603D01*
X002687Y037559D01*
X002660Y037516D01*
X002630Y037476D01*
X002598Y037438D01*
X002562Y037403D01*
X002523Y037371D01*
X002482Y037342D01*
X002439Y037316D01*
X002394Y037294D01*
X002348Y037276D01*
X002300Y037261D01*
X002251Y037250D01*
X002202Y037243D01*
X002152Y037240D01*
X002101Y037241D01*
X002052Y037246D01*
X002002Y037255D01*
X001954Y037268D01*
X001907Y037284D01*
X001861Y037305D01*
X001817Y037329D01*
X001775Y037356D01*
X001735Y037386D01*
X001698Y037420D01*
X001664Y037457D01*
X001632Y037496D01*
X001604Y037537D01*
X001579Y037581D01*
X001558Y037626D01*
X001541Y037673D01*
X001527Y037721D01*
X001517Y037770D01*
X001511Y037820D01*
X001509Y037870D01*
X060501Y037870D02*
X060503Y037920D01*
X060509Y037970D01*
X060519Y038019D01*
X060533Y038067D01*
X060550Y038114D01*
X060571Y038159D01*
X060596Y038203D01*
X060624Y038244D01*
X060656Y038283D01*
X060690Y038320D01*
X060727Y038354D01*
X060767Y038384D01*
X060809Y038411D01*
X060853Y038435D01*
X060899Y038456D01*
X060946Y038472D01*
X060994Y038485D01*
X061044Y038494D01*
X061093Y038499D01*
X061144Y038500D01*
X061194Y038497D01*
X061243Y038490D01*
X061292Y038479D01*
X061340Y038464D01*
X061386Y038446D01*
X061431Y038424D01*
X061474Y038398D01*
X061515Y038369D01*
X061554Y038337D01*
X061590Y038302D01*
X061622Y038264D01*
X061652Y038224D01*
X061679Y038181D01*
X061702Y038137D01*
X061721Y038091D01*
X061737Y038043D01*
X061749Y037994D01*
X061757Y037945D01*
X061761Y037895D01*
X061761Y037845D01*
X061757Y037795D01*
X061749Y037746D01*
X061737Y037697D01*
X061721Y037649D01*
X061702Y037603D01*
X061679Y037559D01*
X061652Y037516D01*
X061622Y037476D01*
X061590Y037438D01*
X061554Y037403D01*
X061515Y037371D01*
X061474Y037342D01*
X061431Y037316D01*
X061386Y037294D01*
X061340Y037276D01*
X061292Y037261D01*
X061243Y037250D01*
X061194Y037243D01*
X061144Y037240D01*
X061093Y037241D01*
X061044Y037246D01*
X060994Y037255D01*
X060946Y037268D01*
X060899Y037284D01*
X060853Y037305D01*
X060809Y037329D01*
X060767Y037356D01*
X060727Y037386D01*
X060690Y037420D01*
X060656Y037457D01*
X060624Y037496D01*
X060596Y037537D01*
X060571Y037581D01*
X060550Y037626D01*
X060533Y037673D01*
X060519Y037721D01*
X060509Y037770D01*
X060503Y037820D01*
X060501Y037870D01*
X060942Y033866D02*
X060944Y033918D01*
X060950Y033970D01*
X060960Y034021D01*
X060973Y034071D01*
X060991Y034121D01*
X061012Y034168D01*
X061036Y034214D01*
X061065Y034258D01*
X061096Y034300D01*
X061130Y034339D01*
X061167Y034376D01*
X061207Y034409D01*
X061250Y034440D01*
X061294Y034467D01*
X061340Y034491D01*
X061389Y034511D01*
X061438Y034527D01*
X061489Y034540D01*
X061540Y034549D01*
X061592Y034554D01*
X061644Y034555D01*
X061696Y034552D01*
X061748Y034545D01*
X061799Y034534D01*
X061849Y034520D01*
X061898Y034501D01*
X061945Y034479D01*
X061990Y034454D01*
X062034Y034425D01*
X062075Y034393D01*
X062114Y034358D01*
X062149Y034320D01*
X062182Y034279D01*
X062212Y034237D01*
X062238Y034192D01*
X062261Y034145D01*
X062280Y034096D01*
X062296Y034046D01*
X062308Y033996D01*
X062316Y033944D01*
X062320Y033892D01*
X062320Y033840D01*
X062316Y033788D01*
X062308Y033736D01*
X062296Y033686D01*
X062280Y033636D01*
X062261Y033587D01*
X062238Y033540D01*
X062212Y033495D01*
X062182Y033453D01*
X062149Y033412D01*
X062114Y033374D01*
X062075Y033339D01*
X062034Y033307D01*
X061990Y033278D01*
X061945Y033253D01*
X061898Y033231D01*
X061849Y033212D01*
X061799Y033198D01*
X061748Y033187D01*
X061696Y033180D01*
X061644Y033177D01*
X061592Y033178D01*
X061540Y033183D01*
X061489Y033192D01*
X061438Y033205D01*
X061389Y033221D01*
X061340Y033241D01*
X061294Y033265D01*
X061250Y033292D01*
X061207Y033323D01*
X061167Y033356D01*
X061130Y033393D01*
X061096Y033432D01*
X061065Y033474D01*
X061036Y033518D01*
X061012Y033564D01*
X060991Y033611D01*
X060973Y033661D01*
X060960Y033711D01*
X060950Y033762D01*
X060944Y033814D01*
X060942Y033866D01*
M02*
