G75*
%MOIN*%
%OFA0B0*%
%FSLAX24Y24*%
%IPPOS*%
%LPD*%
%AMOC8*
5,1,8,0,0,1.08239X$1,22.5*
%
%ADD10C,0.1340*%
%ADD11OC8,0.0660*%
%ADD12OC8,0.0740*%
%ADD13C,0.1500*%
%ADD14C,0.1580*%
%ADD15C,0.1000*%
%ADD16C,0.1080*%
%ADD17C,0.0660*%
%ADD18C,0.0740*%
%ADD19OC8,0.0600*%
%ADD20OC8,0.0680*%
%ADD21C,0.1458*%
%ADD22OC8,0.0850*%
%ADD23OC8,0.0930*%
%ADD24R,0.0592X0.0671*%
%ADD25R,0.0671X0.0592*%
%ADD26R,0.0280X0.1080*%
%ADD27R,0.0867X0.1180*%
%ADD28C,0.0480*%
%ADD29R,0.0316X0.0690*%
%ADD30R,0.0513X0.0592*%
%ADD31R,0.0600X0.0600*%
%ADD32R,0.0680X0.0680*%
%ADD33C,0.0600*%
%ADD34C,0.0680*%
%ADD35C,0.0472*%
%ADD36C,0.0552*%
%ADD37C,0.0592*%
%ADD38R,0.0316X0.0718*%
%ADD39C,0.0512*%
%ADD40OC8,0.0630*%
%ADD41OC8,0.0710*%
%ADD42C,0.0630*%
%ADD43C,0.0710*%
%ADD44C,0.0760*%
%ADD45C,0.0840*%
%ADD46C,0.1890*%
%ADD47C,0.1970*%
%ADD48C,0.0531*%
%ADD49C,0.0611*%
%ADD50R,0.0580X0.1080*%
%ADD51C,0.0600*%
%ADD52C,0.0680*%
%ADD53R,0.0395X0.0395*%
%ADD54R,0.0630X0.0217*%
D10*
X002139Y002500D03*
X002139Y037870D03*
X061131Y037870D03*
X061131Y002500D03*
D11*
X013214Y022224D03*
X013214Y023224D03*
X013214Y024224D03*
X013214Y025224D03*
X013214Y026224D03*
X006214Y026224D03*
X006214Y025224D03*
X006214Y024224D03*
X006214Y023224D03*
X006214Y022224D03*
X006214Y031224D03*
X006214Y034224D03*
X013214Y034224D03*
X013214Y031224D03*
D12*
X013214Y031224D03*
X013214Y034224D03*
X006214Y034224D03*
X006214Y031224D03*
X006214Y026224D03*
X006214Y025224D03*
X006214Y024224D03*
X006214Y023224D03*
X006214Y022224D03*
X013214Y022224D03*
X013214Y023224D03*
X013214Y024224D03*
X013214Y025224D03*
X013214Y026224D03*
D13*
X009757Y021236D03*
X009100Y018177D03*
X010844Y018220D03*
X016002Y018220D03*
X016757Y021236D03*
X003943Y018177D03*
X003458Y035213D03*
X010458Y035213D03*
D14*
X010458Y035213D03*
X003458Y035213D03*
X009757Y021236D03*
X009100Y018177D03*
X010844Y018220D03*
X016002Y018220D03*
X016757Y021236D03*
X003943Y018177D03*
D15*
X009243Y008800D03*
X012993Y008800D03*
X015258Y008800D03*
X019008Y008800D03*
X019008Y001300D03*
X017758Y001300D03*
X016508Y001300D03*
X015258Y001300D03*
X012993Y001300D03*
X011743Y001300D03*
X010493Y001300D03*
X009243Y001300D03*
X008020Y038163D03*
X005020Y038163D03*
X012214Y038137D03*
X015214Y038137D03*
D16*
X015214Y038137D03*
X012214Y038137D03*
X008020Y038163D03*
X005020Y038163D03*
X009243Y008800D03*
X012993Y008800D03*
X015258Y008800D03*
X019008Y008800D03*
X019008Y001300D03*
X017758Y001300D03*
X016508Y001300D03*
X015258Y001300D03*
X012993Y001300D03*
X011743Y001300D03*
X010493Y001300D03*
X009243Y001300D03*
D17*
X011342Y011332D03*
X011361Y013552D03*
X020361Y013552D03*
X020342Y011332D03*
D18*
X020342Y011332D03*
X020361Y013552D03*
X011361Y013552D03*
X011342Y011332D03*
D19*
X022151Y011799D03*
X023151Y011799D03*
X023151Y012799D03*
X022151Y012799D03*
X022151Y013799D03*
X023151Y013799D03*
X023151Y014799D03*
X022151Y014799D03*
X022151Y015799D03*
X023151Y015799D03*
X023151Y016799D03*
X022151Y016799D03*
X022151Y017799D03*
X023151Y017799D03*
X023151Y018799D03*
X022151Y018799D03*
X022151Y019799D03*
X023151Y019799D03*
X023151Y020799D03*
X022151Y020799D03*
X022151Y021799D03*
X023151Y021799D03*
X023151Y022799D03*
X022151Y022799D03*
X022151Y023799D03*
X023151Y023799D03*
X023151Y024799D03*
X022151Y024799D03*
X022151Y025799D03*
X023151Y025799D03*
X023151Y026799D03*
X022151Y026799D03*
X022151Y027799D03*
X023151Y027799D03*
X029454Y033996D03*
X030454Y033996D03*
X030454Y034996D03*
X029454Y034996D03*
X029462Y037661D03*
X028462Y037661D03*
X027462Y037661D03*
X026462Y037661D03*
X025462Y037661D03*
X025462Y038661D03*
X026462Y038661D03*
X027462Y038661D03*
X028462Y038661D03*
X029462Y038661D03*
X030462Y038661D03*
X031462Y038661D03*
X031462Y037661D03*
X030462Y037661D03*
X038061Y027799D03*
X039061Y027799D03*
X039061Y026799D03*
X038061Y026799D03*
X038061Y025799D03*
X039061Y025799D03*
X039061Y024799D03*
X038061Y024799D03*
X038061Y023799D03*
X039061Y023799D03*
X039061Y022799D03*
X038061Y022799D03*
X038061Y021799D03*
X039061Y021799D03*
X039061Y020799D03*
X038061Y020799D03*
X038061Y019799D03*
X039061Y019799D03*
X039061Y018799D03*
X038061Y018799D03*
X038061Y017799D03*
X039061Y017799D03*
X039061Y016799D03*
X038061Y016799D03*
X038061Y015799D03*
X039061Y015799D03*
X039061Y014799D03*
X038061Y014799D03*
X038061Y013799D03*
X039061Y013799D03*
X039061Y012799D03*
X038061Y012799D03*
X038061Y011799D03*
X039061Y011799D03*
X039061Y010799D03*
X038061Y010799D03*
X038061Y009799D03*
X039061Y009799D03*
X039061Y008799D03*
X038061Y008799D03*
X023151Y008799D03*
X022151Y008799D03*
X022151Y009799D03*
X023151Y009799D03*
X023151Y010799D03*
X022151Y010799D03*
D20*
X022151Y010799D03*
X023151Y010799D03*
X023151Y009799D03*
X022151Y009799D03*
X022151Y008799D03*
X023151Y008799D03*
X023151Y011799D03*
X022151Y011799D03*
X022151Y012799D03*
X023151Y012799D03*
X023151Y013799D03*
X022151Y013799D03*
X022151Y014799D03*
X023151Y014799D03*
X023151Y015799D03*
X022151Y015799D03*
X022151Y016799D03*
X023151Y016799D03*
X023151Y017799D03*
X022151Y017799D03*
X022151Y018799D03*
X023151Y018799D03*
X023151Y019799D03*
X022151Y019799D03*
X022151Y020799D03*
X023151Y020799D03*
X023151Y021799D03*
X022151Y021799D03*
X022151Y022799D03*
X023151Y022799D03*
X023151Y023799D03*
X022151Y023799D03*
X022151Y024799D03*
X023151Y024799D03*
X023151Y025799D03*
X022151Y025799D03*
X022151Y026799D03*
X023151Y026799D03*
X023151Y027799D03*
X022151Y027799D03*
X029454Y033996D03*
X030454Y033996D03*
X030454Y034996D03*
X029454Y034996D03*
X029462Y037661D03*
X028462Y037661D03*
X027462Y037661D03*
X026462Y037661D03*
X025462Y037661D03*
X025462Y038661D03*
X026462Y038661D03*
X027462Y038661D03*
X028462Y038661D03*
X029462Y038661D03*
X030462Y038661D03*
X031462Y038661D03*
X031462Y037661D03*
X030462Y037661D03*
X038061Y027799D03*
X039061Y027799D03*
X039061Y026799D03*
X038061Y026799D03*
X038061Y025799D03*
X039061Y025799D03*
X039061Y024799D03*
X038061Y024799D03*
X038061Y023799D03*
X039061Y023799D03*
X039061Y022799D03*
X038061Y022799D03*
X038061Y021799D03*
X039061Y021799D03*
X039061Y020799D03*
X038061Y020799D03*
X038061Y019799D03*
X039061Y019799D03*
X039061Y018799D03*
X038061Y018799D03*
X038061Y017799D03*
X039061Y017799D03*
X039061Y016799D03*
X038061Y016799D03*
X038061Y015799D03*
X039061Y015799D03*
X039061Y014799D03*
X038061Y014799D03*
X038061Y013799D03*
X039061Y013799D03*
X039061Y012799D03*
X038061Y012799D03*
X038061Y011799D03*
X039061Y011799D03*
X039061Y010799D03*
X038061Y010799D03*
X038061Y009799D03*
X039061Y009799D03*
X039061Y008799D03*
X038061Y008799D03*
D21*
X042340Y011031D03*
X039002Y005370D03*
X022072Y005370D03*
X022072Y030567D03*
X039002Y030567D03*
X042340Y033866D03*
X061631Y033866D03*
X061631Y011031D03*
D22*
X057545Y011933D03*
X057545Y013583D03*
X055978Y018516D03*
X061793Y019791D03*
X061793Y020972D03*
X061793Y022154D03*
X057620Y024122D03*
X057620Y025697D03*
X056029Y030665D03*
X029754Y022417D03*
X031139Y013957D03*
X031167Y012398D03*
X035285Y001287D03*
X036285Y001287D03*
X037285Y001287D03*
X048143Y002429D03*
X006139Y010000D03*
X004639Y010000D03*
X021120Y033531D03*
X021120Y034531D03*
X021120Y035531D03*
X021120Y036531D03*
X021120Y037531D03*
D23*
X021120Y037531D03*
X021120Y036531D03*
X021120Y035531D03*
X021120Y034531D03*
X021120Y033531D03*
X029754Y022417D03*
X031139Y013957D03*
X031167Y012398D03*
X035285Y001287D03*
X036285Y001287D03*
X037285Y001287D03*
X048143Y002429D03*
X057545Y011933D03*
X057545Y013583D03*
X055978Y018516D03*
X061793Y019791D03*
X061793Y020972D03*
X061793Y022154D03*
X057620Y024122D03*
X057620Y025697D03*
X056029Y030665D03*
X006139Y010000D03*
X004639Y010000D03*
D24*
X032553Y021382D03*
X033301Y021382D03*
X033301Y022587D03*
X032553Y022587D03*
D25*
X034927Y022461D03*
X034927Y021713D03*
X036131Y021713D03*
X036131Y022461D03*
X031635Y018984D03*
X031635Y018236D03*
X031635Y017016D03*
X031635Y016268D03*
X031617Y011110D03*
X031617Y010362D03*
X032794Y010362D03*
X032794Y011110D03*
X034057Y011061D03*
X034057Y010313D03*
X049746Y019811D03*
X049746Y020559D03*
X051124Y020559D03*
X051124Y019811D03*
X056045Y020598D03*
X056045Y021346D03*
X057718Y021346D03*
X057718Y020598D03*
X051124Y032016D03*
X051124Y032764D03*
X049746Y032764D03*
X049746Y032016D03*
X056045Y032803D03*
X056045Y033551D03*
X057718Y033551D03*
X057718Y032803D03*
D26*
X032265Y003893D03*
X031950Y003893D03*
X031635Y003893D03*
X031320Y003893D03*
X031006Y003893D03*
X026754Y003893D03*
X026439Y003893D03*
X026124Y003893D03*
X025809Y003893D03*
X025494Y003893D03*
D27*
X024352Y003778D03*
X024352Y001612D03*
X027895Y001612D03*
X029864Y001612D03*
X029864Y003778D03*
X027895Y003778D03*
X033407Y003778D03*
X033407Y001612D03*
D28*
X032485Y002793D03*
X030785Y002793D03*
X026974Y002793D03*
X025274Y002793D03*
D29*
X050177Y012047D03*
X050677Y012047D03*
X051177Y012047D03*
X051677Y012047D03*
X051677Y014150D03*
X051177Y014150D03*
X050677Y014150D03*
X050177Y014150D03*
X050177Y024252D03*
X050677Y024252D03*
X051177Y024252D03*
X051677Y024252D03*
X051677Y026354D03*
X051177Y026354D03*
X050677Y026354D03*
X050177Y026354D03*
X030031Y026697D03*
X029531Y026697D03*
X029031Y026697D03*
X028531Y026697D03*
X028531Y024594D03*
X029031Y024594D03*
X029531Y024594D03*
X030031Y024594D03*
X029968Y029004D03*
X029468Y029004D03*
X028968Y029004D03*
X028468Y029004D03*
X028468Y031106D03*
X028968Y031106D03*
X029468Y031106D03*
X029968Y031106D03*
D30*
X031482Y030925D03*
X032230Y030925D03*
X033509Y030984D03*
X034257Y030984D03*
X035474Y032406D03*
X036222Y032406D03*
X034324Y032469D03*
X033576Y032469D03*
X032324Y032469D03*
X031576Y032469D03*
X031506Y029453D03*
X032254Y029453D03*
X033576Y029409D03*
X034324Y029409D03*
X034372Y027665D03*
X033624Y027665D03*
X032403Y027665D03*
X031655Y027665D03*
X031655Y026091D03*
X032403Y026091D03*
X033624Y026091D03*
X034372Y026091D03*
X034372Y024516D03*
X033624Y024516D03*
X032403Y024516D03*
X031655Y024516D03*
X035592Y027665D03*
X036340Y027665D03*
X050159Y021760D03*
X050907Y021760D03*
X053179Y024244D03*
X053927Y024244D03*
X055147Y024169D03*
X055895Y024169D03*
X055895Y025677D03*
X055147Y025677D03*
X053958Y025697D03*
X053210Y025697D03*
X053131Y027220D03*
X053880Y027220D03*
X055131Y027220D03*
X055880Y027220D03*
X057155Y027197D03*
X057903Y027197D03*
X055907Y029173D03*
X055159Y029173D03*
X053939Y029177D03*
X053191Y029177D03*
X057135Y029276D03*
X057883Y029276D03*
X050907Y033965D03*
X050159Y033965D03*
X053171Y017008D03*
X053919Y017008D03*
X055171Y017008D03*
X055919Y017008D03*
X057139Y017008D03*
X057887Y017008D03*
X057919Y015008D03*
X057171Y015008D03*
X055919Y015008D03*
X055171Y015008D03*
X053919Y015008D03*
X053171Y015008D03*
X053171Y013508D03*
X053919Y013508D03*
X055171Y013508D03*
X055919Y013508D03*
X055919Y012008D03*
X055171Y012008D03*
X053919Y012008D03*
X053171Y012008D03*
X040104Y002713D03*
X039356Y002713D03*
D31*
X042840Y031949D03*
D32*
X042840Y031949D03*
D33*
X041839Y031954D03*
X041839Y030954D03*
X042839Y030954D03*
X042839Y029954D03*
X041839Y029954D03*
X041839Y028954D03*
X042839Y028954D03*
X042839Y027954D03*
X041839Y027954D03*
X041839Y026954D03*
X042839Y026954D03*
X042839Y025954D03*
X041839Y025954D03*
X041839Y024954D03*
X042839Y024954D03*
X042839Y023954D03*
X041839Y023954D03*
X041839Y022954D03*
X042839Y022954D03*
X042839Y021954D03*
X041839Y021954D03*
X041839Y020954D03*
X042839Y020954D03*
X042839Y019954D03*
X041839Y019954D03*
X041839Y018954D03*
X042839Y018954D03*
X042839Y017954D03*
X041839Y017954D03*
X041839Y016954D03*
X042839Y016954D03*
X042839Y015954D03*
X041839Y015954D03*
X041839Y014954D03*
X042839Y014954D03*
X042839Y013954D03*
X041839Y013954D03*
X041839Y012954D03*
X042839Y012954D03*
D34*
X042839Y012954D03*
X041839Y012954D03*
X041839Y013954D03*
X042839Y013954D03*
X042839Y014954D03*
X041839Y014954D03*
X041839Y015954D03*
X042839Y015954D03*
X042839Y016954D03*
X041839Y016954D03*
X041839Y017954D03*
X042839Y017954D03*
X042839Y018954D03*
X041839Y018954D03*
X041839Y019954D03*
X042839Y019954D03*
X042839Y020954D03*
X041839Y020954D03*
X041839Y021954D03*
X042839Y021954D03*
X042839Y022954D03*
X041839Y022954D03*
X041839Y023954D03*
X042839Y023954D03*
X042839Y024954D03*
X041839Y024954D03*
X041839Y025954D03*
X042839Y025954D03*
X042839Y026954D03*
X041839Y026954D03*
X041839Y027954D03*
X042839Y027954D03*
X042839Y028954D03*
X041839Y028954D03*
X041839Y029954D03*
X042839Y029954D03*
X042839Y030954D03*
X041839Y030954D03*
X041839Y031954D03*
D35*
X035680Y034039D03*
X035680Y034669D03*
X035680Y035299D03*
X033214Y035264D03*
X033214Y034634D03*
X033214Y034004D03*
X025943Y034445D03*
X025943Y035445D03*
X025943Y033445D03*
X018876Y023882D03*
X018876Y022882D03*
X018876Y021882D03*
X018895Y018933D03*
X018895Y017933D03*
X018895Y016933D03*
X008805Y013717D03*
X008175Y013717D03*
X007545Y013717D03*
X005966Y013728D03*
X005336Y013728D03*
X004706Y013728D03*
X001714Y015736D03*
X001714Y016642D03*
X001714Y017547D03*
X001713Y018735D03*
X001713Y019640D03*
X001713Y020546D03*
X048486Y036350D03*
X048486Y037350D03*
X048486Y038350D03*
X055257Y038350D03*
X055257Y037350D03*
X055257Y036350D03*
D36*
X055257Y036350D03*
X055257Y037350D03*
X055257Y038350D03*
X048486Y038350D03*
X048486Y037350D03*
X048486Y036350D03*
X035680Y035299D03*
X035680Y034669D03*
X035680Y034039D03*
X033214Y034004D03*
X033214Y034634D03*
X033214Y035264D03*
X025943Y035445D03*
X025943Y034445D03*
X025943Y033445D03*
X018876Y023882D03*
X018876Y022882D03*
X018876Y021882D03*
X018895Y018933D03*
X018895Y017933D03*
X018895Y016933D03*
X008805Y013717D03*
X008175Y013717D03*
X007545Y013717D03*
X005966Y013728D03*
X005336Y013728D03*
X004706Y013728D03*
X001714Y015736D03*
X001714Y016642D03*
X001714Y017547D03*
X001713Y018735D03*
X001713Y019640D03*
X001713Y020546D03*
D37*
X017643Y032965D03*
X018643Y033965D03*
X019643Y032965D03*
X019643Y034965D03*
X019643Y036508D03*
X018643Y037508D03*
X017643Y036508D03*
X017643Y034965D03*
X017643Y038508D03*
X019643Y038508D03*
X050399Y038665D03*
X051399Y037665D03*
X052399Y038665D03*
X052399Y036665D03*
X050399Y036665D03*
X057171Y036665D03*
X058171Y037665D03*
X059171Y038665D03*
X057171Y038665D03*
X059171Y036665D03*
X055143Y005209D03*
D38*
X054433Y019124D03*
X053933Y019124D03*
X053433Y019124D03*
X052933Y019124D03*
X052933Y021246D03*
X053433Y021246D03*
X053933Y021246D03*
X054433Y021246D03*
X054433Y031329D03*
X053933Y031329D03*
X053433Y031329D03*
X052933Y031329D03*
X052933Y033450D03*
X053433Y033450D03*
X053933Y033450D03*
X054433Y033450D03*
D39*
X052399Y036665D03*
X051399Y037665D03*
X050399Y038665D03*
X052399Y038665D03*
X050399Y036665D03*
X057171Y036665D03*
X058171Y037665D03*
X059171Y038665D03*
X057171Y038665D03*
X059171Y036665D03*
X019643Y036508D03*
X018643Y037508D03*
X017643Y036508D03*
X017643Y034965D03*
X018643Y033965D03*
X017643Y032965D03*
X019643Y032965D03*
X019643Y034965D03*
X019643Y038508D03*
X017643Y038508D03*
D40*
X007153Y008216D03*
X004789Y008156D03*
D41*
X004789Y008156D03*
X007153Y008216D03*
D42*
X007153Y007216D03*
X004789Y007156D03*
D43*
X004789Y007156D03*
X007153Y007216D03*
D44*
X002305Y007102D03*
X002305Y006102D03*
X002305Y005102D03*
X002305Y008102D03*
X002305Y010811D03*
X002305Y011811D03*
X002305Y012811D03*
X002305Y013811D03*
X021313Y001945D03*
X022313Y001945D03*
X019037Y027272D03*
X018037Y027272D03*
X018037Y030815D03*
X019037Y030815D03*
X033443Y037443D03*
X034443Y037443D03*
X035443Y037443D03*
X037928Y037408D03*
X038928Y037408D03*
X039928Y037408D03*
X042750Y037408D03*
X043750Y037408D03*
X044750Y037408D03*
X045750Y037408D03*
X039943Y034358D03*
X038943Y034358D03*
X037943Y034358D03*
D45*
X037943Y034358D03*
X038943Y034358D03*
X039943Y034358D03*
X039928Y037408D03*
X038928Y037408D03*
X037928Y037408D03*
X035443Y037443D03*
X034443Y037443D03*
X033443Y037443D03*
X042750Y037408D03*
X043750Y037408D03*
X044750Y037408D03*
X045750Y037408D03*
X019037Y030815D03*
X018037Y030815D03*
X018037Y027272D03*
X019037Y027272D03*
X002305Y013811D03*
X002305Y012811D03*
X002305Y011811D03*
X002305Y010811D03*
X002305Y008102D03*
X002305Y007102D03*
X002305Y006102D03*
X002305Y005102D03*
X021313Y001945D03*
X022313Y001945D03*
D46*
X007557Y004370D03*
X005706Y003228D03*
X005706Y005551D03*
D47*
X005706Y005551D03*
X007557Y004370D03*
X005706Y003228D03*
D48*
X006128Y017114D03*
X006915Y017114D03*
X007899Y017114D03*
X005143Y017114D03*
X012045Y017157D03*
X013029Y017157D03*
X013817Y017157D03*
X014801Y017157D03*
D49*
X014801Y017157D03*
X013817Y017157D03*
X013029Y017157D03*
X012045Y017157D03*
X007899Y017114D03*
X006915Y017114D03*
X006128Y017114D03*
X005143Y017114D03*
D50*
X049533Y017823D03*
X050533Y017823D03*
X051533Y017823D03*
X051533Y015854D03*
X050533Y015854D03*
X049533Y015854D03*
X052698Y008972D03*
X053698Y008972D03*
X054698Y008972D03*
X051533Y028059D03*
X050533Y028059D03*
X049533Y028059D03*
X049533Y030028D03*
X050533Y030028D03*
X051533Y030028D03*
D51*
X061182Y028276D02*
X061782Y028276D01*
X061782Y027276D02*
X061182Y027276D01*
X061182Y026276D02*
X061782Y026276D01*
X061782Y025276D02*
X061182Y025276D01*
X061182Y024276D02*
X061782Y024276D01*
D52*
X061182Y024276D01*
X061182Y025276D02*
X061782Y025276D01*
X061782Y026276D02*
X061182Y026276D01*
X061182Y027276D02*
X061782Y027276D01*
X061782Y028276D02*
X061182Y028276D01*
D53*
X039574Y001035D03*
X038925Y001035D03*
X011370Y015461D03*
X010720Y015461D03*
X004992Y012311D03*
X004342Y012311D03*
X004342Y011524D03*
X004992Y011524D03*
D54*
X031377Y009250D03*
X031377Y008994D03*
X031377Y008738D03*
X031377Y008482D03*
X031377Y008226D03*
X031377Y007970D03*
X031377Y007715D03*
X031377Y007459D03*
X031377Y007203D03*
X031377Y006947D03*
X031377Y006691D03*
X031377Y006435D03*
X031377Y006179D03*
X031377Y005923D03*
X034256Y005923D03*
X034256Y006179D03*
X034256Y006435D03*
X034256Y006691D03*
X034256Y006947D03*
X034256Y007203D03*
X034256Y007459D03*
X034256Y007715D03*
X034256Y007970D03*
X034256Y008226D03*
X034256Y008482D03*
X034256Y008738D03*
X034256Y008994D03*
X034256Y009250D03*
M02*
