G75*
%MOIN*%
%OFA0B0*%
%FSLAX24Y24*%
%IPPOS*%
%LPD*%
%AMOC8*
5,1,8,0,0,1.08239X$1,22.5*
%
%ADD10C,0.0100*%
%ADD11C,0.0000*%
%ADD12R,0.0118X0.0009*%
%ADD13R,0.0109X0.0009*%
%ADD14R,0.0181X0.0009*%
%ADD15R,0.0172X0.0009*%
%ADD16R,0.0226X0.0009*%
%ADD17R,0.0163X0.0009*%
%ADD18R,0.0154X0.0009*%
%ADD19R,0.0208X0.0009*%
%ADD20R,0.0145X0.0009*%
%ADD21R,0.0235X0.0009*%
%ADD22R,0.0190X0.0009*%
%ADD23R,0.0272X0.0009*%
%ADD24R,0.0244X0.0009*%
%ADD25R,0.0290X0.0009*%
%ADD26R,0.0199X0.0009*%
%ADD27R,0.0317X0.0009*%
%ADD28R,0.0489X0.0009*%
%ADD29R,0.0308X0.0009*%
%ADD30R,0.0498X0.0009*%
%ADD31R,0.0326X0.0009*%
%ADD32R,0.0217X0.0009*%
%ADD33R,0.0507X0.0009*%
%ADD34R,0.0516X0.0009*%
%ADD35R,0.0254X0.0009*%
%ADD36R,0.0616X0.0009*%
%ADD37R,0.0607X0.0009*%
%ADD38R,0.0598X0.0009*%
%ADD39R,0.0589X0.0009*%
%ADD40R,0.0580X0.0009*%
%ADD41R,0.0570X0.0009*%
%ADD42R,0.0389X0.0009*%
%ADD43R,0.0561X0.0009*%
%ADD44R,0.0299X0.0009*%
%ADD45R,0.0380X0.0009*%
%ADD46R,0.0552X0.0009*%
%ADD47R,0.0543X0.0009*%
%ADD48R,0.0480X0.0009*%
%ADD49R,0.0371X0.0009*%
%ADD50R,0.0462X0.0009*%
%ADD51R,0.0362X0.0009*%
%ADD52R,0.0534X0.0009*%
%ADD53R,0.0453X0.0009*%
%ADD54R,0.0525X0.0009*%
%ADD55R,0.0435X0.0009*%
%ADD56R,0.0353X0.0009*%
%ADD57R,0.0407X0.0009*%
%ADD58R,0.0344X0.0009*%
%ADD59R,0.0335X0.0009*%
%ADD60R,0.0027X0.0009*%
%ADD61R,0.0471X0.0009*%
%ADD62R,0.0417X0.0009*%
%ADD63R,0.0398X0.0009*%
%ADD64R,0.0281X0.0009*%
%ADD65R,0.0136X0.0009*%
%ADD66R,0.0100X0.0009*%
%ADD67R,0.0263X0.0009*%
%ADD68R,0.0426X0.0009*%
%ADD69R,0.0444X0.0009*%
%ADD70R,0.0652X0.0009*%
%ADD71R,0.0688X0.0009*%
%ADD72R,0.0697X0.0009*%
%ADD73R,0.0706X0.0009*%
%ADD74R,0.0715X0.0009*%
%ADD75R,0.0625X0.0009*%
%ADD76R,0.0634X0.0009*%
%ADD77R,0.0643X0.0009*%
%ADD78R,0.0679X0.0009*%
%ADD79R,0.0670X0.0009*%
%ADD80R,0.0661X0.0009*%
%ADD81R,0.0733X0.0009*%
%ADD82R,0.0761X0.0009*%
%ADD83R,0.1467X0.0009*%
%ADD84R,0.1458X0.0009*%
%ADD85R,0.1476X0.0009*%
%ADD86R,0.1485X0.0009*%
%ADD87R,0.1503X0.0009*%
%ADD88R,0.1512X0.0009*%
%ADD89R,0.1530X0.0009*%
%ADD90R,0.1539X0.0009*%
%ADD91R,0.1548X0.0009*%
%ADD92R,0.1557X0.0009*%
%ADD93R,0.1576X0.0009*%
%ADD94R,0.1594X0.0009*%
%ADD95R,0.1612X0.0009*%
%ADD96R,0.1630X0.0009*%
%ADD97R,0.2164X0.0009*%
%ADD98R,0.2173X0.0009*%
%ADD99R,0.2182X0.0009*%
%ADD100R,0.2191X0.0009*%
%ADD101R,0.2209X0.0009*%
%ADD102R,0.2228X0.0009*%
%ADD103R,0.2246X0.0009*%
%ADD104R,0.2273X0.0009*%
%ADD105R,0.2300X0.0009*%
%ADD106R,0.2345X0.0009*%
%ADD107R,0.2400X0.0009*%
%ADD108R,0.3233X0.0009*%
%ADD109R,0.3224X0.0009*%
%ADD110R,0.3206X0.0009*%
%ADD111R,0.3187X0.0009*%
%ADD112R,0.3169X0.0009*%
%ADD113R,0.3160X0.0009*%
%ADD114R,0.3142X0.0009*%
%ADD115R,0.3124X0.0009*%
%ADD116R,0.3106X0.0009*%
%ADD117R,0.3088X0.0009*%
%ADD118R,0.3079X0.0009*%
%ADD119R,0.3061X0.0009*%
%ADD120R,0.3043X0.0009*%
%ADD121R,0.3033X0.0009*%
%ADD122R,0.3015X0.0009*%
%ADD123R,0.2997X0.0009*%
%ADD124R,0.2979X0.0009*%
%ADD125R,0.2970X0.0009*%
%ADD126R,0.2952X0.0009*%
%ADD127R,0.2943X0.0009*%
%ADD128R,0.2925X0.0009*%
%ADD129R,0.2907X0.0009*%
%ADD130R,0.2898X0.0009*%
%ADD131R,0.2870X0.0009*%
%ADD132R,0.2861X0.0009*%
%ADD133R,0.2852X0.0009*%
%ADD134R,0.2834X0.0009*%
%ADD135R,0.2825X0.0009*%
%ADD136R,0.2798X0.0009*%
%ADD137R,0.2789X0.0009*%
%ADD138R,0.2771X0.0009*%
%ADD139R,0.2762X0.0009*%
%ADD140R,0.2735X0.0009*%
%ADD141R,0.2726X0.0009*%
%ADD142R,0.2717X0.0009*%
%ADD143R,0.2689X0.0009*%
%ADD144R,0.2680X0.0009*%
%ADD145R,0.2662X0.0009*%
%ADD146R,0.2644X0.0009*%
%ADD147R,0.2635X0.0009*%
%ADD148R,0.2617X0.0009*%
%ADD149R,0.2599X0.0009*%
%ADD150R,0.2581X0.0009*%
%ADD151R,0.2563X0.0009*%
%ADD152R,0.2544X0.0009*%
%ADD153R,0.2526X0.0009*%
%ADD154R,0.2517X0.0009*%
%ADD155R,0.2490X0.0009*%
%ADD156R,0.2472X0.0009*%
%ADD157R,0.2454X0.0009*%
%ADD158R,0.2436X0.0009*%
%ADD159R,0.2409X0.0009*%
%ADD160R,0.2372X0.0009*%
%ADD161R,0.2354X0.0009*%
%ADD162R,0.2327X0.0009*%
%ADD163R,0.2309X0.0009*%
%ADD164R,0.2291X0.0009*%
%ADD165R,0.2264X0.0009*%
%ADD166R,0.2219X0.0009*%
%ADD167R,0.2146X0.0009*%
%ADD168R,0.2137X0.0009*%
%ADD169R,0.2128X0.0009*%
%ADD170R,0.2119X0.0009*%
%ADD171R,0.2101X0.0009*%
%ADD172R,0.2092X0.0009*%
%ADD173R,0.2083X0.0009*%
%ADD174R,0.2056X0.0009*%
%ADD175R,0.1720X0.0009*%
%ADD176R,0.1675X0.0009*%
%ADD177R,0.1621X0.0009*%
%ADD178R,0.1567X0.0009*%
%ADD179R,0.1449X0.0009*%
%ADD180R,0.1376X0.0009*%
%ADD181R,0.1304X0.0009*%
%ADD182R,0.1231X0.0009*%
%ADD183R,0.1150X0.0009*%
%ADD184R,0.1059X0.0009*%
%ADD185R,0.0969X0.0009*%
%ADD186R,0.0851X0.0009*%
%ADD187R,0.0018X0.0009*%
%ADD188R,0.0127X0.0009*%
%ADD189R,0.0091X0.0009*%
%ADD190R,0.0072X0.0009*%
%ADD191R,0.0054X0.0009*%
%ADD192R,0.0036X0.0009*%
%ADD193R,0.0009X0.0009*%
D10*
X000150Y000150D02*
X000150Y019835D01*
X019835Y019835D01*
X019835Y000150D01*
X000150Y000150D01*
D11*
X010888Y014400D02*
X010890Y014445D01*
X010896Y014489D01*
X010905Y014533D01*
X010919Y014575D01*
X010936Y014616D01*
X010957Y014656D01*
X010981Y014694D01*
X011008Y014729D01*
X011038Y014762D01*
X011071Y014792D01*
X011106Y014819D01*
X011144Y014843D01*
X011184Y014864D01*
X011225Y014881D01*
X011267Y014895D01*
X011311Y014904D01*
X011355Y014910D01*
X011400Y014912D01*
X011445Y014910D01*
X011489Y014904D01*
X011533Y014895D01*
X011575Y014881D01*
X011616Y014864D01*
X011656Y014843D01*
X011694Y014819D01*
X011729Y014792D01*
X011762Y014762D01*
X011792Y014729D01*
X011819Y014694D01*
X011843Y014656D01*
X011864Y014616D01*
X011881Y014575D01*
X011895Y014533D01*
X011904Y014489D01*
X011910Y014445D01*
X011912Y014400D01*
X011910Y014355D01*
X011904Y014311D01*
X011895Y014267D01*
X011881Y014225D01*
X011864Y014184D01*
X011843Y014144D01*
X011819Y014106D01*
X011792Y014071D01*
X011762Y014038D01*
X011729Y014008D01*
X011694Y013981D01*
X011656Y013957D01*
X011616Y013936D01*
X011575Y013919D01*
X011533Y013905D01*
X011489Y013896D01*
X011445Y013890D01*
X011400Y013888D01*
X011355Y013890D01*
X011311Y013896D01*
X011267Y013905D01*
X011225Y013919D01*
X011184Y013936D01*
X011144Y013957D01*
X011106Y013981D01*
X011071Y014008D01*
X011038Y014038D01*
X011008Y014071D01*
X010981Y014106D01*
X010957Y014144D01*
X010936Y014184D01*
X010919Y014225D01*
X010905Y014267D01*
X010896Y014311D01*
X010890Y014355D01*
X010888Y014400D01*
D12*
X010426Y014668D03*
X009684Y015230D03*
X011920Y015230D03*
X012663Y014668D03*
D13*
X011581Y014668D03*
X009815Y017493D03*
X010476Y017620D03*
D14*
X010431Y017566D03*
X009851Y017457D03*
X009145Y016135D03*
X009199Y015148D03*
X009208Y015139D03*
X009245Y014913D03*
X009236Y014894D03*
X009227Y014885D03*
X009227Y014876D03*
X009218Y014867D03*
X009208Y014858D03*
X009208Y014849D03*
X009199Y014840D03*
X009190Y014822D03*
X009181Y014813D03*
X009172Y014795D03*
X009163Y014786D03*
X009154Y014768D03*
X009136Y014741D03*
X009462Y014894D03*
X009716Y015175D03*
X009716Y015184D03*
X009897Y015039D03*
X009897Y015030D03*
X010186Y015030D03*
X010186Y014813D03*
X010186Y014804D03*
X010422Y014677D03*
X010521Y014894D03*
X010512Y014904D03*
X010494Y015130D03*
X010929Y014695D03*
X010929Y014686D03*
X011355Y014831D03*
X011355Y015076D03*
X011355Y015085D03*
X011708Y015103D03*
X011717Y015094D03*
X011952Y015175D03*
X011952Y015184D03*
X012133Y015039D03*
X012133Y015030D03*
X012423Y015030D03*
X012432Y015130D03*
X012731Y015130D03*
X012749Y014904D03*
X012758Y014894D03*
X012767Y014786D03*
X012658Y014677D03*
X012423Y014813D03*
X012975Y014704D03*
X012975Y014695D03*
X012984Y014722D03*
X012994Y014750D03*
X013003Y014777D03*
X013012Y014804D03*
X013030Y014849D03*
X013528Y014722D03*
X013537Y014695D03*
X013256Y015438D03*
X011717Y014822D03*
X011708Y014813D03*
D15*
X011721Y014831D03*
X011730Y014849D03*
X011576Y014677D03*
X011350Y014840D03*
X011350Y014849D03*
X011350Y015067D03*
X011721Y015085D03*
X011948Y015193D03*
X012138Y015021D03*
X012138Y015012D03*
X012138Y015003D03*
X012419Y015039D03*
X012419Y015112D03*
X012419Y015121D03*
X012419Y014822D03*
X012772Y014795D03*
X012980Y014713D03*
X012989Y014731D03*
X012989Y014741D03*
X012998Y014759D03*
X012998Y014768D03*
X013007Y014786D03*
X013007Y014795D03*
X013016Y014813D03*
X013016Y014822D03*
X013025Y014831D03*
X013025Y014840D03*
X013080Y014985D03*
X013080Y014994D03*
X013089Y015012D03*
X013089Y015021D03*
X013098Y015039D03*
X013107Y015057D03*
X013107Y015067D03*
X013116Y015085D03*
X013116Y015094D03*
X013125Y015112D03*
X013134Y015139D03*
X013143Y015166D03*
X013152Y015193D03*
X013406Y015057D03*
X013415Y015030D03*
X013433Y014985D03*
X013478Y014849D03*
X013487Y014840D03*
X013487Y014831D03*
X013487Y014822D03*
X013496Y014813D03*
X013496Y014804D03*
X013505Y014786D03*
X013505Y014777D03*
X013514Y014768D03*
X013514Y014759D03*
X013514Y014750D03*
X013523Y014741D03*
X013523Y014731D03*
X013532Y014713D03*
X013532Y014704D03*
X013541Y014686D03*
X012971Y014686D03*
X012744Y015121D03*
X010508Y015121D03*
X010182Y015121D03*
X009901Y015021D03*
X009901Y015012D03*
X009901Y015003D03*
X009711Y015193D03*
X009467Y014885D03*
X009240Y014904D03*
X009304Y015048D03*
X009294Y015057D03*
X009285Y015067D03*
X009276Y015076D03*
X009267Y015085D03*
X009258Y015094D03*
X009249Y015103D03*
X009240Y015112D03*
X009231Y015121D03*
X009222Y015130D03*
X010182Y014822D03*
X010526Y014786D03*
X010435Y017575D03*
D16*
X009883Y017421D03*
X011585Y015220D03*
X011377Y015121D03*
X012111Y015085D03*
X012446Y014777D03*
X012663Y014686D03*
X013252Y015374D03*
X013252Y015383D03*
X010209Y014777D03*
X009874Y015085D03*
D17*
X009906Y014994D03*
X009906Y014985D03*
X009906Y014976D03*
X009906Y014967D03*
X009906Y014958D03*
X009906Y014949D03*
X009906Y014940D03*
X009906Y014931D03*
X009906Y014922D03*
X009906Y014913D03*
X009906Y014904D03*
X009906Y014894D03*
X009906Y014885D03*
X009906Y014876D03*
X009906Y014867D03*
X009906Y014858D03*
X009906Y014849D03*
X009906Y014840D03*
X009906Y014831D03*
X009906Y014822D03*
X009906Y014813D03*
X009906Y014804D03*
X009906Y014795D03*
X009906Y014786D03*
X009906Y014777D03*
X009906Y014768D03*
X009906Y014759D03*
X009906Y014750D03*
X009906Y014741D03*
X009906Y014731D03*
X009906Y014722D03*
X009906Y014713D03*
X009906Y014704D03*
X009906Y014695D03*
X009906Y014686D03*
X010159Y014686D03*
X010177Y014831D03*
X010177Y014840D03*
X010177Y014849D03*
X010177Y014858D03*
X010177Y015039D03*
X010177Y015048D03*
X010177Y015103D03*
X010177Y015112D03*
X010512Y015112D03*
X010521Y015094D03*
X010521Y015085D03*
X010531Y014885D03*
X010531Y014876D03*
X010540Y014858D03*
X010540Y014849D03*
X010540Y014822D03*
X010540Y014813D03*
X010540Y014804D03*
X010531Y014795D03*
X010739Y015211D03*
X011074Y015085D03*
X011074Y015076D03*
X011065Y015057D03*
X011065Y015048D03*
X011056Y015021D03*
X011047Y015003D03*
X011047Y014994D03*
X011083Y015103D03*
X011083Y015112D03*
X011092Y015130D03*
X011092Y015139D03*
X011092Y015148D03*
X011101Y015157D03*
X011101Y015166D03*
X011101Y015175D03*
X011110Y015184D03*
X011110Y015193D03*
X011110Y015202D03*
X011119Y015211D03*
X011119Y015220D03*
X011119Y015230D03*
X011345Y015057D03*
X011345Y015048D03*
X011345Y015039D03*
X011345Y014876D03*
X011345Y014867D03*
X011345Y014858D03*
X011726Y014840D03*
X011735Y014858D03*
X011735Y014867D03*
X011744Y014885D03*
X011744Y014894D03*
X011744Y015021D03*
X011744Y015030D03*
X011744Y015039D03*
X011735Y015048D03*
X011735Y015057D03*
X011735Y015067D03*
X011726Y015076D03*
X011943Y015202D03*
X012142Y014994D03*
X012142Y014985D03*
X012142Y014976D03*
X012142Y014967D03*
X012142Y014958D03*
X012142Y014949D03*
X012142Y014940D03*
X012142Y014931D03*
X012142Y014922D03*
X012142Y014913D03*
X012142Y014904D03*
X012142Y014894D03*
X012142Y014885D03*
X012142Y014876D03*
X012142Y014867D03*
X012142Y014858D03*
X012142Y014849D03*
X012142Y014840D03*
X012142Y014831D03*
X012142Y014822D03*
X012142Y014813D03*
X012142Y014804D03*
X012142Y014795D03*
X012142Y014786D03*
X012142Y014777D03*
X012142Y014768D03*
X012142Y014759D03*
X012142Y014750D03*
X012142Y014741D03*
X012142Y014731D03*
X012142Y014722D03*
X012142Y014713D03*
X012142Y014704D03*
X012142Y014695D03*
X012396Y014686D03*
X012414Y014831D03*
X012414Y014840D03*
X012414Y014849D03*
X012414Y014858D03*
X012414Y015048D03*
X012414Y015094D03*
X012414Y015103D03*
X012749Y015112D03*
X012758Y015094D03*
X012758Y015085D03*
X012767Y014885D03*
X012767Y014876D03*
X012776Y014867D03*
X012776Y014858D03*
X012776Y014822D03*
X012776Y014813D03*
X012776Y014804D03*
X013084Y015003D03*
X013093Y015030D03*
X013102Y015048D03*
X013111Y015076D03*
X013120Y015103D03*
X013129Y015121D03*
X013129Y015130D03*
X013138Y015148D03*
X013138Y015157D03*
X013147Y015175D03*
X013147Y015184D03*
X013156Y015202D03*
X013156Y015211D03*
X013166Y015220D03*
X013166Y015230D03*
X013166Y015239D03*
X013338Y015239D03*
X013347Y015220D03*
X013347Y015211D03*
X013356Y015193D03*
X013356Y015184D03*
X013365Y015175D03*
X013365Y015166D03*
X013365Y015157D03*
X013374Y015148D03*
X013374Y015139D03*
X013383Y015130D03*
X013383Y015121D03*
X013383Y015112D03*
X013392Y015103D03*
X013392Y015094D03*
X013392Y015085D03*
X013401Y015076D03*
X013401Y015067D03*
X013410Y015048D03*
X013410Y015039D03*
X013419Y015021D03*
X013419Y015012D03*
X013428Y015003D03*
X013428Y014994D03*
X013501Y014795D03*
X009842Y017466D03*
X009706Y015202D03*
X009471Y014876D03*
D18*
X009476Y014867D03*
X009476Y014858D03*
X009476Y014849D03*
X009476Y014840D03*
X009476Y014831D03*
X009476Y014822D03*
X009476Y014813D03*
X009476Y014804D03*
X009476Y014795D03*
X009476Y014786D03*
X009476Y014777D03*
X009476Y014768D03*
X009476Y014759D03*
X009476Y014750D03*
X009476Y014741D03*
X009476Y014731D03*
X009476Y014722D03*
X009476Y014713D03*
X009476Y014704D03*
X009476Y014695D03*
X009476Y014686D03*
X009476Y015048D03*
X009476Y015057D03*
X009476Y015067D03*
X009476Y015076D03*
X009476Y015085D03*
X009476Y015094D03*
X009476Y015103D03*
X009476Y015112D03*
X009476Y015121D03*
X009476Y015130D03*
X009476Y015139D03*
X009476Y015148D03*
X009476Y015157D03*
X009476Y015166D03*
X009476Y015175D03*
X009476Y015184D03*
X009476Y015193D03*
X009476Y015202D03*
X009476Y015211D03*
X009476Y015220D03*
X009476Y015230D03*
X009476Y015239D03*
X009476Y015248D03*
X009476Y015257D03*
X009476Y015266D03*
X009476Y015275D03*
X009476Y015284D03*
X009476Y015293D03*
X009476Y015302D03*
X009476Y015311D03*
X009476Y015320D03*
X009476Y015329D03*
X009476Y015338D03*
X009476Y015347D03*
X009476Y015356D03*
X009476Y015365D03*
X009476Y015374D03*
X009476Y015383D03*
X009476Y015393D03*
X009476Y015402D03*
X009476Y015411D03*
X009476Y015420D03*
X009476Y015429D03*
X009476Y015438D03*
X009910Y015220D03*
X009910Y015211D03*
X009910Y015202D03*
X009910Y015193D03*
X009910Y015184D03*
X009910Y015175D03*
X009910Y015166D03*
X009910Y015157D03*
X009910Y015148D03*
X010173Y015094D03*
X010173Y015085D03*
X010173Y015076D03*
X010173Y015067D03*
X010173Y015057D03*
X010173Y014931D03*
X010173Y014922D03*
X010173Y014913D03*
X010173Y014904D03*
X010173Y014894D03*
X010173Y014885D03*
X010173Y014876D03*
X010173Y014867D03*
X010164Y014713D03*
X010164Y014704D03*
X010164Y014695D03*
X010544Y014831D03*
X010544Y014840D03*
X010535Y014867D03*
X010526Y015067D03*
X010526Y015076D03*
X010517Y015103D03*
X010743Y015193D03*
X010743Y015202D03*
X010752Y015184D03*
X010752Y015175D03*
X010752Y015166D03*
X010761Y015148D03*
X010761Y015139D03*
X010770Y015121D03*
X010770Y015112D03*
X010780Y015094D03*
X010780Y015085D03*
X010789Y015067D03*
X010789Y015057D03*
X010798Y015039D03*
X010798Y015030D03*
X010807Y015003D03*
X010816Y014976D03*
X010825Y014949D03*
X011006Y014885D03*
X011006Y014876D03*
X011015Y014894D03*
X011015Y014904D03*
X011015Y014913D03*
X011024Y014922D03*
X011024Y014931D03*
X011024Y014940D03*
X011033Y014949D03*
X011033Y014958D03*
X011033Y014967D03*
X011042Y014976D03*
X011042Y014985D03*
X011051Y015012D03*
X011060Y015030D03*
X011060Y015039D03*
X011069Y015067D03*
X011078Y015094D03*
X011087Y015121D03*
X011341Y015184D03*
X011341Y015193D03*
X011341Y015202D03*
X011341Y015211D03*
X011341Y015220D03*
X011341Y015230D03*
X011341Y015239D03*
X011341Y015248D03*
X011341Y015257D03*
X011341Y015266D03*
X011341Y015275D03*
X011341Y015284D03*
X011341Y015293D03*
X011341Y015302D03*
X011341Y015311D03*
X011341Y015320D03*
X011341Y015329D03*
X011341Y015338D03*
X011341Y015347D03*
X011341Y015356D03*
X011341Y015365D03*
X011341Y015374D03*
X011341Y015383D03*
X011341Y015393D03*
X011341Y015402D03*
X011341Y015411D03*
X011341Y015420D03*
X011341Y015429D03*
X011341Y015438D03*
X011341Y015030D03*
X011341Y015021D03*
X011341Y015012D03*
X011341Y015003D03*
X011341Y014994D03*
X011341Y014985D03*
X011341Y014931D03*
X011341Y014922D03*
X011341Y014913D03*
X011341Y014904D03*
X011341Y014894D03*
X011341Y014885D03*
X011739Y014876D03*
X011748Y014904D03*
X011748Y014913D03*
X011748Y014922D03*
X011748Y014931D03*
X011748Y014940D03*
X011748Y014949D03*
X011748Y014958D03*
X011748Y014967D03*
X011748Y014976D03*
X011748Y014985D03*
X011748Y014994D03*
X011748Y015003D03*
X011748Y015012D03*
X012147Y015148D03*
X012147Y015157D03*
X012147Y015166D03*
X012147Y015175D03*
X012147Y015184D03*
X012147Y015193D03*
X012147Y015202D03*
X012147Y015211D03*
X012147Y015220D03*
X012409Y015085D03*
X012409Y015076D03*
X012409Y015067D03*
X012409Y015057D03*
X012409Y014931D03*
X012409Y014922D03*
X012409Y014913D03*
X012409Y014904D03*
X012409Y014894D03*
X012409Y014885D03*
X012409Y014876D03*
X012409Y014867D03*
X012400Y014713D03*
X012400Y014704D03*
X012400Y014695D03*
X012781Y014831D03*
X012781Y014840D03*
X012781Y014849D03*
X012763Y015067D03*
X012763Y015076D03*
X012754Y015103D03*
X013342Y015230D03*
X013351Y015202D03*
X012147Y014686D03*
X010734Y015220D03*
X010734Y015230D03*
X009131Y016126D03*
X010444Y017584D03*
X010454Y017593D03*
D19*
X010417Y017548D03*
X009874Y017430D03*
X010336Y015239D03*
X009883Y015067D03*
X010200Y014786D03*
X011368Y014804D03*
X011576Y014686D03*
X011368Y015112D03*
X012437Y014786D03*
X012735Y014913D03*
X012572Y015239D03*
X013252Y015402D03*
X013252Y015411D03*
D20*
X011934Y015211D03*
X011336Y014976D03*
X011336Y014967D03*
X011336Y014958D03*
X011336Y014949D03*
X011336Y014940D03*
X011336Y014731D03*
X011336Y014722D03*
X011336Y014713D03*
X011336Y014704D03*
X011336Y014695D03*
X011336Y014686D03*
X010847Y014876D03*
X010847Y014885D03*
X010838Y014894D03*
X010838Y014904D03*
X010838Y014913D03*
X010829Y014922D03*
X010829Y014931D03*
X010829Y014940D03*
X010820Y014958D03*
X010820Y014967D03*
X010811Y014985D03*
X010811Y014994D03*
X010802Y015012D03*
X010802Y015021D03*
X010793Y015048D03*
X010784Y015076D03*
X010775Y015103D03*
X010766Y015130D03*
X010757Y015157D03*
X009697Y015211D03*
X009833Y017475D03*
D21*
X009888Y017412D03*
X009897Y017403D03*
X010395Y017520D03*
X010214Y015012D03*
X010422Y014686D03*
X010929Y014759D03*
X010929Y014768D03*
X010929Y014777D03*
X011671Y015130D03*
X012450Y015012D03*
X013256Y015365D03*
D22*
X013252Y015420D03*
X013252Y015429D03*
X012754Y014777D03*
X012428Y014804D03*
X012129Y015048D03*
X011957Y015166D03*
X011703Y015112D03*
X011585Y015230D03*
X011359Y015094D03*
X011359Y014822D03*
X011359Y014813D03*
X011694Y014795D03*
X011703Y014804D03*
X010517Y014777D03*
X010191Y014795D03*
X010191Y015130D03*
X009892Y015048D03*
X009720Y015166D03*
X009457Y014904D03*
X009195Y014831D03*
X009177Y014804D03*
X009159Y014777D03*
X009150Y014759D03*
X009141Y014750D03*
X009131Y014731D03*
X009122Y014722D03*
X009122Y014713D03*
X009113Y014704D03*
X009104Y014695D03*
X009104Y014686D03*
X009195Y015157D03*
X009186Y015166D03*
X009177Y015175D03*
X009168Y015184D03*
X009159Y015193D03*
X009150Y015202D03*
X009141Y015211D03*
X009131Y015220D03*
X009122Y015230D03*
X009856Y017448D03*
D23*
X009924Y017367D03*
X009933Y017357D03*
X010368Y017475D03*
X010331Y015230D03*
X010422Y014695D03*
X010929Y014813D03*
X010929Y014822D03*
X010929Y014831D03*
X011581Y014704D03*
X012568Y015230D03*
X012658Y014695D03*
X013501Y015601D03*
D24*
X013252Y015356D03*
X013252Y015347D03*
X012102Y015094D03*
X011576Y014695D03*
X011386Y014786D03*
X009865Y015094D03*
X009168Y016153D03*
X010390Y017511D03*
D25*
X010349Y017439D03*
X010340Y017430D03*
X010331Y017412D03*
X009969Y017303D03*
X009960Y017312D03*
X009960Y017321D03*
X009951Y017330D03*
X009199Y016171D03*
X009842Y015103D03*
X010422Y014704D03*
X010929Y014840D03*
X010929Y014849D03*
X010929Y014858D03*
X011581Y014713D03*
X012079Y015103D03*
X012658Y014704D03*
X013256Y015293D03*
D26*
X012722Y015139D03*
X012441Y015139D03*
X012432Y015021D03*
X012432Y014795D03*
X012124Y015057D03*
X012124Y015067D03*
X011961Y015148D03*
X011961Y015157D03*
X011690Y015121D03*
X011364Y015103D03*
X010929Y014722D03*
X010929Y014713D03*
X010929Y014704D03*
X010485Y015139D03*
X010205Y015139D03*
X010195Y015021D03*
X009888Y015057D03*
X009725Y015148D03*
X009725Y015157D03*
X009453Y014913D03*
X009869Y017439D03*
X010422Y017557D03*
D27*
X010137Y017104D03*
X010137Y017095D03*
X010336Y015220D03*
X010254Y015003D03*
X010417Y014713D03*
X009394Y015030D03*
X011585Y015184D03*
X012491Y015003D03*
X012572Y015220D03*
X012654Y014713D03*
X013252Y015257D03*
D28*
X012577Y014940D03*
X012577Y014722D03*
X011961Y015628D03*
X011508Y015175D03*
X010829Y015800D03*
X010340Y014940D03*
X009417Y016334D03*
D29*
X009208Y016180D03*
X010277Y017312D03*
X010286Y017321D03*
X010286Y017330D03*
X010295Y017339D03*
X010295Y017348D03*
X010304Y017357D03*
X010304Y017367D03*
X010313Y017376D03*
X010313Y017385D03*
X010322Y017394D03*
X011182Y017231D03*
X013256Y015266D03*
X012677Y014931D03*
X011581Y014722D03*
X010929Y014867D03*
D30*
X011513Y014750D03*
X011513Y014741D03*
X011513Y015166D03*
X010825Y015791D03*
X010345Y014741D03*
X010336Y014722D03*
X009430Y016343D03*
X010128Y017222D03*
X012581Y014731D03*
D31*
X013256Y015248D03*
X011970Y015583D03*
X011581Y014731D03*
X009390Y015012D03*
X009390Y015021D03*
X009390Y015039D03*
X009227Y016189D03*
D32*
X009154Y016144D03*
X009879Y015076D03*
X010494Y014913D03*
X010929Y014750D03*
X010929Y014741D03*
X010929Y014731D03*
X011373Y014795D03*
X011681Y014786D03*
X012115Y015076D03*
X013256Y015393D03*
X010413Y017539D03*
X010404Y017530D03*
D33*
X010132Y017231D03*
X010856Y015999D03*
X010847Y015981D03*
X010838Y015963D03*
X010820Y015782D03*
X010811Y015773D03*
X011518Y015157D03*
X011518Y014759D03*
X011961Y015637D03*
X011961Y015646D03*
X012332Y016316D03*
X013292Y015646D03*
X012586Y014750D03*
X012586Y014741D03*
X010349Y014750D03*
X010340Y014731D03*
D34*
X010354Y014759D03*
X010354Y014768D03*
X010734Y015673D03*
X010807Y015764D03*
X010825Y015872D03*
X010843Y015972D03*
X010852Y015990D03*
X010861Y016008D03*
X010861Y016017D03*
X010870Y016026D03*
X010870Y016035D03*
X011857Y015981D03*
X011857Y015972D03*
X012346Y016289D03*
X012346Y016298D03*
X012337Y016307D03*
X012355Y016280D03*
X011522Y015148D03*
X011522Y015139D03*
X011522Y014777D03*
X011522Y014768D03*
X012591Y014768D03*
X012591Y014759D03*
X010128Y017240D03*
X009448Y016352D03*
D35*
X009906Y017394D03*
X010386Y017502D03*
X011970Y015574D03*
X011590Y015211D03*
X011391Y015130D03*
X010929Y014804D03*
X010929Y014795D03*
X010929Y014786D03*
X010467Y014922D03*
X012704Y014922D03*
X013256Y015338D03*
D36*
X013111Y015709D03*
X013093Y015719D03*
X012613Y016008D03*
X012586Y016035D03*
X011780Y016108D03*
X010775Y015909D03*
X013256Y014858D03*
D37*
X013252Y014867D03*
X013252Y014876D03*
X013134Y015700D03*
X012572Y016044D03*
X012563Y016054D03*
X012554Y016063D03*
X011866Y015800D03*
X011911Y015673D03*
X011785Y016099D03*
X009539Y016398D03*
D38*
X010784Y015900D03*
X010793Y015936D03*
X010911Y016090D03*
X011871Y015809D03*
X012514Y016099D03*
X012523Y016090D03*
X012532Y016081D03*
X012541Y016072D03*
X013256Y014885D03*
D39*
X013252Y014894D03*
X013161Y015691D03*
X011875Y015818D03*
X011875Y015827D03*
X011794Y016090D03*
X010128Y017294D03*
D40*
X010123Y017285D03*
X009516Y016389D03*
X010793Y015891D03*
X010902Y016081D03*
X011798Y016081D03*
X011807Y016072D03*
X012468Y016144D03*
X012477Y016135D03*
X012486Y016126D03*
X012495Y016117D03*
X012505Y016108D03*
X013184Y015682D03*
X013256Y014913D03*
X013256Y014904D03*
D41*
X013252Y014922D03*
X012464Y016153D03*
X012455Y016162D03*
X011812Y016063D03*
X011875Y015845D03*
X011875Y015836D03*
X010128Y017276D03*
D42*
X010137Y017149D03*
X009276Y016226D03*
X009358Y014922D03*
X011966Y015592D03*
D43*
X011880Y015854D03*
X011816Y016054D03*
X012432Y016180D03*
X012441Y016171D03*
X013211Y015673D03*
X013256Y014931D03*
X010893Y016072D03*
X011192Y017222D03*
D44*
X010336Y017421D03*
X010327Y017403D03*
X010272Y017303D03*
X011585Y015193D03*
X010435Y014931D03*
X013252Y015275D03*
X013252Y015284D03*
D45*
X012577Y015202D03*
X010340Y015202D03*
X009362Y014940D03*
X009362Y014931D03*
X009263Y016217D03*
D46*
X009494Y016380D03*
X010128Y017267D03*
X010888Y016063D03*
X010807Y015881D03*
X010780Y015719D03*
X010770Y015709D03*
X010761Y015700D03*
X011821Y016044D03*
X011830Y016035D03*
X011875Y015881D03*
X011875Y015872D03*
X011875Y015863D03*
X012409Y016207D03*
X012419Y016198D03*
X012428Y016189D03*
X013233Y015664D03*
X013252Y014940D03*
D47*
X013256Y014949D03*
X013256Y014958D03*
X012405Y016217D03*
X012396Y016226D03*
X011834Y016026D03*
X011871Y015909D03*
X011871Y015900D03*
X011871Y015891D03*
X010820Y015945D03*
X010784Y015728D03*
X010757Y015691D03*
X010748Y015682D03*
X009480Y016370D03*
X010123Y017258D03*
D48*
X010128Y017213D03*
X009403Y016325D03*
X010843Y015863D03*
X010834Y015809D03*
X010336Y014949D03*
X012572Y014949D03*
X013324Y015637D03*
D49*
X012518Y014994D03*
X010281Y014994D03*
X009367Y014949D03*
X010137Y017140D03*
D50*
X009367Y016298D03*
X010345Y015157D03*
X010327Y014958D03*
X010843Y015827D03*
X012581Y015157D03*
X012563Y014958D03*
D51*
X012043Y015112D03*
X012043Y015121D03*
X012043Y015130D03*
X012043Y015139D03*
X010132Y017131D03*
X009254Y016207D03*
X009806Y015139D03*
X009806Y015130D03*
X009806Y015121D03*
X009806Y015112D03*
X009371Y014967D03*
X009371Y014958D03*
D52*
X010789Y015737D03*
X010798Y015746D03*
X010879Y016054D03*
X011839Y016017D03*
X011866Y015936D03*
X011866Y015927D03*
X011866Y015918D03*
X012373Y016253D03*
X012382Y016244D03*
X012391Y016235D03*
X013261Y015655D03*
X013252Y014967D03*
X010128Y017249D03*
D53*
X010132Y017194D03*
X009362Y016289D03*
X010340Y015166D03*
X010322Y014967D03*
X010847Y015836D03*
X010856Y015854D03*
X011961Y015610D03*
X012577Y015166D03*
X012559Y014967D03*
D54*
X013256Y014976D03*
X011961Y015655D03*
X011961Y015664D03*
X011862Y015945D03*
X011862Y015954D03*
X011862Y015963D03*
X011853Y015990D03*
X011853Y015999D03*
X011844Y016008D03*
X012360Y016271D03*
X012369Y016262D03*
X010875Y016044D03*
X010829Y015954D03*
X010802Y015755D03*
X009462Y016361D03*
D55*
X009326Y016262D03*
X009317Y016253D03*
X010132Y017176D03*
X010340Y015175D03*
X010313Y014976D03*
X012550Y014976D03*
X012577Y015175D03*
D56*
X012572Y015211D03*
X010336Y015211D03*
X009376Y014976D03*
X010137Y017122D03*
D57*
X009304Y016244D03*
X010300Y014985D03*
X012536Y014985D03*
X013396Y015619D03*
D58*
X013446Y015610D03*
X009381Y014994D03*
X009381Y014985D03*
X009236Y016198D03*
D59*
X010137Y017113D03*
X009385Y015003D03*
D60*
X009639Y015103D03*
X011875Y015103D03*
D61*
X011961Y015619D03*
X012577Y015148D03*
X010838Y015818D03*
X010340Y015148D03*
X009381Y016307D03*
X009390Y016316D03*
X010132Y017204D03*
D62*
X010132Y017167D03*
X010340Y015184D03*
X012577Y015184D03*
D63*
X012577Y015193D03*
X010340Y015193D03*
X009290Y016235D03*
X010132Y017158D03*
D64*
X009946Y017339D03*
X009937Y017348D03*
X010354Y017448D03*
X010354Y017457D03*
X010363Y017466D03*
X011585Y015202D03*
X013252Y015302D03*
X013252Y015311D03*
D65*
X012147Y015230D03*
X011930Y015220D03*
X011975Y015565D03*
X011585Y015239D03*
X010571Y015655D03*
X009910Y015230D03*
X009693Y015220D03*
X010463Y017602D03*
D66*
X009113Y016117D03*
X009675Y015239D03*
X011911Y015239D03*
D67*
X010607Y015664D03*
X009186Y016162D03*
X009919Y017376D03*
X009910Y017385D03*
X010372Y017484D03*
X010381Y017493D03*
X013252Y015329D03*
X013252Y015320D03*
D68*
X011966Y015601D03*
D69*
X010852Y015845D03*
X010128Y017185D03*
X009349Y016280D03*
X009340Y016271D03*
X013360Y015628D03*
D70*
X012994Y015764D03*
X012975Y015773D03*
X012957Y015782D03*
X012939Y015791D03*
X012921Y015800D03*
X012858Y015836D03*
X012812Y015863D03*
X012785Y015881D03*
X012758Y015900D03*
X012749Y015909D03*
X012731Y015918D03*
X012722Y015927D03*
X011889Y015682D03*
X011753Y016144D03*
X010938Y016108D03*
D71*
X011871Y015691D03*
D72*
X011857Y015700D03*
X011848Y015746D03*
X010961Y016126D03*
X009602Y016416D03*
D73*
X011844Y015737D03*
X011844Y015728D03*
X011853Y015709D03*
D74*
X011848Y015719D03*
X010970Y016135D03*
D75*
X010924Y016099D03*
X010780Y015927D03*
X010770Y015918D03*
X011767Y016126D03*
X011776Y016117D03*
X011866Y015791D03*
X012591Y016026D03*
X012600Y016017D03*
X012627Y015999D03*
X012636Y015990D03*
X013070Y015728D03*
D76*
X013048Y015737D03*
X013030Y015746D03*
X012658Y015972D03*
X012649Y015981D03*
D77*
X012672Y015963D03*
X012681Y015954D03*
X012699Y015945D03*
X012708Y015936D03*
X013007Y015755D03*
X011857Y015782D03*
X011757Y016135D03*
X009566Y016407D03*
D78*
X010952Y016117D03*
X011739Y016153D03*
X011848Y015755D03*
D79*
X011853Y015764D03*
D80*
X011857Y015773D03*
X012772Y015891D03*
X012799Y015872D03*
X012826Y015854D03*
X012844Y015845D03*
X012871Y015827D03*
X012889Y015818D03*
X012907Y015809D03*
D81*
X011178Y017213D03*
X010979Y016144D03*
D82*
X010992Y016153D03*
D83*
X011336Y016207D03*
X011345Y016171D03*
X011345Y016162D03*
D84*
X011341Y016180D03*
X011341Y016189D03*
X011341Y016198D03*
D85*
X011332Y016217D03*
D86*
X011327Y016226D03*
D87*
X011318Y016235D03*
X011173Y017131D03*
D88*
X011314Y016244D03*
D89*
X011305Y016253D03*
D90*
X011300Y016262D03*
D91*
X011287Y016271D03*
D92*
X011282Y016280D03*
D93*
X011273Y016289D03*
D94*
X011264Y016298D03*
D95*
X011255Y016307D03*
D96*
X011246Y016316D03*
D97*
X011495Y016325D03*
X011096Y017013D03*
D98*
X011101Y017004D03*
X011481Y016334D03*
D99*
X011468Y016343D03*
X011106Y016995D03*
D100*
X011110Y016986D03*
X011110Y016977D03*
X011454Y016352D03*
D101*
X011436Y016361D03*
D102*
X011427Y016370D03*
D103*
X011409Y016380D03*
X011101Y016959D03*
D104*
X011386Y016389D03*
D105*
X011364Y016398D03*
D106*
X011341Y016407D03*
D107*
X011305Y016416D03*
X011060Y016896D03*
D108*
X010879Y016425D03*
D109*
X010884Y016434D03*
D110*
X010884Y016443D03*
D111*
X010884Y016452D03*
D112*
X010884Y016461D03*
D113*
X010888Y016470D03*
D114*
X010888Y016479D03*
D115*
X010897Y016488D03*
D116*
X010897Y016497D03*
D117*
X010897Y016506D03*
D118*
X010902Y016515D03*
D119*
X010902Y016524D03*
D120*
X010902Y016533D03*
D121*
X010906Y016543D03*
D122*
X010906Y016552D03*
D123*
X010915Y016561D03*
D124*
X010915Y016570D03*
D125*
X010920Y016579D03*
D126*
X010920Y016588D03*
D127*
X010924Y016597D03*
D128*
X010924Y016606D03*
D129*
X010924Y016615D03*
D130*
X010929Y016624D03*
D131*
X010933Y016633D03*
D132*
X010938Y016642D03*
D133*
X010943Y016651D03*
D134*
X010943Y016660D03*
D135*
X010947Y016669D03*
D136*
X010952Y016678D03*
D137*
X010956Y016687D03*
D138*
X010956Y016696D03*
D139*
X010961Y016706D03*
D140*
X010965Y016715D03*
D141*
X010970Y016724D03*
D142*
X010974Y016733D03*
D143*
X010979Y016742D03*
D144*
X010983Y016751D03*
D145*
X010983Y016760D03*
D146*
X010992Y016769D03*
D147*
X010997Y016778D03*
D148*
X010997Y016787D03*
D149*
X011006Y016796D03*
D150*
X011006Y016805D03*
D151*
X011015Y016814D03*
D152*
X011015Y016823D03*
D153*
X011024Y016832D03*
D154*
X011029Y016841D03*
D155*
X011033Y016850D03*
D156*
X011042Y016859D03*
D157*
X011042Y016869D03*
D158*
X011051Y016878D03*
D159*
X011056Y016887D03*
D160*
X011065Y016905D03*
D161*
X011074Y016914D03*
D162*
X011078Y016923D03*
D163*
X011087Y016932D03*
D164*
X011087Y016941D03*
D165*
X011092Y016950D03*
D166*
X011106Y016968D03*
D167*
X011087Y017022D03*
D168*
X011083Y017031D03*
D169*
X011069Y017041D03*
D170*
X011065Y017050D03*
D171*
X011056Y017059D03*
D172*
X011042Y017068D03*
D173*
X011029Y017077D03*
D174*
X011015Y017086D03*
D175*
X011164Y017095D03*
D176*
X011169Y017104D03*
D177*
X011169Y017113D03*
D178*
X011169Y017122D03*
D179*
X011173Y017140D03*
D180*
X011173Y017149D03*
D181*
X011173Y017158D03*
D182*
X011173Y017167D03*
D183*
X011178Y017176D03*
D184*
X011178Y017185D03*
D185*
X011178Y017194D03*
D186*
X011182Y017204D03*
D187*
X010893Y017222D03*
X010521Y017665D03*
D188*
X010467Y017611D03*
X009824Y017484D03*
D189*
X009806Y017502D03*
X010485Y017629D03*
D190*
X010494Y017638D03*
X009797Y017511D03*
D191*
X009788Y017520D03*
X010503Y017647D03*
D192*
X010512Y017656D03*
X009779Y017530D03*
D193*
X009765Y017539D03*
M02*
