%
M48
M72
T01C0.0120
T02C0.0315
T03C0.0320
T04C0.0433
T05C0.0472
T06C0.0520
T07C0.0551
T08C0.1024
T09C0.1181
T10C0.1260
%
T01
X3398Y4520
X5583Y5465
X5878Y4756
X5642Y3693
X7178Y5465
X7709Y6351
X7237Y6882
X7768Y7119
X9894Y7414
X10071Y6646
X8630Y4815
X5170Y6587
X6823Y10485
X13260Y7827
X14619Y8004
T02
X13268Y9142
X10119Y9142
X17150Y8350
X18150Y7350
X17150Y6350
X19150Y6350
X19150Y8350
X7079Y1335
X3930Y1335
X1821Y4241
X1821Y5241
X1821Y6241
T03
X9150Y18150
X13150Y18150
T04
X13150Y4150
X13150Y3150
X13150Y2150
X13150Y1150
X12150Y1150
X12150Y2150
X12150Y3150
X12150Y4150
X11150Y4150
X11150Y3150
X11150Y2150
X11150Y1150
X10150Y1150
X10150Y2150
X10150Y3150
X10150Y4150
X9150Y4150
X9150Y3150
X9150Y2150
X9150Y1150
X14150Y1150
X14150Y2150
X14150Y3150
X14150Y4150
X15150Y4150
X15150Y3150
X15150Y2150
X15150Y1150
X16150Y1150
X16150Y2150
X16150Y3150
X16150Y4150
T05
X18200Y3700
X18200Y4700
X18400Y13100
X18400Y14100
X18400Y15100
X18400Y16100
X1638Y10670
X1638Y9670
X1638Y8670
T06
X18900Y9550
X18900Y10550
X18900Y11550
T07
X14353Y14400
X8447Y14400
T08
X11400Y14400
T09
X5557Y14439
X4376Y12589
X3235Y14439
T10
X1725Y1725
X1725Y18260
X18260Y18260
X18260Y1725
M30
