G75*
%MOIN*%
%OFA0B0*%
%FSLAX24Y24*%
%IPPOS*%
%LPD*%
%AMOC8*
5,1,8,0,0,1.08239X$1,22.5*
%
%ADD10C,0.0100*%
%ADD11C,0.0000*%
D10*
X000150Y000150D02*
X000150Y019835D01*
X019835Y019835D01*
X019835Y000150D01*
X000150Y000150D01*
D11*
X010888Y014400D02*
X010890Y014445D01*
X010896Y014489D01*
X010905Y014533D01*
X010919Y014575D01*
X010936Y014616D01*
X010957Y014656D01*
X010981Y014694D01*
X011008Y014729D01*
X011038Y014762D01*
X011071Y014792D01*
X011106Y014819D01*
X011144Y014843D01*
X011184Y014864D01*
X011225Y014881D01*
X011267Y014895D01*
X011311Y014904D01*
X011355Y014910D01*
X011400Y014912D01*
X011445Y014910D01*
X011489Y014904D01*
X011533Y014895D01*
X011575Y014881D01*
X011616Y014864D01*
X011656Y014843D01*
X011694Y014819D01*
X011729Y014792D01*
X011762Y014762D01*
X011792Y014729D01*
X011819Y014694D01*
X011843Y014656D01*
X011864Y014616D01*
X011881Y014575D01*
X011895Y014533D01*
X011904Y014489D01*
X011910Y014445D01*
X011912Y014400D01*
X011910Y014355D01*
X011904Y014311D01*
X011895Y014267D01*
X011881Y014225D01*
X011864Y014184D01*
X011843Y014144D01*
X011819Y014106D01*
X011792Y014071D01*
X011762Y014038D01*
X011729Y014008D01*
X011694Y013981D01*
X011656Y013957D01*
X011616Y013936D01*
X011575Y013919D01*
X011533Y013905D01*
X011489Y013896D01*
X011445Y013890D01*
X011400Y013888D01*
X011355Y013890D01*
X011311Y013896D01*
X011267Y013905D01*
X011225Y013919D01*
X011184Y013936D01*
X011144Y013957D01*
X011106Y013981D01*
X011071Y014008D01*
X011038Y014038D01*
X011008Y014071D01*
X010981Y014106D01*
X010957Y014144D01*
X010936Y014184D01*
X010919Y014225D01*
X010905Y014267D01*
X010896Y014311D01*
X010890Y014355D01*
X010888Y014400D01*
M02*
