G75*
%MOIN*%
%OFA0B0*%
%FSLAX24Y24*%
%IPPOS*%
%LPD*%
%AMOC8*
5,1,8,0,0,1.08239X$1,22.5*
%
%ADD10C,0.0100*%
%ADD11R,0.0638X0.0236*%
%ADD12R,0.0512X0.0433*%
%ADD13C,0.0472*%
%ADD14C,0.0630*%
%ADD15R,0.0472X0.0669*%
%ADD16C,0.0760*%
%ADD17C,0.0945*%
%ADD18C,0.0000*%
%ADD19C,0.1024*%
%ADD20C,0.1890*%
%ADD21R,0.0315X0.0315*%
%ADD22R,0.0433X0.0512*%
%ADD23OC8,0.0480*%
%ADD24C,0.0512*%
%ADD25R,0.1000X0.0500*%
%ADD26OC8,0.0850*%
%ADD27C,0.1969*%
D10*
X000150Y000150D02*
X000150Y019835D01*
X019835Y019835D01*
X019835Y000150D01*
X000150Y000150D01*
D11*
X004589Y005900D03*
X004589Y006400D03*
X004589Y006900D03*
X004589Y007400D03*
X006711Y007400D03*
X006711Y006900D03*
X006711Y006400D03*
X006711Y005900D03*
X009089Y005900D03*
X009089Y006400D03*
X009089Y006900D03*
X009089Y007400D03*
X011211Y007400D03*
X011211Y006900D03*
X011211Y006400D03*
X011211Y005900D03*
D12*
X006870Y004964D03*
X006870Y004216D03*
X005400Y004276D03*
X005400Y005024D03*
X003900Y005024D03*
X003900Y004276D03*
X003900Y003274D03*
X003900Y002526D03*
X005400Y002526D03*
X005400Y003274D03*
D13*
X001821Y004241D03*
X001821Y005241D03*
X001821Y006241D03*
D14*
X003930Y001335D03*
X007079Y001335D03*
X010119Y009142D03*
X013268Y009142D03*
D15*
X011241Y010650D03*
X010059Y010650D03*
X008741Y010650D03*
X007559Y010650D03*
X006241Y010650D03*
X005059Y010650D03*
X005059Y009150D03*
X006241Y009150D03*
X007559Y009150D03*
X008741Y009150D03*
D16*
X001638Y008670D03*
X001638Y009670D03*
X001638Y010670D03*
X018200Y004700D03*
X018200Y003700D03*
X018400Y013100D03*
X018400Y014100D03*
X018400Y015100D03*
X018400Y016100D03*
D17*
X014353Y014400D03*
X008447Y014400D03*
D18*
X010888Y014400D02*
X010890Y014445D01*
X010896Y014489D01*
X010905Y014533D01*
X010919Y014575D01*
X010936Y014616D01*
X010957Y014656D01*
X010981Y014694D01*
X011008Y014729D01*
X011038Y014762D01*
X011071Y014792D01*
X011106Y014819D01*
X011144Y014843D01*
X011184Y014864D01*
X011225Y014881D01*
X011267Y014895D01*
X011311Y014904D01*
X011355Y014910D01*
X011400Y014912D01*
X011445Y014910D01*
X011489Y014904D01*
X011533Y014895D01*
X011575Y014881D01*
X011616Y014864D01*
X011656Y014843D01*
X011694Y014819D01*
X011729Y014792D01*
X011762Y014762D01*
X011792Y014729D01*
X011819Y014694D01*
X011843Y014656D01*
X011864Y014616D01*
X011881Y014575D01*
X011895Y014533D01*
X011904Y014489D01*
X011910Y014445D01*
X011912Y014400D01*
X011910Y014355D01*
X011904Y014311D01*
X011895Y014267D01*
X011881Y014225D01*
X011864Y014184D01*
X011843Y014144D01*
X011819Y014106D01*
X011792Y014071D01*
X011762Y014038D01*
X011729Y014008D01*
X011694Y013981D01*
X011656Y013957D01*
X011616Y013936D01*
X011575Y013919D01*
X011533Y013905D01*
X011489Y013896D01*
X011445Y013890D01*
X011400Y013888D01*
X011355Y013890D01*
X011311Y013896D01*
X011267Y013905D01*
X011225Y013919D01*
X011184Y013936D01*
X011144Y013957D01*
X011106Y013981D01*
X011071Y014008D01*
X011038Y014038D01*
X011008Y014071D01*
X010981Y014106D01*
X010957Y014144D01*
X010936Y014184D01*
X010919Y014225D01*
X010905Y014267D01*
X010896Y014311D01*
X010890Y014355D01*
X010888Y014400D01*
D19*
X011400Y014400D03*
D20*
X005557Y014439D03*
X004376Y012589D03*
X003235Y014439D03*
D21*
X014875Y018270D03*
X015525Y018270D03*
D22*
X015524Y017275D03*
X014776Y017275D03*
D23*
X013150Y018150D03*
X009150Y018150D03*
D24*
X017150Y008350D03*
X018150Y007350D03*
X017150Y006350D03*
X019150Y006350D03*
X019150Y008350D03*
D25*
X014205Y007536D03*
X014205Y006536D03*
X014205Y005536D03*
D26*
X018900Y009550D03*
X018900Y010550D03*
X018900Y011550D03*
D27*
X018260Y018260D03*
X018260Y001725D03*
X001725Y001725D03*
X001725Y018260D03*
M02*
